M48
; DRILL file KiCad 10.0.6 date 2026-10-05T10:51:44
; FORMAT={-:-/ absolute / metric / decimal}
; #@! TF.CreationDate,2026-10-05T10:51:44-07:00
; #@! TF.GenerationSoftware,Kicad,Pcbnew,10.0.6
; #@! TF.FileFunction,Plated,1,4,PTH
FMAT,2
METRIC
; #@! TA.AperFunction,Plated,PTH,ComponentDrill
T1C0.200
; #@! TA.AperFunction,Plated,PTH,ViaDrill
T2C0.300
; #@! TA.AperFunction,Plated,PTH,ComponentDrill
T3C0.400
; #@! TA.AperFunction,Plated,PTH,ComponentDrill
T4C0.500
; #@! TA.AperFunction,Plated,PTH,ComponentDrill
T5C0.600
; #@! TA.AperFunction,Plated,PTH,ComponentDrill
T6C0.800
; #@! TA.AperFunction,Plated,PTH,ComponentDrill
T7C1.000
; #@! TA.AperFunction,Plated,PTH,ComponentDrill
T8C1.300
%
G90
G05
T1
X124.255Y-98.275
X124.255Y-99.525
X125.505Y-98.275
X125.505Y-99.525
T2
X101.75Y-90.7
X103.0Y-105.0
X103.0Y-110.0
X103.2Y-98.05
X103.2Y-98.9
X103.3Y-81.7
X103.3Y-82.7
X103.3Y-83.7
X103.3Y-84.7
X103.4Y-80.7
X103.4Y-85.7
X104.3Y-80.3
X104.3Y-85.9
X105.0Y-100.0
X105.2Y-53.95
X105.3Y-85.9
X105.95Y-99.15
X106.3Y-57.85
X106.3Y-85.9
X107.3Y-85.9
X108.2Y-72.15
X108.3Y-82.4
X108.3Y-84.0
X108.3Y-85.9
X108.4Y-76.3
X108.4Y-77.8
X108.557Y-94.533
X108.6Y-53.95
X109.25Y-77.05
X109.392Y-94.52
X109.75Y-86.9
X109.85Y-83.2
X110.0Y-73.5
X110.1Y-57.9
X110.2Y-85.25
X110.4Y-51.85
X110.712Y-77.8
X111.15Y-82.6
X111.25Y-51.7
X111.35Y-56.2
X111.4Y-98.45
X111.45Y-99.9
X111.5Y-77.05
X111.643Y-81.8
X112.45Y-74.7
X112.7Y-93.3
X112.7Y-94.55
X112.7Y-95.9
X113.4Y-93.9
X113.4Y-95.2
X113.4Y-96.55
X113.5Y-99.9
X113.597Y-74.7
X114.797Y-75.7
X114.8Y-74.6
X114.9Y-81.4
X115.0Y-98.7
X115.1Y-94.965
X115.1Y-95.85
X115.3Y-86.05
X115.3Y-86.9
X115.3Y-88.6
X115.4Y-73.45
X115.4Y-105.0
X115.4Y-110.0
X115.401Y-75.175
X115.55Y-72.65
X115.6Y-51.7
X115.6Y-56.2
X115.85Y-71.9
X115.95Y-92.665
X115.95Y-93.55
X116.4Y-68.45
X116.55Y-69.3
X116.7Y-79.6
X116.7Y-83.2
X116.775Y-75.825
X116.8Y-74.75
X116.85Y-76.951
X117.35Y-69.35
X117.5Y-56.6
X117.5Y-62.75
X117.5Y-70.2
X117.6Y-97.465
X117.7Y-73.75
X117.7Y-95.75
X117.704Y-96.672
X117.799Y-87.55
X118.0Y-53.4
X118.35Y-111.9
X118.35Y-112.95
X118.35Y-114.05
X118.5Y-81.4
X118.8Y-97.05
X119.1Y-75.4
X119.2Y-57.95
X119.2Y-76.2
X119.25Y-114.95
X119.6Y-99.5
X119.65Y-101.0
X119.75Y-51.7
X119.9Y-75.35
X120.1Y-62.65
X120.301Y-84.749
X120.6Y-98.5
X120.8Y-55.35
X120.8Y-57.65
X120.8Y-58.55
X120.95Y-86.3
X121.0Y-96.2
X121.006Y-78.256
X121.1Y-111.3
X121.474Y-82.876
X121.6Y-81.65
X121.65Y-101.0
X122.0Y-114.25
X122.0Y-117.75
X122.1Y-103.35
X122.252Y-82.687
X122.5Y-63.5
X122.5Y-64.9
X122.5Y-81.8
X122.55Y-84.25
X122.6Y-78.45
X123.15Y-97.5
X123.45Y-84.55
X123.5Y-105.9
X123.55Y-108.3
X123.55Y-110.95
X124.3Y-81.9
X124.65Y-78.35
X124.8Y-82.6
X125.35Y-60.2
X125.4Y-83.2
X125.5Y-69.0
X125.5Y-72.25
X125.575Y-78.375
X126.2Y-77.65
X126.255Y-100.332
X126.35Y-97.5
X126.7Y-108.8
X126.75Y-105.7
X126.75Y-110.45
X126.797Y-100.92
X127.0Y-114.25
X127.0Y-117.75
X127.1Y-104.15
X127.25Y-60.2
X127.95Y-113.85
X128.55Y-60.2
X128.75Y-114.6
X128.8Y-96.8
X129.35Y-99.05
X130.05Y-104.15
X130.45Y-60.2
X130.5Y-69.0
X130.5Y-72.25
X130.7Y-112.65
X130.8Y-76.3
X131.0Y-112.0
X131.05Y-104.8
X131.25Y-75.6
X131.25Y-77.05
X131.4Y-61.14
X131.85Y-111.2
X131.9Y-107.55
X131.95Y-108.8
X132.0Y-105.75
X133.05Y-63.3
X133.95Y-61.0
X134.2Y-65.2
X134.85Y-108.45
X135.0Y-98.25
X135.6Y-65.2
X136.3Y-73.75
X136.3Y-75.05
X136.3Y-76.55
X136.3Y-78.1
X136.3Y-79.35
X136.3Y-80.6
X136.3Y-81.9
X136.3Y-83.2
X136.3Y-84.5
X136.3Y-85.75
X136.3Y-87.95
X136.3Y-90.3
X137.0Y-86.4
X139.7Y-75.0
X139.7Y-76.5
X139.7Y-78.1
X139.7Y-79.35
X139.7Y-80.6
X139.7Y-81.9
X139.7Y-83.2
X140.0Y-60.0
X140.0Y-70.0
X140.0Y-98.25
X140.0Y-101.75
X140.5Y-65.6
X140.5Y-66.49
X141.2Y-67.05
X143.9Y-76.5
X143.9Y-78.1
X143.9Y-80.7
X143.9Y-81.9
X143.9Y-83.25
X143.9Y-88.8
X143.9Y-91.5
X143.9Y-94.1
X145.0Y-60.0
X145.0Y-65.0
X145.0Y-70.0
X147.3Y-94.1
X147.3Y-96.4
X147.3Y-99.2
T4
X112.05Y-86.15
T6
X134.9Y-52.95
X134.9Y-54.95
T7
X105.65Y-89.3
X108.19Y-89.3
X138.0Y-58.91
X138.0Y-61.45
X138.0Y-63.99
X138.0Y-66.53
X138.0Y-72.4
X138.0Y-74.94
X138.0Y-77.48
X138.0Y-80.02
X138.0Y-82.56
X138.0Y-85.1
X138.0Y-87.64
X138.0Y-90.18
X145.6Y-72.4
X145.6Y-74.94
X145.6Y-77.48
X145.6Y-80.02
X145.6Y-82.56
X145.6Y-90.2
X145.6Y-92.74
X145.6Y-95.28
X145.6Y-97.82
T8
X106.7Y-108.9
X111.7Y-108.9
T3
X135.5Y-110.0G85X135.5Y-111.0
G05
X140.0Y-115.5G85X141.0Y-115.5
G05
X145.5Y-111.0G85X145.5Y-110.0
G05
T5
X123.83Y-53.035G85X123.83Y-52.235
G05
X123.83Y-57.365G85X123.83Y-56.265
G05
X132.47Y-53.035G85X132.47Y-52.235
G05
X132.47Y-57.365G85X132.47Y-56.265
G05
T6
X138.0Y-110.15G85X138.0Y-110.85
G05
X143.0Y-110.85G85X143.0Y-110.15
G05
M30
