%TF.GenerationSoftware,KiCad,Pcbnew,9.0.7*%
%TF.CreationDate,2026-09-16T10:23:38-07:00*%
%TF.ProjectId,STM32JukeboxPCB,53544d33-324a-4756-9b65-626f78504342,rev?*%
%TF.SameCoordinates,Original*%
%TF.FileFunction,Legend,Bot*%
%TF.FilePolarity,Positive*%
%FSLAX46Y46*%
G04 Gerber Fmt 4.6, Leading zero omitted, Abs format (unit mm)*
G04 Created by KiCad (PCBNEW 9.0.7) date 2026-09-16 10:23:38*
%MOMM*%
%LPD*%
G01*
G04 APERTURE LIST*
%ADD10C,0.150000*%
%ADD11C,0.300000*%
%ADD12C,0.260000*%
%ADD13C,0.000000*%
%ADD14C,0.120000*%
G04 APERTURE END LIST*
D10*
G36*
X140788787Y-63507909D02*
G01*
X140850333Y-63531173D01*
X140902808Y-63569366D01*
X140947644Y-63624332D01*
X140980389Y-63687302D01*
X141005281Y-63763194D01*
X141021367Y-63854377D01*
X141027145Y-63963585D01*
X141021500Y-64067532D01*
X141005432Y-64158570D01*
X140979940Y-64238414D01*
X140945593Y-64308554D01*
X140898935Y-64370893D01*
X140846012Y-64413175D01*
X140785695Y-64438361D01*
X140715589Y-64447039D01*
X140634234Y-64438591D01*
X140566120Y-64414575D01*
X140508443Y-64375532D01*
X140459501Y-64320057D01*
X140423317Y-64255533D01*
X140395732Y-64176575D01*
X140377821Y-64080360D01*
X140371353Y-63963585D01*
X140378561Y-63839067D01*
X140398169Y-63740811D01*
X140427792Y-63664019D01*
X140466026Y-63604670D01*
X140512570Y-63559714D01*
X140568272Y-63527306D01*
X140635029Y-63506992D01*
X140715589Y-63499768D01*
X140788787Y-63507909D01*
G37*
G36*
X142473845Y-63522043D02*
G01*
X142473845Y-64420075D01*
X142415703Y-64426024D01*
X142337777Y-64428281D01*
X142254402Y-64419797D01*
X142183055Y-64395482D01*
X142121222Y-64355715D01*
X142067327Y-64299101D01*
X142026532Y-64232883D01*
X141995800Y-64152876D01*
X141976023Y-64056410D01*
X141968921Y-63940284D01*
X141976254Y-63830405D01*
X141996392Y-63742403D01*
X142027295Y-63672251D01*
X142068039Y-63616702D01*
X142118907Y-63573497D01*
X142181353Y-63541573D01*
X142257856Y-63521175D01*
X142351699Y-63513836D01*
X142473845Y-63522043D01*
G37*
G36*
X145067753Y-64728090D02*
G01*
X140065829Y-64728090D01*
X140065829Y-63963585D01*
X140199162Y-63963585D01*
X140205353Y-64085006D01*
X140222860Y-64190028D01*
X140250403Y-64280830D01*
X140287162Y-64359326D01*
X140332812Y-64427109D01*
X140389924Y-64486653D01*
X140455329Y-64532798D01*
X140530173Y-64566402D01*
X140616191Y-64587390D01*
X140715589Y-64594757D01*
X140804643Y-64587299D01*
X140845895Y-64576000D01*
X141415858Y-64576000D01*
X141579769Y-64576000D01*
X141579769Y-63926362D01*
X141796730Y-63926362D01*
X141797483Y-63940284D01*
X141804081Y-64062293D01*
X141824610Y-64176376D01*
X141856494Y-64271876D01*
X141898601Y-64351613D01*
X141950547Y-64417861D01*
X142012727Y-64472237D01*
X142086282Y-64515603D01*
X142173025Y-64548001D01*
X142275330Y-64568651D01*
X142396029Y-64576000D01*
X142637829Y-64576000D01*
X142637829Y-63375497D01*
X142772431Y-63375497D01*
X143146270Y-64594757D01*
X143197927Y-64594757D01*
X143483984Y-63765528D01*
X143751210Y-64594757D01*
X143802868Y-64594757D01*
X143903131Y-64271990D01*
X144258918Y-64271990D01*
X144265699Y-64336804D01*
X144285632Y-64395653D01*
X144319063Y-64450009D01*
X144367581Y-64500822D01*
X144424084Y-64540585D01*
X144490085Y-64569810D01*
X144567368Y-64588236D01*
X144658182Y-64594757D01*
X144737818Y-64589696D01*
X144809091Y-64575114D01*
X144873195Y-64551596D01*
X144931123Y-64519286D01*
X144871332Y-64368344D01*
X144821500Y-64398354D01*
X144756953Y-64424545D01*
X144689807Y-64441827D01*
X144634368Y-64447039D01*
X144572383Y-64440774D01*
X144521829Y-64423179D01*
X144480275Y-64394942D01*
X144447921Y-64356952D01*
X144428717Y-64313315D01*
X144422096Y-64262172D01*
X144430170Y-64203946D01*
X144454483Y-64149845D01*
X144480768Y-64119592D01*
X144531388Y-64082399D01*
X144617149Y-64036638D01*
X144713942Y-63991722D01*
X144792236Y-63948192D01*
X144848009Y-63902970D01*
X144885694Y-63856094D01*
X144912177Y-63801833D01*
X144928646Y-63739465D01*
X144934420Y-63667270D01*
X144928272Y-63602084D01*
X144910442Y-63544232D01*
X144881078Y-63492224D01*
X144839312Y-63445033D01*
X144789351Y-63407000D01*
X144732873Y-63379612D01*
X144668641Y-63362657D01*
X144595020Y-63356739D01*
X144491035Y-63362042D01*
X144413814Y-63376039D01*
X144357713Y-63396387D01*
X144317976Y-63421586D01*
X144366336Y-63564321D01*
X144404133Y-63542667D01*
X144466353Y-63518452D01*
X144532758Y-63501508D01*
X144590917Y-63496251D01*
X144644803Y-63501969D01*
X144687867Y-63517933D01*
X144722515Y-63543512D01*
X144748908Y-63577556D01*
X144764869Y-63617404D01*
X144770436Y-63664778D01*
X144766040Y-63709050D01*
X144753290Y-63748163D01*
X144732590Y-63782837D01*
X144705369Y-63811104D01*
X144665827Y-63837325D01*
X144579487Y-63882179D01*
X144481081Y-63928707D01*
X144402941Y-63972805D01*
X144346822Y-64019000D01*
X144308524Y-64067266D01*
X144281941Y-64123003D01*
X144264991Y-64190389D01*
X144258918Y-64271990D01*
X143903131Y-64271990D01*
X144181615Y-63375497D01*
X144011109Y-63375497D01*
X143770041Y-64215424D01*
X143506113Y-63375497D01*
X143448740Y-63375497D01*
X143188035Y-64213812D01*
X142942937Y-63375497D01*
X142772431Y-63375497D01*
X142637829Y-63375497D01*
X142637829Y-63374325D01*
X142341880Y-63366118D01*
X142240952Y-63372847D01*
X142152325Y-63392094D01*
X142074150Y-63422933D01*
X142004910Y-63465123D01*
X141943496Y-63519112D01*
X141891860Y-63582598D01*
X141851360Y-63653809D01*
X141821702Y-63733836D01*
X141803193Y-63824114D01*
X141796730Y-63926362D01*
X141579769Y-63926362D01*
X141579769Y-63375497D01*
X141415858Y-63375497D01*
X141415858Y-64576000D01*
X140845895Y-64576000D01*
X140883044Y-64565825D01*
X140952716Y-64530903D01*
X141015082Y-64482042D01*
X141070963Y-64417730D01*
X141115496Y-64346047D01*
X141150938Y-64265998D01*
X141177131Y-64176479D01*
X141193538Y-64076172D01*
X141199263Y-63963585D01*
X141193568Y-63858463D01*
X141177126Y-63763458D01*
X141150645Y-63677319D01*
X141114463Y-63598954D01*
X141068545Y-63527465D01*
X141011707Y-63463503D01*
X140949020Y-63415028D01*
X140879723Y-63380504D01*
X140802503Y-63359363D01*
X140715589Y-63352050D01*
X140615456Y-63359214D01*
X140529052Y-63379580D01*
X140454155Y-63412078D01*
X140388999Y-63456507D01*
X140332372Y-63513543D01*
X140286844Y-63579011D01*
X140250219Y-63655005D01*
X140222782Y-63743107D01*
X140205336Y-63845235D01*
X140199162Y-63963585D01*
X140065829Y-63963585D01*
X140065829Y-63218717D01*
X145067753Y-63218717D01*
X145067753Y-64728090D01*
G37*
D11*
G36*
X102971797Y-118230835D02*
G01*
X103038453Y-118247890D01*
X103084917Y-118272761D01*
X103116086Y-118304377D01*
X103134810Y-118343521D01*
X103141420Y-118392680D01*
X103135304Y-118438303D01*
X103118565Y-118471576D01*
X103091421Y-118495719D01*
X103051245Y-118511641D01*
X102993140Y-118517702D01*
X102928043Y-118511456D01*
X102879231Y-118494570D01*
X102842851Y-118468509D01*
X102816482Y-118432854D01*
X102799513Y-118385383D01*
X102793264Y-118322429D01*
X102793264Y-118235589D01*
X102878517Y-118224317D01*
X102971797Y-118230835D01*
G37*
G36*
X110382613Y-118230835D02*
G01*
X110449270Y-118247890D01*
X110495734Y-118272761D01*
X110526902Y-118304377D01*
X110545626Y-118343521D01*
X110552236Y-118392680D01*
X110546121Y-118438303D01*
X110529381Y-118471576D01*
X110502237Y-118495719D01*
X110462062Y-118511641D01*
X110403956Y-118517702D01*
X110338859Y-118511456D01*
X110290048Y-118494570D01*
X110253668Y-118468509D01*
X110227298Y-118432854D01*
X110210330Y-118385383D01*
X110204080Y-118322429D01*
X110204080Y-118235589D01*
X110289333Y-118224317D01*
X110382613Y-118230835D01*
G37*
G36*
X113151350Y-118230835D02*
G01*
X113218007Y-118247890D01*
X113264471Y-118272761D01*
X113295639Y-118304377D01*
X113314363Y-118343521D01*
X113320973Y-118392680D01*
X113314858Y-118438303D01*
X113298118Y-118471576D01*
X113270974Y-118495719D01*
X113230798Y-118511641D01*
X113172693Y-118517702D01*
X113107596Y-118511456D01*
X113058785Y-118494570D01*
X113022405Y-118468509D01*
X112996035Y-118432854D01*
X112979067Y-118385383D01*
X112972817Y-118322429D01*
X112972817Y-118235589D01*
X113058070Y-118224317D01*
X113151350Y-118230835D01*
G37*
G36*
X116331126Y-117904573D02*
G01*
X116385258Y-117931149D01*
X116431039Y-117976178D01*
X116463480Y-118033197D01*
X116484578Y-118106896D01*
X116492320Y-118201773D01*
X116484027Y-118309356D01*
X116462130Y-118387324D01*
X116429677Y-118442763D01*
X116387507Y-118480851D01*
X116334097Y-118504246D01*
X116265852Y-118512621D01*
X116200591Y-118503416D01*
X116146629Y-118476859D01*
X116101140Y-118431893D01*
X116069118Y-118374802D01*
X116048103Y-118299753D01*
X116040336Y-118201773D01*
X116048557Y-118095942D01*
X116070281Y-118019157D01*
X116102519Y-117964472D01*
X116144483Y-117926831D01*
X116197727Y-117903671D01*
X116265852Y-117895371D01*
X116331126Y-117904573D01*
G37*
G36*
X107566260Y-115372918D02*
G01*
X107609366Y-115393037D01*
X107645618Y-115426797D01*
X107671649Y-115469911D01*
X107688359Y-115524650D01*
X107694436Y-115594128D01*
X107688062Y-115665259D01*
X107670470Y-115721670D01*
X107642919Y-115766460D01*
X107604985Y-115801771D01*
X107561798Y-115822424D01*
X107511468Y-115829487D01*
X107448563Y-115822834D01*
X107400619Y-115804630D01*
X107364084Y-115775964D01*
X107336965Y-115735792D01*
X107319173Y-115681126D01*
X107312544Y-115607464D01*
X107319486Y-115526122D01*
X107338011Y-115466257D01*
X107365967Y-115422767D01*
X107403160Y-115392134D01*
X107451382Y-115372896D01*
X107514087Y-115365914D01*
X107566260Y-115372918D01*
G37*
G36*
X101857640Y-115865318D02*
G01*
X101905631Y-115883418D01*
X101942142Y-115911876D01*
X101969196Y-115951686D01*
X101986922Y-116005776D01*
X101993521Y-116078578D01*
X101986667Y-116157177D01*
X101968337Y-116215218D01*
X101940564Y-116257578D01*
X101903428Y-116287571D01*
X101855044Y-116306494D01*
X101791898Y-116313381D01*
X101739601Y-116306601D01*
X101696549Y-116287203D01*
X101660526Y-116254878D01*
X101634467Y-116213214D01*
X101617729Y-116159907D01*
X101611629Y-116091755D01*
X101617926Y-116021895D01*
X101635360Y-115966148D01*
X101662749Y-115921566D01*
X101700403Y-115886421D01*
X101743697Y-115865783D01*
X101794597Y-115858698D01*
X101857640Y-115865318D01*
G37*
G36*
X108614153Y-115363281D02*
G01*
X108661174Y-115385095D01*
X108701725Y-115422087D01*
X108736581Y-115477686D01*
X108764918Y-115557389D01*
X108784495Y-115668290D01*
X108791929Y-115818770D01*
X108784883Y-115993683D01*
X108766751Y-116117160D01*
X108741365Y-116201139D01*
X108710216Y-116256928D01*
X108672600Y-116294000D01*
X108627818Y-116315927D01*
X108573478Y-116323541D01*
X108513054Y-116316245D01*
X108464460Y-116295662D01*
X108424936Y-116261992D01*
X108393209Y-116213125D01*
X108367148Y-116136025D01*
X108347739Y-116010930D01*
X108339945Y-115819723D01*
X108347454Y-115641630D01*
X108366080Y-115526246D01*
X108390986Y-115456009D01*
X108421029Y-115411658D01*
X108457964Y-115381054D01*
X108502947Y-115362362D01*
X108558396Y-115355753D01*
X108614153Y-115363281D01*
G37*
G36*
X111869324Y-115363281D02*
G01*
X111916345Y-115385095D01*
X111956896Y-115422087D01*
X111991752Y-115477686D01*
X112020089Y-115557389D01*
X112039666Y-115668290D01*
X112047100Y-115818770D01*
X112040054Y-115993683D01*
X112021922Y-116117160D01*
X111996536Y-116201139D01*
X111965387Y-116256928D01*
X111927771Y-116294000D01*
X111882988Y-116315927D01*
X111828649Y-116323541D01*
X111768225Y-116316245D01*
X111719631Y-116295662D01*
X111680107Y-116261992D01*
X111648380Y-116213125D01*
X111622319Y-116136025D01*
X111602910Y-116010930D01*
X111595116Y-115819723D01*
X111602625Y-115641630D01*
X111621250Y-115526246D01*
X111646157Y-115456009D01*
X111676200Y-115411658D01*
X111713135Y-115381054D01*
X111758118Y-115362362D01*
X111813567Y-115355753D01*
X111869324Y-115363281D01*
G37*
G36*
X116176256Y-115723680D02*
G01*
X116233062Y-115747544D01*
X116278771Y-115786400D01*
X116314976Y-115842617D01*
X116341182Y-115920931D01*
X115874117Y-115920931D01*
X115887930Y-115854924D01*
X115911257Y-115804608D01*
X115943267Y-115766679D01*
X115984638Y-115739140D01*
X116037460Y-115721568D01*
X116104951Y-115715181D01*
X116176256Y-115723680D01*
G37*
G36*
X117376998Y-115392823D02*
G01*
X117376998Y-115753045D01*
X117279362Y-115758363D01*
X117182709Y-115752768D01*
X117114410Y-115738293D01*
X117067579Y-115717642D01*
X117039911Y-115694426D01*
X117019215Y-115662073D01*
X117005585Y-115618169D01*
X117000504Y-115559201D01*
X117009169Y-115499787D01*
X117033050Y-115456659D01*
X117072421Y-115425607D01*
X117122275Y-115406378D01*
X117195331Y-115392778D01*
X117298889Y-115387505D01*
X117376998Y-115392823D01*
G37*
G36*
X103579696Y-113536573D02*
G01*
X103633827Y-113563149D01*
X103679609Y-113608178D01*
X103712050Y-113665197D01*
X103733148Y-113738896D01*
X103740889Y-113833773D01*
X103732597Y-113941356D01*
X103710699Y-114019324D01*
X103678246Y-114074763D01*
X103636077Y-114112851D01*
X103582666Y-114136246D01*
X103514421Y-114144621D01*
X103449160Y-114135416D01*
X103395198Y-114108859D01*
X103349710Y-114063893D01*
X103317688Y-114006802D01*
X103296673Y-113931753D01*
X103288906Y-113833773D01*
X103297126Y-113727942D01*
X103318850Y-113651157D01*
X103351088Y-113596472D01*
X103393052Y-113558831D01*
X103446297Y-113535671D01*
X103514421Y-113527371D01*
X103579696Y-113536573D01*
G37*
G36*
X104676669Y-113540546D02*
G01*
X104725577Y-113559340D01*
X104763369Y-113589128D01*
X104763369Y-114081039D01*
X104727373Y-114112556D01*
X104684023Y-114131590D01*
X104631045Y-114138271D01*
X104549383Y-114132498D01*
X104486676Y-114116915D01*
X104438980Y-114093382D01*
X104403227Y-114062623D01*
X104376187Y-114023493D01*
X104355225Y-113972199D01*
X104341297Y-113905768D01*
X104336152Y-113820596D01*
X104345063Y-113726936D01*
X104369133Y-113656802D01*
X104406219Y-113604627D01*
X104456857Y-113566886D01*
X104524149Y-113542642D01*
X104613264Y-113533721D01*
X104676669Y-113540546D01*
G37*
G36*
X105670297Y-113539680D02*
G01*
X105727102Y-113563544D01*
X105772812Y-113602400D01*
X105809017Y-113658617D01*
X105835223Y-113736931D01*
X105368157Y-113736931D01*
X105381970Y-113670924D01*
X105405298Y-113620608D01*
X105437307Y-113582679D01*
X105478678Y-113555140D01*
X105531500Y-113537568D01*
X105598991Y-113531181D01*
X105670297Y-113539680D01*
G37*
G36*
X111633625Y-113862835D02*
G01*
X111700282Y-113879890D01*
X111746745Y-113904761D01*
X111777914Y-113936377D01*
X111796638Y-113975521D01*
X111803248Y-114024680D01*
X111797133Y-114070303D01*
X111780393Y-114103576D01*
X111753249Y-114127719D01*
X111713073Y-114143641D01*
X111654968Y-114149702D01*
X111589871Y-114143456D01*
X111541060Y-114126570D01*
X111504679Y-114100509D01*
X111478310Y-114064854D01*
X111461342Y-114017383D01*
X111455092Y-113954429D01*
X111455092Y-113867589D01*
X111540345Y-113856317D01*
X111633625Y-113862835D01*
G37*
G36*
X114316884Y-113539680D02*
G01*
X114373690Y-113563544D01*
X114419399Y-113602400D01*
X114455604Y-113658617D01*
X114481810Y-113736931D01*
X114014745Y-113736931D01*
X114028558Y-113670924D01*
X114051886Y-113620608D01*
X114083895Y-113582679D01*
X114125266Y-113555140D01*
X114178088Y-113537568D01*
X114245579Y-113531181D01*
X114316884Y-113539680D01*
G37*
G36*
X108631345Y-111028236D02*
G01*
X108631345Y-111915931D01*
X108510610Y-111921249D01*
X108425574Y-111912839D01*
X108353136Y-111888811D01*
X108290723Y-111849699D01*
X108236673Y-111794322D01*
X108195613Y-111729136D01*
X108164684Y-111650132D01*
X108144767Y-111554596D01*
X108137609Y-111439260D01*
X108144916Y-111332615D01*
X108165022Y-111246958D01*
X108195971Y-111178413D01*
X108236948Y-111123885D01*
X108288353Y-111081267D01*
X108351757Y-111049636D01*
X108429743Y-111029357D01*
X108525692Y-111022045D01*
X108631345Y-111028236D01*
G37*
G36*
X111301017Y-111024823D02*
G01*
X111301017Y-111385045D01*
X111203381Y-111390363D01*
X111106729Y-111384768D01*
X111038430Y-111370293D01*
X110991598Y-111349642D01*
X110963930Y-111326426D01*
X110943235Y-111294073D01*
X110929604Y-111250169D01*
X110924523Y-111191201D01*
X110933188Y-111131787D01*
X110957070Y-111088659D01*
X110996441Y-111057607D01*
X111046294Y-111038378D01*
X111119350Y-111024778D01*
X111222909Y-111019505D01*
X111301017Y-111024823D01*
G37*
G36*
X117884918Y-118849321D02*
G01*
X101226270Y-118849321D01*
X101226270Y-118097708D01*
X101498355Y-118097708D01*
X101498355Y-118679000D01*
X101720299Y-118679000D01*
X101720299Y-118131682D01*
X101726526Y-118051930D01*
X101742867Y-117994886D01*
X101766974Y-117954905D01*
X101801992Y-117925443D01*
X101851119Y-117906329D01*
X101919222Y-117899181D01*
X101968201Y-117905641D01*
X102023606Y-117926646D01*
X102074028Y-117958159D01*
X102110208Y-117994674D01*
X102110208Y-118679000D01*
X102332231Y-118679000D01*
X102332231Y-118624069D01*
X102495831Y-118624069D01*
X102526682Y-118664503D01*
X102557111Y-118683127D01*
X102592292Y-118691317D01*
X102634347Y-118694240D01*
X102679413Y-118685627D01*
X102720473Y-118659075D01*
X102753015Y-118621507D01*
X102771990Y-118582554D01*
X102795432Y-118611760D01*
X102829658Y-118638620D01*
X102877247Y-118663044D01*
X102953875Y-118686431D01*
X103033941Y-118694240D01*
X103110933Y-118688876D01*
X103175550Y-118673824D01*
X103229874Y-118650146D01*
X103275570Y-118618195D01*
X103313200Y-118577313D01*
X103340386Y-118528826D01*
X103357409Y-118471204D01*
X103363442Y-118402285D01*
X103355304Y-118323147D01*
X103331995Y-118255599D01*
X103293867Y-118197203D01*
X103239532Y-118146446D01*
X103176249Y-118108497D01*
X103098499Y-118079634D01*
X103003369Y-118060900D01*
X102887407Y-118054129D01*
X102846877Y-118057168D01*
X102795089Y-118067464D01*
X102797047Y-118053494D01*
X103541489Y-118053494D01*
X103541489Y-118679000D01*
X103763512Y-118679000D01*
X103763512Y-118085721D01*
X103771412Y-118013571D01*
X103792318Y-117963190D01*
X103824412Y-117928688D01*
X103869257Y-117907125D01*
X103931399Y-117899181D01*
X103979648Y-117906312D01*
X104027288Y-117928392D01*
X104067648Y-117960841D01*
X104092141Y-117995547D01*
X104092141Y-118679000D01*
X104314084Y-118679000D01*
X104314084Y-118051271D01*
X104319250Y-118006577D01*
X104333849Y-117970217D01*
X104357663Y-117940299D01*
X104389037Y-117918245D01*
X104429039Y-117904254D01*
X104480145Y-117899181D01*
X104521823Y-117906267D01*
X104571193Y-117930139D01*
X104615084Y-117963934D01*
X104642713Y-117998166D01*
X104642713Y-118679000D01*
X104864736Y-118679000D01*
X104864736Y-118485950D01*
X105042862Y-118485950D01*
X105042862Y-118679000D01*
X105888327Y-118679000D01*
X106065819Y-118679000D01*
X106287841Y-118679000D01*
X106287841Y-118597795D01*
X106340855Y-118633200D01*
X106417547Y-118665981D01*
X106499031Y-118687588D01*
X106569398Y-118694240D01*
X106662015Y-118686226D01*
X106734981Y-118664201D01*
X106792431Y-118629927D01*
X106837263Y-118583352D01*
X106870806Y-118522625D01*
X106892641Y-118444336D01*
X106900647Y-118343862D01*
X106900647Y-117977925D01*
X107092267Y-117977925D01*
X107092267Y-118557153D01*
X107150052Y-118597080D01*
X107220308Y-118632111D01*
X107305003Y-118661774D01*
X107435555Y-118690048D01*
X107563858Y-118699321D01*
X107675356Y-118691390D01*
X107773592Y-118668643D01*
X107860651Y-118632017D01*
X107938208Y-118581576D01*
X108007427Y-118516511D01*
X108064813Y-118441192D01*
X108110029Y-118356696D01*
X108143247Y-118261738D01*
X108164012Y-118154674D01*
X108167424Y-118097708D01*
X108909172Y-118097708D01*
X108909172Y-118679000D01*
X109131115Y-118679000D01*
X109131115Y-118131682D01*
X109137342Y-118051930D01*
X109153684Y-117994886D01*
X109177790Y-117954905D01*
X109212809Y-117925443D01*
X109261935Y-117906329D01*
X109330039Y-117899181D01*
X109379018Y-117905641D01*
X109434422Y-117926646D01*
X109484845Y-117958159D01*
X109521024Y-117994674D01*
X109521024Y-118679000D01*
X109743047Y-118679000D01*
X109743047Y-118624069D01*
X109906647Y-118624069D01*
X109937499Y-118664503D01*
X109967928Y-118683127D01*
X110003109Y-118691317D01*
X110045163Y-118694240D01*
X110090229Y-118685627D01*
X110131290Y-118659075D01*
X110163832Y-118621507D01*
X110182807Y-118582554D01*
X110206248Y-118611760D01*
X110240475Y-118638620D01*
X110288063Y-118663044D01*
X110364692Y-118686431D01*
X110444757Y-118694240D01*
X110521749Y-118688876D01*
X110586367Y-118673824D01*
X110640690Y-118650146D01*
X110686386Y-118618195D01*
X110724017Y-118577313D01*
X110751203Y-118528826D01*
X110768225Y-118471204D01*
X110774259Y-118402285D01*
X110766121Y-118323147D01*
X110742811Y-118255599D01*
X110704683Y-118197203D01*
X110650348Y-118146446D01*
X110587066Y-118108497D01*
X110550945Y-118095088D01*
X110952068Y-118095088D01*
X110952068Y-118679000D01*
X111174964Y-118679000D01*
X111174964Y-118095406D01*
X111181451Y-118039379D01*
X111199874Y-117993268D01*
X111230053Y-117954826D01*
X111269590Y-117925803D01*
X111316813Y-117907997D01*
X111373887Y-117901721D01*
X111428165Y-117908866D01*
X111484859Y-117931329D01*
X111534589Y-117964552D01*
X111564794Y-117998960D01*
X111564794Y-118679000D01*
X111790389Y-118679000D01*
X111790389Y-118462771D01*
X111962958Y-118462771D01*
X111962958Y-118667569D01*
X112048587Y-118686552D01*
X112183155Y-118694240D01*
X112253825Y-118688632D01*
X112312414Y-118672918D01*
X112361145Y-118648115D01*
X112389979Y-118624069D01*
X112675384Y-118624069D01*
X112706235Y-118664503D01*
X112736665Y-118683127D01*
X112771845Y-118691317D01*
X112813900Y-118694240D01*
X112858966Y-118685627D01*
X112900027Y-118659075D01*
X112932569Y-118621507D01*
X112951543Y-118582554D01*
X112974985Y-118611760D01*
X113009212Y-118638620D01*
X113056800Y-118663044D01*
X113133429Y-118686431D01*
X113213494Y-118694240D01*
X113290486Y-118688876D01*
X113355103Y-118673824D01*
X113409427Y-118650146D01*
X113455123Y-118618195D01*
X113492754Y-118577313D01*
X113519940Y-118528826D01*
X113536962Y-118471204D01*
X113542996Y-118402285D01*
X113534858Y-118323147D01*
X113511548Y-118255599D01*
X113473420Y-118197203D01*
X113419085Y-118146446D01*
X113355803Y-118108497D01*
X113326740Y-118097708D01*
X113720170Y-118097708D01*
X113720170Y-118679000D01*
X113942113Y-118679000D01*
X113942113Y-118131682D01*
X113948340Y-118051930D01*
X113964682Y-117994886D01*
X113988788Y-117954905D01*
X114023807Y-117925443D01*
X114072933Y-117906329D01*
X114141037Y-117899181D01*
X114190016Y-117905641D01*
X114245420Y-117926646D01*
X114295842Y-117958159D01*
X114332022Y-117994674D01*
X114332022Y-118679000D01*
X114554045Y-118679000D01*
X114554045Y-118095088D01*
X114794008Y-118095088D01*
X114794008Y-118679000D01*
X115016904Y-118679000D01*
X115016904Y-118095406D01*
X115023391Y-118039379D01*
X115041814Y-117993268D01*
X115071993Y-117954826D01*
X115111530Y-117925803D01*
X115158753Y-117907997D01*
X115215827Y-117901721D01*
X115270105Y-117908866D01*
X115326799Y-117931329D01*
X115376529Y-117964552D01*
X115406734Y-117998960D01*
X115406734Y-118679000D01*
X115632329Y-118679000D01*
X115632329Y-118201773D01*
X115809423Y-118201773D01*
X115817866Y-118314188D01*
X115841736Y-118409704D01*
X115879677Y-118491214D01*
X115931508Y-118560963D01*
X115996714Y-118618250D01*
X116072626Y-118659503D01*
X116161356Y-118685191D01*
X116265852Y-118694240D01*
X116372702Y-118685020D01*
X116462502Y-118658967D01*
X116538464Y-118617319D01*
X116602895Y-118559693D01*
X116654070Y-118489377D01*
X116691474Y-118407797D01*
X116714950Y-118312834D01*
X116723233Y-118201773D01*
X116722201Y-118188755D01*
X116901042Y-118188755D01*
X116909312Y-118321036D01*
X116931900Y-118426116D01*
X116966278Y-118509027D01*
X117011140Y-118573902D01*
X117056990Y-118616432D01*
X117113183Y-118650684D01*
X117181527Y-118676583D01*
X117264394Y-118693303D01*
X117364615Y-118699321D01*
X117445094Y-118693497D01*
X117514259Y-118676969D01*
X117573968Y-118650625D01*
X117625692Y-118614623D01*
X117669127Y-118569055D01*
X117701693Y-118515645D01*
X117723807Y-118453029D01*
X117734918Y-118379265D01*
X117528850Y-118379265D01*
X117507152Y-118427642D01*
X117471033Y-118462281D01*
X117417180Y-118484952D01*
X117338817Y-118493570D01*
X117282784Y-118488284D01*
X117239034Y-118473753D01*
X117204875Y-118451015D01*
X117178551Y-118419748D01*
X117154596Y-118368127D01*
X117138145Y-118295535D01*
X117131876Y-118195661D01*
X117131876Y-117378455D01*
X116901042Y-117378455D01*
X116901042Y-118188755D01*
X116722201Y-118188755D01*
X116714760Y-118094895D01*
X116690547Y-118002107D01*
X116651554Y-117920976D01*
X116597576Y-117849648D01*
X116530456Y-117790708D01*
X116454136Y-117748684D01*
X116366795Y-117722791D01*
X116265852Y-117713752D01*
X116158733Y-117722759D01*
X116068938Y-117748161D01*
X115993239Y-117788637D01*
X115929285Y-117844409D01*
X115878607Y-117912711D01*
X115841341Y-117993336D01*
X115817787Y-118088672D01*
X115809423Y-118201773D01*
X115632329Y-118201773D01*
X115632329Y-117370755D01*
X115406734Y-117317492D01*
X115406734Y-117791622D01*
X115361773Y-117758797D01*
X115308429Y-117734574D01*
X115245071Y-117719217D01*
X115169629Y-117713752D01*
X115080775Y-117720657D01*
X115006645Y-117740042D01*
X114944591Y-117770678D01*
X114892596Y-117812420D01*
X114851111Y-117864443D01*
X114820482Y-117927305D01*
X114800986Y-118003224D01*
X114794008Y-118095088D01*
X114554045Y-118095088D01*
X114554045Y-117728993D01*
X114394176Y-117728993D01*
X114353296Y-117819881D01*
X114304558Y-117774833D01*
X114245361Y-117741974D01*
X114173527Y-117721186D01*
X114086027Y-117713752D01*
X114002188Y-117720680D01*
X113931056Y-117740310D01*
X113870322Y-117771706D01*
X113818282Y-117815039D01*
X113776820Y-117868301D01*
X113746338Y-117931722D01*
X113727041Y-118007317D01*
X113720170Y-118097708D01*
X113326740Y-118097708D01*
X113278052Y-118079634D01*
X113182922Y-118060900D01*
X113066960Y-118054129D01*
X113026430Y-118057168D01*
X112974643Y-118067464D01*
X112983131Y-118006887D01*
X113006559Y-117962258D01*
X113045038Y-117929450D01*
X113102717Y-117907566D01*
X113186902Y-117899181D01*
X113269605Y-117904296D01*
X113338726Y-117918581D01*
X113396462Y-117940855D01*
X113444407Y-117768841D01*
X113366201Y-117739098D01*
X113276018Y-117720357D01*
X113171741Y-117713752D01*
X113061253Y-117721134D01*
X112974142Y-117741263D01*
X112905910Y-117771920D01*
X112852955Y-117812102D01*
X112813475Y-117863629D01*
X112781832Y-117937957D01*
X112760042Y-118042129D01*
X112751747Y-118184786D01*
X112751747Y-118235589D01*
X112751747Y-118386806D01*
X112745222Y-118485175D01*
X112728520Y-118552351D01*
X112704814Y-118596568D01*
X112675384Y-118624069D01*
X112389979Y-118624069D01*
X112401686Y-118614306D01*
X112433738Y-118572378D01*
X112457484Y-118521747D01*
X112472626Y-118460644D01*
X112478048Y-118386806D01*
X112478048Y-117908071D01*
X112588147Y-117908071D01*
X112588147Y-117728993D01*
X112478048Y-117728993D01*
X112478048Y-117536102D01*
X112256025Y-117454659D01*
X112256025Y-117728993D01*
X111994948Y-117728993D01*
X111994948Y-117908071D01*
X112256025Y-117908071D01*
X112256025Y-118321239D01*
X112251556Y-118388697D01*
X112240158Y-118434491D01*
X112224036Y-118464438D01*
X112199504Y-118486410D01*
X112163604Y-118500813D01*
X112112111Y-118506271D01*
X112060056Y-118501446D01*
X112010613Y-118487064D01*
X111962958Y-118462771D01*
X111790389Y-118462771D01*
X111790389Y-117370755D01*
X111564794Y-117317492D01*
X111564794Y-117791622D01*
X111519833Y-117758797D01*
X111466489Y-117734574D01*
X111403131Y-117719217D01*
X111327689Y-117713752D01*
X111238835Y-117720657D01*
X111164705Y-117740042D01*
X111102651Y-117770678D01*
X111050656Y-117812420D01*
X111009172Y-117864443D01*
X110978542Y-117927305D01*
X110959046Y-118003224D01*
X110952068Y-118095088D01*
X110550945Y-118095088D01*
X110509315Y-118079634D01*
X110414185Y-118060900D01*
X110298224Y-118054129D01*
X110257693Y-118057168D01*
X110205906Y-118067464D01*
X110214395Y-118006887D01*
X110237822Y-117962258D01*
X110276301Y-117929450D01*
X110333980Y-117907566D01*
X110418165Y-117899181D01*
X110500868Y-117904296D01*
X110569989Y-117918581D01*
X110627725Y-117940855D01*
X110675670Y-117768841D01*
X110597464Y-117739098D01*
X110507282Y-117720357D01*
X110403004Y-117713752D01*
X110292516Y-117721134D01*
X110205405Y-117741263D01*
X110137173Y-117771920D01*
X110084218Y-117812102D01*
X110044738Y-117863629D01*
X110013095Y-117937957D01*
X109991305Y-118042129D01*
X109983010Y-118184786D01*
X109983010Y-118235589D01*
X109983010Y-118386806D01*
X109976485Y-118485175D01*
X109959783Y-118552351D01*
X109936077Y-118596568D01*
X109906647Y-118624069D01*
X109743047Y-118624069D01*
X109743047Y-117728993D01*
X109583178Y-117728993D01*
X109542298Y-117819881D01*
X109493560Y-117774833D01*
X109434364Y-117741974D01*
X109362529Y-117721186D01*
X109275029Y-117713752D01*
X109191190Y-117720680D01*
X109120058Y-117740310D01*
X109059324Y-117771706D01*
X109007284Y-117815039D01*
X108965822Y-117868301D01*
X108935340Y-117931722D01*
X108916043Y-118007317D01*
X108909172Y-118097708D01*
X108167424Y-118097708D01*
X108171265Y-118033569D01*
X108163518Y-117913409D01*
X108141226Y-117806272D01*
X108105312Y-117710280D01*
X108056003Y-117623870D01*
X107992821Y-117545865D01*
X107917961Y-117479384D01*
X107834001Y-117427587D01*
X107739660Y-117389834D01*
X107633165Y-117366334D01*
X107512341Y-117358134D01*
X107407028Y-117366503D01*
X107312417Y-117390773D01*
X107226631Y-117430440D01*
X107148230Y-117486014D01*
X107244993Y-117672237D01*
X107292644Y-117638432D01*
X107371126Y-117599843D01*
X107454360Y-117571921D01*
X107517659Y-117563884D01*
X107611486Y-117572544D01*
X107691594Y-117597240D01*
X107760652Y-117637208D01*
X107820490Y-117693272D01*
X107867417Y-117760495D01*
X107901949Y-117839131D01*
X107923744Y-117931322D01*
X107931461Y-118039761D01*
X107923937Y-118142716D01*
X107902652Y-118230463D01*
X107868833Y-118305548D01*
X107822712Y-118369977D01*
X107764271Y-118423413D01*
X107696758Y-118461617D01*
X107618377Y-118485269D01*
X107526550Y-118493570D01*
X107446658Y-118485665D01*
X107379759Y-118463239D01*
X107323181Y-118426971D01*
X107323181Y-118174785D01*
X107503450Y-118174785D01*
X107503450Y-117977925D01*
X107092267Y-117977925D01*
X106900647Y-117977925D01*
X106900647Y-117728993D01*
X106678624Y-117728993D01*
X106678624Y-118326716D01*
X106670902Y-118397110D01*
X106650459Y-118446284D01*
X106619060Y-118479978D01*
X106575163Y-118501047D01*
X106514310Y-118508811D01*
X106441507Y-118499089D01*
X106374047Y-118469915D01*
X106333742Y-118440965D01*
X106305743Y-118410997D01*
X106287841Y-118379741D01*
X106287841Y-117728993D01*
X106065819Y-117728993D01*
X106065819Y-118679000D01*
X105888327Y-118679000D01*
X105888327Y-118603748D01*
X105372364Y-117922042D01*
X105879437Y-117922042D01*
X105879437Y-117728993D01*
X105048181Y-117728993D01*
X105048181Y-117806943D01*
X105545490Y-118485950D01*
X105042862Y-118485950D01*
X104864736Y-118485950D01*
X104864736Y-117728993D01*
X104711932Y-117728993D01*
X104666686Y-117814642D01*
X104617234Y-117770596D01*
X104561823Y-117739428D01*
X104499246Y-117720366D01*
X104427755Y-117713752D01*
X104333265Y-117721090D01*
X104256331Y-117741474D01*
X104193647Y-117773338D01*
X104142705Y-117816389D01*
X104094499Y-117775368D01*
X104026415Y-117741614D01*
X103951207Y-117720607D01*
X103877183Y-117713752D01*
X103798297Y-117720058D01*
X103732247Y-117737804D01*
X103676703Y-117765953D01*
X103629918Y-117804482D01*
X103592359Y-117852223D01*
X103564904Y-117908446D01*
X103547617Y-117974810D01*
X103541489Y-118053494D01*
X102797047Y-118053494D01*
X102803578Y-118006887D01*
X102827006Y-117962258D01*
X102865485Y-117929450D01*
X102923163Y-117907566D01*
X103007349Y-117899181D01*
X103090052Y-117904296D01*
X103159173Y-117918581D01*
X103216909Y-117940855D01*
X103264854Y-117768841D01*
X103186647Y-117739098D01*
X103096465Y-117720357D01*
X102992187Y-117713752D01*
X102881700Y-117721134D01*
X102794588Y-117741263D01*
X102726357Y-117771920D01*
X102673401Y-117812102D01*
X102633921Y-117863629D01*
X102602278Y-117937957D01*
X102580489Y-118042129D01*
X102572193Y-118184786D01*
X102572193Y-118235589D01*
X102572193Y-118386806D01*
X102565669Y-118485175D01*
X102548967Y-118552351D01*
X102525260Y-118596568D01*
X102495831Y-118624069D01*
X102332231Y-118624069D01*
X102332231Y-117728993D01*
X102172362Y-117728993D01*
X102131482Y-117819881D01*
X102082744Y-117774833D01*
X102023547Y-117741974D01*
X101951713Y-117721186D01*
X101864213Y-117713752D01*
X101780374Y-117720680D01*
X101709241Y-117740310D01*
X101648507Y-117771706D01*
X101596468Y-117815039D01*
X101555006Y-117868301D01*
X101524524Y-117931722D01*
X101505226Y-118007317D01*
X101498355Y-118097708D01*
X101226270Y-118097708D01*
X101226270Y-116082943D01*
X101376270Y-116082943D01*
X101376989Y-116091755D01*
X101383964Y-116177235D01*
X101405934Y-116258788D01*
X101441329Y-116329856D01*
X101490417Y-116392124D01*
X101551129Y-116443750D01*
X101618398Y-116480263D01*
X101693573Y-116502538D01*
X101778563Y-116510240D01*
X101876085Y-116502932D01*
X101958054Y-116482375D01*
X102027203Y-116449860D01*
X102085650Y-116405602D01*
X102134742Y-116348720D01*
X102168228Y-116289249D01*
X102425898Y-116289249D01*
X102425898Y-116495000D01*
X103278428Y-116495000D01*
X103278428Y-116427289D01*
X102866372Y-115819882D01*
X102806922Y-115722317D01*
X102769260Y-115640424D01*
X102749075Y-115571563D01*
X102742937Y-115513241D01*
X102750184Y-115459611D01*
X102770051Y-115420425D01*
X102802340Y-115391925D01*
X102850241Y-115373091D01*
X102919635Y-115365914D01*
X102982494Y-115374418D01*
X103038555Y-115399594D01*
X103089846Y-115442923D01*
X103137213Y-115508319D01*
X103292636Y-115385758D01*
X103256654Y-115327976D01*
X103208752Y-115276486D01*
X103147452Y-115230811D01*
X103079207Y-115196544D01*
X103053875Y-115189375D01*
X103422659Y-115189375D01*
X103912030Y-116495000D01*
X104111827Y-116495000D01*
X104455458Y-116495000D01*
X104686292Y-116495000D01*
X105521041Y-116495000D01*
X105751875Y-116495000D01*
X105751875Y-115557455D01*
X106016524Y-115716213D01*
X106016524Y-115494190D01*
X105891361Y-115426282D01*
X105783530Y-115352769D01*
X105691334Y-115273823D01*
X105613359Y-115189375D01*
X106263790Y-115189375D01*
X106753161Y-116495000D01*
X106952957Y-116495000D01*
X106669627Y-115741773D01*
X107072740Y-115741773D01*
X107079214Y-115833553D01*
X107098944Y-115926883D01*
X107132755Y-116022621D01*
X107181928Y-116121574D01*
X107248168Y-116224476D01*
X107325529Y-116321187D01*
X107402034Y-116396580D01*
X107477966Y-116453500D01*
X107553852Y-116494227D01*
X107630457Y-116520401D01*
X107753018Y-116390775D01*
X107647755Y-116324676D01*
X107558289Y-116252673D01*
X107483085Y-116174749D01*
X107420961Y-116090606D01*
X107371126Y-115999675D01*
X107435424Y-116019059D01*
X107522978Y-116026346D01*
X107613019Y-116018705D01*
X107690791Y-115996872D01*
X107758531Y-115961615D01*
X107817870Y-115912517D01*
X107865541Y-115852491D01*
X107876056Y-115831233D01*
X108100142Y-115831233D01*
X108108923Y-115988084D01*
X108133507Y-116120392D01*
X108171836Y-116231845D01*
X108222703Y-116325605D01*
X108276838Y-116393281D01*
X108337225Y-116444248D01*
X108404583Y-116480419D01*
X108480320Y-116502563D01*
X108566413Y-116510240D01*
X108661055Y-116502695D01*
X108741316Y-116481345D01*
X108809751Y-116447298D01*
X108868284Y-116400514D01*
X108918062Y-116339814D01*
X108954699Y-116273428D01*
X108985672Y-116190027D01*
X109009920Y-116086337D01*
X109025915Y-115958638D01*
X109030672Y-115831233D01*
X111355313Y-115831233D01*
X111364094Y-115988084D01*
X111388678Y-116120392D01*
X111427007Y-116231845D01*
X111477874Y-116325605D01*
X111532009Y-116393281D01*
X111592396Y-116444248D01*
X111659754Y-116480419D01*
X111735491Y-116502563D01*
X111821584Y-116510240D01*
X111916226Y-116502695D01*
X111996487Y-116481345D01*
X112064922Y-116447298D01*
X112123455Y-116400514D01*
X112140099Y-116380218D01*
X112547346Y-116380218D01*
X112552599Y-116422651D01*
X112567988Y-116460055D01*
X112594021Y-116493729D01*
X112627475Y-116519935D01*
X112664763Y-116535428D01*
X112707215Y-116540722D01*
X112749667Y-116535428D01*
X112786956Y-116519935D01*
X112818787Y-116495000D01*
X113350978Y-116495000D01*
X113581812Y-116495000D01*
X113581812Y-115557455D01*
X113846461Y-115716213D01*
X113846461Y-115544993D01*
X114638743Y-115544993D01*
X115079216Y-116510240D01*
X115159151Y-116510240D01*
X115401889Y-115965145D01*
X115651141Y-115965145D01*
X115654988Y-116010560D01*
X115669795Y-116087865D01*
X116349200Y-116087865D01*
X116337103Y-116159418D01*
X116310965Y-116216604D01*
X116271091Y-116262499D01*
X116219773Y-116296071D01*
X116156299Y-116317220D01*
X116077406Y-116324811D01*
X116001364Y-116319151D01*
X115939136Y-116303415D01*
X115888191Y-116278839D01*
X115846572Y-116245750D01*
X115760446Y-116415224D01*
X115820606Y-116453984D01*
X115896540Y-116483681D01*
X115991710Y-116503141D01*
X116110269Y-116510240D01*
X116218001Y-116501555D01*
X116242376Y-116495000D01*
X116616865Y-116495000D01*
X116883261Y-116495000D01*
X117230464Y-115955223D01*
X117376998Y-115948952D01*
X117376998Y-116495000D01*
X117616802Y-116495000D01*
X117616802Y-115192550D01*
X117466775Y-115185882D01*
X117256263Y-115179214D01*
X117124365Y-115187089D01*
X117019959Y-115208551D01*
X116938019Y-115241081D01*
X116874363Y-115283253D01*
X116825868Y-115334869D01*
X116790717Y-115396983D01*
X116768590Y-115471784D01*
X116760977Y-115559201D01*
X116760700Y-115562377D01*
X116768318Y-115637031D01*
X116790926Y-115706610D01*
X116829125Y-115772572D01*
X116879267Y-115830206D01*
X116936392Y-115874457D01*
X117001377Y-115906484D01*
X116616865Y-116495000D01*
X116242376Y-116495000D01*
X116309459Y-116476960D01*
X116387551Y-116437688D01*
X116454456Y-116383631D01*
X116508087Y-116316765D01*
X116547368Y-116237357D01*
X116572169Y-116142916D01*
X116580986Y-116030157D01*
X116571685Y-115920305D01*
X116545064Y-115825034D01*
X116502011Y-115741695D01*
X116441994Y-115668347D01*
X116368157Y-115607120D01*
X116288931Y-115564318D01*
X116203003Y-115538551D01*
X116108523Y-115529752D01*
X116006297Y-115538078D01*
X115918464Y-115561785D01*
X115842469Y-115599864D01*
X115776401Y-115652551D01*
X115721853Y-115717733D01*
X115683105Y-115790452D01*
X115659371Y-115872218D01*
X115655057Y-115920931D01*
X115651141Y-115965145D01*
X115401889Y-115965145D01*
X115588988Y-115544993D01*
X115345691Y-115544993D01*
X115118350Y-116121601D01*
X114874101Y-115544993D01*
X114638743Y-115544993D01*
X113846461Y-115544993D01*
X113846461Y-115494190D01*
X113721298Y-115426282D01*
X113613467Y-115352769D01*
X113521271Y-115273823D01*
X113443296Y-115189375D01*
X113350978Y-115189375D01*
X113350978Y-116495000D01*
X112818787Y-116495000D01*
X112820409Y-116493729D01*
X112846395Y-116460061D01*
X112861759Y-116422657D01*
X112867005Y-116380218D01*
X112861752Y-116337847D01*
X112846383Y-116300635D01*
X112820409Y-116267261D01*
X112786984Y-116241294D01*
X112749694Y-116225922D01*
X112707215Y-116220666D01*
X112664736Y-116225922D01*
X112627446Y-116241294D01*
X112594021Y-116267261D01*
X112568000Y-116300640D01*
X112552607Y-116337852D01*
X112547346Y-116380218D01*
X112140099Y-116380218D01*
X112173233Y-116339814D01*
X112209870Y-116273428D01*
X112240843Y-116190027D01*
X112265091Y-116086337D01*
X112281086Y-115958638D01*
X112286904Y-115802815D01*
X112278147Y-115670190D01*
X112252979Y-115552377D01*
X112212456Y-115447187D01*
X112156802Y-115352816D01*
X112099725Y-115285139D01*
X112037372Y-115234309D01*
X111969074Y-115198410D01*
X111893574Y-115176574D01*
X111809122Y-115169054D01*
X111715689Y-115176902D01*
X111636206Y-115199168D01*
X111568069Y-115234881D01*
X111509383Y-115284382D01*
X111459126Y-115349287D01*
X111417247Y-115432351D01*
X111384659Y-115537274D01*
X111363160Y-115668530D01*
X111355868Y-115819723D01*
X111355313Y-115831233D01*
X109030672Y-115831233D01*
X109031733Y-115802815D01*
X109022976Y-115670190D01*
X108997808Y-115552377D01*
X108957285Y-115447187D01*
X108901631Y-115352816D01*
X108844554Y-115285139D01*
X108782201Y-115234309D01*
X108713903Y-115198410D01*
X108638403Y-115176574D01*
X108553951Y-115169054D01*
X108460518Y-115176902D01*
X108381035Y-115199168D01*
X108312898Y-115234881D01*
X108254212Y-115284382D01*
X108203955Y-115349287D01*
X108162076Y-115432351D01*
X108129488Y-115537274D01*
X108107989Y-115668530D01*
X108100697Y-115819723D01*
X108100142Y-115831233D01*
X107876056Y-115831233D01*
X107900250Y-115782320D01*
X107922021Y-115700032D01*
X107929715Y-115603019D01*
X107921984Y-115507284D01*
X107899916Y-115424481D01*
X107864388Y-115352341D01*
X107815171Y-115289154D01*
X107754100Y-115236518D01*
X107686759Y-115199412D01*
X107611828Y-115176841D01*
X107527423Y-115169054D01*
X107430220Y-115176407D01*
X107348440Y-115197105D01*
X107279362Y-115229877D01*
X107220886Y-115274552D01*
X107171690Y-115332061D01*
X107131346Y-115404361D01*
X107100352Y-115494283D01*
X107080093Y-115605377D01*
X107079980Y-115607464D01*
X107072740Y-115741773D01*
X106669627Y-115741773D01*
X106461840Y-115189375D01*
X106263790Y-115189375D01*
X105613359Y-115189375D01*
X105521041Y-115189375D01*
X105521041Y-116495000D01*
X104686292Y-116495000D01*
X104686292Y-115557455D01*
X104950942Y-115716213D01*
X104950942Y-115494190D01*
X104825778Y-115426282D01*
X104717947Y-115352769D01*
X104625751Y-115273823D01*
X104547776Y-115189375D01*
X104455458Y-115189375D01*
X104455458Y-116495000D01*
X104111827Y-116495000D01*
X103620710Y-115189375D01*
X103422659Y-115189375D01*
X103053875Y-115189375D01*
X103006662Y-115176014D01*
X102928525Y-115169054D01*
X102827874Y-115175578D01*
X102743990Y-115193799D01*
X102674101Y-115222247D01*
X102615931Y-115260260D01*
X102566962Y-115309796D01*
X102532161Y-115367308D01*
X102510676Y-115434381D01*
X102503134Y-115513400D01*
X102510313Y-115583182D01*
X102533971Y-115666026D01*
X102578156Y-115764965D01*
X102647921Y-115883226D01*
X102914316Y-116289249D01*
X102425898Y-116289249D01*
X102168228Y-116289249D01*
X102174944Y-116277322D01*
X102205792Y-116188646D01*
X102225938Y-116079217D01*
X102233245Y-115944983D01*
X102226782Y-115853697D01*
X102207076Y-115760816D01*
X102173294Y-115665478D01*
X102124141Y-115566873D01*
X102057897Y-115464264D01*
X101980531Y-115367831D01*
X101904016Y-115292631D01*
X101828068Y-115235839D01*
X101752159Y-115195188D01*
X101675529Y-115169054D01*
X101553047Y-115298680D01*
X101638065Y-115349299D01*
X101718180Y-115409759D01*
X101793724Y-115480616D01*
X101861309Y-115559263D01*
X101910125Y-115633258D01*
X101942877Y-115703433D01*
X101852439Y-115671151D01*
X101783008Y-115661838D01*
X101692479Y-115669491D01*
X101614509Y-115691329D01*
X101546813Y-115726541D01*
X101487718Y-115775509D01*
X101440157Y-115835449D01*
X101405575Y-115905286D01*
X101383916Y-115986938D01*
X101376270Y-116082943D01*
X101226270Y-116082943D01*
X101226270Y-114311000D01*
X102000824Y-114311000D01*
X102269918Y-114311000D01*
X102514088Y-114001422D01*
X102733491Y-114311000D01*
X102996315Y-114311000D01*
X102638006Y-113833773D01*
X103057992Y-113833773D01*
X103066436Y-113946188D01*
X103090305Y-114041704D01*
X103128246Y-114123214D01*
X103180077Y-114192963D01*
X103245284Y-114250250D01*
X103321195Y-114291503D01*
X103409925Y-114317191D01*
X103514421Y-114326240D01*
X103621272Y-114317020D01*
X103711071Y-114290967D01*
X103787034Y-114249319D01*
X103851464Y-114191693D01*
X103902639Y-114121377D01*
X103940043Y-114039797D01*
X103963520Y-113944834D01*
X103971803Y-113833773D01*
X103970123Y-113812579D01*
X104105318Y-113812579D01*
X104105924Y-113820596D01*
X104114247Y-113930740D01*
X104139451Y-114030743D01*
X104179458Y-114115727D01*
X104234071Y-114188121D01*
X104302709Y-114247550D01*
X104382188Y-114290309D01*
X104474639Y-114316892D01*
X104583020Y-114326240D01*
X104668939Y-114318134D01*
X104743999Y-114294775D01*
X104810362Y-114256546D01*
X104860132Y-114326240D01*
X104985313Y-114326240D01*
X104985313Y-113781145D01*
X105145182Y-113781145D01*
X105149028Y-113826560D01*
X105163836Y-113903865D01*
X105843240Y-113903865D01*
X105831144Y-113975418D01*
X105805005Y-114032604D01*
X105765131Y-114078499D01*
X105713813Y-114112071D01*
X105650339Y-114133220D01*
X105571447Y-114140811D01*
X105495404Y-114135151D01*
X105433176Y-114119415D01*
X105382232Y-114094839D01*
X105340613Y-114061750D01*
X105254487Y-114231224D01*
X105314646Y-114269984D01*
X105390580Y-114299681D01*
X105485750Y-114319141D01*
X105604310Y-114326240D01*
X105712042Y-114317555D01*
X105736417Y-114311000D01*
X106137815Y-114311000D01*
X106401512Y-114311000D01*
X106681243Y-113881083D01*
X106787849Y-113993801D01*
X106787849Y-114311000D01*
X107009872Y-114311000D01*
X107249517Y-114311000D01*
X107471540Y-114311000D01*
X107471540Y-114229795D01*
X107524554Y-114265200D01*
X107601245Y-114297981D01*
X107682730Y-114319588D01*
X107753097Y-114326240D01*
X107845714Y-114318226D01*
X107918680Y-114296201D01*
X107976130Y-114261927D01*
X108020962Y-114215352D01*
X108054504Y-114154625D01*
X108076339Y-114076336D01*
X108084345Y-113975862D01*
X108084345Y-113820755D01*
X108324308Y-113820755D01*
X108332578Y-113953036D01*
X108355165Y-114058116D01*
X108389543Y-114141027D01*
X108434406Y-114205902D01*
X108480256Y-114248432D01*
X108536449Y-114282684D01*
X108604792Y-114308583D01*
X108687660Y-114325303D01*
X108787881Y-114331321D01*
X108868360Y-114325497D01*
X108937525Y-114308969D01*
X108997234Y-114282625D01*
X109048958Y-114246623D01*
X109092393Y-114201055D01*
X109124959Y-114147645D01*
X109143632Y-114094771D01*
X109773370Y-114094771D01*
X109773370Y-114299569D01*
X109858999Y-114318552D01*
X109993567Y-114326240D01*
X110064236Y-114320632D01*
X110122826Y-114304918D01*
X110171556Y-114280115D01*
X110212097Y-114246306D01*
X110244149Y-114204378D01*
X110267896Y-114153747D01*
X110283038Y-114092644D01*
X110288460Y-114018806D01*
X110288460Y-113540071D01*
X110398558Y-113540071D01*
X110398558Y-113360993D01*
X110288460Y-113360993D01*
X110288460Y-113168102D01*
X110066437Y-113086659D01*
X110066437Y-113360993D01*
X109805360Y-113360993D01*
X109805360Y-113540071D01*
X110066437Y-113540071D01*
X110066437Y-113953239D01*
X110061968Y-114020697D01*
X110050570Y-114066491D01*
X110034447Y-114096438D01*
X110009916Y-114118410D01*
X109974015Y-114132813D01*
X109922523Y-114138271D01*
X109870468Y-114133446D01*
X109821025Y-114119064D01*
X109773370Y-114094771D01*
X109143632Y-114094771D01*
X109147072Y-114085029D01*
X109158183Y-114011265D01*
X108952116Y-114011265D01*
X108930418Y-114059642D01*
X108894299Y-114094281D01*
X108840446Y-114116952D01*
X108762083Y-114125570D01*
X108706049Y-114120284D01*
X108662300Y-114105753D01*
X108628140Y-114083015D01*
X108601816Y-114051748D01*
X108577862Y-114000127D01*
X108561411Y-113927535D01*
X108555142Y-113827661D01*
X108555142Y-113010455D01*
X108324308Y-113010455D01*
X108324308Y-113820755D01*
X108084345Y-113820755D01*
X108084345Y-113360993D01*
X107862322Y-113360993D01*
X107862322Y-113958716D01*
X107854600Y-114029110D01*
X107834157Y-114078284D01*
X107802759Y-114111978D01*
X107758862Y-114133047D01*
X107698008Y-114140811D01*
X107625205Y-114131089D01*
X107557745Y-114101915D01*
X107517441Y-114072965D01*
X107489441Y-114042997D01*
X107471540Y-114011741D01*
X107471540Y-113360993D01*
X107249517Y-113360993D01*
X107249517Y-114311000D01*
X107009872Y-114311000D01*
X107009872Y-113004422D01*
X110398162Y-113004422D01*
X110463887Y-113172864D01*
X110533082Y-113153880D01*
X110575732Y-113148892D01*
X110615263Y-113154828D01*
X110650494Y-113172535D01*
X110682814Y-113203505D01*
X110706855Y-113241916D01*
X110721575Y-113286157D01*
X110726711Y-113337734D01*
X110725838Y-113360993D01*
X110528661Y-113360993D01*
X110528661Y-113543882D01*
X110722266Y-113543882D01*
X110722266Y-114311000D01*
X110944289Y-114311000D01*
X110944289Y-114256069D01*
X111157659Y-114256069D01*
X111188510Y-114296503D01*
X111218940Y-114315127D01*
X111254120Y-114323317D01*
X111296175Y-114326240D01*
X111341241Y-114317627D01*
X111382301Y-114291075D01*
X111414843Y-114253507D01*
X111433818Y-114214554D01*
X111457260Y-114243760D01*
X111491487Y-114270620D01*
X111539075Y-114295044D01*
X111615704Y-114318431D01*
X111695769Y-114326240D01*
X111772761Y-114320876D01*
X111837378Y-114305824D01*
X111891702Y-114282146D01*
X111937398Y-114250195D01*
X111975029Y-114209313D01*
X112002215Y-114160826D01*
X112019237Y-114103204D01*
X112025271Y-114034285D01*
X112017132Y-113955147D01*
X111993823Y-113887599D01*
X111955695Y-113829203D01*
X111901360Y-113778446D01*
X111838078Y-113740497D01*
X111760327Y-113711634D01*
X111665197Y-113692900D01*
X111549235Y-113686129D01*
X111508705Y-113689168D01*
X111456918Y-113699464D01*
X111465406Y-113638887D01*
X111488834Y-113594258D01*
X111527313Y-113561450D01*
X111584992Y-113539566D01*
X111669177Y-113531181D01*
X111751880Y-113536296D01*
X111821001Y-113550581D01*
X111878737Y-113572855D01*
X111926682Y-113400841D01*
X111873040Y-113380440D01*
X112039400Y-113380440D01*
X112133544Y-113570235D01*
X112195906Y-113540941D01*
X112264043Y-113531181D01*
X112312484Y-113538578D01*
X112357703Y-113561061D01*
X112401289Y-113601034D01*
X112434296Y-113650468D01*
X112454291Y-113706721D01*
X112461220Y-113771699D01*
X112461220Y-114311000D01*
X112683243Y-114311000D01*
X112683243Y-114233843D01*
X112861131Y-114233843D01*
X112956615Y-114285305D01*
X113030287Y-114310285D01*
X113106003Y-114321946D01*
X113201190Y-114326240D01*
X113310318Y-114317477D01*
X113402793Y-114292683D01*
X113481592Y-114253136D01*
X113548949Y-114198758D01*
X113603016Y-114131419D01*
X113642562Y-114051681D01*
X113667497Y-113957092D01*
X113676352Y-113844410D01*
X113670975Y-113781145D01*
X113791769Y-113781145D01*
X113795616Y-113826560D01*
X113810423Y-113903865D01*
X114489828Y-113903865D01*
X114477731Y-113975418D01*
X114451593Y-114032604D01*
X114411719Y-114078499D01*
X114360401Y-114112071D01*
X114296927Y-114133220D01*
X114218034Y-114140811D01*
X114141992Y-114135151D01*
X114079764Y-114119415D01*
X114028819Y-114094839D01*
X113987200Y-114061750D01*
X113901074Y-114231224D01*
X113961234Y-114269984D01*
X114037168Y-114299681D01*
X114132338Y-114319141D01*
X114250897Y-114326240D01*
X114358629Y-114317555D01*
X114450087Y-114292960D01*
X114528179Y-114253688D01*
X114595084Y-114199631D01*
X114648715Y-114132765D01*
X114687996Y-114053357D01*
X114712797Y-113958916D01*
X114721614Y-113846157D01*
X114712313Y-113736305D01*
X114710470Y-113729708D01*
X114898788Y-113729708D01*
X114898788Y-114311000D01*
X115120731Y-114311000D01*
X115120731Y-113763682D01*
X115126958Y-113683930D01*
X115143300Y-113626886D01*
X115167406Y-113586905D01*
X115202425Y-113557443D01*
X115251551Y-113538329D01*
X115319655Y-113531181D01*
X115368634Y-113537641D01*
X115424038Y-113558646D01*
X115474461Y-113590159D01*
X115510641Y-113626674D01*
X115510641Y-114311000D01*
X115732663Y-114311000D01*
X115990804Y-114311000D01*
X116215446Y-114311000D01*
X116403733Y-114311000D01*
X116627502Y-114311000D01*
X116762446Y-113611195D01*
X117024476Y-114331321D01*
X117107030Y-114331321D01*
X117369060Y-113611195D01*
X117509323Y-114311000D01*
X117732219Y-114311000D01*
X117470268Y-113010455D01*
X117347707Y-113010455D01*
X117066229Y-113889339D01*
X116790864Y-113010455D01*
X116669255Y-113010455D01*
X116403733Y-114311000D01*
X116215446Y-114311000D01*
X116215446Y-113542612D01*
X116337134Y-113542612D01*
X116337134Y-113360993D01*
X115990804Y-113360993D01*
X115990804Y-114311000D01*
X115732663Y-114311000D01*
X115732663Y-113360993D01*
X115572794Y-113360993D01*
X115531914Y-113451881D01*
X115483176Y-113406833D01*
X115423980Y-113373974D01*
X115352145Y-113353186D01*
X115264645Y-113345752D01*
X115180807Y-113352680D01*
X115109674Y-113372310D01*
X115048940Y-113403706D01*
X114996900Y-113447039D01*
X114955439Y-113500301D01*
X114924957Y-113563722D01*
X114905659Y-113639317D01*
X114898788Y-113729708D01*
X114710470Y-113729708D01*
X114685692Y-113641034D01*
X114642639Y-113557695D01*
X114582622Y-113484347D01*
X114508785Y-113423120D01*
X114429559Y-113380318D01*
X114343631Y-113354551D01*
X114249151Y-113345752D01*
X114146925Y-113354078D01*
X114059092Y-113377785D01*
X113983097Y-113415864D01*
X113917029Y-113468551D01*
X113862481Y-113533733D01*
X113823733Y-113606452D01*
X113799999Y-113688218D01*
X113795685Y-113736931D01*
X113791769Y-113781145D01*
X113670975Y-113781145D01*
X113667016Y-113734569D01*
X113640311Y-113639471D01*
X113597140Y-113556426D01*
X113536963Y-113483474D01*
X113479039Y-113435220D01*
X113413348Y-113397264D01*
X113338778Y-113369364D01*
X113253855Y-113351880D01*
X113156817Y-113345752D01*
X113074900Y-113351825D01*
X113000264Y-113369514D01*
X112931687Y-113398483D01*
X112868196Y-113439022D01*
X112963212Y-113604845D01*
X113019378Y-113564887D01*
X113088072Y-113540035D01*
X113172773Y-113531181D01*
X113234602Y-113536769D01*
X113287375Y-113552689D01*
X113332829Y-113578405D01*
X113372172Y-113614370D01*
X113411434Y-113673824D01*
X113436398Y-113749026D01*
X113445439Y-113844331D01*
X113438606Y-113929032D01*
X113419948Y-113995139D01*
X113391231Y-114046530D01*
X113352756Y-114086047D01*
X113303322Y-114115201D01*
X113240396Y-114133973D01*
X113160389Y-114140811D01*
X113081127Y-114131672D01*
X113009274Y-114104706D01*
X112942812Y-114059051D01*
X112861131Y-114233843D01*
X112683243Y-114233843D01*
X112683243Y-113360993D01*
X112461220Y-113360993D01*
X112461220Y-113450135D01*
X112411191Y-113404783D01*
X112354232Y-113372528D01*
X112288965Y-113352680D01*
X112213399Y-113345752D01*
X112137873Y-113350327D01*
X112081215Y-113362491D01*
X112039400Y-113380440D01*
X111873040Y-113380440D01*
X111848476Y-113371098D01*
X111758293Y-113352357D01*
X111654016Y-113345752D01*
X111543528Y-113353134D01*
X111456417Y-113373263D01*
X111388185Y-113403920D01*
X111335230Y-113444102D01*
X111295749Y-113495629D01*
X111264107Y-113569957D01*
X111242317Y-113674129D01*
X111234022Y-113816786D01*
X111234022Y-113867589D01*
X111234022Y-114018806D01*
X111227497Y-114117175D01*
X111210795Y-114184351D01*
X111187089Y-114228568D01*
X111157659Y-114256069D01*
X110944289Y-114256069D01*
X110944289Y-113543882D01*
X111082805Y-113543882D01*
X111082805Y-113360993D01*
X110943415Y-113360993D01*
X110933601Y-113273926D01*
X110912679Y-113198882D01*
X110881449Y-113133965D01*
X110871392Y-113120316D01*
X115972150Y-113120316D01*
X115981592Y-113169759D01*
X116009934Y-113211443D01*
X116051541Y-113239786D01*
X116100902Y-113249227D01*
X116150277Y-113239789D01*
X116191950Y-113211443D01*
X116220230Y-113169765D01*
X116229655Y-113120316D01*
X116220230Y-113070867D01*
X116191950Y-113029189D01*
X116150277Y-113000842D01*
X116100902Y-112991404D01*
X116051541Y-113000845D01*
X116009934Y-113029189D01*
X115981592Y-113070873D01*
X115972150Y-113120316D01*
X110871392Y-113120316D01*
X110839985Y-113077689D01*
X110788243Y-113030467D01*
X110730412Y-112997166D01*
X110665241Y-112976852D01*
X110590894Y-112969813D01*
X110508360Y-112977556D01*
X110398162Y-113004422D01*
X107009872Y-113004422D01*
X107009872Y-113002755D01*
X106787849Y-112949492D01*
X106787849Y-113725580D01*
X106470810Y-113360993D01*
X106203462Y-113360993D01*
X106524946Y-113721293D01*
X106137815Y-114311000D01*
X105736417Y-114311000D01*
X105803500Y-114292960D01*
X105881591Y-114253688D01*
X105948497Y-114199631D01*
X106002128Y-114132765D01*
X106041408Y-114053357D01*
X106066209Y-113958916D01*
X106075027Y-113846157D01*
X106065726Y-113736305D01*
X106039105Y-113641034D01*
X105996051Y-113557695D01*
X105936034Y-113484347D01*
X105862198Y-113423120D01*
X105782971Y-113380318D01*
X105697044Y-113354551D01*
X105602563Y-113345752D01*
X105500337Y-113354078D01*
X105412505Y-113377785D01*
X105336509Y-113415864D01*
X105270442Y-113468551D01*
X105215893Y-113533733D01*
X105177145Y-113606452D01*
X105153412Y-113688218D01*
X105149098Y-113736931D01*
X105145182Y-113781145D01*
X104985313Y-113781145D01*
X104985313Y-113002755D01*
X104763369Y-112949492D01*
X104763369Y-113399571D01*
X104702303Y-113369642D01*
X104638119Y-113351781D01*
X104569764Y-113345752D01*
X104467144Y-113354532D01*
X104378426Y-113379638D01*
X104301061Y-113420220D01*
X104233197Y-113476806D01*
X104177829Y-113546038D01*
X104138215Y-113623863D01*
X104113811Y-113711953D01*
X104105318Y-113812579D01*
X103970123Y-113812579D01*
X103963330Y-113726895D01*
X103939116Y-113634107D01*
X103900124Y-113552976D01*
X103846146Y-113481648D01*
X103779026Y-113422708D01*
X103702705Y-113380684D01*
X103615364Y-113354791D01*
X103514421Y-113345752D01*
X103407302Y-113354759D01*
X103317507Y-113380161D01*
X103241808Y-113420637D01*
X103177855Y-113476409D01*
X103127176Y-113544711D01*
X103089910Y-113625336D01*
X103066356Y-113720672D01*
X103057992Y-113833773D01*
X102638006Y-113833773D01*
X102631331Y-113824883D01*
X102967024Y-113360993D01*
X102712138Y-113360993D01*
X102511468Y-113651043D01*
X102287620Y-113360993D01*
X102034560Y-113360993D01*
X102399544Y-113824883D01*
X102000824Y-114311000D01*
X101226270Y-114311000D01*
X101226270Y-111424972D01*
X107897805Y-111424972D01*
X107898602Y-111439260D01*
X107905922Y-111570416D01*
X107928626Y-111692798D01*
X107963982Y-111795587D01*
X108010834Y-111881757D01*
X108068878Y-111953677D01*
X108138681Y-112012986D01*
X108221633Y-112060493D01*
X108319865Y-112096116D01*
X108436119Y-112118884D01*
X108573637Y-112127000D01*
X108862259Y-112127000D01*
X109132385Y-112127000D01*
X109363299Y-112127000D01*
X109363299Y-111032205D01*
X109572541Y-111032205D01*
X110198603Y-111032205D01*
X110198603Y-111334480D01*
X109741301Y-111334480D01*
X109741301Y-111531340D01*
X110198603Y-111531340D01*
X110198603Y-112127000D01*
X110429516Y-112127000D01*
X110540885Y-112127000D01*
X110807281Y-112127000D01*
X111154484Y-111587223D01*
X111301017Y-111580952D01*
X111301017Y-112127000D01*
X111540821Y-112127000D01*
X111540821Y-111921249D01*
X112296826Y-111921249D01*
X112296826Y-112127000D01*
X113149356Y-112127000D01*
X113149356Y-112059289D01*
X112942251Y-111753998D01*
X113426309Y-111753998D01*
X113434647Y-111844615D01*
X113458276Y-111920851D01*
X113496280Y-111985523D01*
X113549346Y-112040556D01*
X113612914Y-112083053D01*
X113689004Y-112114751D01*
X113780043Y-112135001D01*
X113889009Y-112142240D01*
X113985539Y-112134030D01*
X114011171Y-112127000D01*
X114361472Y-112127000D01*
X114585241Y-112127000D01*
X114720185Y-111427195D01*
X114982215Y-112147321D01*
X115064769Y-112147321D01*
X115326799Y-111427195D01*
X115467062Y-112127000D01*
X115689958Y-112127000D01*
X115469448Y-111032205D01*
X115725361Y-111032205D01*
X116157817Y-111032205D01*
X116157817Y-112127000D01*
X116388730Y-112127000D01*
X116388730Y-111785750D01*
X116891278Y-111785750D01*
X116899208Y-111861722D01*
X116922299Y-111929160D01*
X116960691Y-111989982D01*
X117016062Y-112045398D01*
X117080571Y-112088321D01*
X117156321Y-112120072D01*
X117245406Y-112140184D01*
X117350406Y-112147321D01*
X117440336Y-112141281D01*
X117524449Y-112123526D01*
X117603719Y-112094252D01*
X117678955Y-112053177D01*
X117593702Y-111845681D01*
X117499123Y-111900773D01*
X117410101Y-111931671D01*
X117324608Y-111941570D01*
X117241861Y-111934126D01*
X117186262Y-111914964D01*
X117150176Y-111886921D01*
X117128829Y-111849853D01*
X117121239Y-111800673D01*
X117126344Y-111758230D01*
X117141923Y-111716587D01*
X117169184Y-111674778D01*
X117205307Y-111639017D01*
X117267891Y-111594770D01*
X117366837Y-111540230D01*
X117502673Y-111465573D01*
X117568460Y-111417273D01*
X117614303Y-111364517D01*
X117648315Y-111302491D01*
X117669078Y-111233446D01*
X117676256Y-111155322D01*
X117669157Y-111082248D01*
X117648529Y-111017286D01*
X117614447Y-110958731D01*
X117565761Y-110905437D01*
X117507876Y-110862773D01*
X117442315Y-110831947D01*
X117367640Y-110812818D01*
X117281981Y-110806134D01*
X117166097Y-110812619D01*
X117075243Y-110830185D01*
X117004763Y-110856577D01*
X116950733Y-110890435D01*
X117020904Y-111089993D01*
X117105249Y-111040861D01*
X117190237Y-111012398D01*
X117277536Y-111002994D01*
X117329240Y-111008152D01*
X117369707Y-111022382D01*
X117401447Y-111044827D01*
X117425669Y-111075094D01*
X117440309Y-111110751D01*
X117445423Y-111153417D01*
X117438711Y-111190146D01*
X117416706Y-111229954D01*
X117374413Y-111274758D01*
X117304457Y-111325941D01*
X117197602Y-111384489D01*
X117077918Y-111450309D01*
X117009394Y-111501811D01*
X116958421Y-111559966D01*
X116921442Y-111626754D01*
X116899054Y-111700917D01*
X116891278Y-111785750D01*
X116388730Y-111785750D01*
X116388730Y-111032205D01*
X116802533Y-111032205D01*
X116802533Y-110826455D01*
X115725361Y-110826455D01*
X115725361Y-111032205D01*
X115469448Y-111032205D01*
X115428007Y-110826455D01*
X115305446Y-110826455D01*
X115023968Y-111705339D01*
X114748603Y-110826455D01*
X114626994Y-110826455D01*
X114361472Y-112127000D01*
X114011171Y-112127000D01*
X114072698Y-112110125D01*
X114152268Y-112070800D01*
X114225575Y-112015234D01*
X114110158Y-111836155D01*
X114054671Y-111886103D01*
X113999493Y-111919615D01*
X113943790Y-111938983D01*
X113886389Y-111945381D01*
X113813896Y-111938670D01*
X113759854Y-111920600D01*
X113719893Y-111892908D01*
X113691181Y-111855347D01*
X113672839Y-111805740D01*
X113666113Y-111740345D01*
X113673496Y-111680987D01*
X113694724Y-111631147D01*
X113730092Y-111588572D01*
X113775886Y-111556946D01*
X113832327Y-111537152D01*
X113902344Y-111530070D01*
X113943224Y-111530070D01*
X113943224Y-111339561D01*
X113908536Y-111339561D01*
X113830498Y-111331456D01*
X113776586Y-111310175D01*
X113740203Y-111277941D01*
X113717793Y-111233569D01*
X113709612Y-111172785D01*
X113717693Y-111107420D01*
X113739502Y-111060592D01*
X113774077Y-111027401D01*
X113824085Y-111005969D01*
X113895200Y-110997914D01*
X113955782Y-111007100D01*
X114017284Y-111035929D01*
X114081741Y-111088485D01*
X114190093Y-110928933D01*
X114139769Y-110882974D01*
X114059515Y-110839235D01*
X113969779Y-110810400D01*
X113881944Y-110801054D01*
X113783958Y-110807443D01*
X113702516Y-110825267D01*
X113634856Y-110853068D01*
X113578716Y-110890196D01*
X113531649Y-110938511D01*
X113498049Y-110994996D01*
X113477222Y-111061278D01*
X113469888Y-111139764D01*
X113476699Y-111213870D01*
X113496281Y-111278421D01*
X113528221Y-111335276D01*
X113573265Y-111385725D01*
X113633250Y-111430370D01*
X113556671Y-111476587D01*
X113499779Y-111530945D01*
X113459630Y-111593985D01*
X113434956Y-111667433D01*
X113426309Y-111753998D01*
X112942251Y-111753998D01*
X112737300Y-111451882D01*
X112677850Y-111354317D01*
X112640188Y-111272424D01*
X112620003Y-111203563D01*
X112613866Y-111145241D01*
X112621113Y-111091611D01*
X112640979Y-111052425D01*
X112673268Y-111023925D01*
X112721169Y-111005091D01*
X112790563Y-110997914D01*
X112853422Y-111006418D01*
X112909483Y-111031594D01*
X112960774Y-111074923D01*
X113008141Y-111140319D01*
X113163565Y-111017758D01*
X113127582Y-110959976D01*
X113079680Y-110908486D01*
X113018381Y-110862811D01*
X112950135Y-110828544D01*
X112877590Y-110808014D01*
X112799453Y-110801054D01*
X112698802Y-110807578D01*
X112614918Y-110825799D01*
X112545029Y-110854247D01*
X112486859Y-110892260D01*
X112437890Y-110941796D01*
X112403089Y-110999308D01*
X112381604Y-111066381D01*
X112374062Y-111145400D01*
X112381242Y-111215182D01*
X112404900Y-111298026D01*
X112449084Y-111396965D01*
X112518849Y-111515226D01*
X112785245Y-111921249D01*
X112296826Y-111921249D01*
X111540821Y-111921249D01*
X111540821Y-110824550D01*
X111390795Y-110817882D01*
X111180282Y-110811214D01*
X111048384Y-110819089D01*
X110943978Y-110840551D01*
X110862039Y-110873081D01*
X110798383Y-110915253D01*
X110749887Y-110966869D01*
X110714736Y-111028983D01*
X110692609Y-111103784D01*
X110684996Y-111191201D01*
X110684719Y-111194377D01*
X110692338Y-111269031D01*
X110714946Y-111338610D01*
X110753144Y-111404572D01*
X110803287Y-111462206D01*
X110860412Y-111506457D01*
X110925396Y-111538484D01*
X110540885Y-112127000D01*
X110429516Y-112127000D01*
X110429516Y-110826455D01*
X109572541Y-110826455D01*
X109572541Y-111032205D01*
X109363299Y-111032205D01*
X109363299Y-110826455D01*
X109132385Y-110826455D01*
X109132385Y-112127000D01*
X108862259Y-112127000D01*
X108862259Y-110826058D01*
X108515055Y-110816295D01*
X108400760Y-110823660D01*
X108300405Y-110844710D01*
X108211944Y-110878383D01*
X108133680Y-110924326D01*
X108064342Y-110982911D01*
X108005439Y-111052430D01*
X107959464Y-111130061D01*
X107925935Y-111216945D01*
X107905074Y-111314626D01*
X107897805Y-111424972D01*
X101226270Y-111424972D01*
X101226270Y-110651054D01*
X117884918Y-110651054D01*
X117884918Y-118849321D01*
G37*
D12*
G36*
X112755954Y-97769177D02*
G01*
X112670701Y-97561681D01*
X112576122Y-97616773D01*
X112487100Y-97647671D01*
X112401607Y-97657570D01*
X112318860Y-97650126D01*
X112263261Y-97630964D01*
X112227175Y-97602921D01*
X112205828Y-97565853D01*
X112198238Y-97516673D01*
X112203343Y-97474230D01*
X112218922Y-97432587D01*
X112246183Y-97390778D01*
X112282306Y-97355017D01*
X112344890Y-97310770D01*
X112443836Y-97256230D01*
X112579672Y-97181573D01*
X112645459Y-97133273D01*
X112691302Y-97080517D01*
X112725314Y-97018491D01*
X112746077Y-96949446D01*
X112753255Y-96871322D01*
X112746156Y-96798248D01*
X112725528Y-96733286D01*
X112691446Y-96674731D01*
X112642760Y-96621437D01*
X112584875Y-96578773D01*
X112519314Y-96547947D01*
X112444639Y-96528818D01*
X112358980Y-96522134D01*
X112243096Y-96528619D01*
X112152242Y-96546185D01*
X112081762Y-96572577D01*
X112027732Y-96606435D01*
X112097903Y-96805993D01*
X112182248Y-96756861D01*
X112267236Y-96728398D01*
X112354535Y-96718994D01*
X112406239Y-96724152D01*
X112446706Y-96738382D01*
X112478446Y-96760827D01*
X112502668Y-96791094D01*
X112517308Y-96826751D01*
X112522422Y-96869417D01*
X112515710Y-96906146D01*
X112493705Y-96945954D01*
X112451412Y-96990758D01*
X112381456Y-97041941D01*
X112274601Y-97100489D01*
X112154917Y-97166309D01*
X112086393Y-97217811D01*
X112035420Y-97275966D01*
X111998441Y-97342754D01*
X111976053Y-97416917D01*
X111968277Y-97501750D01*
X111976207Y-97577722D01*
X111999298Y-97645160D01*
X112037690Y-97705982D01*
X112093061Y-97761398D01*
X112157570Y-97804321D01*
X112233320Y-97836072D01*
X112322405Y-97856184D01*
X112427405Y-97863321D01*
X112517335Y-97857281D01*
X112601448Y-97839526D01*
X112680718Y-97810252D01*
X112755954Y-97769177D01*
G37*
G36*
X111764115Y-96542058D02*
G01*
X111764115Y-97843000D01*
X111533201Y-97843000D01*
X111533201Y-97366885D01*
X111428421Y-97373076D01*
X111290935Y-97364250D01*
X111181280Y-97340078D01*
X111094348Y-97303149D01*
X111025974Y-97254750D01*
X110973176Y-97194748D01*
X110934422Y-97121597D01*
X110909785Y-97032510D01*
X110902392Y-96941493D01*
X111137101Y-96941493D01*
X111142327Y-97000796D01*
X111156739Y-97047767D01*
X111179254Y-97084980D01*
X111209970Y-97114222D01*
X111261581Y-97141402D01*
X111336058Y-97160134D01*
X111440884Y-97167326D01*
X111533201Y-97161135D01*
X111533201Y-96742490D01*
X111463030Y-96738045D01*
X111346832Y-96746007D01*
X111264024Y-96766802D01*
X111206525Y-96797036D01*
X111168137Y-96835304D01*
X111145181Y-96882469D01*
X111137101Y-96941493D01*
X110902392Y-96941493D01*
X110900948Y-96923712D01*
X110907294Y-96843418D01*
X110925219Y-96775546D01*
X110953745Y-96717893D01*
X110992860Y-96668790D01*
X111043513Y-96627232D01*
X111114989Y-96589739D01*
X111209964Y-96559906D01*
X111334155Y-96539780D01*
X111494147Y-96532295D01*
X111764115Y-96542058D01*
G37*
G36*
X110465079Y-96748205D02*
G01*
X110465079Y-97050480D01*
X110035242Y-97050480D01*
X110035242Y-97247340D01*
X110465079Y-97247340D01*
X110465079Y-97637249D01*
X109875452Y-97637249D01*
X109875452Y-97843000D01*
X110695992Y-97843000D01*
X110695992Y-96542455D01*
X109865688Y-96542455D01*
X109865688Y-96748205D01*
X110465079Y-96748205D01*
G37*
G36*
X109789643Y-97843000D02*
G01*
X109533011Y-97843000D01*
X109442440Y-97577556D01*
X108996648Y-97577556D01*
X108901631Y-97843000D01*
X108646746Y-97843000D01*
X108821759Y-97401018D01*
X109064120Y-97401018D01*
X109376714Y-97401018D01*
X109220417Y-96919664D01*
X109064120Y-97401018D01*
X108821759Y-97401018D01*
X109169773Y-96522134D01*
X109271061Y-96522134D01*
X109789643Y-97843000D01*
G37*
G36*
X107770958Y-97843000D02*
G01*
X108133323Y-97289173D01*
X108278030Y-97487144D01*
X108278030Y-97843000D01*
X108508944Y-97843000D01*
X108508944Y-96542455D01*
X108278030Y-96542455D01*
X108278030Y-97164786D01*
X107835810Y-96542455D01*
X107572907Y-96542455D01*
X107980518Y-97110650D01*
X107494799Y-97843000D01*
X107770958Y-97843000D01*
G37*
G36*
X107155295Y-96748205D02*
G01*
X107155295Y-97050480D01*
X106725458Y-97050480D01*
X106725458Y-97247340D01*
X107155295Y-97247340D01*
X107155295Y-97637249D01*
X106565668Y-97637249D01*
X106565668Y-97843000D01*
X107386208Y-97843000D01*
X107386208Y-96542455D01*
X106555905Y-96542455D01*
X106555905Y-96748205D01*
X107155295Y-96748205D01*
G37*
G36*
X106201081Y-96533882D02*
G01*
X106351107Y-96540550D01*
X106351107Y-97843000D01*
X106111303Y-97843000D01*
X106111303Y-97296952D01*
X105964770Y-97303223D01*
X105617566Y-97843000D01*
X105351171Y-97843000D01*
X105735682Y-97254484D01*
X105670698Y-97222457D01*
X105613572Y-97178206D01*
X105563430Y-97120572D01*
X105525231Y-97054610D01*
X105502624Y-96985031D01*
X105495005Y-96910377D01*
X105495282Y-96907201D01*
X105734809Y-96907201D01*
X105739890Y-96966169D01*
X105753521Y-97010073D01*
X105774216Y-97042426D01*
X105801884Y-97065642D01*
X105848716Y-97086293D01*
X105917014Y-97100768D01*
X106013667Y-97106363D01*
X106111303Y-97101045D01*
X106111303Y-96740823D01*
X106033194Y-96735505D01*
X105929636Y-96740778D01*
X105856580Y-96754378D01*
X105806726Y-96773607D01*
X105767356Y-96804659D01*
X105743474Y-96847787D01*
X105734809Y-96907201D01*
X105495282Y-96907201D01*
X105502895Y-96819784D01*
X105525022Y-96744983D01*
X105560173Y-96682869D01*
X105608668Y-96631253D01*
X105672324Y-96589081D01*
X105754264Y-96556551D01*
X105858670Y-96535089D01*
X105990568Y-96527214D01*
X106201081Y-96533882D01*
G37*
G36*
X110052626Y-98834014D02*
G01*
X110149389Y-99020237D01*
X110197040Y-98986432D01*
X110275522Y-98947843D01*
X110358756Y-98919921D01*
X110422055Y-98911884D01*
X110515882Y-98920544D01*
X110595990Y-98945240D01*
X110665048Y-98985208D01*
X110724886Y-99041272D01*
X110771813Y-99108495D01*
X110806345Y-99187131D01*
X110828140Y-99279322D01*
X110835858Y-99387761D01*
X110828333Y-99490716D01*
X110807048Y-99578463D01*
X110773229Y-99653548D01*
X110727109Y-99717977D01*
X110668667Y-99771413D01*
X110601154Y-99809617D01*
X110522773Y-99833269D01*
X110430946Y-99841570D01*
X110351054Y-99833665D01*
X110284156Y-99811239D01*
X110227577Y-99774971D01*
X110227577Y-99522785D01*
X110407846Y-99522785D01*
X110407846Y-99325925D01*
X109996664Y-99325925D01*
X109996664Y-99905153D01*
X110054448Y-99945080D01*
X110124705Y-99980111D01*
X110209399Y-100009774D01*
X110339951Y-100038048D01*
X110468254Y-100047321D01*
X110579752Y-100039390D01*
X110677988Y-100016643D01*
X110765047Y-99980017D01*
X110842604Y-99929576D01*
X110911823Y-99864511D01*
X110969209Y-99789192D01*
X111014425Y-99704696D01*
X111047643Y-99609738D01*
X111068408Y-99502674D01*
X111075661Y-99381569D01*
X111067914Y-99261409D01*
X111045622Y-99154272D01*
X111009708Y-99058280D01*
X110960399Y-98971870D01*
X110897218Y-98893865D01*
X110822357Y-98827384D01*
X110738397Y-98775587D01*
X110644056Y-98737834D01*
X110537561Y-98714334D01*
X110416737Y-98706134D01*
X110311425Y-98714503D01*
X110216813Y-98738773D01*
X110131027Y-98778440D01*
X110052626Y-98834014D01*
G37*
G36*
X109920460Y-100027000D02*
G01*
X109663828Y-100027000D01*
X109573256Y-99761556D01*
X109127464Y-99761556D01*
X109032448Y-100027000D01*
X108777562Y-100027000D01*
X108952575Y-99585018D01*
X109194936Y-99585018D01*
X109507531Y-99585018D01*
X109351234Y-99103664D01*
X109194936Y-99585018D01*
X108952575Y-99585018D01*
X109300590Y-98706134D01*
X109401877Y-98706134D01*
X109920460Y-100027000D01*
G37*
G36*
X108635315Y-100027000D02*
G01*
X108635315Y-98726455D01*
X108404402Y-98726455D01*
X108404402Y-100027000D01*
X108635315Y-100027000D01*
G37*
G36*
X107280872Y-100047321D02*
G01*
X107912252Y-99222812D01*
X107912252Y-100027000D01*
X108134275Y-100027000D01*
X108134275Y-98726455D01*
X108023224Y-98726455D01*
X107408752Y-99512783D01*
X107408752Y-98726455D01*
X107186729Y-98726455D01*
X107186729Y-100047321D01*
X107280872Y-100047321D01*
G37*
G36*
X112809297Y-101018014D02*
G01*
X112906060Y-101204237D01*
X112953711Y-101170432D01*
X113032193Y-101131843D01*
X113115427Y-101103921D01*
X113178726Y-101095884D01*
X113272553Y-101104544D01*
X113352661Y-101129240D01*
X113421719Y-101169208D01*
X113481557Y-101225272D01*
X113528484Y-101292495D01*
X113563016Y-101371131D01*
X113584811Y-101463322D01*
X113592529Y-101571761D01*
X113585004Y-101674716D01*
X113563719Y-101762463D01*
X113529900Y-101837548D01*
X113483780Y-101901977D01*
X113425338Y-101955413D01*
X113357825Y-101993617D01*
X113279444Y-102017269D01*
X113187617Y-102025570D01*
X113107725Y-102017665D01*
X113040827Y-101995239D01*
X112984248Y-101958971D01*
X112984248Y-101706785D01*
X113164517Y-101706785D01*
X113164517Y-101509925D01*
X112753335Y-101509925D01*
X112753335Y-102089153D01*
X112811119Y-102129080D01*
X112881376Y-102164111D01*
X112966070Y-102193774D01*
X113096622Y-102222048D01*
X113224925Y-102231321D01*
X113336423Y-102223390D01*
X113434659Y-102200643D01*
X113521718Y-102164017D01*
X113599275Y-102113576D01*
X113668494Y-102048511D01*
X113725880Y-101973192D01*
X113771096Y-101888696D01*
X113804314Y-101793738D01*
X113825079Y-101686674D01*
X113832332Y-101565569D01*
X113824585Y-101445409D01*
X113802293Y-101338272D01*
X113766379Y-101242280D01*
X113717070Y-101155870D01*
X113653889Y-101077865D01*
X113579028Y-101011384D01*
X113495068Y-100959587D01*
X113400727Y-100921834D01*
X113294232Y-100898334D01*
X113173408Y-100890134D01*
X113068096Y-100898503D01*
X112973484Y-100922773D01*
X112887698Y-100962440D01*
X112809297Y-101018014D01*
G37*
G36*
X111694975Y-102231321D02*
G01*
X112326355Y-101406812D01*
X112326355Y-102211000D01*
X112548378Y-102211000D01*
X112548378Y-100910455D01*
X112437327Y-100910455D01*
X111822855Y-101696783D01*
X111822855Y-100910455D01*
X111600832Y-100910455D01*
X111600832Y-102231321D01*
X111694975Y-102231321D01*
G37*
G36*
X111334198Y-100910058D02*
G01*
X111334198Y-102211000D01*
X111045576Y-102211000D01*
X110908059Y-102202884D01*
X110791805Y-102180116D01*
X110693573Y-102144493D01*
X110610620Y-102096986D01*
X110540818Y-102037677D01*
X110482773Y-101965757D01*
X110435921Y-101879587D01*
X110400566Y-101776798D01*
X110377862Y-101654416D01*
X110370541Y-101523260D01*
X110609548Y-101523260D01*
X110616706Y-101638596D01*
X110636623Y-101734132D01*
X110667552Y-101813136D01*
X110708613Y-101878322D01*
X110762663Y-101933699D01*
X110825076Y-101972811D01*
X110897513Y-101996839D01*
X110982550Y-102005249D01*
X111103285Y-101999931D01*
X111103285Y-101112236D01*
X110997632Y-101106045D01*
X110901682Y-101113357D01*
X110823696Y-101133636D01*
X110760292Y-101165267D01*
X110708888Y-101207885D01*
X110667911Y-101262413D01*
X110636962Y-101330958D01*
X110616856Y-101416615D01*
X110609548Y-101523260D01*
X110370541Y-101523260D01*
X110369744Y-101508972D01*
X110377014Y-101398626D01*
X110397874Y-101300945D01*
X110431404Y-101214061D01*
X110477379Y-101136430D01*
X110536281Y-101066911D01*
X110605619Y-101008326D01*
X110683883Y-100962383D01*
X110772345Y-100928710D01*
X110872700Y-100907660D01*
X110986995Y-100900295D01*
X111334198Y-100910058D01*
G37*
G36*
X110144387Y-101374822D02*
G01*
X110139134Y-101332451D01*
X110123765Y-101295239D01*
X110097792Y-101261866D01*
X110064366Y-101235898D01*
X110027076Y-101220526D01*
X109984598Y-101215270D01*
X109942119Y-101220526D01*
X109904829Y-101235898D01*
X109871403Y-101261866D01*
X109845383Y-101295245D01*
X109829989Y-101332456D01*
X109824729Y-101374822D01*
X109829982Y-101417256D01*
X109845370Y-101454659D01*
X109871403Y-101488334D01*
X109904857Y-101514539D01*
X109942146Y-101530032D01*
X109984598Y-101535326D01*
X110027050Y-101530032D01*
X110064338Y-101514539D01*
X110097792Y-101488334D01*
X110123778Y-101454665D01*
X110139142Y-101417261D01*
X110144387Y-101374822D01*
G37*
G36*
X110144387Y-102096218D02*
G01*
X110139134Y-102053847D01*
X110123765Y-102016635D01*
X110097792Y-101983261D01*
X110064366Y-101957294D01*
X110027076Y-101941922D01*
X109984598Y-101936666D01*
X109942119Y-101941922D01*
X109904829Y-101957294D01*
X109871403Y-101983261D01*
X109845383Y-102016640D01*
X109829989Y-102053852D01*
X109824729Y-102096218D01*
X109829982Y-102138651D01*
X109845370Y-102176055D01*
X109871403Y-102209729D01*
X109904857Y-102235935D01*
X109942146Y-102251428D01*
X109984598Y-102256722D01*
X110027050Y-102251428D01*
X110064338Y-102235935D01*
X110097792Y-102209729D01*
X110123778Y-102176061D01*
X110139142Y-102138657D01*
X110144387Y-102096218D01*
G37*
G36*
X108997680Y-101734726D02*
G01*
X108997680Y-102048431D01*
X109176203Y-102048431D01*
X109176203Y-101734726D01*
X109485225Y-101734726D01*
X109485225Y-101555647D01*
X109176203Y-101555647D01*
X109176203Y-101250832D01*
X108997680Y-101250832D01*
X108997680Y-101555647D01*
X108687784Y-101555647D01*
X108687784Y-101734726D01*
X108997680Y-101734726D01*
G37*
G36*
X108059976Y-102211000D02*
G01*
X108059976Y-101273455D01*
X108324626Y-101432213D01*
X108324626Y-101210190D01*
X108199462Y-101142282D01*
X108091631Y-101068769D01*
X107999435Y-100989823D01*
X107921460Y-100905375D01*
X107829142Y-100905375D01*
X107829142Y-102211000D01*
X108059976Y-102211000D01*
G37*
G36*
X107362077Y-102211000D02*
G01*
X107362077Y-102143289D01*
X106950021Y-101535882D01*
X106890571Y-101438317D01*
X106852909Y-101356424D01*
X106832724Y-101287563D01*
X106826587Y-101229241D01*
X106833834Y-101175611D01*
X106853700Y-101136425D01*
X106885989Y-101107925D01*
X106933890Y-101089091D01*
X107003284Y-101081914D01*
X107066143Y-101090418D01*
X107122205Y-101115594D01*
X107173495Y-101158923D01*
X107220862Y-101224319D01*
X107376286Y-101101758D01*
X107340303Y-101043976D01*
X107292401Y-100992486D01*
X107231102Y-100946811D01*
X107162856Y-100912544D01*
X107090311Y-100892014D01*
X107012174Y-100885054D01*
X106911523Y-100891578D01*
X106827639Y-100909799D01*
X106757750Y-100938247D01*
X106699580Y-100976260D01*
X106650611Y-101025796D01*
X106615810Y-101083308D01*
X106594325Y-101150381D01*
X106586783Y-101229400D01*
X106593963Y-101299182D01*
X106617621Y-101382026D01*
X106661806Y-101480965D01*
X106731570Y-101599226D01*
X106997966Y-102005249D01*
X106509547Y-102005249D01*
X106509547Y-102211000D01*
X107362077Y-102211000D01*
G37*
G36*
X105702343Y-100902755D02*
G01*
X105702343Y-101289886D01*
X105762932Y-101265614D01*
X105828341Y-101250818D01*
X105899520Y-101245752D01*
X105995368Y-101254827D01*
X106080679Y-101281185D01*
X106157619Y-101324656D01*
X106227673Y-101386570D01*
X106283957Y-101460488D01*
X106324594Y-101544561D01*
X106349821Y-101640712D01*
X106358648Y-101751475D01*
X106350588Y-101863663D01*
X106328010Y-101957282D01*
X106292519Y-102035543D01*
X106244580Y-102100980D01*
X106183575Y-102154828D01*
X106112518Y-102193596D01*
X106029422Y-102217735D01*
X105931510Y-102226240D01*
X105862367Y-102220610D01*
X105795613Y-102203776D01*
X105736165Y-102177489D01*
X105702343Y-102151227D01*
X105702343Y-102211000D01*
X105480399Y-102211000D01*
X105480399Y-101489921D01*
X105702343Y-101489921D01*
X105702343Y-101981118D01*
X105721741Y-101998477D01*
X105763226Y-102019379D01*
X105808515Y-102034098D01*
X105841812Y-102038271D01*
X105922306Y-102031458D01*
X105985533Y-102012771D01*
X106035114Y-101983795D01*
X106073625Y-101944597D01*
X106102313Y-101893724D01*
X106120924Y-101828399D01*
X106127734Y-101744807D01*
X106122554Y-101669181D01*
X106108157Y-101607021D01*
X106085753Y-101555969D01*
X106055817Y-101514132D01*
X106017333Y-101479861D01*
X105971418Y-101454957D01*
X105916567Y-101439291D01*
X105850702Y-101433721D01*
X105800992Y-101439686D01*
X105751915Y-101457930D01*
X105702343Y-101489921D01*
X105480399Y-101489921D01*
X105480399Y-100849492D01*
X105702343Y-100902755D01*
G37*
G36*
X105245517Y-100912678D02*
G01*
X105245517Y-102211000D01*
X104847670Y-102211000D01*
X104741639Y-102203837D01*
X104649999Y-102183488D01*
X104570508Y-102151097D01*
X104501340Y-102107013D01*
X104442398Y-102050150D01*
X104401102Y-101985553D01*
X104375939Y-101911665D01*
X104367189Y-101826012D01*
X104369566Y-101798150D01*
X104606993Y-101798150D01*
X104615817Y-101875422D01*
X104639556Y-101931195D01*
X104676688Y-101971037D01*
X104726247Y-101997594D01*
X104798465Y-102015956D01*
X104900933Y-102023030D01*
X105014604Y-102016839D01*
X105014604Y-101590018D01*
X104898314Y-101587399D01*
X104790602Y-101594475D01*
X104718357Y-101612426D01*
X104671846Y-101637646D01*
X104637121Y-101675728D01*
X104615103Y-101727673D01*
X104606993Y-101798150D01*
X104369566Y-101798150D01*
X104374530Y-101739969D01*
X104395230Y-101667939D01*
X104428235Y-101607279D01*
X104473787Y-101556084D01*
X104533395Y-101513360D01*
X104609692Y-101479126D01*
X104547493Y-101437944D01*
X104502213Y-101393462D01*
X104471111Y-101345438D01*
X104452573Y-101292982D01*
X104447223Y-101243609D01*
X104677164Y-101243609D01*
X104685950Y-101304020D01*
X104710369Y-101348913D01*
X104750917Y-101382279D01*
X104812344Y-101404745D01*
X104902680Y-101413400D01*
X105014604Y-101409828D01*
X105014604Y-101097789D01*
X104882279Y-101093344D01*
X104799688Y-101101095D01*
X104743749Y-101121159D01*
X104707029Y-101150812D01*
X104685044Y-101190478D01*
X104677164Y-101243609D01*
X104447223Y-101243609D01*
X104446251Y-101234639D01*
X104453917Y-101156188D01*
X104475678Y-101090319D01*
X104510860Y-101034468D01*
X104560398Y-100986976D01*
X104618859Y-100951039D01*
X104689464Y-100923968D01*
X104774560Y-100906548D01*
X104876961Y-100900295D01*
X105245517Y-100912678D01*
G37*
G36*
X111745143Y-104415321D02*
G01*
X112376523Y-103590812D01*
X112376523Y-104395000D01*
X112598546Y-104395000D01*
X112598546Y-103094455D01*
X112487495Y-103094455D01*
X111873022Y-103880783D01*
X111873022Y-103094455D01*
X111650999Y-103094455D01*
X111650999Y-104415321D01*
X111745143Y-104415321D01*
G37*
G36*
X110492782Y-103165579D02*
G01*
X110587798Y-103357120D01*
X110628328Y-103325664D01*
X110681156Y-103301593D01*
X110749271Y-103285726D01*
X110836413Y-103279884D01*
X110914261Y-103288419D01*
X110983370Y-103313330D01*
X111045809Y-103354966D01*
X111102809Y-103415464D01*
X111147082Y-103485388D01*
X111179433Y-103564696D01*
X111199639Y-103655023D01*
X111206716Y-103758381D01*
X111199911Y-103862646D01*
X111180801Y-103950623D01*
X111150777Y-104024931D01*
X111110429Y-104087724D01*
X111057870Y-104141317D01*
X110998550Y-104178833D01*
X110931091Y-104201652D01*
X110853321Y-104209570D01*
X110763831Y-104200836D01*
X110687689Y-104175911D01*
X110622190Y-104135410D01*
X110565572Y-104078198D01*
X110458093Y-104265215D01*
X110516851Y-104317093D01*
X110585798Y-104358299D01*
X110666510Y-104388954D01*
X110761070Y-104408417D01*
X110871975Y-104415321D01*
X110980829Y-104407475D01*
X111075590Y-104385080D01*
X111158524Y-104349189D01*
X111231430Y-104299925D01*
X111295541Y-104236480D01*
X111347605Y-104163585D01*
X111389178Y-104080073D01*
X111420100Y-103984400D01*
X111439639Y-103874672D01*
X111446519Y-103748696D01*
X111439360Y-103633750D01*
X111418623Y-103529539D01*
X111385007Y-103434568D01*
X111338647Y-103347574D01*
X111279109Y-103267581D01*
X111207604Y-103197280D01*
X111130104Y-103143724D01*
X111045736Y-103105516D01*
X110953155Y-103082170D01*
X110850622Y-103074134D01*
X110737510Y-103080655D01*
X110641859Y-103098941D01*
X110561032Y-103127522D01*
X110492782Y-103165579D01*
G37*
G36*
X110250438Y-103558822D02*
G01*
X110245184Y-103516451D01*
X110229815Y-103479239D01*
X110203842Y-103445866D01*
X110170417Y-103419898D01*
X110133127Y-103404526D01*
X110090648Y-103399270D01*
X110048169Y-103404526D01*
X110010879Y-103419898D01*
X109977454Y-103445866D01*
X109951433Y-103479245D01*
X109936040Y-103516456D01*
X109930779Y-103558822D01*
X109936032Y-103601256D01*
X109951421Y-103638659D01*
X109977454Y-103672334D01*
X110010907Y-103698539D01*
X110048196Y-103714032D01*
X110090648Y-103719326D01*
X110133100Y-103714032D01*
X110170388Y-103698539D01*
X110203842Y-103672334D01*
X110229828Y-103638665D01*
X110245192Y-103601261D01*
X110250438Y-103558822D01*
G37*
G36*
X110250438Y-104280218D02*
G01*
X110245184Y-104237847D01*
X110229815Y-104200635D01*
X110203842Y-104167261D01*
X110170417Y-104141294D01*
X110133127Y-104125922D01*
X110090648Y-104120666D01*
X110048169Y-104125922D01*
X110010879Y-104141294D01*
X109977454Y-104167261D01*
X109951433Y-104200640D01*
X109936040Y-104237852D01*
X109930779Y-104280218D01*
X109936032Y-104322651D01*
X109951421Y-104360055D01*
X109977454Y-104393729D01*
X110010907Y-104419935D01*
X110048196Y-104435428D01*
X110090648Y-104440722D01*
X110133100Y-104435428D01*
X110170388Y-104419935D01*
X110203842Y-104393729D01*
X110229828Y-104360061D01*
X110245192Y-104322657D01*
X110250438Y-104280218D01*
G37*
G36*
X109103730Y-103918726D02*
G01*
X109103730Y-104232431D01*
X109282253Y-104232431D01*
X109282253Y-103918726D01*
X109591275Y-103918726D01*
X109591275Y-103739647D01*
X109282253Y-103739647D01*
X109282253Y-103434832D01*
X109103730Y-103434832D01*
X109103730Y-103739647D01*
X108793834Y-103739647D01*
X108793834Y-103918726D01*
X109103730Y-103918726D01*
G37*
G36*
X108250432Y-103076841D02*
G01*
X108325362Y-103099412D01*
X108392704Y-103136518D01*
X108453775Y-103189154D01*
X108502992Y-103252341D01*
X108538519Y-103324481D01*
X108560588Y-103407284D01*
X108568319Y-103503019D01*
X108560624Y-103600032D01*
X108538854Y-103682320D01*
X108504145Y-103752491D01*
X108456474Y-103812517D01*
X108397134Y-103861615D01*
X108329395Y-103896872D01*
X108251622Y-103918705D01*
X108161581Y-103926346D01*
X108074027Y-103919059D01*
X108009729Y-103899675D01*
X108059565Y-103990606D01*
X108121689Y-104074749D01*
X108196893Y-104152673D01*
X108286359Y-104224676D01*
X108391621Y-104290775D01*
X108269060Y-104420401D01*
X108192456Y-104394227D01*
X108116570Y-104353500D01*
X108040638Y-104296580D01*
X107964133Y-104221187D01*
X107886771Y-104124476D01*
X107820532Y-104021574D01*
X107771359Y-103922621D01*
X107737548Y-103826883D01*
X107717818Y-103733553D01*
X107711344Y-103641773D01*
X107718584Y-103507464D01*
X107951148Y-103507464D01*
X107957777Y-103581126D01*
X107975569Y-103635792D01*
X108002688Y-103675964D01*
X108039223Y-103704630D01*
X108087166Y-103722834D01*
X108150071Y-103729487D01*
X108200402Y-103722424D01*
X108243589Y-103701771D01*
X108281523Y-103666460D01*
X108309074Y-103621670D01*
X108326666Y-103565259D01*
X108333040Y-103494128D01*
X108326963Y-103424650D01*
X108310253Y-103369911D01*
X108284222Y-103326797D01*
X108247969Y-103293037D01*
X108204864Y-103272918D01*
X108152691Y-103265914D01*
X108089985Y-103272896D01*
X108041764Y-103292134D01*
X108004571Y-103322767D01*
X107976615Y-103366257D01*
X107958090Y-103426122D01*
X107951148Y-103507464D01*
X107718584Y-103507464D01*
X107718696Y-103505377D01*
X107738956Y-103394283D01*
X107769950Y-103304361D01*
X107810294Y-103232061D01*
X107859490Y-103174552D01*
X107917966Y-103129877D01*
X107987044Y-103097105D01*
X108068824Y-103076407D01*
X108166026Y-103069054D01*
X108250432Y-103076841D01*
G37*
G36*
X106873976Y-103086755D02*
G01*
X106873976Y-103473886D01*
X106934565Y-103449614D01*
X106999974Y-103434818D01*
X107071153Y-103429752D01*
X107167000Y-103438827D01*
X107252312Y-103465185D01*
X107329252Y-103508656D01*
X107399305Y-103570570D01*
X107455590Y-103644488D01*
X107496227Y-103728561D01*
X107521454Y-103824712D01*
X107530281Y-103935475D01*
X107522221Y-104047663D01*
X107499643Y-104141282D01*
X107464152Y-104219543D01*
X107416213Y-104284980D01*
X107355208Y-104338828D01*
X107284151Y-104377596D01*
X107201054Y-104401735D01*
X107103143Y-104410240D01*
X107034000Y-104404610D01*
X106967246Y-104387776D01*
X106907798Y-104361489D01*
X106873976Y-104335227D01*
X106873976Y-104395000D01*
X106652032Y-104395000D01*
X106652032Y-103673921D01*
X106873976Y-103673921D01*
X106873976Y-104165118D01*
X106893374Y-104182477D01*
X106934859Y-104203379D01*
X106980148Y-104218098D01*
X107013444Y-104222271D01*
X107093939Y-104215458D01*
X107157166Y-104196771D01*
X107206747Y-104167795D01*
X107245258Y-104128597D01*
X107273946Y-104077724D01*
X107292557Y-104012399D01*
X107299367Y-103928807D01*
X107294187Y-103853181D01*
X107279790Y-103791021D01*
X107257385Y-103739969D01*
X107227450Y-103698132D01*
X107188966Y-103663861D01*
X107143051Y-103638957D01*
X107088200Y-103623291D01*
X107022335Y-103617721D01*
X106972625Y-103623686D01*
X106923548Y-103641930D01*
X106873976Y-103673921D01*
X106652032Y-103673921D01*
X106652032Y-103033492D01*
X106873976Y-103086755D01*
G37*
G36*
X106417150Y-103096678D02*
G01*
X106417150Y-104395000D01*
X106019303Y-104395000D01*
X105913271Y-104387837D01*
X105821632Y-104367488D01*
X105742141Y-104335097D01*
X105672973Y-104291013D01*
X105614031Y-104234150D01*
X105572735Y-104169553D01*
X105547572Y-104095665D01*
X105538822Y-104010012D01*
X105541199Y-103982150D01*
X105778626Y-103982150D01*
X105787450Y-104059422D01*
X105811189Y-104115195D01*
X105848321Y-104155037D01*
X105897879Y-104181594D01*
X105970098Y-104199956D01*
X106072566Y-104207030D01*
X106186237Y-104200839D01*
X106186237Y-103774018D01*
X106069947Y-103771399D01*
X105962235Y-103778475D01*
X105889990Y-103796426D01*
X105843478Y-103821646D01*
X105808754Y-103859728D01*
X105786736Y-103911673D01*
X105778626Y-103982150D01*
X105541199Y-103982150D01*
X105546163Y-103923969D01*
X105566863Y-103851939D01*
X105599868Y-103791279D01*
X105645420Y-103740084D01*
X105705028Y-103697360D01*
X105781325Y-103663126D01*
X105719126Y-103621944D01*
X105673846Y-103577462D01*
X105642744Y-103529438D01*
X105624206Y-103476982D01*
X105618856Y-103427609D01*
X105848797Y-103427609D01*
X105857583Y-103488020D01*
X105882002Y-103532913D01*
X105922550Y-103566279D01*
X105983977Y-103588745D01*
X106074312Y-103597400D01*
X106186237Y-103593828D01*
X106186237Y-103281789D01*
X106053912Y-103277344D01*
X105971321Y-103285095D01*
X105915382Y-103305159D01*
X105878662Y-103334812D01*
X105856676Y-103374478D01*
X105848797Y-103427609D01*
X105618856Y-103427609D01*
X105617884Y-103418639D01*
X105625550Y-103340188D01*
X105647311Y-103274319D01*
X105682493Y-103218468D01*
X105732030Y-103170976D01*
X105790492Y-103135039D01*
X105861096Y-103107968D01*
X105946193Y-103090548D01*
X106048594Y-103084295D01*
X106417150Y-103096678D01*
G37*
G36*
X113372490Y-106467234D02*
G01*
X113257073Y-106288155D01*
X113201586Y-106338103D01*
X113146408Y-106371615D01*
X113090705Y-106390983D01*
X113033304Y-106397381D01*
X112960811Y-106390670D01*
X112906769Y-106372600D01*
X112866808Y-106344908D01*
X112838096Y-106307347D01*
X112819754Y-106257740D01*
X112813028Y-106192345D01*
X112820411Y-106132987D01*
X112841639Y-106083147D01*
X112877007Y-106040572D01*
X112922801Y-106008946D01*
X112979242Y-105989152D01*
X113049259Y-105982070D01*
X113090139Y-105982070D01*
X113090139Y-105791561D01*
X113055451Y-105791561D01*
X112977413Y-105783456D01*
X112923501Y-105762175D01*
X112887118Y-105729941D01*
X112864708Y-105685569D01*
X112856527Y-105624785D01*
X112864608Y-105559420D01*
X112886417Y-105512592D01*
X112920992Y-105479401D01*
X112971000Y-105457969D01*
X113042115Y-105449914D01*
X113102697Y-105459100D01*
X113164199Y-105487929D01*
X113228656Y-105540485D01*
X113337008Y-105380933D01*
X113286684Y-105334974D01*
X113206430Y-105291235D01*
X113116694Y-105262400D01*
X113028859Y-105253054D01*
X112930873Y-105259443D01*
X112849431Y-105277267D01*
X112781771Y-105305068D01*
X112725631Y-105342196D01*
X112678564Y-105390511D01*
X112644964Y-105446996D01*
X112624137Y-105513278D01*
X112616803Y-105591764D01*
X112623614Y-105665870D01*
X112643196Y-105730421D01*
X112675136Y-105787276D01*
X112720180Y-105837725D01*
X112780165Y-105882370D01*
X112703586Y-105928587D01*
X112646694Y-105982945D01*
X112606545Y-106045985D01*
X112581871Y-106119433D01*
X112573224Y-106205998D01*
X112581562Y-106296615D01*
X112605191Y-106372851D01*
X112643195Y-106437523D01*
X112696261Y-106492556D01*
X112759829Y-106535053D01*
X112835919Y-106566751D01*
X112926958Y-106587001D01*
X113035924Y-106594240D01*
X113132454Y-106586030D01*
X113219613Y-106562125D01*
X113299183Y-106522800D01*
X113372490Y-106467234D01*
G37*
G36*
X112279363Y-106464218D02*
G01*
X112274110Y-106421847D01*
X112258741Y-106384635D01*
X112232768Y-106351261D01*
X112199342Y-106325294D01*
X112162052Y-106309922D01*
X112119573Y-106304666D01*
X112077095Y-106309922D01*
X112039804Y-106325294D01*
X112006379Y-106351261D01*
X111980358Y-106384640D01*
X111964965Y-106421852D01*
X111959704Y-106464218D01*
X111964957Y-106506651D01*
X111980346Y-106544055D01*
X112006379Y-106577729D01*
X112039833Y-106603935D01*
X112077121Y-106619428D01*
X112119573Y-106624722D01*
X112162025Y-106619428D01*
X112199314Y-106603935D01*
X112232768Y-106577729D01*
X112258753Y-106544061D01*
X112274118Y-106506657D01*
X112279363Y-106464218D01*
G37*
G36*
X111638854Y-106467234D02*
G01*
X111523438Y-106288155D01*
X111467950Y-106338103D01*
X111412772Y-106371615D01*
X111357070Y-106390983D01*
X111299668Y-106397381D01*
X111227176Y-106390670D01*
X111173133Y-106372600D01*
X111133173Y-106344908D01*
X111104460Y-106307347D01*
X111086118Y-106257740D01*
X111079392Y-106192345D01*
X111086775Y-106132987D01*
X111108004Y-106083147D01*
X111143371Y-106040572D01*
X111189165Y-106008946D01*
X111245607Y-105989152D01*
X111315624Y-105982070D01*
X111356504Y-105982070D01*
X111356504Y-105791561D01*
X111321815Y-105791561D01*
X111243777Y-105783456D01*
X111189865Y-105762175D01*
X111153483Y-105729941D01*
X111131072Y-105685569D01*
X111122891Y-105624785D01*
X111130972Y-105559420D01*
X111152781Y-105512592D01*
X111187356Y-105479401D01*
X111237364Y-105457969D01*
X111308479Y-105449914D01*
X111369061Y-105459100D01*
X111430563Y-105487929D01*
X111495020Y-105540485D01*
X111603372Y-105380933D01*
X111553048Y-105334974D01*
X111472794Y-105291235D01*
X111383058Y-105262400D01*
X111295223Y-105253054D01*
X111197238Y-105259443D01*
X111115795Y-105277267D01*
X111048135Y-105305068D01*
X110991996Y-105342196D01*
X110944928Y-105390511D01*
X110911328Y-105446996D01*
X110890501Y-105513278D01*
X110883167Y-105591764D01*
X110889978Y-105665870D01*
X110909560Y-105730421D01*
X110941500Y-105787276D01*
X110986544Y-105837725D01*
X111046529Y-105882370D01*
X110969950Y-105928587D01*
X110913058Y-105982945D01*
X110872909Y-106045985D01*
X110848235Y-106119433D01*
X110839588Y-106205998D01*
X110847926Y-106296615D01*
X110871555Y-106372851D01*
X110909560Y-106437523D01*
X110962625Y-106492556D01*
X111026193Y-106535053D01*
X111102283Y-106566751D01*
X111193322Y-106587001D01*
X111302288Y-106594240D01*
X111398818Y-106586030D01*
X111485977Y-106562125D01*
X111565547Y-106522800D01*
X111638854Y-106467234D01*
G37*
G36*
X110082154Y-106599321D02*
G01*
X110209161Y-106599321D01*
X110695833Y-105278455D01*
X110441820Y-105278455D01*
X110140815Y-106159879D01*
X109822903Y-105278455D01*
X109574209Y-105278455D01*
X110082154Y-106599321D01*
G37*
G36*
X109482685Y-105742822D02*
G01*
X109477431Y-105700451D01*
X109462063Y-105663239D01*
X109436089Y-105629866D01*
X109402664Y-105603898D01*
X109365374Y-105588526D01*
X109322895Y-105583270D01*
X109280416Y-105588526D01*
X109243126Y-105603898D01*
X109209701Y-105629866D01*
X109183680Y-105663245D01*
X109168287Y-105700456D01*
X109163026Y-105742822D01*
X109168279Y-105785256D01*
X109183668Y-105822659D01*
X109209701Y-105856334D01*
X109243154Y-105882539D01*
X109280443Y-105898032D01*
X109322895Y-105903326D01*
X109365347Y-105898032D01*
X109402636Y-105882539D01*
X109436089Y-105856334D01*
X109462075Y-105822665D01*
X109477439Y-105785261D01*
X109482685Y-105742822D01*
G37*
G36*
X109482685Y-106464218D02*
G01*
X109477431Y-106421847D01*
X109462063Y-106384635D01*
X109436089Y-106351261D01*
X109402664Y-106325294D01*
X109365374Y-106309922D01*
X109322895Y-106304666D01*
X109280416Y-106309922D01*
X109243126Y-106325294D01*
X109209701Y-106351261D01*
X109183680Y-106384640D01*
X109168287Y-106421852D01*
X109163026Y-106464218D01*
X109168279Y-106506651D01*
X109183668Y-106544055D01*
X109209701Y-106577729D01*
X109243154Y-106603935D01*
X109280443Y-106619428D01*
X109322895Y-106624722D01*
X109365347Y-106619428D01*
X109402636Y-106603935D01*
X109436089Y-106577729D01*
X109462075Y-106544061D01*
X109477439Y-106506657D01*
X109482685Y-106464218D01*
G37*
G36*
X108335977Y-106102726D02*
G01*
X108335977Y-106416431D01*
X108514500Y-106416431D01*
X108514500Y-106102726D01*
X108823522Y-106102726D01*
X108823522Y-105923647D01*
X108514500Y-105923647D01*
X108514500Y-105618832D01*
X108335977Y-105618832D01*
X108335977Y-105923647D01*
X108026081Y-105923647D01*
X108026081Y-106102726D01*
X108335977Y-106102726D01*
G37*
G36*
X107305271Y-105279188D02*
G01*
X107381180Y-105319839D01*
X107457128Y-105376631D01*
X107533643Y-105451831D01*
X107611009Y-105548264D01*
X107677253Y-105650873D01*
X107726406Y-105749478D01*
X107760188Y-105844816D01*
X107779893Y-105937697D01*
X107786357Y-106028983D01*
X107779050Y-106163217D01*
X107758903Y-106272646D01*
X107728056Y-106361322D01*
X107687854Y-106432720D01*
X107638761Y-106489602D01*
X107580314Y-106533860D01*
X107511165Y-106566375D01*
X107429197Y-106586932D01*
X107331675Y-106594240D01*
X107246685Y-106586538D01*
X107171510Y-106564263D01*
X107104241Y-106527750D01*
X107043529Y-106476124D01*
X106994440Y-106413856D01*
X106959046Y-106342788D01*
X106937076Y-106261235D01*
X106930101Y-106175755D01*
X107164741Y-106175755D01*
X107170841Y-106243907D01*
X107187579Y-106297214D01*
X107213638Y-106338878D01*
X107249661Y-106371203D01*
X107292713Y-106390601D01*
X107345010Y-106397381D01*
X107408156Y-106390494D01*
X107456540Y-106371571D01*
X107493676Y-106341578D01*
X107521449Y-106299218D01*
X107539779Y-106241177D01*
X107546633Y-106162578D01*
X107540034Y-106089776D01*
X107522308Y-106035686D01*
X107495254Y-105995876D01*
X107458742Y-105967418D01*
X107410752Y-105949318D01*
X107347709Y-105942698D01*
X107296809Y-105949783D01*
X107253514Y-105970421D01*
X107215861Y-106005566D01*
X107188472Y-106050148D01*
X107171038Y-106105895D01*
X107164741Y-106175755D01*
X106930101Y-106175755D01*
X106929382Y-106166943D01*
X106937028Y-106070938D01*
X106958687Y-105989286D01*
X106993268Y-105919449D01*
X107040830Y-105859509D01*
X107099924Y-105810541D01*
X107167620Y-105775329D01*
X107245590Y-105753491D01*
X107336120Y-105745838D01*
X107405551Y-105755151D01*
X107495989Y-105787433D01*
X107463237Y-105717258D01*
X107414421Y-105643263D01*
X107346836Y-105564616D01*
X107271292Y-105493759D01*
X107191177Y-105433299D01*
X107106159Y-105382680D01*
X107228641Y-105253054D01*
X107305271Y-105279188D01*
G37*
G36*
X106106223Y-105270755D02*
G01*
X106106223Y-105657886D01*
X106166812Y-105633614D01*
X106232221Y-105618818D01*
X106303400Y-105613752D01*
X106399248Y-105622827D01*
X106484559Y-105649185D01*
X106561499Y-105692656D01*
X106631553Y-105754570D01*
X106687837Y-105828488D01*
X106728474Y-105912561D01*
X106753701Y-106008712D01*
X106762528Y-106119475D01*
X106754468Y-106231663D01*
X106731890Y-106325282D01*
X106696399Y-106403543D01*
X106648460Y-106468980D01*
X106587455Y-106522828D01*
X106516398Y-106561596D01*
X106433302Y-106585735D01*
X106335390Y-106594240D01*
X106266247Y-106588610D01*
X106199493Y-106571776D01*
X106140045Y-106545489D01*
X106106223Y-106519227D01*
X106106223Y-106579000D01*
X105884279Y-106579000D01*
X105884279Y-105857921D01*
X106106223Y-105857921D01*
X106106223Y-106349118D01*
X106125621Y-106366477D01*
X106167106Y-106387379D01*
X106212395Y-106402098D01*
X106245692Y-106406271D01*
X106326186Y-106399458D01*
X106389413Y-106380771D01*
X106438994Y-106351795D01*
X106477505Y-106312597D01*
X106506193Y-106261724D01*
X106524804Y-106196399D01*
X106531614Y-106112807D01*
X106526434Y-106037181D01*
X106512037Y-105975021D01*
X106489633Y-105923969D01*
X106459697Y-105882132D01*
X106421213Y-105847861D01*
X106375298Y-105822957D01*
X106320447Y-105807291D01*
X106254582Y-105801721D01*
X106204872Y-105807686D01*
X106155795Y-105825930D01*
X106106223Y-105857921D01*
X105884279Y-105857921D01*
X105884279Y-105217492D01*
X106106223Y-105270755D01*
G37*
G36*
X105649397Y-105280678D02*
G01*
X105649397Y-106579000D01*
X105251550Y-106579000D01*
X105145519Y-106571837D01*
X105053879Y-106551488D01*
X104974388Y-106519097D01*
X104905220Y-106475013D01*
X104846278Y-106418150D01*
X104804982Y-106353553D01*
X104779819Y-106279665D01*
X104771069Y-106194012D01*
X104773446Y-106166150D01*
X105010873Y-106166150D01*
X105019697Y-106243422D01*
X105043436Y-106299195D01*
X105080568Y-106339037D01*
X105130127Y-106365594D01*
X105202345Y-106383956D01*
X105304813Y-106391030D01*
X105418484Y-106384839D01*
X105418484Y-105958018D01*
X105302194Y-105955399D01*
X105194482Y-105962475D01*
X105122237Y-105980426D01*
X105075726Y-106005646D01*
X105041001Y-106043728D01*
X105018983Y-106095673D01*
X105010873Y-106166150D01*
X104773446Y-106166150D01*
X104778410Y-106107969D01*
X104799110Y-106035939D01*
X104832115Y-105975279D01*
X104877667Y-105924084D01*
X104937275Y-105881360D01*
X105013572Y-105847126D01*
X104951373Y-105805944D01*
X104906093Y-105761462D01*
X104874991Y-105713438D01*
X104856453Y-105660982D01*
X104851103Y-105611609D01*
X105081044Y-105611609D01*
X105089830Y-105672020D01*
X105114249Y-105716913D01*
X105154797Y-105750279D01*
X105216224Y-105772745D01*
X105306559Y-105781400D01*
X105418484Y-105777828D01*
X105418484Y-105465789D01*
X105286159Y-105461344D01*
X105203568Y-105469095D01*
X105147629Y-105489159D01*
X105110909Y-105518812D01*
X105088924Y-105558478D01*
X105081044Y-105611609D01*
X104851103Y-105611609D01*
X104850131Y-105602639D01*
X104857797Y-105524188D01*
X104879558Y-105458319D01*
X104914740Y-105402468D01*
X104964278Y-105354976D01*
X105022739Y-105319039D01*
X105093344Y-105291968D01*
X105178440Y-105274548D01*
X105280841Y-105268295D01*
X105649397Y-105280678D01*
G37*
D10*
G36*
X145067753Y-62188090D02*
G01*
X141237755Y-62188090D01*
X141237755Y-62036000D01*
X141371088Y-62036000D01*
X141552219Y-62036000D01*
X141890812Y-61484841D01*
X142050621Y-61712427D01*
X142050621Y-62036000D01*
X142214605Y-62036000D01*
X142214605Y-61888281D01*
X142357927Y-61888281D01*
X142357927Y-62036000D01*
X143064570Y-62036000D01*
X143064570Y-61912755D01*
X143253614Y-61912755D01*
X143313314Y-61963416D01*
X143378907Y-62002686D01*
X143451224Y-62031115D01*
X143531409Y-62048675D01*
X143620858Y-62054757D01*
X143713869Y-62047529D01*
X143795774Y-62026756D01*
X143868452Y-61993141D01*
X143933353Y-61946473D01*
X143991399Y-61885644D01*
X144038307Y-61816779D01*
X144075621Y-61739079D01*
X144077852Y-61731990D01*
X144258918Y-61731990D01*
X144265699Y-61796804D01*
X144285632Y-61855653D01*
X144319063Y-61910009D01*
X144367581Y-61960822D01*
X144424084Y-62000585D01*
X144490085Y-62029810D01*
X144567368Y-62048236D01*
X144658182Y-62054757D01*
X144737818Y-62049696D01*
X144809091Y-62035114D01*
X144873195Y-62011596D01*
X144931123Y-61979286D01*
X144871332Y-61828344D01*
X144821500Y-61858354D01*
X144756953Y-61884545D01*
X144689807Y-61901827D01*
X144634368Y-61907039D01*
X144572383Y-61900774D01*
X144521829Y-61883179D01*
X144480275Y-61854942D01*
X144447921Y-61816952D01*
X144428717Y-61773315D01*
X144422096Y-61722172D01*
X144430170Y-61663946D01*
X144454483Y-61609845D01*
X144480768Y-61579592D01*
X144531388Y-61542399D01*
X144617149Y-61496638D01*
X144713942Y-61451722D01*
X144792236Y-61408192D01*
X144848009Y-61362970D01*
X144885694Y-61316094D01*
X144912177Y-61261833D01*
X144928646Y-61199465D01*
X144934420Y-61127270D01*
X144928272Y-61062084D01*
X144910442Y-61004232D01*
X144881078Y-60952224D01*
X144839312Y-60905033D01*
X144789351Y-60867000D01*
X144732873Y-60839612D01*
X144668641Y-60822657D01*
X144595020Y-60816739D01*
X144491035Y-60822042D01*
X144413814Y-60836039D01*
X144357713Y-60856387D01*
X144317976Y-60881586D01*
X144366336Y-61024321D01*
X144404133Y-61002667D01*
X144466353Y-60978452D01*
X144532758Y-60961508D01*
X144590917Y-60956251D01*
X144644803Y-60961969D01*
X144687867Y-60977933D01*
X144722515Y-61003512D01*
X144748908Y-61037556D01*
X144764869Y-61077404D01*
X144770436Y-61124778D01*
X144766040Y-61169050D01*
X144753290Y-61208163D01*
X144732590Y-61242837D01*
X144705369Y-61271104D01*
X144665827Y-61297325D01*
X144579487Y-61342179D01*
X144481081Y-61388707D01*
X144402941Y-61432805D01*
X144346822Y-61479000D01*
X144308524Y-61527266D01*
X144281941Y-61583003D01*
X144264991Y-61650389D01*
X144258918Y-61731990D01*
X144077852Y-61731990D01*
X144103236Y-61651318D01*
X144120585Y-61552002D01*
X144126660Y-61439412D01*
X144120399Y-61331673D01*
X144102327Y-61234560D01*
X144073187Y-61146678D01*
X144033266Y-61066830D01*
X143982386Y-60994060D01*
X143920271Y-60929321D01*
X143852895Y-60880237D01*
X143779507Y-60845343D01*
X143698888Y-60824062D01*
X143609427Y-60816739D01*
X143509128Y-60821539D01*
X143426323Y-60834812D01*
X143358346Y-60855154D01*
X143302854Y-60881586D01*
X143357735Y-61021830D01*
X143413500Y-60992407D01*
X143493427Y-60972197D01*
X143605324Y-60964457D01*
X143680892Y-60973017D01*
X143747059Y-60997903D01*
X143806037Y-61039447D01*
X143859068Y-61099939D01*
X143899297Y-61169271D01*
X143929088Y-61249316D01*
X143947902Y-61341906D01*
X143954542Y-61449230D01*
X143947751Y-61551304D01*
X143928510Y-61639057D01*
X143897983Y-61714724D01*
X143856577Y-61780131D01*
X143802905Y-61836604D01*
X143743789Y-61875598D01*
X143678029Y-61899002D01*
X143603639Y-61907039D01*
X143521365Y-61899003D01*
X143452267Y-61876193D01*
X143393662Y-61839313D01*
X143343813Y-61787385D01*
X143253614Y-61912755D01*
X143064570Y-61912755D01*
X143064570Y-60835497D01*
X142900586Y-60835497D01*
X142900586Y-61888281D01*
X142357927Y-61888281D01*
X142214605Y-61888281D01*
X142214605Y-60835497D01*
X142050621Y-60835497D01*
X142050621Y-61490263D01*
X141604682Y-60835497D01*
X141421939Y-60835497D01*
X141780976Y-61356907D01*
X141371088Y-62036000D01*
X141237755Y-62036000D01*
X141237755Y-60683406D01*
X145067753Y-60683406D01*
X145067753Y-62188090D01*
G37*
G36*
X145044013Y-67268090D02*
G01*
X141513627Y-67268090D01*
X141513627Y-65915497D01*
X141646960Y-65915497D01*
X142081395Y-67134757D01*
X142164193Y-67134757D01*
X142293019Y-66783854D01*
X142731545Y-66783854D01*
X142738802Y-66866630D01*
X142759277Y-66935864D01*
X142791988Y-66994147D01*
X142837278Y-67043313D01*
X142892150Y-67081501D01*
X142958313Y-67109992D01*
X143038013Y-67128225D01*
X143134033Y-67134757D01*
X143213257Y-67127336D01*
X143291423Y-67104862D01*
X143362791Y-67070547D01*
X143413569Y-67033055D01*
X143399966Y-67011219D01*
X143706367Y-67011219D01*
X143710413Y-67043597D01*
X143722303Y-67072337D01*
X143742491Y-67098414D01*
X143768359Y-67118717D01*
X143796993Y-67130681D01*
X143829392Y-67134757D01*
X143861746Y-67130685D01*
X143890382Y-67118723D01*
X143916294Y-67098414D01*
X143936437Y-67072342D01*
X143948306Y-67043602D01*
X143952344Y-67011219D01*
X143948299Y-66978900D01*
X143936426Y-66950336D01*
X143916294Y-66924538D01*
X143890408Y-66904448D01*
X143861770Y-66892598D01*
X143829392Y-66888561D01*
X143796969Y-66892602D01*
X143768333Y-66904455D01*
X143742491Y-66924538D01*
X143722315Y-66950342D01*
X143710420Y-66978905D01*
X143706367Y-67011219D01*
X143399966Y-67011219D01*
X143334874Y-66906732D01*
X143291770Y-66945641D01*
X143244221Y-66972956D01*
X143191277Y-66989531D01*
X143131542Y-66995246D01*
X143057465Y-66988093D01*
X143001862Y-66968739D01*
X142960361Y-66938832D01*
X142930232Y-66897849D01*
X142910819Y-66843206D01*
X142904964Y-66783854D01*
X144228656Y-66783854D01*
X144235913Y-66866630D01*
X144256388Y-66935864D01*
X144289099Y-66994147D01*
X144334389Y-67043313D01*
X144389261Y-67081501D01*
X144455424Y-67109992D01*
X144535124Y-67128225D01*
X144631144Y-67134757D01*
X144710368Y-67127336D01*
X144788534Y-67104862D01*
X144859902Y-67070547D01*
X144910680Y-67033055D01*
X144831985Y-66906732D01*
X144788881Y-66945641D01*
X144741332Y-66972956D01*
X144688388Y-66989531D01*
X144628653Y-66995246D01*
X144554576Y-66988093D01*
X144498973Y-66968739D01*
X144457471Y-66938832D01*
X144427343Y-66897849D01*
X144407930Y-66843206D01*
X144400774Y-66770665D01*
X144408510Y-66705251D01*
X144430634Y-66650632D01*
X144467159Y-66604335D01*
X144514919Y-66569503D01*
X144572720Y-66547992D01*
X144643381Y-66540368D01*
X144656496Y-66540368D01*
X144656496Y-66407891D01*
X144649169Y-66407891D01*
X144579882Y-66401718D01*
X144528543Y-66385168D01*
X144490901Y-66359993D01*
X144464106Y-66326156D01*
X144447125Y-66281856D01*
X144440928Y-66223829D01*
X144447067Y-66161784D01*
X144463730Y-66115023D01*
X144489607Y-66079927D01*
X144525281Y-66054295D01*
X144573108Y-66037697D01*
X144636859Y-66031561D01*
X144704669Y-66039912D01*
X144760286Y-66063683D01*
X144806559Y-66102929D01*
X144879466Y-65991261D01*
X144837885Y-65950032D01*
X144783731Y-65919306D01*
X144713997Y-65899356D01*
X144624549Y-65892050D01*
X144546331Y-65897789D01*
X144478588Y-65914141D01*
X144419603Y-65940317D01*
X144368021Y-65976240D01*
X144324245Y-66021732D01*
X144293678Y-66072031D01*
X144275184Y-66128170D01*
X144268810Y-66191736D01*
X144275111Y-66256723D01*
X144293530Y-66315367D01*
X144324131Y-66369056D01*
X144364566Y-66416213D01*
X144407700Y-66450114D01*
X144454043Y-66472517D01*
X144388987Y-66500785D01*
X144334681Y-66538941D01*
X144289692Y-66587409D01*
X144256263Y-66644201D01*
X144235786Y-66709016D01*
X144228656Y-66783854D01*
X142904964Y-66783854D01*
X142903663Y-66770665D01*
X142911400Y-66705251D01*
X142933523Y-66650632D01*
X142970048Y-66604335D01*
X143017808Y-66569503D01*
X143075609Y-66547992D01*
X143146270Y-66540368D01*
X143159385Y-66540368D01*
X143159385Y-66407891D01*
X143152058Y-66407891D01*
X143082771Y-66401718D01*
X143031433Y-66385168D01*
X142993790Y-66359993D01*
X142966995Y-66326156D01*
X142950014Y-66281856D01*
X142943817Y-66223829D01*
X142949956Y-66161784D01*
X142966619Y-66115023D01*
X142992497Y-66079927D01*
X143028170Y-66054295D01*
X143075997Y-66037697D01*
X143139748Y-66031561D01*
X143207558Y-66039912D01*
X143263175Y-66063683D01*
X143309448Y-66102929D01*
X143382355Y-65991261D01*
X143340774Y-65950032D01*
X143286620Y-65919306D01*
X143216886Y-65899356D01*
X143127438Y-65892050D01*
X143049220Y-65897789D01*
X142981477Y-65914141D01*
X142922492Y-65940317D01*
X142870910Y-65976240D01*
X142827134Y-66021732D01*
X142796567Y-66072031D01*
X142778073Y-66128170D01*
X142771699Y-66191736D01*
X142778000Y-66256723D01*
X142796419Y-66315367D01*
X142827020Y-66369056D01*
X142867455Y-66416213D01*
X142910589Y-66450114D01*
X142956933Y-66472517D01*
X142891876Y-66500785D01*
X142837570Y-66538941D01*
X142792581Y-66587409D01*
X142759153Y-66644201D01*
X142738675Y-66709016D01*
X142731545Y-66783854D01*
X142293019Y-66783854D01*
X142611817Y-65915497D01*
X142429808Y-65915497D01*
X142120743Y-66801439D01*
X141823182Y-65915497D01*
X141646960Y-65915497D01*
X141513627Y-65915497D01*
X141513627Y-65758717D01*
X145044013Y-65758717D01*
X145044013Y-67268090D01*
G37*
G36*
X142505498Y-58442043D02*
G01*
X142505498Y-59340075D01*
X142447357Y-59346024D01*
X142369431Y-59348281D01*
X142286056Y-59339797D01*
X142214708Y-59315482D01*
X142152876Y-59275715D01*
X142098981Y-59219101D01*
X142058186Y-59152883D01*
X142027454Y-59072876D01*
X142007676Y-58976410D01*
X142000575Y-58860284D01*
X142007908Y-58750405D01*
X142028046Y-58662403D01*
X142058949Y-58592251D01*
X142099693Y-58536702D01*
X142150560Y-58493497D01*
X142213007Y-58461573D01*
X142289509Y-58441175D01*
X142383353Y-58433836D01*
X142505498Y-58442043D01*
G37*
G36*
X145067753Y-59648090D02*
G01*
X141695051Y-59648090D01*
X141695051Y-59514757D01*
X142915533Y-59514757D01*
X142964699Y-59514757D01*
X143585247Y-58634750D01*
X143585247Y-59496000D01*
X143741025Y-59496000D01*
X143741025Y-58872301D01*
X143987588Y-58872301D01*
X143987588Y-59391806D01*
X144033783Y-59424413D01*
X144093801Y-59454324D01*
X144170404Y-59480979D01*
X144287359Y-59506514D01*
X144398283Y-59514757D01*
X144497030Y-59507502D01*
X144583928Y-59486685D01*
X144660893Y-59453124D01*
X144729437Y-59406790D01*
X144790586Y-59346816D01*
X144840647Y-59278031D01*
X144880318Y-59200375D01*
X144909605Y-59112603D01*
X144927984Y-59013155D01*
X144934420Y-58900218D01*
X144927513Y-58788540D01*
X144907675Y-58689225D01*
X144875812Y-58600544D01*
X144832237Y-58521040D01*
X144776664Y-58449590D01*
X144710134Y-58388144D01*
X144635620Y-58340448D01*
X144552004Y-58305785D01*
X144457698Y-58284248D01*
X144350729Y-58276739D01*
X144257683Y-58283800D01*
X144177026Y-58303943D01*
X144106681Y-58336266D01*
X144045034Y-58380787D01*
X144113032Y-58516268D01*
X144178060Y-58474179D01*
X144239625Y-58445905D01*
X144298544Y-58429710D01*
X144355711Y-58424457D01*
X144430404Y-58430132D01*
X144496200Y-58446432D01*
X144554575Y-58472776D01*
X144606682Y-58509273D01*
X144653272Y-58556715D01*
X144699385Y-58625204D01*
X144733330Y-58704912D01*
X144754735Y-58797901D01*
X144762302Y-58906739D01*
X144754918Y-59010089D01*
X144733991Y-59098645D01*
X144700706Y-59174830D01*
X144655324Y-59240570D01*
X144597564Y-59295469D01*
X144531030Y-59334518D01*
X144453981Y-59358602D01*
X144363845Y-59367039D01*
X144299077Y-59361798D01*
X144243073Y-59346835D01*
X144194291Y-59322746D01*
X144151573Y-59289370D01*
X144151573Y-59011812D01*
X144317976Y-59011812D01*
X144317976Y-58872301D01*
X143987588Y-58872301D01*
X143741025Y-58872301D01*
X143741025Y-58295497D01*
X143675446Y-58295497D01*
X143071311Y-59125605D01*
X143071311Y-58295497D01*
X142915533Y-58295497D01*
X142915533Y-59514757D01*
X141695051Y-59514757D01*
X141695051Y-58846362D01*
X141828384Y-58846362D01*
X141829137Y-58860284D01*
X141835735Y-58982293D01*
X141856264Y-59096376D01*
X141888148Y-59191876D01*
X141930255Y-59271613D01*
X141982201Y-59337861D01*
X142044381Y-59392237D01*
X142117936Y-59435603D01*
X142204679Y-59468001D01*
X142306984Y-59488651D01*
X142427683Y-59496000D01*
X142669483Y-59496000D01*
X142669483Y-58294325D01*
X142373534Y-58286118D01*
X142272605Y-58292847D01*
X142183979Y-58312094D01*
X142105804Y-58342933D01*
X142036564Y-58385123D01*
X141975150Y-58439112D01*
X141923514Y-58502598D01*
X141883014Y-58573809D01*
X141853356Y-58653836D01*
X141834847Y-58744114D01*
X141828384Y-58846362D01*
X141695051Y-58846362D01*
X141695051Y-58143406D01*
X145067753Y-58143406D01*
X145067753Y-59648090D01*
G37*
X103776189Y-91654819D02*
X103157142Y-91654819D01*
X103157142Y-91654819D02*
X103490475Y-92035771D01*
X103490475Y-92035771D02*
X103347618Y-92035771D01*
X103347618Y-92035771D02*
X103252380Y-92083390D01*
X103252380Y-92083390D02*
X103204761Y-92131009D01*
X103204761Y-92131009D02*
X103157142Y-92226247D01*
X103157142Y-92226247D02*
X103157142Y-92464342D01*
X103157142Y-92464342D02*
X103204761Y-92559580D01*
X103204761Y-92559580D02*
X103252380Y-92607200D01*
X103252380Y-92607200D02*
X103347618Y-92654819D01*
X103347618Y-92654819D02*
X103633332Y-92654819D01*
X103633332Y-92654819D02*
X103728570Y-92607200D01*
X103728570Y-92607200D02*
X103776189Y-92559580D01*
X102728570Y-92559580D02*
X102680951Y-92607200D01*
X102680951Y-92607200D02*
X102728570Y-92654819D01*
X102728570Y-92654819D02*
X102776189Y-92607200D01*
X102776189Y-92607200D02*
X102728570Y-92559580D01*
X102728570Y-92559580D02*
X102728570Y-92654819D01*
X102347618Y-91654819D02*
X101728571Y-91654819D01*
X101728571Y-91654819D02*
X102061904Y-92035771D01*
X102061904Y-92035771D02*
X101919047Y-92035771D01*
X101919047Y-92035771D02*
X101823809Y-92083390D01*
X101823809Y-92083390D02*
X101776190Y-92131009D01*
X101776190Y-92131009D02*
X101728571Y-92226247D01*
X101728571Y-92226247D02*
X101728571Y-92464342D01*
X101728571Y-92464342D02*
X101776190Y-92559580D01*
X101776190Y-92559580D02*
X101823809Y-92607200D01*
X101823809Y-92607200D02*
X101919047Y-92654819D01*
X101919047Y-92654819D02*
X102204761Y-92654819D01*
X102204761Y-92654819D02*
X102299999Y-92607200D01*
X102299999Y-92607200D02*
X102347618Y-92559580D01*
X101442856Y-91654819D02*
X101109523Y-92654819D01*
X101109523Y-92654819D02*
X100776190Y-91654819D01*
X112111904Y-91702438D02*
X112207142Y-91654819D01*
X112207142Y-91654819D02*
X112349999Y-91654819D01*
X112349999Y-91654819D02*
X112492856Y-91702438D01*
X112492856Y-91702438D02*
X112588094Y-91797676D01*
X112588094Y-91797676D02*
X112635713Y-91892914D01*
X112635713Y-91892914D02*
X112683332Y-92083390D01*
X112683332Y-92083390D02*
X112683332Y-92226247D01*
X112683332Y-92226247D02*
X112635713Y-92416723D01*
X112635713Y-92416723D02*
X112588094Y-92511961D01*
X112588094Y-92511961D02*
X112492856Y-92607200D01*
X112492856Y-92607200D02*
X112349999Y-92654819D01*
X112349999Y-92654819D02*
X112254761Y-92654819D01*
X112254761Y-92654819D02*
X112111904Y-92607200D01*
X112111904Y-92607200D02*
X112064285Y-92559580D01*
X112064285Y-92559580D02*
X112064285Y-92226247D01*
X112064285Y-92226247D02*
X112254761Y-92226247D01*
X111635713Y-92654819D02*
X111635713Y-91654819D01*
X111635713Y-91654819D02*
X111064285Y-92654819D01*
X111064285Y-92654819D02*
X111064285Y-91654819D01*
X110588094Y-92654819D02*
X110588094Y-91654819D01*
X110588094Y-91654819D02*
X110349999Y-91654819D01*
X110349999Y-91654819D02*
X110207142Y-91702438D01*
X110207142Y-91702438D02*
X110111904Y-91797676D01*
X110111904Y-91797676D02*
X110064285Y-91892914D01*
X110064285Y-91892914D02*
X110016666Y-92083390D01*
X110016666Y-92083390D02*
X110016666Y-92226247D01*
X110016666Y-92226247D02*
X110064285Y-92416723D01*
X110064285Y-92416723D02*
X110111904Y-92511961D01*
X110111904Y-92511961D02*
X110207142Y-92607200D01*
X110207142Y-92607200D02*
X110349999Y-92654819D01*
X110349999Y-92654819D02*
X110588094Y-92654819D01*
D13*
%TO.C,G\u002A\u002A\u002A*%
G36*
X116660177Y-65964688D02*
G01*
X116659978Y-66315778D01*
X116560304Y-66370079D01*
X116543346Y-66379058D01*
X116494438Y-66402288D01*
X116452518Y-66418579D01*
X116425190Y-66424848D01*
X116389751Y-66425317D01*
X116389751Y-66086753D01*
X116389751Y-65748189D01*
X116525063Y-65680894D01*
X116660375Y-65613598D01*
X116660177Y-65964688D01*
G37*
G36*
X117523795Y-64831003D02*
G01*
X117523795Y-65182450D01*
X117417478Y-65236101D01*
X117394799Y-65247244D01*
X117346117Y-65269177D01*
X117306256Y-65284531D01*
X117282166Y-65290513D01*
X117253171Y-65291273D01*
X117253171Y-64952709D01*
X117253171Y-64614145D01*
X117388483Y-64546850D01*
X117523795Y-64479555D01*
X117523795Y-64831003D01*
G37*
G36*
X110350138Y-62099443D02*
G01*
X110379569Y-62113084D01*
X110422802Y-62134014D01*
X110474917Y-62159884D01*
X110603552Y-62224435D01*
X110603552Y-62572186D01*
X110603552Y-62919937D01*
X110468240Y-62852641D01*
X110332927Y-62785346D01*
X110332927Y-62440339D01*
X110332928Y-62439216D01*
X110333172Y-62348033D01*
X110333849Y-62265953D01*
X110334896Y-62196308D01*
X110336247Y-62142433D01*
X110337839Y-62107663D01*
X110339605Y-62095332D01*
X110350138Y-62099443D01*
G37*
G36*
X114651899Y-65924733D02*
G01*
X114655734Y-65947233D01*
X114658802Y-65993682D01*
X114661053Y-66062777D01*
X114662439Y-66153217D01*
X114662912Y-66263701D01*
X114662912Y-66604674D01*
X114543709Y-66669434D01*
X114507130Y-66688607D01*
X114457889Y-66712176D01*
X114418619Y-66728344D01*
X114395510Y-66734398D01*
X114366514Y-66734601D01*
X114366514Y-66396037D01*
X114366514Y-66057473D01*
X114501981Y-65990101D01*
X114553573Y-65964905D01*
X114600324Y-65943007D01*
X114634212Y-65928182D01*
X114650180Y-65922729D01*
X114651899Y-65924733D01*
G37*
G36*
X115515163Y-66194455D02*
G01*
X115519065Y-66214644D01*
X115521850Y-66259747D01*
X115523500Y-66329117D01*
X115523996Y-66422110D01*
X115523321Y-66538077D01*
X115519888Y-66882800D01*
X115410350Y-66942516D01*
X115383842Y-66956475D01*
X115333812Y-66980280D01*
X115291979Y-66997020D01*
X115265373Y-67003729D01*
X115229934Y-67005225D01*
X115229934Y-66666661D01*
X115229934Y-66328098D01*
X115365401Y-66260725D01*
X115416986Y-66235540D01*
X115463792Y-66213636D01*
X115497756Y-66198807D01*
X115513810Y-66193353D01*
X115515163Y-66194455D01*
G37*
G36*
X116373183Y-62263738D02*
G01*
X116382773Y-62289642D01*
X116387526Y-62332741D01*
X116388841Y-62395178D01*
X116388114Y-62479095D01*
X116386744Y-62586633D01*
X116383308Y-62923292D01*
X116260883Y-62991297D01*
X116220770Y-63012818D01*
X116171452Y-63037138D01*
X116132341Y-63053976D01*
X116109462Y-63060574D01*
X116080467Y-63061846D01*
X116080467Y-62720462D01*
X116080467Y-62379078D01*
X116209101Y-62314526D01*
X116258486Y-62289255D01*
X116301407Y-62267790D01*
X116333898Y-62254954D01*
X116357357Y-62252890D01*
X116373183Y-62263738D01*
G37*
G36*
X114353565Y-67123032D02*
G01*
X114353503Y-67462709D01*
X114234362Y-67529025D01*
X114196261Y-67550025D01*
X114152119Y-67573758D01*
X114120176Y-67590207D01*
X114105556Y-67596681D01*
X114105338Y-67596622D01*
X114102827Y-67582646D01*
X114100570Y-67546449D01*
X114098658Y-67491313D01*
X114097181Y-67420516D01*
X114096228Y-67337340D01*
X114095890Y-67245063D01*
X114095890Y-66892105D01*
X114194282Y-66845379D01*
X114207750Y-66839045D01*
X114256451Y-66817105D01*
X114297498Y-66800003D01*
X114323151Y-66791004D01*
X114353628Y-66783355D01*
X114353565Y-67123032D01*
G37*
G36*
X116372750Y-63655185D02*
G01*
X116380346Y-63661021D01*
X116385292Y-63676370D01*
X116388138Y-63705295D01*
X116389440Y-63751861D01*
X116389751Y-63820133D01*
X116389244Y-63886982D01*
X116387464Y-63980652D01*
X116384705Y-64076652D01*
X116381283Y-64162201D01*
X116372815Y-64338778D01*
X116255636Y-64402442D01*
X116221040Y-64420592D01*
X116171954Y-64444103D01*
X116132671Y-64460256D01*
X116109462Y-64466310D01*
X116080467Y-64466514D01*
X116080625Y-64128234D01*
X116080784Y-63789954D01*
X116212716Y-63722213D01*
X116261080Y-63698145D01*
X116309949Y-63675524D01*
X116347170Y-63660185D01*
X116367199Y-63654557D01*
X116372750Y-63655185D01*
G37*
G36*
X112080335Y-62965268D02*
G01*
X112109970Y-62978768D01*
X112153566Y-62998810D01*
X112205768Y-63022940D01*
X112330391Y-63080686D01*
X112330391Y-63425655D01*
X112330303Y-63475891D01*
X112329442Y-63578497D01*
X112327700Y-63660585D01*
X112325126Y-63720843D01*
X112321768Y-63757960D01*
X112317674Y-63770623D01*
X112307359Y-63767494D01*
X112277448Y-63754870D01*
X112233989Y-63734806D01*
X112182362Y-63709724D01*
X112059767Y-63648825D01*
X112059767Y-63302714D01*
X112059767Y-63299893D01*
X112060169Y-63208974D01*
X112061259Y-63127458D01*
X112062935Y-63058618D01*
X112065095Y-63005729D01*
X112067636Y-62972065D01*
X112070456Y-62960899D01*
X112080335Y-62965268D01*
G37*
G36*
X117512933Y-61672448D02*
G01*
X117516714Y-61695828D01*
X117519740Y-61743096D01*
X117521960Y-61812939D01*
X117523328Y-61904047D01*
X117523795Y-62015109D01*
X117523795Y-62360152D01*
X117404592Y-62420289D01*
X117368453Y-62438187D01*
X117321912Y-62460157D01*
X117286975Y-62475334D01*
X117269280Y-62481182D01*
X117265795Y-62478924D01*
X117261491Y-62465319D01*
X117258209Y-62437412D01*
X117255844Y-62392911D01*
X117254288Y-62329520D01*
X117253432Y-62244948D01*
X117253171Y-62136901D01*
X117253171Y-61791864D01*
X117375767Y-61730965D01*
X117415130Y-61711735D01*
X117461119Y-61690200D01*
X117494896Y-61675503D01*
X117511079Y-61670065D01*
X117512933Y-61672448D01*
G37*
G36*
X110050629Y-62658621D02*
G01*
X110083674Y-62670693D01*
X110129783Y-62690675D01*
X110183978Y-62716543D01*
X110320041Y-62784211D01*
X110320041Y-63129218D01*
X110320041Y-63130342D01*
X110319797Y-63221524D01*
X110319121Y-63303605D01*
X110318078Y-63373250D01*
X110316730Y-63427125D01*
X110315144Y-63461895D01*
X110313383Y-63474226D01*
X110313196Y-63474208D01*
X110298625Y-63468170D01*
X110265989Y-63452840D01*
X110219954Y-63430452D01*
X110165184Y-63403240D01*
X110023643Y-63332255D01*
X110023643Y-62998065D01*
X110023847Y-62931705D01*
X110024875Y-62841917D01*
X110026682Y-62766686D01*
X110029168Y-62708817D01*
X110032233Y-62671112D01*
X110035779Y-62656374D01*
X110050629Y-62658621D01*
G37*
G36*
X110075251Y-65488514D02*
G01*
X110105628Y-65499618D01*
X110145899Y-65519331D01*
X110197445Y-65545475D01*
X110320041Y-65606374D01*
X110320041Y-65951411D01*
X110320041Y-65952559D01*
X110319797Y-66043743D01*
X110319121Y-66125826D01*
X110318077Y-66195471D01*
X110316730Y-66249347D01*
X110315144Y-66284117D01*
X110313383Y-66296448D01*
X110313196Y-66296430D01*
X110298625Y-66290392D01*
X110265989Y-66275062D01*
X110219954Y-66252674D01*
X110165184Y-66225463D01*
X110023643Y-66154477D01*
X110023643Y-65819526D01*
X110023422Y-65724619D01*
X110023437Y-65638342D01*
X110025059Y-65573739D01*
X110029671Y-65528632D01*
X110038653Y-65500844D01*
X110053386Y-65488197D01*
X110075251Y-65488514D01*
G37*
G36*
X115204031Y-62831616D02*
G01*
X115208465Y-62844527D01*
X115211847Y-62871665D01*
X115214287Y-62915340D01*
X115215893Y-62977858D01*
X115216777Y-63061529D01*
X115217047Y-63168660D01*
X115217047Y-63507437D01*
X115091400Y-63574234D01*
X115047931Y-63597055D01*
X115003040Y-63619916D01*
X114970745Y-63635529D01*
X114956088Y-63641393D01*
X114955915Y-63641343D01*
X114953402Y-63627519D01*
X114951156Y-63591441D01*
X114949267Y-63536408D01*
X114947824Y-63465721D01*
X114946915Y-63382681D01*
X114946629Y-63290588D01*
X114946835Y-62939421D01*
X115065833Y-62884506D01*
X115100483Y-62868833D01*
X115147590Y-62848634D01*
X115183005Y-62834820D01*
X115200939Y-62829737D01*
X115204031Y-62831616D01*
G37*
G36*
X110057409Y-64070882D02*
G01*
X110091206Y-64084450D01*
X110137721Y-64105484D01*
X110191406Y-64131573D01*
X110320041Y-64196125D01*
X110320041Y-64543953D01*
X110320040Y-64547462D01*
X110319673Y-64638827D01*
X110318685Y-64721005D01*
X110317169Y-64790679D01*
X110315218Y-64844532D01*
X110312922Y-64879246D01*
X110310375Y-64891504D01*
X110296046Y-64885606D01*
X110263911Y-64869630D01*
X110218769Y-64846024D01*
X110165398Y-64817236D01*
X110030086Y-64743243D01*
X110026651Y-64405132D01*
X110025950Y-64329074D01*
X110025496Y-64242743D01*
X110025779Y-64177379D01*
X110026935Y-64130181D01*
X110029099Y-64098347D01*
X110032406Y-64079076D01*
X110036993Y-64069568D01*
X110042993Y-64067021D01*
X110057409Y-64070882D01*
G37*
G36*
X111801853Y-66351984D02*
G01*
X111833416Y-66365589D01*
X111878251Y-66386570D01*
X111931132Y-66412547D01*
X112059767Y-66477099D01*
X112059767Y-66809892D01*
X112059513Y-66890256D01*
X112058674Y-66972929D01*
X112057332Y-67043881D01*
X112055576Y-67099598D01*
X112053494Y-67136567D01*
X112051175Y-67151276D01*
X112050053Y-67152420D01*
X112045044Y-67156805D01*
X112037965Y-67157774D01*
X112024614Y-67153717D01*
X112000787Y-67143027D01*
X111962280Y-67124096D01*
X111904890Y-67095316D01*
X111776256Y-67030764D01*
X111776256Y-66689380D01*
X111776287Y-66658240D01*
X111777022Y-66548055D01*
X111778720Y-66461374D01*
X111781360Y-66398762D01*
X111784919Y-66360781D01*
X111789377Y-66347995D01*
X111801853Y-66351984D01*
G37*
G36*
X114337842Y-63964752D02*
G01*
X114342957Y-63971645D01*
X114346861Y-63987832D01*
X114349709Y-64016059D01*
X114351655Y-64059071D01*
X114352854Y-64119617D01*
X114353460Y-64200441D01*
X114353628Y-64304291D01*
X114353628Y-64644657D01*
X114234424Y-64709390D01*
X114196665Y-64729673D01*
X114152333Y-64752835D01*
X114120241Y-64768806D01*
X114105556Y-64774961D01*
X114105372Y-64774914D01*
X114102853Y-64761124D01*
X114100589Y-64725084D01*
X114098669Y-64670087D01*
X114097186Y-64599426D01*
X114096229Y-64516393D01*
X114095890Y-64424282D01*
X114095890Y-64072765D01*
X114205618Y-64018346D01*
X114232323Y-64005376D01*
X114278994Y-63984086D01*
X114315106Y-63969401D01*
X114334487Y-63963926D01*
X114337842Y-63964752D01*
G37*
G36*
X114651693Y-63101522D02*
G01*
X114655615Y-63121411D01*
X114658415Y-63166216D01*
X114660075Y-63235285D01*
X114660576Y-63327966D01*
X114659901Y-63443609D01*
X114656469Y-63786711D01*
X114534044Y-63854716D01*
X114493554Y-63876609D01*
X114445882Y-63900750D01*
X114409156Y-63917451D01*
X114389066Y-63923994D01*
X114386860Y-63924008D01*
X114380572Y-63921618D01*
X114375726Y-63913306D01*
X114372136Y-63896235D01*
X114369616Y-63867571D01*
X114367980Y-63824477D01*
X114367042Y-63764118D01*
X114366615Y-63683657D01*
X114366514Y-63580259D01*
X114366514Y-63235251D01*
X114501981Y-63167879D01*
X114553566Y-63142693D01*
X114600372Y-63120790D01*
X114634336Y-63105961D01*
X114650391Y-63100507D01*
X114651693Y-63101522D01*
G37*
G36*
X115510417Y-63398286D02*
G01*
X115519610Y-63424532D01*
X115524159Y-63467855D01*
X115525401Y-63530426D01*
X115524677Y-63614418D01*
X115523324Y-63722001D01*
X115519888Y-64059985D01*
X115397463Y-64127243D01*
X115357149Y-64148775D01*
X115309400Y-64172577D01*
X115272609Y-64188942D01*
X115252486Y-64195195D01*
X115250324Y-64195156D01*
X115244026Y-64192615D01*
X115239171Y-64184185D01*
X115235574Y-64167024D01*
X115233047Y-64138293D01*
X115231406Y-64095151D01*
X115230464Y-64034758D01*
X115230036Y-63954272D01*
X115229934Y-63850853D01*
X115229934Y-63505816D01*
X115352530Y-63444917D01*
X115400426Y-63420634D01*
X115441584Y-63400291D01*
X115472743Y-63388338D01*
X115495241Y-63386945D01*
X115510417Y-63398286D01*
G37*
G36*
X116377843Y-65060112D02*
G01*
X116382068Y-65079232D01*
X116385394Y-65123354D01*
X116387799Y-65191870D01*
X116389260Y-65284175D01*
X116389751Y-65399663D01*
X116389751Y-65740016D01*
X116269595Y-65804217D01*
X116232504Y-65823716D01*
X116183951Y-65848237D01*
X116145987Y-65866222D01*
X116124618Y-65874748D01*
X116109630Y-65878415D01*
X116090132Y-65882574D01*
X116087605Y-65871048D01*
X116085288Y-65837037D01*
X116083321Y-65783862D01*
X116081798Y-65714855D01*
X116080815Y-65633348D01*
X116080467Y-65542674D01*
X116080467Y-65201280D01*
X116222008Y-65130295D01*
X116224276Y-65129158D01*
X116279534Y-65101992D01*
X116326634Y-65079788D01*
X116360649Y-65064806D01*
X116376650Y-65059309D01*
X116377843Y-65060112D01*
G37*
G36*
X117513325Y-63078050D02*
G01*
X117516945Y-63103218D01*
X117519857Y-63151804D01*
X117522008Y-63222256D01*
X117523339Y-63313019D01*
X117523795Y-63422539D01*
X117523795Y-63770345D01*
X117411035Y-63827823D01*
X117381363Y-63842584D01*
X117333755Y-63864697D01*
X117296470Y-63880044D01*
X117275723Y-63885953D01*
X117273979Y-63885937D01*
X117267551Y-63883634D01*
X117262597Y-63875576D01*
X117258926Y-63858906D01*
X117256348Y-63830762D01*
X117254673Y-63788284D01*
X117253712Y-63728614D01*
X117253275Y-63648890D01*
X117253171Y-63546252D01*
X117253171Y-63205899D01*
X117375913Y-63140316D01*
X117416614Y-63118938D01*
X117462027Y-63096074D01*
X117495312Y-63080492D01*
X117511225Y-63074733D01*
X117513325Y-63078050D01*
G37*
G36*
X114340645Y-65373967D02*
G01*
X114345230Y-65381005D01*
X114348496Y-65397162D01*
X114350603Y-65425211D01*
X114351711Y-65467930D01*
X114351976Y-65528094D01*
X114351559Y-65608478D01*
X114350619Y-65711857D01*
X114347184Y-66058041D01*
X114231202Y-66118784D01*
X114197028Y-66136483D01*
X114152644Y-66158791D01*
X114120382Y-66174158D01*
X114105556Y-66179997D01*
X114105382Y-66179949D01*
X114102874Y-66166149D01*
X114100641Y-66130094D01*
X114098771Y-66075082D01*
X114097353Y-66004413D01*
X114096474Y-65921386D01*
X114096221Y-65829299D01*
X114096551Y-65478132D01*
X114202537Y-65430533D01*
X114223322Y-65421228D01*
X114271394Y-65399936D01*
X114309662Y-65383299D01*
X114331289Y-65374303D01*
X114334583Y-65373271D01*
X114340645Y-65373967D01*
G37*
G36*
X114939812Y-66476881D02*
G01*
X114941566Y-66490085D01*
X114943145Y-66525621D01*
X114944483Y-66580169D01*
X114945519Y-66650407D01*
X114946186Y-66733014D01*
X114946423Y-66824670D01*
X114946423Y-67172476D01*
X114833663Y-67229954D01*
X114803991Y-67244715D01*
X114756383Y-67266828D01*
X114719098Y-67282174D01*
X114698351Y-67288084D01*
X114696514Y-67288063D01*
X114690116Y-67285705D01*
X114685183Y-67277564D01*
X114681528Y-67260784D01*
X114678962Y-67232510D01*
X114677295Y-67189885D01*
X114676338Y-67130055D01*
X114675902Y-67050162D01*
X114675799Y-66947352D01*
X114675799Y-66605968D01*
X114804434Y-66541416D01*
X114849923Y-66518802D01*
X114894643Y-66497068D01*
X114926224Y-66482306D01*
X114939746Y-66476864D01*
X114939812Y-66476881D01*
G37*
G36*
X114646852Y-64523251D02*
G01*
X114658478Y-64544424D01*
X114662681Y-64584978D01*
X114661880Y-64647044D01*
X114658493Y-64732753D01*
X114657180Y-64767566D01*
X114654358Y-64853780D01*
X114652088Y-64939059D01*
X114650575Y-65015130D01*
X114650025Y-65073725D01*
X114650025Y-65200006D01*
X114530822Y-65264766D01*
X114493802Y-65284314D01*
X114446198Y-65307701D01*
X114409340Y-65323732D01*
X114389066Y-65329730D01*
X114387360Y-65329682D01*
X114380924Y-65327260D01*
X114375962Y-65319111D01*
X114372284Y-65302371D01*
X114369701Y-65274177D01*
X114368022Y-65231665D01*
X114367058Y-65171970D01*
X114366619Y-65092230D01*
X114366514Y-64989580D01*
X114366514Y-64649227D01*
X114489257Y-64583644D01*
X114543259Y-64554720D01*
X114591661Y-64530530D01*
X114625386Y-64519330D01*
X114646852Y-64523251D01*
G37*
G36*
X115511280Y-64790332D02*
G01*
X115517466Y-64798463D01*
X115521986Y-64815578D01*
X115524908Y-64844071D01*
X115526298Y-64886337D01*
X115526223Y-64944771D01*
X115524750Y-65021767D01*
X115521948Y-65119720D01*
X115517881Y-65241024D01*
X115509504Y-65480729D01*
X115392271Y-65539888D01*
X115358488Y-65556508D01*
X115310448Y-65578599D01*
X115273093Y-65593897D01*
X115252486Y-65599802D01*
X115250888Y-65599801D01*
X115244414Y-65597614D01*
X115239425Y-65589716D01*
X115235728Y-65573243D01*
X115233132Y-65545326D01*
X115231446Y-65503101D01*
X115230478Y-65443702D01*
X115230038Y-65364261D01*
X115229934Y-65261913D01*
X115229934Y-64923269D01*
X115357009Y-64855977D01*
X115401265Y-64833205D01*
X115449228Y-64810155D01*
X115485730Y-64794474D01*
X115505208Y-64788685D01*
X115511280Y-64790332D01*
G37*
G36*
X109774536Y-61814171D02*
G01*
X109802842Y-61825941D01*
X109844868Y-61845370D01*
X109895032Y-61869941D01*
X110010756Y-61928061D01*
X110010756Y-62269434D01*
X110010841Y-62355852D01*
X110010710Y-62444460D01*
X110009465Y-62511396D01*
X110006195Y-62558951D01*
X109999988Y-62589420D01*
X109989935Y-62605094D01*
X109975124Y-62608267D01*
X109954643Y-62601231D01*
X109927582Y-62586278D01*
X109893031Y-62565702D01*
X109851128Y-62543927D01*
X109808641Y-62527057D01*
X109778102Y-62520598D01*
X109740132Y-62520598D01*
X109740132Y-62855579D01*
X109740132Y-63190561D01*
X109604820Y-63123266D01*
X109469508Y-63055970D01*
X109469508Y-62717407D01*
X109469420Y-62629235D01*
X109469637Y-62540111D01*
X109471211Y-62472834D01*
X109475207Y-62425223D01*
X109482693Y-62395097D01*
X109494733Y-62380274D01*
X109512394Y-62378573D01*
X109536742Y-62387813D01*
X109568842Y-62405812D01*
X109609760Y-62430390D01*
X109617221Y-62434763D01*
X109662071Y-62458693D01*
X109700463Y-62475557D01*
X109724773Y-62481938D01*
X109753019Y-62481938D01*
X109753019Y-62146879D01*
X109753038Y-62122527D01*
X109753735Y-62012115D01*
X109755418Y-61925298D01*
X109758064Y-61862616D01*
X109761653Y-61824610D01*
X109766163Y-61811821D01*
X109774536Y-61814171D01*
G37*
G36*
X115796956Y-65684205D02*
G01*
X115796956Y-66025824D01*
X115825202Y-66025824D01*
X115827909Y-66025639D01*
X115855057Y-66017301D01*
X115895033Y-65999041D01*
X115940215Y-65974276D01*
X115973439Y-65954309D01*
X116007288Y-65934765D01*
X116033156Y-65923536D01*
X116052110Y-65922804D01*
X116065215Y-65934750D01*
X116073537Y-65961555D01*
X116078143Y-66005403D01*
X116080097Y-66068473D01*
X116080468Y-66152948D01*
X116080319Y-66261009D01*
X116080171Y-66599289D01*
X115967559Y-66660130D01*
X115936323Y-66676730D01*
X115891295Y-66699598D01*
X115857599Y-66715370D01*
X115840836Y-66721342D01*
X115836965Y-66716437D01*
X115830990Y-66689682D01*
X115825375Y-66642553D01*
X115820326Y-66578358D01*
X115816045Y-66500405D01*
X115812735Y-66412004D01*
X115810600Y-66316462D01*
X115809843Y-66217089D01*
X115809843Y-66064484D01*
X115771873Y-66064484D01*
X115743916Y-66070126D01*
X115701942Y-66086403D01*
X115656944Y-66109588D01*
X115629102Y-66126170D01*
X115600521Y-66142514D01*
X115578713Y-66151431D01*
X115562769Y-66150629D01*
X115551777Y-66137814D01*
X115544827Y-66110694D01*
X115541007Y-66066976D01*
X115539406Y-66004367D01*
X115539114Y-65920576D01*
X115539219Y-65813308D01*
X115539219Y-65471924D01*
X115668087Y-65407255D01*
X115796956Y-65342585D01*
X115796956Y-65684205D01*
G37*
G36*
X111621827Y-62733339D02*
G01*
X111763369Y-62804324D01*
X111763369Y-63152279D01*
X111763369Y-63500234D01*
X111634734Y-63435683D01*
X111589825Y-63413734D01*
X111541753Y-63391674D01*
X111505477Y-63376669D01*
X111486536Y-63371131D01*
X111482867Y-63372004D01*
X111477672Y-63378733D01*
X111473722Y-63394479D01*
X111470857Y-63422033D01*
X111468912Y-63464188D01*
X111467725Y-63523737D01*
X111467132Y-63603473D01*
X111466971Y-63706189D01*
X111466909Y-63747439D01*
X111466091Y-63849595D01*
X111464365Y-63931410D01*
X111461783Y-63991527D01*
X111458396Y-64028591D01*
X111454255Y-64041248D01*
X111443874Y-64038092D01*
X111413910Y-64025438D01*
X111370405Y-64005349D01*
X111318735Y-63980245D01*
X111195931Y-63919242D01*
X111199361Y-63584145D01*
X111200107Y-63516991D01*
X111201420Y-63428945D01*
X111203056Y-63362045D01*
X111205215Y-63313446D01*
X111208095Y-63280303D01*
X111211895Y-63259770D01*
X111216815Y-63249001D01*
X111223051Y-63245151D01*
X111226117Y-63245061D01*
X111250427Y-63252254D01*
X111288176Y-63269442D01*
X111332590Y-63293627D01*
X111365027Y-63312813D01*
X111398836Y-63331831D01*
X111424797Y-63342503D01*
X111443984Y-63342652D01*
X111457467Y-63330100D01*
X111466318Y-63302670D01*
X111471611Y-63258186D01*
X111474415Y-63194470D01*
X111475805Y-63109345D01*
X111476850Y-63000633D01*
X111480286Y-62662353D01*
X111621827Y-62733339D01*
G37*
G36*
X116961580Y-61952697D02*
G01*
X116964200Y-61985089D01*
X116966427Y-62036803D01*
X116968151Y-62104519D01*
X116969265Y-62184916D01*
X116969660Y-62274674D01*
X116969660Y-62610806D01*
X117003005Y-62610806D01*
X117003039Y-62610806D01*
X117030897Y-62604611D01*
X117071836Y-62588409D01*
X117117003Y-62565702D01*
X117147147Y-62548546D01*
X117176875Y-62532288D01*
X117199531Y-62523450D01*
X117216070Y-62524323D01*
X117227445Y-62537202D01*
X117234612Y-62564381D01*
X117238526Y-62608152D01*
X117240139Y-62670810D01*
X117240407Y-62754649D01*
X117240284Y-62861961D01*
X117240284Y-63203324D01*
X117127524Y-63260801D01*
X117097298Y-63275942D01*
X117051312Y-63297872D01*
X117016489Y-63313079D01*
X116998656Y-63318931D01*
X116995658Y-63317352D01*
X116991186Y-63305029D01*
X116987778Y-63278541D01*
X116985322Y-63235568D01*
X116983706Y-63173788D01*
X116982818Y-63090880D01*
X116982547Y-62984525D01*
X116982784Y-62888223D01*
X116982768Y-62802067D01*
X116981075Y-62737617D01*
X116976271Y-62692727D01*
X116966923Y-62665252D01*
X116951600Y-62653046D01*
X116928869Y-62653966D01*
X116897296Y-62665864D01*
X116855450Y-62686597D01*
X116801897Y-62714019D01*
X116673262Y-62778570D01*
X116673268Y-62427286D01*
X116673273Y-62076001D01*
X116810653Y-62011567D01*
X116863024Y-61987061D01*
X116909891Y-61965245D01*
X116943511Y-61949725D01*
X116958847Y-61942837D01*
X116961580Y-61952697D01*
G37*
G36*
X112781350Y-66134327D02*
G01*
X112910138Y-66199796D01*
X112910219Y-66538077D01*
X112910347Y-66627107D01*
X112910213Y-66715481D01*
X112908754Y-66782092D01*
X112904900Y-66829152D01*
X112897582Y-66858873D01*
X112885731Y-66873467D01*
X112868277Y-66875145D01*
X112844152Y-66866120D01*
X112812285Y-66848604D01*
X112771608Y-66824809D01*
X112761420Y-66819013D01*
X112717483Y-66795752D01*
X112681675Y-66779423D01*
X112660938Y-66773262D01*
X112660823Y-66773262D01*
X112654425Y-66775335D01*
X112649453Y-66783345D01*
X112645731Y-66800125D01*
X112643080Y-66828509D01*
X112641326Y-66871332D01*
X112640291Y-66931426D01*
X112639800Y-67011625D01*
X112639675Y-67114764D01*
X112639444Y-67203919D01*
X112638774Y-67285827D01*
X112637731Y-67355366D01*
X112636380Y-67409187D01*
X112634787Y-67443937D01*
X112633017Y-67456265D01*
X112632831Y-67456247D01*
X112618259Y-67450210D01*
X112585624Y-67434880D01*
X112539589Y-67412492D01*
X112484818Y-67385280D01*
X112343278Y-67314295D01*
X112343278Y-66966534D01*
X112343278Y-66618774D01*
X112476820Y-66685189D01*
X112517723Y-66704833D01*
X112571349Y-66727953D01*
X112610599Y-66741349D01*
X112631462Y-66743507D01*
X112636582Y-66740246D01*
X112641909Y-66731162D01*
X112645919Y-66713891D01*
X112648793Y-66685501D01*
X112650714Y-66643060D01*
X112651862Y-66583640D01*
X112652417Y-66504308D01*
X112652562Y-66402134D01*
X112652562Y-66068858D01*
X112781350Y-66134327D01*
G37*
G36*
X115789814Y-63949922D02*
G01*
X115792132Y-63984315D01*
X115794100Y-64037837D01*
X115795623Y-64107137D01*
X115796607Y-64188861D01*
X115796956Y-64279654D01*
X115797035Y-64359161D01*
X115797473Y-64445388D01*
X115798439Y-64510704D01*
X115800097Y-64557897D01*
X115802608Y-64589752D01*
X115806136Y-64609056D01*
X115810844Y-64618596D01*
X115816893Y-64621156D01*
X115820693Y-64620630D01*
X115845948Y-64611552D01*
X115884874Y-64593531D01*
X115930753Y-64569609D01*
X115943334Y-64562837D01*
X115989754Y-64540037D01*
X116028694Y-64524074D01*
X116052785Y-64518061D01*
X116080895Y-64518061D01*
X116077459Y-64856341D01*
X116074023Y-65194621D01*
X115945155Y-65261172D01*
X115816286Y-65327722D01*
X115812845Y-64990973D01*
X115811641Y-64907360D01*
X115809681Y-64824086D01*
X115807193Y-64752471D01*
X115804325Y-64696045D01*
X115801229Y-64658336D01*
X115798053Y-64642872D01*
X115792131Y-64641693D01*
X115766290Y-64648412D01*
X115725199Y-64665363D01*
X115673467Y-64690773D01*
X115641890Y-64707083D01*
X115597496Y-64729204D01*
X115564962Y-64744386D01*
X115549725Y-64750025D01*
X115549698Y-64750024D01*
X115546925Y-64737466D01*
X115544440Y-64702502D01*
X115542343Y-64648467D01*
X115540733Y-64578699D01*
X115539711Y-64496532D01*
X115539377Y-64405301D01*
X115539535Y-64060578D01*
X115658580Y-63999222D01*
X115695387Y-63980498D01*
X115740083Y-63958517D01*
X115772469Y-63943521D01*
X115787291Y-63938010D01*
X115789814Y-63949922D01*
G37*
G36*
X109766508Y-64625024D02*
G01*
X109794175Y-64638761D01*
X109835779Y-64660100D01*
X109886478Y-64686582D01*
X110010756Y-64752008D01*
X110010756Y-65092518D01*
X110010740Y-65126361D01*
X110010420Y-65223737D01*
X110009579Y-65298809D01*
X110008073Y-65354246D01*
X110005761Y-65392717D01*
X110002500Y-65416892D01*
X109998146Y-65429439D01*
X109992558Y-65433028D01*
X109989821Y-65432676D01*
X109966451Y-65423915D01*
X109929263Y-65405781D01*
X109884952Y-65381481D01*
X109848392Y-65360140D01*
X109814073Y-65340985D01*
X109787863Y-65330185D01*
X109768676Y-65329917D01*
X109755423Y-65342357D01*
X109747019Y-65369682D01*
X109742375Y-65414068D01*
X109740404Y-65477692D01*
X109740019Y-65562730D01*
X109740132Y-65671358D01*
X109740132Y-66012783D01*
X109603163Y-65945204D01*
X109466194Y-65877625D01*
X109474295Y-65685495D01*
X109474582Y-65678586D01*
X109477627Y-65593321D01*
X109480110Y-65502478D01*
X109481782Y-65416497D01*
X109482395Y-65345818D01*
X109482395Y-65198271D01*
X109514137Y-65206238D01*
X109539045Y-65215703D01*
X109578617Y-65234915D01*
X109622622Y-65259182D01*
X109653622Y-65277553D01*
X109684921Y-65295204D01*
X109708873Y-65304887D01*
X109726456Y-65304378D01*
X109738650Y-65291450D01*
X109746432Y-65263879D01*
X109750782Y-65219439D01*
X109752677Y-65155906D01*
X109753096Y-65071054D01*
X109753019Y-64962658D01*
X109753178Y-64873503D01*
X109753640Y-64791596D01*
X109754359Y-64722056D01*
X109755291Y-64668235D01*
X109756389Y-64633484D01*
X109757609Y-64621156D01*
X109766508Y-64625024D01*
G37*
G36*
X109774536Y-63218839D02*
G01*
X109802842Y-63230608D01*
X109844868Y-63250038D01*
X109895032Y-63274609D01*
X110010756Y-63332729D01*
X110010756Y-63680545D01*
X110010637Y-63745559D01*
X110009748Y-63849533D01*
X110007962Y-63928989D01*
X110005247Y-63984737D01*
X110001571Y-64017590D01*
X109996900Y-64028361D01*
X109994944Y-64028071D01*
X109974137Y-64019449D01*
X109939117Y-64001271D01*
X109896278Y-63976813D01*
X109889666Y-63972943D01*
X109843468Y-63948777D01*
X109802452Y-63931724D01*
X109774821Y-63925266D01*
X109740132Y-63925266D01*
X109740132Y-64266683D01*
X109740132Y-64608100D01*
X109618031Y-64547447D01*
X109579542Y-64527710D01*
X109534988Y-64503043D01*
X109503474Y-64483348D01*
X109490123Y-64471660D01*
X109488414Y-64457636D01*
X109486078Y-64420820D01*
X109483416Y-64365070D01*
X109480581Y-64293966D01*
X109477728Y-64211089D01*
X109475010Y-64120018D01*
X109473018Y-64045497D01*
X109471041Y-63959152D01*
X109470161Y-63893791D01*
X109470460Y-63846606D01*
X109472024Y-63814792D01*
X109474938Y-63795543D01*
X109479286Y-63786051D01*
X109485152Y-63783510D01*
X109488873Y-63784034D01*
X109513885Y-63793111D01*
X109552615Y-63811133D01*
X109598376Y-63835058D01*
X109610556Y-63841617D01*
X109657468Y-63864518D01*
X109697333Y-63880560D01*
X109722586Y-63886605D01*
X109753019Y-63886605D01*
X109753019Y-63551547D01*
X109753038Y-63527195D01*
X109753735Y-63416783D01*
X109755418Y-63329966D01*
X109758064Y-63267283D01*
X109761653Y-63229277D01*
X109766163Y-63216489D01*
X109774536Y-63218839D01*
G37*
G36*
X110935868Y-65217081D02*
G01*
X110965778Y-65229706D01*
X111009238Y-65249769D01*
X111060865Y-65274851D01*
X111183460Y-65335750D01*
X111183460Y-65679581D01*
X111183460Y-66023411D01*
X111154465Y-66015852D01*
X111133743Y-66007952D01*
X111096289Y-65989761D01*
X111053945Y-65966403D01*
X111018759Y-65947000D01*
X110977313Y-65926951D01*
X110947628Y-65915780D01*
X110912836Y-65907048D01*
X110912836Y-66249947D01*
X110912612Y-66340357D01*
X110911976Y-66422334D01*
X110910989Y-66491916D01*
X110909712Y-66545758D01*
X110908207Y-66580516D01*
X110906535Y-66592846D01*
X110905899Y-66592716D01*
X110889561Y-66585736D01*
X110855420Y-66569678D01*
X110808016Y-66546712D01*
X110751892Y-66519006D01*
X110603552Y-66445165D01*
X110603552Y-66100183D01*
X110603552Y-66099079D01*
X110603796Y-66007899D01*
X110604473Y-65925819D01*
X110605520Y-65856175D01*
X110606871Y-65802301D01*
X110608463Y-65767531D01*
X110610229Y-65755200D01*
X110620690Y-65759279D01*
X110650060Y-65772888D01*
X110693241Y-65793789D01*
X110745307Y-65819634D01*
X110789991Y-65841473D01*
X110838049Y-65863528D01*
X110874324Y-65878531D01*
X110893272Y-65884068D01*
X110896940Y-65883196D01*
X110902136Y-65876466D01*
X110906085Y-65860721D01*
X110908950Y-65833167D01*
X110910895Y-65791011D01*
X110912082Y-65731462D01*
X110912675Y-65651726D01*
X110912836Y-65549010D01*
X110912898Y-65507760D01*
X110913716Y-65405604D01*
X110915442Y-65323790D01*
X110918024Y-65263672D01*
X110921412Y-65226608D01*
X110925553Y-65213952D01*
X110935868Y-65217081D01*
G37*
G36*
X115784767Y-62533979D02*
G01*
X115789098Y-62551751D01*
X115792504Y-62594635D01*
X115794963Y-62662088D01*
X115796454Y-62753572D01*
X115796956Y-62868543D01*
X115796883Y-62949113D01*
X115797068Y-63039090D01*
X115798538Y-63107166D01*
X115802345Y-63155580D01*
X115809540Y-63186570D01*
X115821174Y-63202374D01*
X115838299Y-63205230D01*
X115861964Y-63197378D01*
X115893222Y-63181054D01*
X115933123Y-63158498D01*
X115933205Y-63158452D01*
X115978373Y-63135754D01*
X116019295Y-63119567D01*
X116047122Y-63113394D01*
X116080467Y-63113394D01*
X116080467Y-63448327D01*
X116080467Y-63783260D01*
X115954820Y-63847161D01*
X115912089Y-63868644D01*
X115866851Y-63890759D01*
X115834286Y-63905931D01*
X115819508Y-63911720D01*
X115816982Y-63899986D01*
X115814665Y-63865771D01*
X115812697Y-63812409D01*
X115811175Y-63743244D01*
X115810192Y-63661619D01*
X115809843Y-63570877D01*
X115809953Y-63477273D01*
X115809770Y-63389331D01*
X115808258Y-63323070D01*
X115804375Y-63276283D01*
X115797080Y-63246763D01*
X115785330Y-63232303D01*
X115768083Y-63230696D01*
X115744298Y-63239735D01*
X115712931Y-63257213D01*
X115672943Y-63280923D01*
X115639199Y-63300957D01*
X115607272Y-63319193D01*
X115582943Y-63329452D01*
X115565187Y-63329509D01*
X115552978Y-63317140D01*
X115545289Y-63290123D01*
X115541094Y-63246234D01*
X115539368Y-63183249D01*
X115539085Y-63098945D01*
X115539219Y-62991098D01*
X115539219Y-62649725D01*
X115654943Y-62591605D01*
X115687991Y-62575274D01*
X115733537Y-62553737D01*
X115767338Y-62538968D01*
X115783812Y-62533485D01*
X115784767Y-62533979D01*
G37*
G36*
X112355123Y-59801683D02*
G01*
X112372533Y-59809429D01*
X112410860Y-59827702D01*
X112468412Y-59855655D01*
X112543495Y-59892444D01*
X112634419Y-59937221D01*
X112739490Y-59989141D01*
X112857016Y-60047359D01*
X112985305Y-60111030D01*
X113122664Y-60179306D01*
X113267400Y-60251344D01*
X113417823Y-60326296D01*
X113572238Y-60403318D01*
X113728954Y-60481563D01*
X113886279Y-60560186D01*
X114042520Y-60638341D01*
X114195984Y-60715183D01*
X114344979Y-60789865D01*
X114487814Y-60861543D01*
X114622795Y-60929370D01*
X114748230Y-60992501D01*
X114862426Y-61050090D01*
X114963692Y-61101292D01*
X115050336Y-61145260D01*
X115120663Y-61181149D01*
X115172983Y-61208113D01*
X115205603Y-61225307D01*
X115216830Y-61231885D01*
X115212685Y-61235139D01*
X115189310Y-61248914D01*
X115148111Y-61271663D01*
X115092273Y-61301663D01*
X115024984Y-61337191D01*
X114949428Y-61376523D01*
X114903712Y-61400062D01*
X114831366Y-61436869D01*
X114768390Y-61468359D01*
X114718151Y-61492877D01*
X114684018Y-61508764D01*
X114669356Y-61514363D01*
X114669116Y-61514340D01*
X114653123Y-61507931D01*
X114616113Y-61490761D01*
X114559780Y-61463689D01*
X114485819Y-61427572D01*
X114395926Y-61383266D01*
X114291795Y-61331629D01*
X114175121Y-61273519D01*
X114047599Y-61209792D01*
X113910924Y-61141307D01*
X113766791Y-61068920D01*
X113616895Y-60993488D01*
X113462931Y-60915869D01*
X113306594Y-60836921D01*
X113149579Y-60757499D01*
X112993581Y-60678463D01*
X112840294Y-60600669D01*
X112691414Y-60524974D01*
X112548635Y-60452236D01*
X112413653Y-60383311D01*
X112288162Y-60319058D01*
X112173858Y-60260334D01*
X112072436Y-60207995D01*
X111985589Y-60162900D01*
X111915014Y-60125905D01*
X111862405Y-60097867D01*
X111829458Y-60079645D01*
X111817866Y-60072095D01*
X111817993Y-60070167D01*
X111829579Y-60057472D01*
X111860056Y-60037500D01*
X111910639Y-60009571D01*
X111982545Y-59973004D01*
X112076991Y-59927118D01*
X112115440Y-59908797D01*
X112188539Y-59874401D01*
X112252487Y-59844880D01*
X112303773Y-59821824D01*
X112338886Y-59806824D01*
X112354314Y-59801471D01*
X112355123Y-59801683D01*
G37*
G36*
X111797694Y-64935463D02*
G01*
X111828206Y-64949842D01*
X111872126Y-64971698D01*
X111924455Y-64998589D01*
X112053323Y-65065753D01*
X112056763Y-65397910D01*
X112057624Y-65491109D01*
X112057991Y-65572019D01*
X112057593Y-65632801D01*
X112056274Y-65676414D01*
X112053874Y-65705815D01*
X112050237Y-65723966D01*
X112045205Y-65733825D01*
X112038619Y-65738350D01*
X112037262Y-65738763D01*
X112012534Y-65735416D01*
X111970782Y-65719346D01*
X111915986Y-65692054D01*
X111879860Y-65672394D01*
X111843466Y-65653649D01*
X111815548Y-65643292D01*
X111794985Y-65643495D01*
X111780658Y-65656430D01*
X111771448Y-65684272D01*
X111766233Y-65729192D01*
X111763895Y-65793363D01*
X111763314Y-65878958D01*
X111763369Y-65988149D01*
X111763369Y-66322457D01*
X111634734Y-66257905D01*
X111589825Y-66235956D01*
X111541753Y-66213896D01*
X111505477Y-66198891D01*
X111486536Y-66193353D01*
X111482867Y-66194226D01*
X111477672Y-66200955D01*
X111473722Y-66216701D01*
X111470857Y-66244255D01*
X111468912Y-66286410D01*
X111467725Y-66345960D01*
X111467132Y-66425696D01*
X111466971Y-66528411D01*
X111466909Y-66569662D01*
X111466091Y-66671817D01*
X111464365Y-66753632D01*
X111461783Y-66813749D01*
X111458396Y-66850814D01*
X111454255Y-66863470D01*
X111443940Y-66860340D01*
X111414029Y-66847716D01*
X111370569Y-66827652D01*
X111318943Y-66802571D01*
X111196347Y-66741671D01*
X111196347Y-66403078D01*
X111196281Y-66319079D01*
X111196500Y-66229194D01*
X111197980Y-66161161D01*
X111201713Y-66112751D01*
X111208690Y-66081737D01*
X111219904Y-66065889D01*
X111236346Y-66062979D01*
X111259008Y-66070778D01*
X111288882Y-66087057D01*
X111326959Y-66109588D01*
X111368862Y-66131363D01*
X111411349Y-66148234D01*
X111441888Y-66154692D01*
X111479858Y-66154692D01*
X111479858Y-65819517D01*
X111479858Y-65484341D01*
X111608492Y-65548893D01*
X111653402Y-65570841D01*
X111701474Y-65592902D01*
X111737750Y-65607907D01*
X111756691Y-65613444D01*
X111760774Y-65612314D01*
X111765833Y-65605030D01*
X111769678Y-65588578D01*
X111772469Y-65560191D01*
X111774364Y-65517101D01*
X111775520Y-65456542D01*
X111776098Y-65375745D01*
X111776256Y-65271943D01*
X111776593Y-65182732D01*
X111777565Y-65100896D01*
X111779079Y-65031453D01*
X111781040Y-64977748D01*
X111783352Y-64943126D01*
X111785921Y-64930933D01*
X111797694Y-64935463D01*
G37*
G36*
X116649225Y-62805749D02*
G01*
X116653102Y-62827298D01*
X116656207Y-62872770D01*
X116658488Y-62940809D01*
X116659895Y-63030060D01*
X116660375Y-63139167D01*
X116660375Y-63474226D01*
X116690740Y-63474226D01*
X116706762Y-63470849D01*
X116743263Y-63457281D01*
X116791516Y-63435732D01*
X116845382Y-63408800D01*
X116969660Y-63343374D01*
X116969660Y-63692311D01*
X116969858Y-63776908D01*
X116970835Y-63875115D01*
X116972670Y-63949511D01*
X116975409Y-64001237D01*
X116979099Y-64031435D01*
X116983785Y-64041248D01*
X116990165Y-64039593D01*
X117016484Y-64028265D01*
X117056458Y-64008557D01*
X117104296Y-63983257D01*
X117129817Y-63969576D01*
X117174492Y-63946822D01*
X117208399Y-63931120D01*
X117225693Y-63925266D01*
X117226878Y-63925624D01*
X117231347Y-63936212D01*
X117234634Y-63962921D01*
X117236806Y-64007677D01*
X117237926Y-64072410D01*
X117238060Y-64159046D01*
X117237273Y-64269513D01*
X117233841Y-64613761D01*
X117117859Y-64675172D01*
X117083495Y-64693155D01*
X117039199Y-64715621D01*
X117007007Y-64731056D01*
X116992212Y-64736861D01*
X116989798Y-64726269D01*
X116987447Y-64693112D01*
X116985450Y-64640696D01*
X116983902Y-64572400D01*
X116982902Y-64491600D01*
X116982547Y-64401675D01*
X116982532Y-64369117D01*
X116982213Y-64272242D01*
X116981359Y-64197540D01*
X116979817Y-64142223D01*
X116977435Y-64103499D01*
X116974058Y-64078577D01*
X116969533Y-64064669D01*
X116963708Y-64058983D01*
X116946342Y-64061575D01*
X116911193Y-64074430D01*
X116863701Y-64095510D01*
X116809065Y-64122675D01*
X116673262Y-64193596D01*
X116673196Y-63978888D01*
X116673085Y-63944103D01*
X116672097Y-63857952D01*
X116670252Y-63772801D01*
X116667755Y-63696909D01*
X116664809Y-63638533D01*
X116659736Y-63575541D01*
X116651864Y-63535128D01*
X116637365Y-63515725D01*
X116612382Y-63515416D01*
X116573064Y-63532291D01*
X116515556Y-63564434D01*
X116504988Y-63570455D01*
X116461733Y-63593610D01*
X116427156Y-63609854D01*
X116407950Y-63615981D01*
X116405852Y-63615576D01*
X116400741Y-63609169D01*
X116396800Y-63592909D01*
X116393890Y-63564142D01*
X116391869Y-63520214D01*
X116390599Y-63458474D01*
X116389940Y-63376269D01*
X116389751Y-63270944D01*
X116389751Y-62925908D01*
X116512347Y-62865008D01*
X116551711Y-62845779D01*
X116597700Y-62824244D01*
X116631476Y-62809546D01*
X116647659Y-62804109D01*
X116649225Y-62805749D01*
G37*
G36*
X112667384Y-63258394D02*
G01*
X112695085Y-63271061D01*
X112736876Y-63291075D01*
X112787704Y-63316048D01*
X112910299Y-63376948D01*
X112910299Y-63715541D01*
X112910366Y-63799540D01*
X112910147Y-63889425D01*
X112908667Y-63957458D01*
X112904934Y-64005868D01*
X112897956Y-64036882D01*
X112886743Y-64052730D01*
X112870301Y-64055640D01*
X112847638Y-64047841D01*
X112817765Y-64031562D01*
X112779687Y-64009030D01*
X112737960Y-63986955D01*
X112698175Y-63970297D01*
X112671202Y-63963926D01*
X112639675Y-63963926D01*
X112639675Y-64298985D01*
X112639465Y-64382365D01*
X112638804Y-64463947D01*
X112637760Y-64533288D01*
X112636399Y-64587008D01*
X112634789Y-64621720D01*
X112632998Y-64634043D01*
X112622537Y-64629964D01*
X112593167Y-64616355D01*
X112549985Y-64595453D01*
X112497920Y-64569609D01*
X112453236Y-64547769D01*
X112405178Y-64525715D01*
X112368903Y-64510712D01*
X112349955Y-64505174D01*
X112345872Y-64506304D01*
X112340813Y-64513589D01*
X112336968Y-64530041D01*
X112334177Y-64558428D01*
X112332283Y-64601518D01*
X112331126Y-64662077D01*
X112330548Y-64742874D01*
X112330391Y-64846676D01*
X112330158Y-64935832D01*
X112329487Y-65017739D01*
X112328441Y-65087279D01*
X112327086Y-65141100D01*
X112325488Y-65175850D01*
X112323713Y-65188178D01*
X112313180Y-65184066D01*
X112283750Y-65170426D01*
X112240516Y-65149496D01*
X112188401Y-65123626D01*
X112059767Y-65059074D01*
X112059767Y-64717690D01*
X112059793Y-64672995D01*
X112060143Y-64578102D01*
X112061013Y-64505206D01*
X112062550Y-64451611D01*
X112064900Y-64414620D01*
X112068210Y-64391537D01*
X112072626Y-64379664D01*
X112078295Y-64376306D01*
X112081998Y-64376853D01*
X112106733Y-64385937D01*
X112145288Y-64403881D01*
X112191055Y-64427672D01*
X112203674Y-64434416D01*
X112250389Y-64457170D01*
X112289739Y-64473142D01*
X112314282Y-64479219D01*
X112343278Y-64479401D01*
X112343278Y-64137976D01*
X112343278Y-63796551D01*
X112476820Y-63862966D01*
X112517723Y-63882611D01*
X112571349Y-63905731D01*
X112610599Y-63919127D01*
X112631462Y-63921285D01*
X112636279Y-63918324D01*
X112641707Y-63909556D01*
X112645793Y-63892715D01*
X112648722Y-63864851D01*
X112650679Y-63823015D01*
X112651848Y-63764255D01*
X112652415Y-63685623D01*
X112652562Y-63584168D01*
X112652741Y-63506183D01*
X112653351Y-63424916D01*
X112654331Y-63355765D01*
X112655614Y-63302143D01*
X112657138Y-63267467D01*
X112658835Y-63255149D01*
X112667384Y-63258394D01*
G37*
G36*
X116654404Y-64220657D02*
G01*
X116656342Y-64255018D01*
X116657988Y-64308512D01*
X116659261Y-64377788D01*
X116660084Y-64459494D01*
X116660375Y-64550278D01*
X116660376Y-64560415D01*
X116660518Y-64661301D01*
X116661033Y-64739510D01*
X116662100Y-64797885D01*
X116663899Y-64839270D01*
X116666612Y-64866509D01*
X116670418Y-64882444D01*
X116675498Y-64889920D01*
X116682032Y-64891780D01*
X116695990Y-64888240D01*
X116729703Y-64874799D01*
X116775982Y-64853669D01*
X116829130Y-64827346D01*
X116871959Y-64805575D01*
X116916543Y-64783487D01*
X116948261Y-64768459D01*
X116962115Y-64762912D01*
X116964085Y-64774792D01*
X116965894Y-64809153D01*
X116967431Y-64862647D01*
X116968620Y-64931922D01*
X116969388Y-65013628D01*
X116969660Y-65104413D01*
X116969550Y-65196360D01*
X116969696Y-65284232D01*
X116971090Y-65350434D01*
X116974737Y-65397196D01*
X116981637Y-65426747D01*
X116992794Y-65441316D01*
X117009209Y-65443134D01*
X117031886Y-65434429D01*
X117061826Y-65417430D01*
X117100032Y-65394368D01*
X117133259Y-65374399D01*
X117167110Y-65354854D01*
X117192978Y-65343624D01*
X117211930Y-65342891D01*
X117225030Y-65354837D01*
X117233344Y-65381643D01*
X117237937Y-65425491D01*
X117239873Y-65488562D01*
X117240219Y-65573038D01*
X117240040Y-65681100D01*
X117239796Y-66019380D01*
X117127280Y-66080024D01*
X117096342Y-66096398D01*
X117050794Y-66119319D01*
X117016323Y-66135173D01*
X116998656Y-66141237D01*
X116995667Y-66139652D01*
X116991192Y-66127318D01*
X116987782Y-66100818D01*
X116985324Y-66057832D01*
X116983707Y-65996038D01*
X116982818Y-65913117D01*
X116982547Y-65806747D01*
X116982784Y-65710445D01*
X116982768Y-65624290D01*
X116981075Y-65559839D01*
X116976271Y-65514949D01*
X116966923Y-65487474D01*
X116951600Y-65475269D01*
X116928869Y-65476188D01*
X116897296Y-65488086D01*
X116855450Y-65508819D01*
X116801897Y-65536241D01*
X116673262Y-65600793D01*
X116673262Y-65265617D01*
X116673262Y-64930441D01*
X116633548Y-64930441D01*
X116606096Y-64935607D01*
X116563129Y-64951845D01*
X116516876Y-64975545D01*
X116488047Y-64992648D01*
X116457019Y-65010301D01*
X116433293Y-65020166D01*
X116415894Y-65019996D01*
X116403848Y-65007543D01*
X116396181Y-64980560D01*
X116391918Y-64936799D01*
X116390087Y-64874012D01*
X116389712Y-64789951D01*
X116389820Y-64682369D01*
X116389888Y-64344089D01*
X116517051Y-64276433D01*
X116562040Y-64252769D01*
X116606596Y-64229972D01*
X116638323Y-64214486D01*
X116652294Y-64208777D01*
X116654404Y-64220657D01*
G37*
G36*
X111801853Y-63529761D02*
G01*
X111833416Y-63543367D01*
X111878251Y-63564348D01*
X111931132Y-63590325D01*
X112059767Y-63654877D01*
X112059767Y-63990222D01*
X112059745Y-64029796D01*
X112059406Y-64124914D01*
X112058533Y-64198071D01*
X112056969Y-64252081D01*
X112054557Y-64289755D01*
X112051140Y-64313908D01*
X112046562Y-64327351D01*
X112040666Y-64332897D01*
X112036107Y-64333378D01*
X112010491Y-64326893D01*
X111971398Y-64310713D01*
X111925291Y-64287389D01*
X111894443Y-64270221D01*
X111857257Y-64249951D01*
X111828871Y-64237678D01*
X111808060Y-64235621D01*
X111793599Y-64245999D01*
X111784262Y-64271032D01*
X111778824Y-64312940D01*
X111776060Y-64373944D01*
X111774745Y-64456262D01*
X111773654Y-64562114D01*
X111772545Y-64637811D01*
X111770788Y-64720158D01*
X111768677Y-64790886D01*
X111766340Y-64846456D01*
X111763905Y-64883330D01*
X111761499Y-64897968D01*
X111749583Y-64896498D01*
X111719039Y-64885296D01*
X111675006Y-64865996D01*
X111622391Y-64840623D01*
X111574678Y-64817601D01*
X111528555Y-64797381D01*
X111495060Y-64785024D01*
X111479284Y-64782597D01*
X111477043Y-64788456D01*
X111473663Y-64817386D01*
X111470873Y-64868013D01*
X111468767Y-64937781D01*
X111467435Y-65024131D01*
X111466971Y-65124504D01*
X111466947Y-65152458D01*
X111466243Y-65263678D01*
X111464550Y-65349572D01*
X111461853Y-65410489D01*
X111458138Y-65446782D01*
X111453392Y-65458802D01*
X111444744Y-65456259D01*
X111416373Y-65443829D01*
X111374537Y-65423396D01*
X111324757Y-65397589D01*
X111209702Y-65336377D01*
X111209376Y-65085083D01*
X111208905Y-65006160D01*
X111207666Y-64923465D01*
X111205813Y-64848775D01*
X111203496Y-64788014D01*
X111200863Y-64747103D01*
X111198469Y-64717067D01*
X111199134Y-64677791D01*
X111208949Y-64657489D01*
X111231031Y-64654926D01*
X111268500Y-64668865D01*
X111324472Y-64698069D01*
X111337350Y-64704998D01*
X111384363Y-64727930D01*
X111424226Y-64743980D01*
X111449425Y-64750025D01*
X111479858Y-64750025D01*
X111479858Y-64408415D01*
X111479858Y-64066806D01*
X111621399Y-64137791D01*
X111624604Y-64139398D01*
X111679010Y-64166400D01*
X111724421Y-64188453D01*
X111756172Y-64203323D01*
X111769598Y-64208777D01*
X111771336Y-64196896D01*
X111772933Y-64162536D01*
X111774289Y-64109042D01*
X111775338Y-64039766D01*
X111776015Y-63958060D01*
X111776256Y-63867275D01*
X111776287Y-63836027D01*
X111777023Y-63725837D01*
X111778721Y-63639154D01*
X111781361Y-63576540D01*
X111784920Y-63538559D01*
X111789377Y-63525773D01*
X111801853Y-63529761D01*
G37*
G36*
X110935868Y-63799527D02*
G01*
X110965778Y-63812151D01*
X111009238Y-63832215D01*
X111060865Y-63857296D01*
X111183460Y-63918196D01*
X111183460Y-64263233D01*
X111183358Y-64354794D01*
X111182889Y-64438771D01*
X111181888Y-64502179D01*
X111180191Y-64547806D01*
X111177634Y-64578441D01*
X111174052Y-64596871D01*
X111169283Y-64605884D01*
X111163161Y-64608269D01*
X111160795Y-64608029D01*
X111137180Y-64599531D01*
X111099969Y-64581316D01*
X111056095Y-64556722D01*
X111048634Y-64552349D01*
X111003784Y-64528419D01*
X110965392Y-64511555D01*
X110941082Y-64505174D01*
X110912836Y-64505174D01*
X110912836Y-64846676D01*
X110912583Y-64935832D01*
X110911850Y-65017740D01*
X110910710Y-65087279D01*
X110909233Y-65141100D01*
X110907491Y-65175850D01*
X110905556Y-65188178D01*
X110897115Y-65184867D01*
X110869763Y-65171510D01*
X110828627Y-65150281D01*
X110778751Y-65123744D01*
X110729640Y-65096827D01*
X110688972Y-65075286D01*
X110658075Y-65062659D01*
X110635619Y-65061051D01*
X110620272Y-65072569D01*
X110610701Y-65099318D01*
X110605575Y-65143404D01*
X110603563Y-65206931D01*
X110603332Y-65292006D01*
X110603552Y-65400734D01*
X110603552Y-65742159D01*
X110468240Y-65674864D01*
X110332927Y-65607569D01*
X110332927Y-65269005D01*
X110332844Y-65182566D01*
X110333040Y-65093398D01*
X110334528Y-65026003D01*
X110338335Y-64978137D01*
X110345487Y-64947560D01*
X110357012Y-64932030D01*
X110373938Y-64929305D01*
X110397290Y-64937143D01*
X110428096Y-64953304D01*
X110467384Y-64975545D01*
X110497336Y-64992491D01*
X110530840Y-65010731D01*
X110556466Y-65021109D01*
X110575264Y-65021385D01*
X110588287Y-65009323D01*
X110596585Y-64982684D01*
X110601210Y-64939229D01*
X110603211Y-64876721D01*
X110603642Y-64792921D01*
X110603552Y-64685591D01*
X110603631Y-64624175D01*
X110604229Y-64530899D01*
X110605508Y-64459800D01*
X110607579Y-64408558D01*
X110610553Y-64374854D01*
X110614543Y-64356368D01*
X110619660Y-64350779D01*
X110630799Y-64354094D01*
X110661541Y-64367465D01*
X110705334Y-64388698D01*
X110756690Y-64415214D01*
X110795264Y-64435222D01*
X110841905Y-64458047D01*
X110877080Y-64473632D01*
X110895223Y-64479401D01*
X110896047Y-64479331D01*
X110901306Y-64474087D01*
X110905387Y-64458664D01*
X110908426Y-64430462D01*
X110910557Y-64386883D01*
X110911912Y-64325328D01*
X110912628Y-64243200D01*
X110912836Y-64137899D01*
X110912915Y-64090813D01*
X110913761Y-63988361D01*
X110915498Y-63906367D01*
X110918075Y-63846157D01*
X110921443Y-63809058D01*
X110925553Y-63796397D01*
X110935868Y-63799527D01*
G37*
G36*
X112666765Y-64662472D02*
G01*
X112692839Y-64674956D01*
X112732937Y-64695338D01*
X112781889Y-64721029D01*
X112896945Y-64782242D01*
X112897231Y-64956215D01*
X112897794Y-65022751D01*
X112899641Y-65117363D01*
X112902447Y-65212152D01*
X112905879Y-65294143D01*
X112908660Y-65354623D01*
X112909119Y-65412488D01*
X112904006Y-65448633D01*
X112891164Y-65465318D01*
X112868440Y-65464801D01*
X112833679Y-65449344D01*
X112784724Y-65421205D01*
X112775618Y-65415881D01*
X112730497Y-65391861D01*
X112692100Y-65374974D01*
X112667921Y-65368594D01*
X112639675Y-65368594D01*
X112639675Y-65701505D01*
X112639430Y-65782008D01*
X112638618Y-65864647D01*
X112637322Y-65935545D01*
X112635626Y-65991194D01*
X112633616Y-66028086D01*
X112631377Y-66042713D01*
X112618713Y-66040679D01*
X112587910Y-66028305D01*
X112543907Y-66007510D01*
X112491489Y-65980427D01*
X112442396Y-65954643D01*
X112395920Y-65931398D01*
X112361798Y-65915642D01*
X112345144Y-65909842D01*
X112340355Y-65917839D01*
X112336573Y-65943150D01*
X112333759Y-65987467D01*
X112331839Y-66052478D01*
X112330741Y-66139873D01*
X112330391Y-66251344D01*
X112330312Y-66298430D01*
X112329466Y-66400882D01*
X112327729Y-66482876D01*
X112325152Y-66543086D01*
X112321784Y-66580185D01*
X112317674Y-66592846D01*
X112307359Y-66589716D01*
X112277448Y-66577092D01*
X112233989Y-66557028D01*
X112182362Y-66531946D01*
X112059767Y-66471047D01*
X112059767Y-66132454D01*
X112059683Y-66045966D01*
X112059880Y-65956804D01*
X112061368Y-65889413D01*
X112065175Y-65841551D01*
X112072328Y-65810977D01*
X112083854Y-65795448D01*
X112100779Y-65792725D01*
X112124131Y-65800564D01*
X112154937Y-65816724D01*
X112194223Y-65838964D01*
X112239506Y-65861670D01*
X112280786Y-65877884D01*
X112309077Y-65884068D01*
X112343278Y-65884068D01*
X112343278Y-65549010D01*
X112343532Y-65465628D01*
X112344329Y-65384048D01*
X112345590Y-65314706D01*
X112347233Y-65260987D01*
X112349176Y-65226275D01*
X112351338Y-65213952D01*
X112361884Y-65218015D01*
X112391260Y-65231946D01*
X112434236Y-65253447D01*
X112485842Y-65280075D01*
X112526195Y-65300344D01*
X112575731Y-65322586D01*
X112612787Y-65335952D01*
X112632423Y-65338470D01*
X112636307Y-65336071D01*
X112641633Y-65327272D01*
X112645677Y-65309976D01*
X112648606Y-65281305D01*
X112650590Y-65238380D01*
X112651798Y-65178320D01*
X112652399Y-65098246D01*
X112652562Y-64995280D01*
X112652789Y-64911537D01*
X112653495Y-64829935D01*
X112654612Y-64760580D01*
X112656065Y-64706855D01*
X112657785Y-64672140D01*
X112659698Y-64659817D01*
X112666765Y-64662472D01*
G37*
G36*
X110935868Y-62394859D02*
G01*
X110965778Y-62407483D01*
X111009238Y-62427547D01*
X111060865Y-62452629D01*
X111183460Y-62513528D01*
X111183460Y-62852121D01*
X111183527Y-62936120D01*
X111183308Y-63026006D01*
X111181827Y-63094039D01*
X111178095Y-63142448D01*
X111171117Y-63173463D01*
X111159903Y-63189311D01*
X111143461Y-63192221D01*
X111120799Y-63184422D01*
X111090925Y-63168142D01*
X111052848Y-63145611D01*
X111011121Y-63123535D01*
X110971335Y-63106877D01*
X110944363Y-63100507D01*
X110912836Y-63100507D01*
X110912836Y-63435565D01*
X110912625Y-63518946D01*
X110911962Y-63600527D01*
X110910914Y-63669869D01*
X110909548Y-63723588D01*
X110907933Y-63758301D01*
X110906135Y-63770623D01*
X110899387Y-63768196D01*
X110873455Y-63756411D01*
X110833238Y-63737062D01*
X110783968Y-63712633D01*
X110752781Y-63697534D01*
X110702365Y-63675465D01*
X110661203Y-63660287D01*
X110636026Y-63654642D01*
X110603552Y-63654642D01*
X110603552Y-63989700D01*
X110603314Y-64073081D01*
X110602567Y-64154662D01*
X110601387Y-64224004D01*
X110599850Y-64277723D01*
X110598031Y-64312436D01*
X110596006Y-64324758D01*
X110585325Y-64320622D01*
X110555803Y-64306766D01*
X110512611Y-64285469D01*
X110460694Y-64259129D01*
X110332927Y-64193500D01*
X110332927Y-63859232D01*
X110332940Y-63828803D01*
X110333254Y-63731664D01*
X110334101Y-63656749D01*
X110335638Y-63601263D01*
X110338017Y-63562412D01*
X110341392Y-63537405D01*
X110345918Y-63523446D01*
X110351749Y-63517742D01*
X110356098Y-63517270D01*
X110381408Y-63523716D01*
X110420228Y-63539900D01*
X110466095Y-63563250D01*
X110481140Y-63571415D01*
X110526080Y-63594152D01*
X110562129Y-63610018D01*
X110582586Y-63615981D01*
X110588142Y-63614484D01*
X110593311Y-63607272D01*
X110597191Y-63591450D01*
X110599961Y-63564157D01*
X110601802Y-63522533D01*
X110602894Y-63463718D01*
X110603417Y-63384850D01*
X110603552Y-63283071D01*
X110603787Y-63202526D01*
X110604564Y-63119937D01*
X110605805Y-63049108D01*
X110607429Y-62993542D01*
X110609354Y-62956743D01*
X110611497Y-62942215D01*
X110611650Y-62942091D01*
X110626380Y-62944916D01*
X110659068Y-62957581D01*
X110705005Y-62978103D01*
X110759481Y-63004501D01*
X110761427Y-63005477D01*
X110815674Y-63032406D01*
X110861010Y-63054423D01*
X110892742Y-63069281D01*
X110906178Y-63074733D01*
X110907916Y-63062853D01*
X110909513Y-63028492D01*
X110910869Y-62974998D01*
X110911918Y-62905723D01*
X110912596Y-62824016D01*
X110912836Y-62733231D01*
X110912915Y-62686145D01*
X110913761Y-62583693D01*
X110915498Y-62501699D01*
X110918075Y-62441489D01*
X110921443Y-62404391D01*
X110925553Y-62391730D01*
X110935868Y-62394859D01*
G37*
G36*
X114941489Y-63666522D02*
G01*
X114943090Y-63700883D01*
X114944450Y-63754376D01*
X114945503Y-63823652D01*
X114946182Y-63905358D01*
X114946423Y-63996144D01*
X114946305Y-64088523D01*
X114946429Y-64175948D01*
X114947785Y-64241853D01*
X114951372Y-64288539D01*
X114958191Y-64318309D01*
X114969239Y-64333463D01*
X114985516Y-64336302D01*
X115008022Y-64329129D01*
X115037754Y-64314245D01*
X115075713Y-64293951D01*
X115076972Y-64293292D01*
X115122482Y-64270351D01*
X115162342Y-64251776D01*
X115188052Y-64241535D01*
X115217047Y-64232814D01*
X115217047Y-64574092D01*
X115217047Y-64915370D01*
X115084957Y-64985203D01*
X114952867Y-65055037D01*
X114949438Y-65405118D01*
X114948915Y-65462883D01*
X114948382Y-65556452D01*
X114948574Y-65628303D01*
X114949606Y-65681104D01*
X114951592Y-65717525D01*
X114954646Y-65740235D01*
X114958882Y-65751903D01*
X114964414Y-65755200D01*
X114967167Y-65754849D01*
X114990626Y-65746092D01*
X115027883Y-65727957D01*
X115072228Y-65703652D01*
X115107228Y-65683228D01*
X115142010Y-65663737D01*
X115168580Y-65652572D01*
X115188039Y-65651913D01*
X115201486Y-65663940D01*
X115210021Y-65690834D01*
X115214745Y-65734774D01*
X115216757Y-65797940D01*
X115217158Y-65882514D01*
X115217047Y-65990674D01*
X115217047Y-66329243D01*
X115084957Y-66394927D01*
X114952867Y-66460611D01*
X114949434Y-66120793D01*
X114948631Y-66032735D01*
X114947537Y-65943860D01*
X114945376Y-65876689D01*
X114941111Y-65828966D01*
X114933704Y-65798437D01*
X114922116Y-65782845D01*
X114905311Y-65779934D01*
X114882249Y-65787449D01*
X114851893Y-65803134D01*
X114813205Y-65824733D01*
X114770140Y-65847495D01*
X114730546Y-65866658D01*
X114704582Y-65877216D01*
X114675375Y-65885940D01*
X114678809Y-65541665D01*
X114682243Y-65197391D01*
X114798224Y-65134986D01*
X114832767Y-65116444D01*
X114876638Y-65093037D01*
X114908234Y-65076358D01*
X114922352Y-65069167D01*
X114922357Y-65069165D01*
X114924854Y-65055855D01*
X114927751Y-65020164D01*
X114930876Y-64965471D01*
X114934059Y-64895158D01*
X114937130Y-64812602D01*
X114939918Y-64721184D01*
X114942541Y-64620832D01*
X114944294Y-64538929D01*
X114944960Y-64477128D01*
X114944450Y-64432546D01*
X114942672Y-64402301D01*
X114939536Y-64383507D01*
X114934950Y-64373283D01*
X114928825Y-64368744D01*
X114927411Y-64368339D01*
X114904017Y-64372199D01*
X114865299Y-64388045D01*
X114816698Y-64413694D01*
X114780551Y-64434853D01*
X114747114Y-64453662D01*
X114721632Y-64464296D01*
X114703030Y-64464557D01*
X114690236Y-64452244D01*
X114682176Y-64425160D01*
X114677775Y-64381105D01*
X114675962Y-64317881D01*
X114675661Y-64233289D01*
X114675799Y-64125130D01*
X114675799Y-63783745D01*
X114804434Y-63719194D01*
X114849923Y-63696579D01*
X114894643Y-63674846D01*
X114926224Y-63660084D01*
X114939746Y-63654642D01*
X114941489Y-63666522D01*
G37*
G36*
X118103704Y-60658389D02*
G01*
X118103704Y-63470467D01*
X118103697Y-63619222D01*
X118103694Y-63673905D01*
X118103633Y-63987565D01*
X118103513Y-64276836D01*
X118103328Y-64542579D01*
X118103074Y-64785655D01*
X118102746Y-65006924D01*
X118102338Y-65207246D01*
X118101846Y-65387483D01*
X118101265Y-65548496D01*
X118100590Y-65691143D01*
X118099817Y-65816288D01*
X118098939Y-65924789D01*
X118097953Y-66017507D01*
X118096853Y-66095304D01*
X118095635Y-66159040D01*
X118094293Y-66209575D01*
X118092824Y-66247771D01*
X118091220Y-66274486D01*
X118089479Y-66290584D01*
X118087595Y-66296923D01*
X118086154Y-66297831D01*
X118066702Y-66308222D01*
X118025643Y-66329443D01*
X117964087Y-66360935D01*
X117883142Y-66402136D01*
X117783919Y-66452488D01*
X117667526Y-66511430D01*
X117535074Y-66578401D01*
X117387672Y-66652841D01*
X117226429Y-66734192D01*
X117052455Y-66821891D01*
X116866860Y-66915380D01*
X116670753Y-67014097D01*
X116465244Y-67117484D01*
X116251443Y-67224979D01*
X116030458Y-67336023D01*
X115803399Y-67450055D01*
X115736815Y-67483482D01*
X115511361Y-67596594D01*
X115292241Y-67706424D01*
X115080569Y-67812420D01*
X114877457Y-67914028D01*
X114684017Y-68010694D01*
X114501362Y-68101864D01*
X114330605Y-68186986D01*
X114172858Y-68265505D01*
X114029234Y-68336869D01*
X113900845Y-68400523D01*
X113788805Y-68455915D01*
X113694226Y-68502490D01*
X113618220Y-68539696D01*
X113561900Y-68566978D01*
X113526379Y-68583784D01*
X113512770Y-68589559D01*
X113510031Y-68588672D01*
X113487519Y-68578598D01*
X113443513Y-68557744D01*
X113379119Y-68526655D01*
X113295443Y-68485879D01*
X113193591Y-68435963D01*
X113074669Y-68377454D01*
X112939783Y-68310900D01*
X112790038Y-68236848D01*
X112626541Y-68155845D01*
X112450397Y-68068437D01*
X112262712Y-67975174D01*
X112064593Y-67876601D01*
X111857144Y-67773266D01*
X111641473Y-67665715D01*
X111418684Y-67554498D01*
X111189884Y-67440159D01*
X108889542Y-66290009D01*
X108892792Y-63474228D01*
X108893728Y-62663239D01*
X109162762Y-62663239D01*
X109162810Y-62956133D01*
X109163027Y-63274788D01*
X109163412Y-63619203D01*
X109166667Y-66096702D01*
X111166223Y-67098126D01*
X111226568Y-67128344D01*
X111438360Y-67234342D01*
X111643868Y-67337101D01*
X111841894Y-67436029D01*
X112031243Y-67530530D01*
X112210717Y-67620011D01*
X112379121Y-67703876D01*
X112535256Y-67781532D01*
X112677928Y-67852385D01*
X112805939Y-67915839D01*
X112918093Y-67971301D01*
X113013193Y-68018176D01*
X113090043Y-68055869D01*
X113147446Y-68083788D01*
X113184206Y-68101336D01*
X113199125Y-68107920D01*
X113232471Y-68116289D01*
X113232471Y-65645670D01*
X113773719Y-65645670D01*
X113773719Y-65676383D01*
X113773740Y-65926430D01*
X113773792Y-66169350D01*
X113773874Y-66403898D01*
X113773984Y-66628832D01*
X113774122Y-66842909D01*
X113774284Y-67044885D01*
X113774470Y-67233519D01*
X113774679Y-67407565D01*
X113774907Y-67565782D01*
X113775154Y-67706927D01*
X113775419Y-67829756D01*
X113775698Y-67933027D01*
X113775992Y-68015496D01*
X113776298Y-68075921D01*
X113776615Y-68113057D01*
X113776941Y-68125664D01*
X113778957Y-68124693D01*
X113799632Y-68114440D01*
X113841717Y-68093470D01*
X113904046Y-68062366D01*
X113985453Y-68021710D01*
X114084772Y-67972086D01*
X114200837Y-67914077D01*
X114332482Y-67848266D01*
X114478542Y-67775235D01*
X114637850Y-67695567D01*
X114809240Y-67609847D01*
X114991547Y-67518655D01*
X115183604Y-67422576D01*
X115384246Y-67322192D01*
X115592307Y-67218087D01*
X115806621Y-67110843D01*
X117833080Y-66096740D01*
X117833080Y-63619222D01*
X117833079Y-63591286D01*
X117833039Y-63341319D01*
X117832935Y-63098461D01*
X117832771Y-62863956D01*
X117832550Y-62639049D01*
X117832274Y-62424983D01*
X117831949Y-62223004D01*
X117831575Y-62034355D01*
X117831158Y-61860281D01*
X117830700Y-61702027D01*
X117830204Y-61560836D01*
X117829674Y-61437952D01*
X117829112Y-61334621D01*
X117828523Y-61252086D01*
X117827909Y-61191593D01*
X117827274Y-61154384D01*
X117826620Y-61141704D01*
X117824615Y-61142573D01*
X117803935Y-61152574D01*
X117761830Y-61173300D01*
X117699470Y-61204165D01*
X117618025Y-61244588D01*
X117518664Y-61293986D01*
X117402555Y-61351775D01*
X117270870Y-61417373D01*
X117124776Y-61490197D01*
X116965445Y-61569665D01*
X116794044Y-61655192D01*
X116611744Y-61746197D01*
X116419714Y-61842096D01*
X116219124Y-61942306D01*
X116011142Y-62046246D01*
X115796940Y-62153331D01*
X113773719Y-63164957D01*
X113773719Y-65645670D01*
X113232471Y-65645670D01*
X113232471Y-65640623D01*
X113232471Y-63164957D01*
X111209250Y-62153331D01*
X111126101Y-62111761D01*
X110914032Y-62005788D01*
X110708570Y-61903188D01*
X110510890Y-61804544D01*
X110322166Y-61710438D01*
X110143571Y-61621455D01*
X109976281Y-61538178D01*
X109821469Y-61461190D01*
X109680309Y-61391075D01*
X109553976Y-61328416D01*
X109443644Y-61273796D01*
X109350487Y-61227798D01*
X109275679Y-61191007D01*
X109220395Y-61164006D01*
X109185808Y-61147377D01*
X109173094Y-61141704D01*
X109171540Y-61151387D01*
X109169904Y-61186614D01*
X109168437Y-61247611D01*
X109167138Y-61334380D01*
X109166008Y-61446917D01*
X109165046Y-61585223D01*
X109164252Y-61749295D01*
X109163627Y-61939134D01*
X109163170Y-62154739D01*
X109162882Y-62396107D01*
X109162762Y-62663239D01*
X108893728Y-62663239D01*
X108896043Y-60658447D01*
X108915345Y-60648782D01*
X109450211Y-60648782D01*
X111450863Y-61649124D01*
X111533528Y-61690455D01*
X111782326Y-61814800D01*
X112009399Y-61928202D01*
X112215738Y-62031144D01*
X112402334Y-62124108D01*
X112570180Y-62207575D01*
X112720265Y-62282029D01*
X112853582Y-62347952D01*
X112971122Y-62405826D01*
X113073876Y-62456134D01*
X113162835Y-62499357D01*
X113238992Y-62535978D01*
X113303337Y-62566479D01*
X113356862Y-62591344D01*
X113400557Y-62611053D01*
X113435416Y-62626090D01*
X113462428Y-62636936D01*
X113482585Y-62644075D01*
X113496878Y-62647987D01*
X113506300Y-62649157D01*
X113515293Y-62647949D01*
X113529967Y-62643800D01*
X113550882Y-62636227D01*
X113579024Y-62624749D01*
X113615380Y-62608883D01*
X113660936Y-62588148D01*
X113716677Y-62562062D01*
X113783592Y-62530144D01*
X113862665Y-62491911D01*
X113954883Y-62446882D01*
X114061233Y-62394575D01*
X114182702Y-62334508D01*
X114320274Y-62266200D01*
X114474938Y-62189169D01*
X114647678Y-62102933D01*
X114839482Y-62007011D01*
X115051335Y-61900920D01*
X115284225Y-61784179D01*
X115539138Y-61656306D01*
X115585499Y-61633041D01*
X115796037Y-61527360D01*
X116000117Y-61424868D01*
X116196554Y-61326163D01*
X116384165Y-61231842D01*
X116561764Y-61142502D01*
X116728167Y-61058740D01*
X116882189Y-60981154D01*
X117022646Y-60910339D01*
X117148354Y-60846895D01*
X117258128Y-60791416D01*
X117350783Y-60744502D01*
X117425135Y-60706749D01*
X117480000Y-60678753D01*
X117514192Y-60661113D01*
X117526528Y-60654425D01*
X117525229Y-60653203D01*
X117506360Y-60642301D01*
X117466027Y-60620715D01*
X117405391Y-60589033D01*
X117325611Y-60547842D01*
X117227847Y-60497731D01*
X117113258Y-60439287D01*
X116983005Y-60373099D01*
X116838247Y-60299754D01*
X116680144Y-60219839D01*
X116509855Y-60133944D01*
X116328541Y-60042655D01*
X116137360Y-59946562D01*
X115937473Y-59846251D01*
X115730039Y-59742310D01*
X115516218Y-59635328D01*
X113496570Y-58625569D01*
X111473390Y-59637176D01*
X109450211Y-60648782D01*
X108915345Y-60648782D01*
X111196287Y-59506683D01*
X113496532Y-58354918D01*
X115800118Y-59506654D01*
X118095776Y-60654425D01*
X118103704Y-60658389D01*
G37*
D14*
%TO.C,JP1*%
X104150000Y-91200000D02*
X104150000Y-93150000D01*
X104150000Y-93150000D02*
X109650000Y-93150000D01*
X109650000Y-91200000D02*
X104150000Y-91200000D01*
X109650000Y-93150000D02*
X109650000Y-91200000D01*
%TD*%
M02*
