%TF.GenerationSoftware,KiCad,Pcbnew,10.0.6*%
%TF.CreationDate,2026-10-05T10:51:38-07:00*%
%TF.ProjectId,STM32JukeboxPCB,53544d33-324a-4756-9b65-626f78504342,rev?*%
%TF.SameCoordinates,Original*%
%TF.FileFunction,Copper,L4,Bot*%
%TF.FilePolarity,Positive*%
%FSLAX46Y46*%
G04 Gerber Fmt 4.6, Leading zero omitted, Abs format (unit mm)*
G04 Created by KiCad (PCBNEW 10.0.6) date 2026-10-05 10:51:38*
%MOMM*%
%LPD*%
G01*
G04 APERTURE LIST*
G04 Aperture macros list*
%AMRoundRect*
0 Rectangle with rounded corners*
0 $1 Rounding radius*
0 $2 $3 $4 $5 $6 $7 $8 $9 X,Y pos of 4 corners*
0 Add a 4 corners polygon primitive as box body*
4,1,4,$2,$3,$4,$5,$6,$7,$8,$9,$2,$3,0*
0 Add four circle primitives for the rounded corners*
1,1,$1+$1,$2,$3*
1,1,$1+$1,$4,$5*
1,1,$1+$1,$6,$7*
1,1,$1+$1,$8,$9*
0 Add four rect primitives between the rounded corners*
20,1,$1+$1,$2,$3,$4,$5,0*
20,1,$1+$1,$4,$5,$6,$7,0*
20,1,$1+$1,$6,$7,$8,$9,0*
20,1,$1+$1,$8,$9,$2,$3,0*%
%AMFreePoly0*
4,1,6,1.000000,0.000000,0.500000,-0.750000,-0.500000,-0.750000,-0.500000,0.750000,0.500000,0.750000,1.000000,0.000000,1.000000,0.000000,$1*%
%AMFreePoly1*
4,1,7,0.700000,0.000000,1.200000,-0.750000,-1.200000,-0.750000,-0.700000,0.000000,-1.200000,0.750000,1.200000,0.750000,0.700000,0.000000,0.700000,0.000000,$1*%
G04 Aperture macros list end*
%TA.AperFunction,HeatsinkPad*%
%ADD10O,1.000000X1.800000*%
%TD*%
%TA.AperFunction,HeatsinkPad*%
%ADD11O,1.000000X2.100000*%
%TD*%
%TA.AperFunction,ComponentPad*%
%ADD12R,1.700000X1.700000*%
%TD*%
%TA.AperFunction,ComponentPad*%
%ADD13C,1.700000*%
%TD*%
%TA.AperFunction,HeatsinkPad*%
%ADD14C,0.500000*%
%TD*%
%TA.AperFunction,HeatsinkPad*%
%ADD15R,1.750000X1.750000*%
%TD*%
%TA.AperFunction,ComponentPad*%
%ADD16RoundRect,0.250000X-1.050000X-1.050000X1.050000X-1.050000X1.050000X1.050000X-1.050000X1.050000X0*%
%TD*%
%TA.AperFunction,ComponentPad*%
%ADD17C,2.600000*%
%TD*%
%TA.AperFunction,ComponentPad*%
%ADD18C,1.000000*%
%TD*%
%TA.AperFunction,ComponentPad*%
%ADD19R,1.350000X1.350000*%
%TD*%
%TA.AperFunction,ComponentPad*%
%ADD20C,1.350000*%
%TD*%
%TA.AperFunction,ComponentPad*%
%ADD21O,1.200000X2.200000*%
%TD*%
%TA.AperFunction,ComponentPad*%
%ADD22O,1.600000X2.300000*%
%TD*%
%TA.AperFunction,ComponentPad*%
%ADD23O,2.200000X1.200000*%
%TD*%
%TA.AperFunction,ComponentPad*%
%ADD24O,1.600000X2.500000*%
%TD*%
%TA.AperFunction,SMDPad,CuDef*%
%ADD25FreePoly0,180.000000*%
%TD*%
%TA.AperFunction,SMDPad,CuDef*%
%ADD26FreePoly1,180.000000*%
%TD*%
%TA.AperFunction,SMDPad,CuDef*%
%ADD27FreePoly0,0.000000*%
%TD*%
%TA.AperFunction,ViaPad*%
%ADD28C,0.600000*%
%TD*%
%TA.AperFunction,Conductor*%
%ADD29C,0.200000*%
%TD*%
%TA.AperFunction,Conductor*%
%ADD30C,0.500000*%
%TD*%
G04 APERTURE END LIST*
D10*
%TO.P,J3,S1,SHIELD_S1*%
%TO.N,GND*%
X123830000Y-52635000D03*
D11*
X123830000Y-56815000D03*
D10*
X132470000Y-52635000D03*
D11*
X132470000Y-56815000D03*
%TD*%
D12*
%TO.P,J7,1,Pin_1_1*%
%TO.N,/SSD1306 OLED Sheet/SDA*%
X145600000Y-97820000D03*
D13*
%TO.P,J7,2,Pin_2_2*%
%TO.N,/SSD1306 OLED Sheet/SCL*%
X145600000Y-95280000D03*
%TO.P,J7,3,Pin_3_3*%
%TO.N,+3.3V*%
X145600000Y-92740000D03*
%TO.P,J7,4,Pin_4_4*%
%TO.N,GND*%
X145600000Y-90200000D03*
%TD*%
D14*
%TO.P,U5,17,EP_17*%
%TO.N,GND*%
X124255000Y-98275000D03*
X124255000Y-99525000D03*
D15*
X124880000Y-98900000D03*
D14*
X125505000Y-98275000D03*
X125505000Y-99525000D03*
%TD*%
D16*
%TO.P,J2,1,Pin_1_1*%
%TO.N,/Speaker DAC & Amplifier Sheet/SPEAKER_OUTP*%
X106700000Y-108900000D03*
D17*
%TO.P,J2,2,Pin_2_2*%
%TO.N,/Speaker DAC & Amplifier Sheet/SPEAKER_OUTN*%
X111700000Y-108900000D03*
%TD*%
D12*
%TO.P,J9,1,Pin_1_1*%
%TO.N,/STM32F411 Sheet/USART2_TX*%
X105650000Y-89300000D03*
D13*
%TO.P,J9,2,Pin_2_2*%
%TO.N,/STM32F411 Sheet/USART2_RX*%
X108190000Y-89300000D03*
%TD*%
D18*
%TO.P,DDet,1,Pin_1_1*%
%TO.N,/STM32F411 Sheet/Insert_Disc_Detect*%
X112050000Y-86150000D03*
%TD*%
D19*
%TO.P,PWRSW,1,A_1*%
%TO.N,/STM32F411 Sheet/USB_5V*%
X134900000Y-54950000D03*
D20*
%TO.P,PWRSW,2,B_2*%
%TO.N,+5V*%
X134900000Y-52950000D03*
%TD*%
D12*
%TO.P,J6,1,Pin_1_1*%
%TO.N,/Rotary Encoder Sheet/A1*%
X145600000Y-82560000D03*
D13*
%TO.P,J6,2,Pin_2_2*%
%TO.N,/Rotary Encoder Sheet/A2*%
X145600000Y-80020000D03*
%TO.P,J6,3,Pin_3_3*%
%TO.N,/Rotary Encoder Sheet/BTN*%
X145600000Y-77480000D03*
%TO.P,J6,4,Pin_4_4*%
%TO.N,+3.3V*%
X145600000Y-74940000D03*
%TO.P,J6,5,Pin_5_5*%
%TO.N,GND*%
X145600000Y-72400000D03*
%TD*%
D21*
%TO.P,J4,R*%
%TO.N,/Headphone DAC & Amplifier Sheet/OUTR*%
X135500000Y-110500000D03*
D22*
%TO.P,J4,RN*%
%TO.N,unconnected-(J4-PadRN)*%
X138000000Y-110500000D03*
D23*
%TO.P,J4,S*%
%TO.N,GND*%
X140500000Y-115500000D03*
D21*
%TO.P,J4,T*%
%TO.N,/Headphone DAC & Amplifier Sheet/OUTL*%
X145500000Y-110500000D03*
D24*
%TO.P,J4,TN*%
%TO.N,/Headphone DAC & Amplifier Sheet/HDPHN_JACK_DETECT*%
X143000000Y-110500000D03*
%TD*%
D12*
%TO.P,J8,1,Pin_1_1*%
%TO.N,GND*%
X138000000Y-58910000D03*
D13*
%TO.P,J8,2,Pin_2_2*%
%TO.N,/STM32F411 Sheet/SYS_JTCK-SWCLK*%
X138000000Y-61450000D03*
%TO.P,J8,3,Pin_3_3*%
%TO.N,/STM32F411 Sheet/SYS_JTMS-SWDIO*%
X138000000Y-63990000D03*
%TO.P,J8,4,Pin_4_4*%
%TO.N,+3.3V*%
X138000000Y-66530000D03*
%TD*%
D12*
%TO.P,J5,1,Pin_1_1*%
%TO.N,/RFID MFRC522 Sheet/SDA {slash} CS*%
X138000000Y-90180000D03*
D13*
%TO.P,J5,2,Pin_2_2*%
%TO.N,/RFID MFRC522 Sheet/SCK*%
X138000000Y-87640000D03*
%TO.P,J5,3,Pin_3_3*%
%TO.N,/RFID MFRC522 Sheet/MOSI*%
X138000000Y-85100000D03*
%TO.P,J5,4,Pin_4_4*%
%TO.N,/RFID MFRC522 Sheet/MISO*%
X138000000Y-82560000D03*
%TO.P,J5,5,Pin_5_5*%
%TO.N,/RFID MFRC522 Sheet/RQ*%
X138000000Y-80020000D03*
%TO.P,J5,6,Pin_6_6*%
%TO.N,GND*%
X138000000Y-77480000D03*
%TO.P,J5,7,Pin_7_7*%
%TO.N,/RFID MFRC522 Sheet/RST*%
X138000000Y-74940000D03*
%TO.P,J5,8,Pin_8_8*%
%TO.N,+3.3V*%
X138000000Y-72400000D03*
%TD*%
D25*
%TO.P,JP1,1,A_1*%
%TO.N,GND*%
X108900000Y-92200000D03*
D26*
%TO.P,JP1,2,C_2*%
%TO.N,/Speaker DAC & Amplifier Sheet/GAIN*%
X106900000Y-92200000D03*
D27*
%TO.P,JP1,3,B_3*%
%TO.N,+3.3V*%
X104900000Y-92200000D03*
%TD*%
D28*
%TO.N,GND*%
X130500000Y-69000000D03*
X118350000Y-111900000D03*
X115300000Y-86900000D03*
X127000000Y-117750000D03*
X119600000Y-99500000D03*
X143900000Y-88800000D03*
X139700000Y-78100000D03*
X116700000Y-79600000D03*
X106300000Y-57850000D03*
X122500000Y-81800000D03*
X118350000Y-114050000D03*
X129350000Y-99050000D03*
X104300000Y-85900000D03*
X134200000Y-65200000D03*
X118500000Y-81400000D03*
X103300000Y-84700000D03*
X131850000Y-111200000D03*
X105200000Y-53950000D03*
X105950000Y-99150000D03*
X120600000Y-98500000D03*
X143900000Y-76500000D03*
X103400000Y-80700000D03*
X126750000Y-105700000D03*
X128550000Y-60200000D03*
X120800000Y-57650000D03*
X147300000Y-94100000D03*
X125350000Y-60200000D03*
X135000000Y-98250000D03*
X103200000Y-98900000D03*
X133950000Y-61000000D03*
X140000000Y-101750000D03*
X120100000Y-62650000D03*
X113597286Y-74700000D03*
X115400000Y-110000000D03*
X147300000Y-99200000D03*
X115400000Y-105000000D03*
X111500000Y-77050000D03*
X143900000Y-78100000D03*
X111250000Y-51700000D03*
X141200000Y-67050000D03*
X130800000Y-76300000D03*
X119750000Y-51700000D03*
X147300000Y-96400000D03*
X108300000Y-82400000D03*
X122500000Y-64900000D03*
X136300000Y-76550000D03*
X112450000Y-74700000D03*
X115600000Y-56200000D03*
X108400000Y-76300000D03*
X143900000Y-80700000D03*
X112700000Y-93300000D03*
X124300000Y-81900000D03*
X110100000Y-57900000D03*
X117700000Y-73750000D03*
X114900000Y-81400000D03*
X136300000Y-90300000D03*
X119200000Y-76200000D03*
X121100000Y-111300000D03*
X105300000Y-85900000D03*
X126700000Y-108800000D03*
X103300000Y-83700000D03*
X139700000Y-81900000D03*
X139700000Y-83200000D03*
X136300000Y-81900000D03*
X109250000Y-77050000D03*
X119650000Y-101000000D03*
X139700000Y-79350000D03*
X116700000Y-83200000D03*
X118350000Y-112950000D03*
X135600000Y-65200000D03*
X131000000Y-112000000D03*
X126750000Y-110450000D03*
X115600000Y-51700000D03*
X108300000Y-84000000D03*
X140000000Y-70000000D03*
X103300000Y-82700000D03*
X127100000Y-104150000D03*
X113400000Y-96550000D03*
X111150000Y-82600000D03*
X116550000Y-69300000D03*
X136300000Y-84500000D03*
X120800000Y-55350000D03*
X117500000Y-62750000D03*
X110712500Y-77800000D03*
X145000000Y-60000000D03*
X139700000Y-75000000D03*
X115000000Y-98700000D03*
X122000000Y-117750000D03*
X127000000Y-114250000D03*
X115850000Y-71900000D03*
X123550000Y-108300000D03*
X107300000Y-85900000D03*
X128750000Y-114600000D03*
X103300000Y-81700000D03*
X130500000Y-72250000D03*
X145000000Y-70000000D03*
X130450000Y-60200000D03*
X136300000Y-83200000D03*
X131050000Y-104800000D03*
X136300000Y-85750000D03*
X117700000Y-95750000D03*
X139700000Y-80600000D03*
X127950000Y-113850000D03*
X111450000Y-99900000D03*
X136300000Y-78100000D03*
X132000000Y-105750000D03*
X140500000Y-65600000D03*
X115400000Y-73450000D03*
X143900000Y-81900000D03*
X117703693Y-96671746D03*
X108600000Y-53950000D03*
X125400000Y-83200000D03*
X122000000Y-114250000D03*
X122500000Y-63500000D03*
X103400000Y-85700000D03*
X115950000Y-93550000D03*
X122600000Y-78450000D03*
X108300000Y-85900000D03*
X118000000Y-53400000D03*
X130050000Y-104150000D03*
X126797177Y-100919959D03*
X108200000Y-72150000D03*
X136300000Y-80600000D03*
X128800000Y-96800000D03*
X121000000Y-96200000D03*
X143900000Y-91500000D03*
X124650000Y-78350000D03*
X136300000Y-73750000D03*
X111400000Y-98450000D03*
X117500000Y-70200000D03*
X117500000Y-56600000D03*
X111350000Y-56200000D03*
X110000000Y-73500000D03*
X145000000Y-65000000D03*
X104300000Y-80300000D03*
X139700000Y-76500000D03*
X131400000Y-61140000D03*
X114800000Y-74600000D03*
X108556992Y-94533462D03*
X115300000Y-88600000D03*
X115100000Y-95850000D03*
X103000000Y-110000000D03*
X130700000Y-112650000D03*
X136300000Y-87950000D03*
X134850000Y-108450000D03*
X127250000Y-60200000D03*
X103200000Y-98050000D03*
X105000000Y-100000000D03*
X140000000Y-60000000D03*
X123550000Y-110950000D03*
X103000000Y-105000000D03*
X109850000Y-83200000D03*
X136300000Y-79350000D03*
X143900000Y-94100000D03*
X122550000Y-84250000D03*
X121650000Y-101000000D03*
X113500000Y-99900000D03*
X143900000Y-83250000D03*
X106300000Y-85900000D03*
X123500000Y-105900000D03*
X108400000Y-77800000D03*
X133050000Y-63300000D03*
X119200000Y-57950000D03*
X136300000Y-75050000D03*
X119250000Y-114950000D03*
X125500000Y-72250000D03*
X112700000Y-94550000D03*
X110200000Y-85250000D03*
X125500000Y-69000000D03*
X140000000Y-98250000D03*
%TO.N,/SD Card Sheet/SDIO_D2*%
X119900000Y-75350000D03*
X121600000Y-81649740D03*
%TO.N,/SD Card Sheet/SDIO_D3*%
X116800000Y-74750000D03*
X117350000Y-69350000D03*
%TO.N,/SD Card Sheet/SDIO_CMD*%
X116400000Y-68450000D03*
X115300000Y-86050000D03*
%TO.N,+3.3V*%
X109750000Y-86900000D03*
X126350000Y-97500000D03*
X126255000Y-100331703D03*
X120950000Y-86300000D03*
X123150000Y-97500000D03*
X101750000Y-90700000D03*
X121006250Y-78256250D03*
X123450000Y-84550000D03*
%TO.N,/SD Card Sheet/SDIO_CK*%
X121474265Y-82875735D03*
X119100000Y-75400000D03*
%TO.N,/SD Card Sheet/SDIO_D1*%
X122251797Y-82687457D03*
X115550000Y-72650000D03*
%TO.N,/SD Card Sheet/SD_DETECT*%
X120800000Y-58550000D03*
X124800000Y-82600000D03*
%TO.N,/Headphone DAC & Amplifier Sheet/AUDIO_L*%
X131950000Y-108800000D03*
X122100000Y-103350000D03*
%TO.N,/SSD1306 OLED Sheet/SDA*%
X114797286Y-75700000D03*
%TO.N,/SSD1306 OLED Sheet/SCL*%
X115401000Y-75175090D03*
%TO.N,/Headphone DAC & Amplifier Sheet/AUDIO_R*%
X118800000Y-97050000D03*
X131900000Y-107550000D03*
%TO.N,/Headphone DAC & Amplifier Sheet/DIN*%
X113400000Y-95200000D03*
X115950000Y-92665000D03*
%TO.N,/Rotary Encoder Sheet/A1*%
X125575000Y-78375000D03*
X116850000Y-76951473D03*
%TO.N,/Rotary Encoder Sheet/A2*%
X116775368Y-75825368D03*
X126200000Y-77650000D03*
%TO.N,/Rotary Encoder Sheet/BTN*%
X137000000Y-86400000D03*
%TO.N,/STM32F411 Sheet/NRST*%
X111643262Y-81800000D03*
X110400000Y-51850000D03*
%TO.N,/Headphone DAC & Amplifier Sheet/BCK*%
X117600000Y-97465000D03*
X112700000Y-95900000D03*
X115100000Y-94965000D03*
%TO.N,/STM32F411 Sheet/SPEAKER_ENABLE*%
X113400000Y-93900000D03*
X117799000Y-87550000D03*
%TO.N,/Headphone DAC & Amplifier Sheet/HDPHN_JACK_DETECT*%
X120300735Y-84749265D03*
%TO.N,/STM32F411 Sheet/SYS_JTMS-SWDIO*%
X140500000Y-66490000D03*
X131250000Y-77050000D03*
%TO.N,/STM32F411 Sheet/SYS_JTCK-SWCLK*%
X131250000Y-75600000D03*
%TO.N,/Speaker DAC & Amplifier Sheet/GAIN*%
X109392179Y-94520269D03*
%TD*%
%TO.N,/SD Card Sheet/SDIO_D2*%
D29*
X120500000Y-81550000D02*
X121500260Y-81550000D01*
X118950000Y-77349943D02*
X118950000Y-80000000D01*
X119900000Y-75350000D02*
X119900000Y-76399943D01*
X118950000Y-80000000D02*
X120500000Y-81550000D01*
X121500260Y-81550000D02*
X121600000Y-81649740D01*
X119900000Y-76399943D02*
X118950000Y-77349943D01*
%TO.N,/SD Card Sheet/SDIO_D3*%
X117350000Y-69350000D02*
X116800000Y-69900000D01*
X116800000Y-69900000D02*
X116800000Y-74750000D01*
%TO.N,/SD Card Sheet/SDIO_CMD*%
X115450000Y-85900000D02*
X115300000Y-86050000D01*
X115450000Y-83500000D02*
X115450000Y-85900000D01*
X114197286Y-72702714D02*
X114197286Y-82247286D01*
X116400000Y-68450000D02*
X115950000Y-68900000D01*
X115950000Y-68900000D02*
X115950000Y-70950000D01*
X114197286Y-82247286D02*
X115450000Y-83500000D01*
X115950000Y-70950000D02*
X114197286Y-72702714D01*
%TO.N,+3.3V*%
D30*
X117100000Y-86300000D02*
X120950000Y-86300000D01*
X101750000Y-90700000D02*
X103250000Y-92200000D01*
X126350000Y-100236703D02*
X126255000Y-100331703D01*
X103250000Y-92200000D02*
X104900000Y-92200000D01*
X123450000Y-84550000D02*
X123450000Y-80450000D01*
X110600000Y-87750000D02*
X115650000Y-87750000D01*
X122900000Y-97250000D02*
X122900000Y-88400000D01*
X109750000Y-86900000D02*
X110600000Y-87750000D01*
X115650000Y-87750000D02*
X117100000Y-86300000D01*
X126350000Y-97500000D02*
X126350000Y-100236703D01*
X126350000Y-97500000D02*
X123150000Y-97500000D01*
X123450000Y-80450000D02*
X121256250Y-78256250D01*
X123150000Y-97500000D02*
X122900000Y-97250000D01*
X121256250Y-78256250D02*
X121006250Y-78256250D01*
X122900000Y-88400000D02*
X120950000Y-86450000D01*
X120950000Y-86450000D02*
X120950000Y-86300000D01*
%TO.N,/SD Card Sheet/SDIO_CK*%
D29*
X121248530Y-82650000D02*
X121474265Y-82875735D01*
X119100000Y-75400000D02*
X117700000Y-76800000D01*
X120600000Y-82650000D02*
X121248530Y-82650000D01*
X117700000Y-79750000D02*
X120600000Y-82650000D01*
X117700000Y-76800000D02*
X117700000Y-79750000D01*
%TO.N,/SD Card Sheet/SDIO_D1*%
X122250000Y-82689254D02*
X122251797Y-82687457D01*
X119200000Y-83150000D02*
X120900000Y-83150000D01*
X115550000Y-72650000D02*
X116050000Y-73150000D01*
X116050000Y-73150000D02*
X116050000Y-80000000D01*
X121950000Y-83500000D02*
X122250000Y-83200000D01*
X116050000Y-80000000D02*
X119200000Y-83150000D01*
X120900000Y-83150000D02*
X121250000Y-83500000D01*
X121250000Y-83500000D02*
X121950000Y-83500000D01*
X122250000Y-83200000D02*
X122250000Y-82689254D01*
%TO.N,/SD Card Sheet/SD_DETECT*%
X122600000Y-58300000D02*
X121050000Y-58300000D01*
X123200000Y-58900000D02*
X122600000Y-58300000D01*
X121050000Y-58300000D02*
X120800000Y-58550000D01*
X126900000Y-77100000D02*
X123200000Y-73400000D01*
X123200000Y-73400000D02*
X123200000Y-58900000D01*
X126900000Y-80500000D02*
X126900000Y-77100000D01*
X124800000Y-82600000D02*
X126900000Y-80500000D01*
%TO.N,/Headphone DAC & Amplifier Sheet/AUDIO_L*%
X132850000Y-105750000D02*
X132850000Y-107900000D01*
X122250000Y-103500000D02*
X130600000Y-103500000D01*
X122100000Y-103350000D02*
X122250000Y-103500000D01*
X132850000Y-107900000D02*
X131950000Y-108800000D01*
X130600000Y-103500000D02*
X132850000Y-105750000D01*
%TO.N,/SSD1306 OLED Sheet/SDA*%
X120351000Y-83951000D02*
X132800000Y-96400000D01*
X118300000Y-83950000D02*
X118532900Y-83950000D01*
X114950000Y-75852714D02*
X114950000Y-80600000D01*
X118532900Y-83950000D02*
X118533900Y-83951000D01*
X144200000Y-96400000D02*
X145600000Y-97800000D01*
X145600000Y-97800000D02*
X145600000Y-97820000D01*
X114797286Y-75700000D02*
X114950000Y-75852714D01*
X118533900Y-83951000D02*
X120351000Y-83951000D01*
X114950000Y-80600000D02*
X118300000Y-83950000D01*
X132800000Y-96400000D02*
X144200000Y-96400000D01*
%TO.N,/SSD1306 OLED Sheet/SCL*%
X115400568Y-75175522D02*
X115400568Y-80350568D01*
X144770000Y-95280000D02*
X145600000Y-95280000D01*
X115400568Y-80350568D02*
X118600000Y-83550000D01*
X120650000Y-83550000D02*
X132950000Y-95850000D01*
X144200000Y-95850000D02*
X144770000Y-95280000D01*
X132950000Y-95850000D02*
X144200000Y-95850000D01*
X118600000Y-83550000D02*
X120650000Y-83550000D01*
X115401000Y-75175090D02*
X115400568Y-75175522D01*
%TO.N,/Headphone DAC & Amplifier Sheet/AUDIO_R*%
X130150000Y-104800000D02*
X132100000Y-106750000D01*
X118350000Y-97500000D02*
X118350000Y-102100000D01*
X118800000Y-97050000D02*
X118350000Y-97500000D01*
X121050000Y-104800000D02*
X130150000Y-104800000D01*
X132100000Y-106750000D02*
X132100000Y-107350000D01*
X118350000Y-102100000D02*
X121050000Y-104800000D01*
X132100000Y-107350000D02*
X131900000Y-107550000D01*
%TO.N,/Headphone DAC & Amplifier Sheet/DIN*%
X113415000Y-95200000D02*
X115950000Y-92665000D01*
X113400000Y-95200000D02*
X113415000Y-95200000D01*
%TO.N,/Rotary Encoder Sheet/A1*%
X118950000Y-74600000D02*
X121800000Y-74600000D01*
X116850000Y-76700000D02*
X118950000Y-74600000D01*
X121800000Y-74600000D02*
X125575000Y-78375000D01*
X116850000Y-76951473D02*
X116850000Y-76700000D01*
%TO.N,/Rotary Encoder Sheet/A2*%
X116974265Y-75626470D02*
X116974265Y-75625735D01*
X116775368Y-75825368D02*
X116974265Y-75626470D01*
X122500000Y-73950000D02*
X126200000Y-77650000D01*
X116974265Y-75625735D02*
X118650000Y-73950000D01*
X118650000Y-73950000D02*
X122500000Y-73950000D01*
%TO.N,/Rotary Encoder Sheet/BTN*%
X137000000Y-86400000D02*
X139600000Y-86400000D01*
X142250000Y-83750000D02*
X142250000Y-80830000D01*
X142250000Y-80830000D02*
X145600000Y-77480000D01*
X139600000Y-86400000D02*
X142250000Y-83750000D01*
%TO.N,/STM32F411 Sheet/NRST*%
X103700000Y-52200000D02*
X103700000Y-78800000D01*
X110150000Y-51600000D02*
X104300000Y-51600000D01*
X111050000Y-81800000D02*
X111643262Y-81800000D01*
X104300000Y-51600000D02*
X103700000Y-52200000D01*
X104400000Y-79500000D02*
X108750000Y-79500000D01*
X108750000Y-79500000D02*
X111050000Y-81800000D01*
X103700000Y-78800000D02*
X104400000Y-79500000D01*
X110400000Y-51850000D02*
X110150000Y-51600000D01*
%TO.N,/Headphone DAC & Amplifier Sheet/BCK*%
X117600000Y-97465000D02*
X115100000Y-94965000D01*
X112700000Y-95900000D02*
X114165000Y-95900000D01*
X114165000Y-95900000D02*
X115100000Y-94965000D01*
%TO.N,/STM32F411 Sheet/SPEAKER_ENABLE*%
X117799000Y-89501000D02*
X117799000Y-87550000D01*
X113400000Y-93900000D02*
X117799000Y-89501000D01*
X117799000Y-87550000D02*
X117799000Y-87551000D01*
%TO.N,/Headphone DAC & Amplifier Sheet/HDPHN_JACK_DETECT*%
X132600000Y-97048530D02*
X132600000Y-100100000D01*
X120300735Y-84749265D02*
X132600000Y-97048530D01*
X132600000Y-100100000D02*
X143000000Y-110500000D01*
%TO.N,/STM32F411 Sheet/SYS_JTMS-SWDIO*%
X140500000Y-66490000D02*
X140500000Y-67800000D01*
X140500000Y-67800000D02*
X131250000Y-77050000D01*
%TO.N,/STM32F411 Sheet/SYS_JTCK-SWCLK*%
X139700000Y-63150000D02*
X138000000Y-61450000D01*
X131250000Y-75600000D02*
X139700000Y-67150000D01*
X139700000Y-67150000D02*
X139700000Y-63150000D01*
%TO.N,/Speaker DAC & Amplifier Sheet/GAIN*%
X108150000Y-93450000D02*
X106900000Y-92200000D01*
X109392179Y-94520269D02*
X109392179Y-94142179D01*
X109392179Y-94142179D02*
X108700000Y-93450000D01*
X108700000Y-93450000D02*
X108150000Y-93450000D01*
%TD*%
%TA.AperFunction,Conductor*%
%TO.N,GND*%
G36*
X125792539Y-98020185D02*
G01*
X125800000Y-98028795D01*
X125800000Y-100018784D01*
X125742017Y-100119214D01*
X125742016Y-100119218D01*
X125704500Y-100259228D01*
X125704500Y-100404178D01*
X125726789Y-100487359D01*
X125742017Y-100544191D01*
X125800000Y-100644620D01*
X125800000Y-100700000D01*
X123000000Y-100700000D01*
X123000000Y-98029726D01*
X123077525Y-98050500D01*
X123077528Y-98050500D01*
X123222472Y-98050500D01*
X123222475Y-98050500D01*
X123362485Y-98012984D01*
X123362488Y-98012981D01*
X123369838Y-98009938D01*
X123417289Y-98000500D01*
X125725500Y-98000500D01*
X125792539Y-98020185D01*
G37*
%TD.AperFunction*%
%TD*%
%TA.AperFunction,Conductor*%
%TO.N,GND*%
G36*
X117297426Y-77412514D02*
G01*
X117340617Y-77467435D01*
X117349500Y-77513522D01*
X117349500Y-79796144D01*
X117364065Y-79850501D01*
X117364065Y-79850502D01*
X117373384Y-79885284D01*
X117373385Y-79885286D01*
X117419527Y-79965208D01*
X117419529Y-79965211D01*
X117419530Y-79965212D01*
X118826165Y-81371847D01*
X120042138Y-82587819D01*
X120075623Y-82649142D01*
X120070639Y-82718834D01*
X120028767Y-82774767D01*
X119963303Y-82799184D01*
X119954457Y-82799500D01*
X119396544Y-82799500D01*
X119329505Y-82779815D01*
X119308863Y-82763181D01*
X116436819Y-79891137D01*
X116403334Y-79829814D01*
X116400500Y-79803456D01*
X116400500Y-77542390D01*
X116420185Y-77475351D01*
X116472989Y-77429596D01*
X116542147Y-77419652D01*
X116586499Y-77435003D01*
X116637515Y-77464457D01*
X116777525Y-77501973D01*
X116777528Y-77501973D01*
X116922472Y-77501973D01*
X116922475Y-77501973D01*
X117062485Y-77464457D01*
X117062487Y-77464455D01*
X117062489Y-77464455D01*
X117062490Y-77464454D01*
X117113499Y-77435004D01*
X117163500Y-77406135D01*
X117231399Y-77389662D01*
X117297426Y-77412514D01*
G37*
%TD.AperFunction*%
%TA.AperFunction,Conductor*%
G36*
X119497426Y-75889909D02*
G01*
X119540617Y-75944829D01*
X119549500Y-75990917D01*
X119549500Y-76203399D01*
X119529815Y-76270438D01*
X119513181Y-76291080D01*
X118669531Y-77134729D01*
X118669529Y-77134732D01*
X118654935Y-77160009D01*
X118647440Y-77172993D01*
X118640342Y-77185287D01*
X118640341Y-77185288D01*
X118623387Y-77214652D01*
X118623386Y-77214655D01*
X118599500Y-77303799D01*
X118599500Y-79854456D01*
X118579815Y-79921495D01*
X118527011Y-79967250D01*
X118457853Y-79977194D01*
X118394297Y-79948169D01*
X118387819Y-79942137D01*
X118086819Y-79641137D01*
X118053334Y-79579814D01*
X118050500Y-79553456D01*
X118050500Y-76996544D01*
X118070185Y-76929505D01*
X118086819Y-76908863D01*
X119008863Y-75986819D01*
X119070186Y-75953334D01*
X119096544Y-75950500D01*
X119172472Y-75950500D01*
X119172475Y-75950500D01*
X119312485Y-75912984D01*
X119363499Y-75883530D01*
X119431398Y-75867057D01*
X119497426Y-75889909D01*
G37*
%TD.AperFunction*%
%TA.AperFunction,Conductor*%
G36*
X114918834Y-72579362D02*
G01*
X114974767Y-72621234D01*
X114999184Y-72686698D01*
X114999500Y-72695544D01*
X114999500Y-72722475D01*
X115026288Y-72822447D01*
X115037017Y-72862488D01*
X115109488Y-72988011D01*
X115109490Y-72988013D01*
X115109491Y-72988015D01*
X115211985Y-73090509D01*
X115211986Y-73090510D01*
X115211988Y-73090511D01*
X115337511Y-73162982D01*
X115337512Y-73162982D01*
X115337515Y-73162984D01*
X115477525Y-73200500D01*
X115553456Y-73200500D01*
X115620495Y-73220185D01*
X115641137Y-73236819D01*
X115663181Y-73258863D01*
X115696666Y-73320186D01*
X115699500Y-73346544D01*
X115699500Y-74523553D01*
X115679815Y-74590592D01*
X115627011Y-74636347D01*
X115557853Y-74646291D01*
X115543407Y-74643328D01*
X115499962Y-74631687D01*
X115473475Y-74624590D01*
X115328525Y-74624590D01*
X115199993Y-74659030D01*
X115188511Y-74662107D01*
X115062988Y-74734578D01*
X115062982Y-74734583D01*
X114960493Y-74837072D01*
X114960488Y-74837078D01*
X114888017Y-74962601D01*
X114888016Y-74962605D01*
X114862563Y-75057595D01*
X114826199Y-75117254D01*
X114763352Y-75147783D01*
X114742789Y-75149500D01*
X114724811Y-75149500D01*
X114703878Y-75155108D01*
X114634029Y-75153446D01*
X114576167Y-75114283D01*
X114548663Y-75050055D01*
X114547786Y-75035334D01*
X114547786Y-72899258D01*
X114567471Y-72832219D01*
X114584105Y-72811577D01*
X114787819Y-72607863D01*
X114849142Y-72574378D01*
X114918834Y-72579362D01*
G37*
%TD.AperFunction*%
%TA.AperFunction,Conductor*%
G36*
X116414214Y-71158422D02*
G01*
X116446970Y-71220137D01*
X116449500Y-71245058D01*
X116449500Y-72754456D01*
X116429815Y-72821495D01*
X116377011Y-72867250D01*
X116307853Y-72877194D01*
X116244297Y-72848169D01*
X116237819Y-72842137D01*
X116136819Y-72741137D01*
X116103334Y-72679814D01*
X116100500Y-72653456D01*
X116100500Y-72577527D01*
X116100500Y-72577525D01*
X116062984Y-72437515D01*
X115990509Y-72311985D01*
X115888015Y-72209491D01*
X115888013Y-72209490D01*
X115888011Y-72209488D01*
X115762488Y-72137017D01*
X115762489Y-72137017D01*
X115751006Y-72133940D01*
X115622475Y-72099500D01*
X115595544Y-72099500D01*
X115528505Y-72079815D01*
X115482750Y-72027011D01*
X115472806Y-71957853D01*
X115501831Y-71894297D01*
X115507863Y-71887819D01*
X116236217Y-71159465D01*
X116238221Y-71161469D01*
X116283546Y-71128371D01*
X116353292Y-71124213D01*
X116414214Y-71158422D01*
G37*
%TD.AperFunction*%
%TA.AperFunction,Conductor*%
G36*
X116833581Y-68919035D02*
G01*
X116876772Y-68973956D01*
X116883414Y-69043509D01*
X116869042Y-69082043D01*
X116837017Y-69137511D01*
X116837016Y-69137515D01*
X116799500Y-69277525D01*
X116799500Y-69277527D01*
X116799500Y-69353456D01*
X116779815Y-69420495D01*
X116763181Y-69441137D01*
X116513783Y-69690535D01*
X116511781Y-69688533D01*
X116466427Y-69721638D01*
X116396680Y-69725780D01*
X116335766Y-69691557D01*
X116303024Y-69629834D01*
X116300500Y-69604941D01*
X116300500Y-69124500D01*
X116320185Y-69057461D01*
X116372989Y-69011706D01*
X116424500Y-69000500D01*
X116472472Y-69000500D01*
X116472475Y-69000500D01*
X116612485Y-68962984D01*
X116699656Y-68912655D01*
X116767554Y-68896183D01*
X116833581Y-68919035D01*
G37*
%TD.AperFunction*%
%TA.AperFunction,Conductor*%
G36*
X147808363Y-50520185D02*
G01*
X147829005Y-50536819D01*
X149463181Y-52170995D01*
X149496666Y-52232318D01*
X149499500Y-52258676D01*
X149499500Y-117741324D01*
X149479815Y-117808363D01*
X149463181Y-117829005D01*
X147829005Y-119463181D01*
X147767682Y-119496666D01*
X147741324Y-119499500D01*
X143324500Y-119499500D01*
X143257461Y-119479815D01*
X143211706Y-119427011D01*
X143200500Y-119375500D01*
X143200500Y-118911309D01*
X143200499Y-118911305D01*
X143188404Y-118850499D01*
X143165895Y-118737335D01*
X143098013Y-118573454D01*
X143098012Y-118573453D01*
X143098009Y-118573447D01*
X142999464Y-118425965D01*
X142999461Y-118425961D01*
X142874038Y-118300538D01*
X142874034Y-118300535D01*
X142726552Y-118201990D01*
X142726543Y-118201985D01*
X142562665Y-118134105D01*
X142562657Y-118134103D01*
X142388694Y-118099500D01*
X142388690Y-118099500D01*
X142365892Y-118099500D01*
X138773499Y-118099500D01*
X138773482Y-118099499D01*
X138765889Y-118099499D01*
X138699997Y-118099500D01*
X138611306Y-118099500D01*
X138611301Y-118099501D01*
X138437337Y-118134105D01*
X138437331Y-118134107D01*
X138273456Y-118201987D01*
X138273446Y-118201992D01*
X138125965Y-118300536D01*
X138125961Y-118300539D01*
X138000539Y-118425961D01*
X138000536Y-118425965D01*
X137901992Y-118573446D01*
X137901987Y-118573456D01*
X137834107Y-118737331D01*
X137834105Y-118737337D01*
X137799501Y-118911301D01*
X137799500Y-118911306D01*
X137799500Y-118999999D01*
X137799499Y-119080320D01*
X137799500Y-119080329D01*
X137799500Y-119375500D01*
X137779815Y-119442539D01*
X137727011Y-119488294D01*
X137675500Y-119499500D01*
X102258676Y-119499500D01*
X102191637Y-119479815D01*
X102170995Y-119463181D01*
X100624042Y-117916228D01*
X134649500Y-117916228D01*
X134649500Y-118083771D01*
X134682182Y-118248074D01*
X134682184Y-118248082D01*
X134746295Y-118402860D01*
X134839373Y-118542162D01*
X134957837Y-118660626D01*
X135050494Y-118722537D01*
X135097137Y-118753703D01*
X135251918Y-118817816D01*
X135416228Y-118850499D01*
X135416232Y-118850500D01*
X135416233Y-118850500D01*
X135583768Y-118850500D01*
X135583769Y-118850499D01*
X135748082Y-118817816D01*
X135902863Y-118753703D01*
X136042162Y-118660626D01*
X136160626Y-118542162D01*
X136253703Y-118402863D01*
X136317816Y-118248082D01*
X136350500Y-118083767D01*
X136350500Y-117916233D01*
X136350499Y-117916228D01*
X144649500Y-117916228D01*
X144649500Y-118083771D01*
X144682182Y-118248074D01*
X144682184Y-118248082D01*
X144746295Y-118402860D01*
X144839373Y-118542162D01*
X144957837Y-118660626D01*
X145050494Y-118722537D01*
X145097137Y-118753703D01*
X145251918Y-118817816D01*
X145416228Y-118850499D01*
X145416232Y-118850500D01*
X145416233Y-118850500D01*
X145583768Y-118850500D01*
X145583769Y-118850499D01*
X145748082Y-118817816D01*
X145902863Y-118753703D01*
X146042162Y-118660626D01*
X146160626Y-118542162D01*
X146253703Y-118402863D01*
X146317816Y-118248082D01*
X146350500Y-118083767D01*
X146350500Y-117916233D01*
X146317816Y-117751918D01*
X146253703Y-117597137D01*
X146177600Y-117483241D01*
X146160626Y-117457837D01*
X146042162Y-117339373D01*
X145902860Y-117246295D01*
X145748082Y-117182184D01*
X145748074Y-117182182D01*
X145583771Y-117149500D01*
X145583767Y-117149500D01*
X145416233Y-117149500D01*
X145416228Y-117149500D01*
X145251925Y-117182182D01*
X145251917Y-117182184D01*
X145097139Y-117246295D01*
X144957837Y-117339373D01*
X144839373Y-117457837D01*
X144746295Y-117597139D01*
X144682184Y-117751917D01*
X144682182Y-117751925D01*
X144649500Y-117916228D01*
X136350499Y-117916228D01*
X136317816Y-117751918D01*
X136253703Y-117597137D01*
X136177600Y-117483241D01*
X136160626Y-117457837D01*
X136042162Y-117339373D01*
X135902860Y-117246295D01*
X135748082Y-117182184D01*
X135748074Y-117182182D01*
X135583771Y-117149500D01*
X135583767Y-117149500D01*
X135416233Y-117149500D01*
X135416228Y-117149500D01*
X135251925Y-117182182D01*
X135251917Y-117182184D01*
X135097139Y-117246295D01*
X134957837Y-117339373D01*
X134839373Y-117457837D01*
X134746295Y-117597139D01*
X134682184Y-117751917D01*
X134682182Y-117751925D01*
X134649500Y-117916228D01*
X100624042Y-117916228D01*
X100536819Y-117829005D01*
X100503334Y-117767682D01*
X100500500Y-117741324D01*
X100500500Y-115874038D01*
X122899500Y-115874038D01*
X122899500Y-116125961D01*
X122938910Y-116374785D01*
X123016760Y-116614383D01*
X123131132Y-116838848D01*
X123279201Y-117042649D01*
X123279205Y-117042654D01*
X123457345Y-117220794D01*
X123457350Y-117220798D01*
X123492447Y-117246297D01*
X123661155Y-117368870D01*
X123804184Y-117441747D01*
X123885616Y-117483239D01*
X123885618Y-117483239D01*
X123885621Y-117483241D01*
X124125215Y-117561090D01*
X124374038Y-117600500D01*
X124374039Y-117600500D01*
X124625961Y-117600500D01*
X124625962Y-117600500D01*
X124874785Y-117561090D01*
X125114379Y-117483241D01*
X125338845Y-117368870D01*
X125542656Y-117220793D01*
X125720793Y-117042656D01*
X125868870Y-116838845D01*
X125983241Y-116614379D01*
X126061090Y-116374785D01*
X126100500Y-116125962D01*
X126100500Y-115874038D01*
X126061090Y-115625215D01*
X125993186Y-115416228D01*
X134649500Y-115416228D01*
X134649500Y-115583771D01*
X134682182Y-115748074D01*
X134682184Y-115748082D01*
X134746295Y-115902860D01*
X134839373Y-116042162D01*
X134957837Y-116160626D01*
X135041612Y-116216602D01*
X135097137Y-116253703D01*
X135251918Y-116317816D01*
X135416228Y-116350499D01*
X135416232Y-116350500D01*
X135416233Y-116350500D01*
X135583768Y-116350500D01*
X135583769Y-116350499D01*
X135748082Y-116317816D01*
X135902863Y-116253703D01*
X136042162Y-116160626D01*
X136160626Y-116042162D01*
X136253703Y-115902863D01*
X136317022Y-115750000D01*
X138925885Y-115750000D01*
X138927085Y-115757584D01*
X138980591Y-115922255D01*
X139059195Y-116076524D01*
X139160967Y-116216602D01*
X139283397Y-116339032D01*
X139423475Y-116440804D01*
X139577742Y-116519408D01*
X139742415Y-116572914D01*
X139913429Y-116600000D01*
X140250000Y-116600000D01*
X140750000Y-116600000D01*
X141086571Y-116600000D01*
X141257584Y-116572914D01*
X141422257Y-116519408D01*
X141576524Y-116440804D01*
X141716602Y-116339032D01*
X141839032Y-116216602D01*
X141940804Y-116076524D01*
X142019408Y-115922255D01*
X142072914Y-115757584D01*
X142074115Y-115750000D01*
X140750000Y-115750000D01*
X140750000Y-116600000D01*
X140250000Y-116600000D01*
X140250000Y-115750000D01*
X138925885Y-115750000D01*
X136317022Y-115750000D01*
X136317816Y-115748082D01*
X136350500Y-115583767D01*
X136350500Y-115460218D01*
X139800000Y-115460218D01*
X139800000Y-115539782D01*
X139830448Y-115613291D01*
X139886709Y-115669552D01*
X139960218Y-115700000D01*
X141039782Y-115700000D01*
X141113291Y-115669552D01*
X141169552Y-115613291D01*
X141200000Y-115539782D01*
X141200000Y-115460218D01*
X141181779Y-115416228D01*
X144649500Y-115416228D01*
X144649500Y-115583771D01*
X144682182Y-115748074D01*
X144682184Y-115748082D01*
X144746295Y-115902860D01*
X144839373Y-116042162D01*
X144957837Y-116160626D01*
X145041612Y-116216602D01*
X145097137Y-116253703D01*
X145251918Y-116317816D01*
X145416228Y-116350499D01*
X145416232Y-116350500D01*
X145416233Y-116350500D01*
X145583768Y-116350500D01*
X145583769Y-116350499D01*
X145748082Y-116317816D01*
X145902863Y-116253703D01*
X146042162Y-116160626D01*
X146160626Y-116042162D01*
X146253703Y-115902863D01*
X146317816Y-115748082D01*
X146350500Y-115583767D01*
X146350500Y-115416233D01*
X146317816Y-115251918D01*
X146253703Y-115097137D01*
X146222537Y-115050494D01*
X146160626Y-114957837D01*
X146042162Y-114839373D01*
X145902860Y-114746295D01*
X145748082Y-114682184D01*
X145748074Y-114682182D01*
X145583771Y-114649500D01*
X145583767Y-114649500D01*
X145416233Y-114649500D01*
X145416228Y-114649500D01*
X145251925Y-114682182D01*
X145251917Y-114682184D01*
X145097139Y-114746295D01*
X144957837Y-114839373D01*
X144839373Y-114957837D01*
X144746295Y-115097139D01*
X144682184Y-115251917D01*
X144682182Y-115251925D01*
X144649500Y-115416228D01*
X141181779Y-115416228D01*
X141169552Y-115386709D01*
X141113291Y-115330448D01*
X141039782Y-115300000D01*
X139960218Y-115300000D01*
X139886709Y-115330448D01*
X139830448Y-115386709D01*
X139800000Y-115460218D01*
X136350500Y-115460218D01*
X136350500Y-115416233D01*
X136317816Y-115251918D01*
X136317021Y-115249999D01*
X138925884Y-115249999D01*
X138925885Y-115250000D01*
X140250000Y-115250000D01*
X140750000Y-115250000D01*
X142074115Y-115250000D01*
X142074115Y-115249999D01*
X142072914Y-115242415D01*
X142019408Y-115077744D01*
X141940804Y-114923475D01*
X141839032Y-114783397D01*
X141716602Y-114660967D01*
X141576524Y-114559195D01*
X141422257Y-114480591D01*
X141257584Y-114427085D01*
X141086571Y-114400000D01*
X140750000Y-114400000D01*
X140750000Y-115250000D01*
X140250000Y-115250000D01*
X140250000Y-114400000D01*
X139913429Y-114400000D01*
X139742415Y-114427085D01*
X139577742Y-114480591D01*
X139423475Y-114559195D01*
X139283397Y-114660967D01*
X139160967Y-114783397D01*
X139059195Y-114923475D01*
X138980591Y-115077744D01*
X138927085Y-115242415D01*
X138925884Y-115249999D01*
X136317021Y-115249999D01*
X136253703Y-115097137D01*
X136222537Y-115050494D01*
X136160626Y-114957837D01*
X136042162Y-114839373D01*
X135902860Y-114746295D01*
X135748082Y-114682184D01*
X135748074Y-114682182D01*
X135583771Y-114649500D01*
X135583767Y-114649500D01*
X135416233Y-114649500D01*
X135416228Y-114649500D01*
X135251925Y-114682182D01*
X135251917Y-114682184D01*
X135097139Y-114746295D01*
X134957837Y-114839373D01*
X134839373Y-114957837D01*
X134746295Y-115097139D01*
X134682184Y-115251917D01*
X134682182Y-115251925D01*
X134649500Y-115416228D01*
X125993186Y-115416228D01*
X125983241Y-115385621D01*
X125868870Y-115161155D01*
X125808269Y-115077744D01*
X125720798Y-114957350D01*
X125720794Y-114957345D01*
X125542654Y-114779205D01*
X125542649Y-114779201D01*
X125338848Y-114631132D01*
X125338847Y-114631131D01*
X125338845Y-114631130D01*
X125268747Y-114595413D01*
X125114383Y-114516760D01*
X124874785Y-114438910D01*
X124800125Y-114427085D01*
X124625962Y-114399500D01*
X124374038Y-114399500D01*
X124249626Y-114419205D01*
X124125214Y-114438910D01*
X123885616Y-114516760D01*
X123661151Y-114631132D01*
X123457350Y-114779201D01*
X123457345Y-114779205D01*
X123279205Y-114957345D01*
X123279201Y-114957350D01*
X123131132Y-115161151D01*
X123016760Y-115385616D01*
X122938910Y-115625214D01*
X122899500Y-115874038D01*
X100500500Y-115874038D01*
X100500500Y-107802135D01*
X105149500Y-107802135D01*
X105149500Y-109997870D01*
X105149501Y-109997876D01*
X105155908Y-110057483D01*
X105206202Y-110192328D01*
X105206206Y-110192335D01*
X105292452Y-110307544D01*
X105292455Y-110307547D01*
X105407664Y-110393793D01*
X105407671Y-110393797D01*
X105542517Y-110444091D01*
X105542516Y-110444091D01*
X105549444Y-110444835D01*
X105602127Y-110450500D01*
X107797872Y-110450499D01*
X107857483Y-110444091D01*
X107992331Y-110393796D01*
X108107546Y-110307546D01*
X108193796Y-110192331D01*
X108244091Y-110057483D01*
X108250500Y-109997873D01*
X108250499Y-108777973D01*
X110149500Y-108777973D01*
X110149500Y-109022026D01*
X110184104Y-109240509D01*
X110187679Y-109263076D01*
X110263096Y-109495185D01*
X110358376Y-109682184D01*
X110373896Y-109712642D01*
X110517339Y-109910076D01*
X110517343Y-109910081D01*
X110689918Y-110082656D01*
X110689923Y-110082660D01*
X110840879Y-110192335D01*
X110887361Y-110226106D01*
X111104815Y-110336904D01*
X111336924Y-110412321D01*
X111577973Y-110450500D01*
X111577974Y-110450500D01*
X111822026Y-110450500D01*
X111822027Y-110450500D01*
X112063076Y-110412321D01*
X112295185Y-110336904D01*
X112512639Y-110226106D01*
X112710083Y-110082655D01*
X112876510Y-109916228D01*
X134649500Y-109916228D01*
X134649500Y-111083771D01*
X134682182Y-111248074D01*
X134682184Y-111248082D01*
X134746295Y-111402860D01*
X134839373Y-111542162D01*
X134957837Y-111660626D01*
X135050494Y-111722537D01*
X135097137Y-111753703D01*
X135251918Y-111817816D01*
X135416228Y-111850499D01*
X135416232Y-111850500D01*
X135416233Y-111850500D01*
X135583768Y-111850500D01*
X135583769Y-111850499D01*
X135748082Y-111817816D01*
X135902863Y-111753703D01*
X136042162Y-111660626D01*
X136160626Y-111542162D01*
X136253703Y-111402863D01*
X136317816Y-111248082D01*
X136350500Y-111083767D01*
X136350500Y-110046530D01*
X136949500Y-110046530D01*
X136949500Y-110953469D01*
X136989868Y-111156412D01*
X136989870Y-111156420D01*
X137027834Y-111248074D01*
X137069059Y-111347598D01*
X137070998Y-111350500D01*
X137184024Y-111519657D01*
X137330342Y-111665975D01*
X137330345Y-111665977D01*
X137502402Y-111780941D01*
X137693580Y-111860130D01*
X137896530Y-111900499D01*
X137896534Y-111900500D01*
X137896535Y-111900500D01*
X138103466Y-111900500D01*
X138103467Y-111900499D01*
X138306420Y-111860130D01*
X138497598Y-111780941D01*
X138669655Y-111665977D01*
X138815977Y-111519655D01*
X138930941Y-111347598D01*
X139010130Y-111156420D01*
X139050500Y-110953465D01*
X139050500Y-110416228D01*
X139649500Y-110416228D01*
X139649500Y-110583771D01*
X139682182Y-110748074D01*
X139682184Y-110748082D01*
X139746295Y-110902860D01*
X139839373Y-111042162D01*
X139957837Y-111160626D01*
X140050494Y-111222537D01*
X140097137Y-111253703D01*
X140251918Y-111317816D01*
X140401644Y-111347598D01*
X140416228Y-111350499D01*
X140416232Y-111350500D01*
X140416233Y-111350500D01*
X140583768Y-111350500D01*
X140583769Y-111350499D01*
X140748082Y-111317816D01*
X140902863Y-111253703D01*
X141042162Y-111160626D01*
X141160626Y-111042162D01*
X141253703Y-110902863D01*
X141317816Y-110748082D01*
X141350500Y-110583767D01*
X141350500Y-110416233D01*
X141317816Y-110251918D01*
X141253703Y-110097137D01*
X141219888Y-110046530D01*
X141160626Y-109957837D01*
X141042162Y-109839373D01*
X140902860Y-109746295D01*
X140748082Y-109682184D01*
X140748074Y-109682182D01*
X140583771Y-109649500D01*
X140583767Y-109649500D01*
X140416233Y-109649500D01*
X140416228Y-109649500D01*
X140251925Y-109682182D01*
X140251917Y-109682184D01*
X140097139Y-109746295D01*
X139957837Y-109839373D01*
X139839373Y-109957837D01*
X139746295Y-110097139D01*
X139682184Y-110251917D01*
X139682182Y-110251925D01*
X139649500Y-110416228D01*
X139050500Y-110416228D01*
X139050500Y-110046535D01*
X139010130Y-109843580D01*
X138930941Y-109652402D01*
X138815977Y-109480345D01*
X138815975Y-109480342D01*
X138669657Y-109334024D01*
X138583626Y-109276541D01*
X138497598Y-109219059D01*
X138494551Y-109217797D01*
X138306420Y-109139870D01*
X138306412Y-109139868D01*
X138103469Y-109099500D01*
X138103465Y-109099500D01*
X137896535Y-109099500D01*
X137896530Y-109099500D01*
X137693587Y-109139868D01*
X137693579Y-109139870D01*
X137502403Y-109219058D01*
X137330342Y-109334024D01*
X137184024Y-109480342D01*
X137069058Y-109652403D01*
X136989870Y-109843579D01*
X136989868Y-109843587D01*
X136949500Y-110046530D01*
X136350500Y-110046530D01*
X136350500Y-109916233D01*
X136317816Y-109751918D01*
X136253703Y-109597137D01*
X136175663Y-109480342D01*
X136160626Y-109457837D01*
X136042162Y-109339373D01*
X135902860Y-109246295D01*
X135748082Y-109182184D01*
X135748074Y-109182182D01*
X135583771Y-109149500D01*
X135583767Y-109149500D01*
X135416233Y-109149500D01*
X135416228Y-109149500D01*
X135251925Y-109182182D01*
X135251917Y-109182184D01*
X135097139Y-109246295D01*
X134957837Y-109339373D01*
X134839373Y-109457837D01*
X134746295Y-109597139D01*
X134682184Y-109751917D01*
X134682182Y-109751925D01*
X134649500Y-109916228D01*
X112876510Y-109916228D01*
X112882655Y-109910083D01*
X112886037Y-109905427D01*
X112935568Y-109837256D01*
X113026103Y-109712643D01*
X113026104Y-109712642D01*
X113026106Y-109712639D01*
X113136904Y-109495185D01*
X113212321Y-109263076D01*
X113250500Y-109022027D01*
X113250500Y-108777973D01*
X113212321Y-108536924D01*
X113136904Y-108304815D01*
X113026106Y-108087361D01*
X112955739Y-107990509D01*
X112882660Y-107889923D01*
X112882656Y-107889918D01*
X112710081Y-107717343D01*
X112710076Y-107717339D01*
X112512642Y-107573896D01*
X112512641Y-107573895D01*
X112512639Y-107573894D01*
X112295185Y-107463096D01*
X112063076Y-107387679D01*
X112063074Y-107387678D01*
X112063072Y-107387678D01*
X111862491Y-107355909D01*
X111822027Y-107349500D01*
X111577973Y-107349500D01*
X111537515Y-107355908D01*
X111336927Y-107387678D01*
X111104812Y-107463097D01*
X110887357Y-107573896D01*
X110689923Y-107717339D01*
X110689918Y-107717343D01*
X110517343Y-107889918D01*
X110517339Y-107889923D01*
X110373896Y-108087357D01*
X110263097Y-108304812D01*
X110187678Y-108536927D01*
X110149500Y-108777973D01*
X108250499Y-108777973D01*
X108250499Y-107802128D01*
X108244091Y-107742517D01*
X108234702Y-107717345D01*
X108193797Y-107607671D01*
X108193793Y-107607664D01*
X108107547Y-107492455D01*
X108107544Y-107492452D01*
X107992335Y-107406206D01*
X107992328Y-107406202D01*
X107857482Y-107355908D01*
X107857483Y-107355908D01*
X107797883Y-107349501D01*
X107797881Y-107349500D01*
X107797873Y-107349500D01*
X107797864Y-107349500D01*
X105602129Y-107349500D01*
X105602123Y-107349501D01*
X105542516Y-107355908D01*
X105407671Y-107406202D01*
X105407664Y-107406206D01*
X105292455Y-107492452D01*
X105292452Y-107492455D01*
X105206206Y-107607664D01*
X105206202Y-107607671D01*
X105155908Y-107742517D01*
X105149501Y-107802116D01*
X105149501Y-107802123D01*
X105149500Y-107802135D01*
X100500500Y-107802135D01*
X100500500Y-90627525D01*
X101199500Y-90627525D01*
X101199500Y-90772475D01*
X101235694Y-90907550D01*
X101237017Y-90912488D01*
X101309488Y-91038011D01*
X101309490Y-91038013D01*
X101309491Y-91038015D01*
X101411985Y-91140509D01*
X101537515Y-91212984D01*
X101537519Y-91212985D01*
X101544860Y-91216026D01*
X101585094Y-91242908D01*
X102849500Y-92507314D01*
X102942686Y-92600500D01*
X103034292Y-92653389D01*
X103056814Y-92666392D01*
X103184107Y-92700500D01*
X103184108Y-92700500D01*
X104020500Y-92700500D01*
X104087539Y-92720185D01*
X104133294Y-92772989D01*
X104144500Y-92824500D01*
X104144500Y-92950004D01*
X104163947Y-93047771D01*
X104163950Y-93047778D01*
X104214470Y-93123387D01*
X104219334Y-93130666D01*
X104302224Y-93186051D01*
X104302227Y-93186051D01*
X104302228Y-93186052D01*
X104399995Y-93205499D01*
X104399998Y-93205500D01*
X104400000Y-93205500D01*
X105399996Y-93205500D01*
X105400000Y-93205500D01*
X105450108Y-93200538D01*
X105450110Y-93200537D01*
X105496012Y-93181468D01*
X105565474Y-93173926D01*
X105591036Y-93181417D01*
X105602226Y-93186052D01*
X105699995Y-93205499D01*
X105699998Y-93205500D01*
X105700000Y-93205500D01*
X107358456Y-93205500D01*
X107425495Y-93225185D01*
X107446137Y-93241819D01*
X107934788Y-93730470D01*
X108014712Y-93776614D01*
X108103856Y-93800500D01*
X108503456Y-93800500D01*
X108570495Y-93820185D01*
X108591137Y-93836819D01*
X108878863Y-94124545D01*
X108912348Y-94185868D01*
X108907364Y-94255560D01*
X108898570Y-94274225D01*
X108879195Y-94307783D01*
X108879195Y-94307784D01*
X108841679Y-94447794D01*
X108841679Y-94592744D01*
X108866940Y-94687017D01*
X108879196Y-94732757D01*
X108951667Y-94858280D01*
X108951669Y-94858282D01*
X108951670Y-94858284D01*
X109054164Y-94960778D01*
X109054165Y-94960779D01*
X109054167Y-94960780D01*
X109179690Y-95033251D01*
X109179691Y-95033251D01*
X109179694Y-95033253D01*
X109319704Y-95070769D01*
X109319707Y-95070769D01*
X109464651Y-95070769D01*
X109464654Y-95070769D01*
X109604664Y-95033253D01*
X109730194Y-94960778D01*
X109832688Y-94858284D01*
X109905163Y-94732754D01*
X109942679Y-94592744D01*
X109942679Y-94447794D01*
X109905163Y-94307784D01*
X109875011Y-94255560D01*
X109832690Y-94182257D01*
X109832685Y-94182251D01*
X109764786Y-94114352D01*
X109732692Y-94058763D01*
X109718794Y-94006893D01*
X109718793Y-94006892D01*
X109718793Y-94006891D01*
X109698923Y-93972475D01*
X109672649Y-93926967D01*
X108915212Y-93169530D01*
X108915211Y-93169529D01*
X108915208Y-93169527D01*
X108835290Y-93123387D01*
X108835289Y-93123386D01*
X108835288Y-93123386D01*
X108746144Y-93099500D01*
X108746143Y-93099500D01*
X108474564Y-93099500D01*
X108407525Y-93079815D01*
X108361770Y-93027011D01*
X108350564Y-92975369D01*
X108350643Y-92900416D01*
X108350642Y-92900414D01*
X108340435Y-92875700D01*
X108312589Y-92808274D01*
X107952927Y-92268782D01*
X107932120Y-92202084D01*
X107950675Y-92134723D01*
X107952928Y-92131217D01*
X108105194Y-91902819D01*
X108312589Y-91591726D01*
X108336051Y-91547776D01*
X108355500Y-91450000D01*
X108355500Y-91449997D01*
X108336052Y-91352228D01*
X108336051Y-91352227D01*
X108336051Y-91352224D01*
X108280666Y-91269334D01*
X108275627Y-91265967D01*
X108197778Y-91213950D01*
X108197771Y-91213947D01*
X108100003Y-91194500D01*
X108100000Y-91194500D01*
X105700000Y-91194500D01*
X105699990Y-91194500D01*
X105650418Y-91199356D01*
X105603743Y-91218632D01*
X105534265Y-91226026D01*
X105508958Y-91218581D01*
X105497771Y-91213947D01*
X105400003Y-91194500D01*
X105400000Y-91194500D01*
X104400000Y-91194500D01*
X104399997Y-91194500D01*
X104302228Y-91213947D01*
X104302221Y-91213950D01*
X104219334Y-91269333D01*
X104219333Y-91269334D01*
X104163950Y-91352221D01*
X104163947Y-91352228D01*
X104144500Y-91449995D01*
X104144500Y-91575500D01*
X104124815Y-91642539D01*
X104072011Y-91688294D01*
X104020500Y-91699500D01*
X103508676Y-91699500D01*
X103441637Y-91679815D01*
X103420995Y-91663181D01*
X102292908Y-90535094D01*
X102266026Y-90494860D01*
X102262985Y-90487519D01*
X102262984Y-90487515D01*
X102190509Y-90361985D01*
X102088015Y-90259491D01*
X102088013Y-90259490D01*
X102088011Y-90259488D01*
X101962488Y-90187017D01*
X101962489Y-90187017D01*
X101916439Y-90174678D01*
X101822475Y-90149500D01*
X101677525Y-90149500D01*
X101583561Y-90174678D01*
X101537511Y-90187017D01*
X101411988Y-90259488D01*
X101411982Y-90259493D01*
X101309493Y-90361982D01*
X101309488Y-90361988D01*
X101237017Y-90487511D01*
X101237016Y-90487515D01*
X101199500Y-90627525D01*
X100500500Y-90627525D01*
X100500500Y-88425321D01*
X104549500Y-88425321D01*
X104549500Y-90174678D01*
X104564032Y-90247735D01*
X104564033Y-90247739D01*
X104571887Y-90259493D01*
X104619399Y-90330601D01*
X104702260Y-90385966D01*
X104702264Y-90385967D01*
X104775321Y-90400499D01*
X104775324Y-90400500D01*
X104775326Y-90400500D01*
X106524676Y-90400500D01*
X106524677Y-90400499D01*
X106597740Y-90385966D01*
X106680601Y-90330601D01*
X106735966Y-90247740D01*
X106750500Y-90174674D01*
X106750500Y-89213389D01*
X107089500Y-89213389D01*
X107089500Y-89386610D01*
X107114925Y-89547142D01*
X107116598Y-89557701D01*
X107170127Y-89722445D01*
X107248768Y-89876788D01*
X107350586Y-90016928D01*
X107473072Y-90139414D01*
X107613212Y-90241232D01*
X107767555Y-90319873D01*
X107932299Y-90373402D01*
X108103389Y-90400500D01*
X108103390Y-90400500D01*
X108276610Y-90400500D01*
X108276611Y-90400500D01*
X108447701Y-90373402D01*
X108612445Y-90319873D01*
X108766788Y-90241232D01*
X108906928Y-90139414D01*
X109029414Y-90016928D01*
X109131232Y-89876788D01*
X109209873Y-89722445D01*
X109263402Y-89557701D01*
X109290500Y-89386611D01*
X109290500Y-89213389D01*
X109263402Y-89042299D01*
X109209873Y-88877555D01*
X109131232Y-88723212D01*
X109029414Y-88583072D01*
X108906928Y-88460586D01*
X108766788Y-88358768D01*
X108612445Y-88280127D01*
X108447701Y-88226598D01*
X108447699Y-88226597D01*
X108447698Y-88226597D01*
X108316271Y-88205781D01*
X108276611Y-88199500D01*
X108103389Y-88199500D01*
X108063728Y-88205781D01*
X107932302Y-88226597D01*
X107767552Y-88280128D01*
X107613211Y-88358768D01*
X107533256Y-88416859D01*
X107473072Y-88460586D01*
X107473070Y-88460588D01*
X107473069Y-88460588D01*
X107350588Y-88583069D01*
X107350588Y-88583070D01*
X107350586Y-88583072D01*
X107332973Y-88607314D01*
X107248768Y-88723211D01*
X107170128Y-88877552D01*
X107116597Y-89042302D01*
X107089500Y-89213389D01*
X106750500Y-89213389D01*
X106750500Y-88425326D01*
X106750500Y-88425323D01*
X106750499Y-88425321D01*
X106735967Y-88352264D01*
X106735966Y-88352260D01*
X106730922Y-88344711D01*
X106680601Y-88269399D01*
X106597740Y-88214034D01*
X106597739Y-88214033D01*
X106597735Y-88214032D01*
X106524677Y-88199500D01*
X106524674Y-88199500D01*
X104775326Y-88199500D01*
X104775323Y-88199500D01*
X104702264Y-88214032D01*
X104702260Y-88214033D01*
X104619399Y-88269399D01*
X104564033Y-88352260D01*
X104564032Y-88352264D01*
X104549500Y-88425321D01*
X100500500Y-88425321D01*
X100500500Y-86827525D01*
X109199500Y-86827525D01*
X109199500Y-86972475D01*
X109235635Y-87107332D01*
X109237017Y-87112488D01*
X109309488Y-87238011D01*
X109309490Y-87238013D01*
X109309491Y-87238015D01*
X109411985Y-87340509D01*
X109537515Y-87412984D01*
X109537519Y-87412985D01*
X109544860Y-87416026D01*
X109585094Y-87442908D01*
X110199500Y-88057314D01*
X110292686Y-88150500D01*
X110406814Y-88216392D01*
X110534108Y-88250500D01*
X110534110Y-88250500D01*
X115715890Y-88250500D01*
X115715892Y-88250500D01*
X115843186Y-88216392D01*
X115957314Y-88150500D01*
X117270995Y-86836819D01*
X117332318Y-86803334D01*
X117358676Y-86800500D01*
X117534124Y-86800500D01*
X117601163Y-86820185D01*
X117646918Y-86872989D01*
X117656862Y-86942147D01*
X117627837Y-87005703D01*
X117592523Y-87031168D01*
X117593553Y-87032952D01*
X117460988Y-87109488D01*
X117460982Y-87109493D01*
X117358493Y-87211982D01*
X117358488Y-87211988D01*
X117286017Y-87337511D01*
X117285214Y-87340509D01*
X117248500Y-87477525D01*
X117248500Y-87622475D01*
X117286016Y-87762485D01*
X117286017Y-87762488D01*
X117358488Y-87888011D01*
X117358493Y-87888017D01*
X117412181Y-87941705D01*
X117445666Y-88003028D01*
X117448500Y-88029386D01*
X117448500Y-89304456D01*
X117428815Y-89371495D01*
X117412181Y-89392137D01*
X113491137Y-93313181D01*
X113429814Y-93346666D01*
X113403456Y-93349500D01*
X113327525Y-93349500D01*
X113198993Y-93383940D01*
X113187511Y-93387017D01*
X113061988Y-93459488D01*
X113061982Y-93459493D01*
X112959493Y-93561982D01*
X112959488Y-93561988D01*
X112887017Y-93687511D01*
X112887016Y-93687515D01*
X112849500Y-93827525D01*
X112849500Y-93972475D01*
X112872621Y-94058763D01*
X112887017Y-94112488D01*
X112959488Y-94238011D01*
X112959490Y-94238013D01*
X112959491Y-94238015D01*
X113061985Y-94340509D01*
X113061986Y-94340510D01*
X113061988Y-94340511D01*
X113187511Y-94412982D01*
X113187512Y-94412982D01*
X113187515Y-94412984D01*
X113251861Y-94430225D01*
X113311520Y-94466591D01*
X113342049Y-94529438D01*
X113333754Y-94598813D01*
X113289268Y-94652691D01*
X113251862Y-94669774D01*
X113197516Y-94684336D01*
X113187511Y-94687017D01*
X113061988Y-94759488D01*
X113061982Y-94759493D01*
X112959493Y-94861982D01*
X112959488Y-94861988D01*
X112887017Y-94987511D01*
X112887016Y-94987515D01*
X112849500Y-95127525D01*
X112849500Y-95127527D01*
X112849500Y-95225500D01*
X112829815Y-95292539D01*
X112777011Y-95338294D01*
X112725500Y-95349500D01*
X112627525Y-95349500D01*
X112522309Y-95377693D01*
X112487511Y-95387017D01*
X112361988Y-95459488D01*
X112361982Y-95459493D01*
X112259493Y-95561982D01*
X112259488Y-95561988D01*
X112187017Y-95687511D01*
X112187016Y-95687515D01*
X112149500Y-95827525D01*
X112149500Y-95972475D01*
X112156053Y-95996929D01*
X112187017Y-96112488D01*
X112259488Y-96238011D01*
X112259490Y-96238013D01*
X112259491Y-96238015D01*
X112361985Y-96340509D01*
X112361986Y-96340510D01*
X112361988Y-96340511D01*
X112487511Y-96412982D01*
X112487512Y-96412982D01*
X112487515Y-96412984D01*
X112627525Y-96450500D01*
X112627528Y-96450500D01*
X112772472Y-96450500D01*
X112772475Y-96450500D01*
X112912485Y-96412984D01*
X113038015Y-96340509D01*
X113091705Y-96286819D01*
X113153028Y-96253334D01*
X113179386Y-96250500D01*
X114211142Y-96250500D01*
X114211144Y-96250500D01*
X114300288Y-96226614D01*
X114310912Y-96220480D01*
X114380212Y-96180470D01*
X115008863Y-95551819D01*
X115070186Y-95518334D01*
X115096544Y-95515500D01*
X115103456Y-95515500D01*
X115170495Y-95535185D01*
X115191137Y-95551819D01*
X117013181Y-97373863D01*
X117046666Y-97435186D01*
X117049500Y-97461544D01*
X117049500Y-97537475D01*
X117081651Y-97657461D01*
X117087017Y-97677488D01*
X117159488Y-97803011D01*
X117159490Y-97803013D01*
X117159491Y-97803015D01*
X117261985Y-97905509D01*
X117261986Y-97905510D01*
X117261988Y-97905511D01*
X117387511Y-97977982D01*
X117387512Y-97977982D01*
X117387515Y-97977984D01*
X117527525Y-98015500D01*
X117527528Y-98015500D01*
X117672472Y-98015500D01*
X117672475Y-98015500D01*
X117812485Y-97977984D01*
X117813495Y-97977400D01*
X117814457Y-97977167D01*
X117819999Y-97974872D01*
X117820356Y-97975735D01*
X117881393Y-97960925D01*
X117947421Y-97983774D01*
X117990615Y-98038692D01*
X117999500Y-98084785D01*
X117999500Y-102146143D01*
X118023386Y-102235287D01*
X118023387Y-102235290D01*
X118069527Y-102315208D01*
X118069529Y-102315211D01*
X118069530Y-102315212D01*
X120834788Y-105080470D01*
X120914712Y-105126614D01*
X121003856Y-105150500D01*
X121003857Y-105150500D01*
X121096144Y-105150500D01*
X129953456Y-105150500D01*
X130020495Y-105170185D01*
X130041137Y-105186819D01*
X131702462Y-106848144D01*
X131735947Y-106909467D01*
X131730963Y-106979159D01*
X131689091Y-107035092D01*
X131676782Y-107043212D01*
X131561985Y-107109491D01*
X131561982Y-107109493D01*
X131459493Y-107211982D01*
X131459488Y-107211988D01*
X131387017Y-107337511D01*
X131387016Y-107337515D01*
X131349500Y-107477525D01*
X131349500Y-107622475D01*
X131381666Y-107742517D01*
X131387017Y-107762488D01*
X131459488Y-107888011D01*
X131459490Y-107888013D01*
X131459491Y-107888015D01*
X131561985Y-107990509D01*
X131561986Y-107990510D01*
X131561988Y-107990511D01*
X131687510Y-108062982D01*
X131687512Y-108062982D01*
X131687515Y-108062984D01*
X131697535Y-108065668D01*
X131757194Y-108102031D01*
X131787725Y-108164877D01*
X131779432Y-108234253D01*
X131734948Y-108288132D01*
X131727443Y-108292829D01*
X131611991Y-108359487D01*
X131611982Y-108359493D01*
X131509493Y-108461982D01*
X131509488Y-108461988D01*
X131437017Y-108587511D01*
X131437016Y-108587515D01*
X131399500Y-108727525D01*
X131399500Y-108872475D01*
X131433537Y-108999500D01*
X131437017Y-109012488D01*
X131509488Y-109138011D01*
X131509490Y-109138013D01*
X131509491Y-109138015D01*
X131611985Y-109240509D01*
X131611986Y-109240510D01*
X131611988Y-109240511D01*
X131737511Y-109312982D01*
X131737512Y-109312982D01*
X131737515Y-109312984D01*
X131877525Y-109350500D01*
X131877528Y-109350500D01*
X132022472Y-109350500D01*
X132022475Y-109350500D01*
X132162485Y-109312984D01*
X132288015Y-109240509D01*
X132390509Y-109138015D01*
X132462984Y-109012485D01*
X132500500Y-108872475D01*
X132500500Y-108796544D01*
X132520185Y-108729505D01*
X132536819Y-108708863D01*
X132783700Y-108461982D01*
X133130470Y-108115212D01*
X133176614Y-108035288D01*
X133188612Y-107990509D01*
X133200500Y-107946144D01*
X133200500Y-105703856D01*
X133176614Y-105614712D01*
X133130470Y-105534788D01*
X130815212Y-103219530D01*
X130815211Y-103219529D01*
X130815208Y-103219527D01*
X130735290Y-103173387D01*
X130735289Y-103173386D01*
X130735288Y-103173386D01*
X130646144Y-103149500D01*
X130646143Y-103149500D01*
X122691495Y-103149500D01*
X122624456Y-103129815D01*
X122584108Y-103087500D01*
X122572628Y-103067617D01*
X122540509Y-103011985D01*
X122438015Y-102909491D01*
X122438013Y-102909490D01*
X122438011Y-102909488D01*
X122312488Y-102837017D01*
X122312489Y-102837017D01*
X122301006Y-102833940D01*
X122172475Y-102799500D01*
X122027525Y-102799500D01*
X121898993Y-102833940D01*
X121887511Y-102837017D01*
X121761988Y-102909488D01*
X121761982Y-102909493D01*
X121659493Y-103011982D01*
X121659488Y-103011988D01*
X121587017Y-103137511D01*
X121587016Y-103137515D01*
X121549500Y-103277525D01*
X121549500Y-103422475D01*
X121587016Y-103562485D01*
X121587017Y-103562488D01*
X121659488Y-103688011D01*
X121659490Y-103688013D01*
X121659491Y-103688015D01*
X121761985Y-103790509D01*
X121761986Y-103790510D01*
X121761988Y-103790511D01*
X121887511Y-103862982D01*
X121887512Y-103862982D01*
X121887515Y-103862984D01*
X122027525Y-103900500D01*
X122027528Y-103900500D01*
X122172472Y-103900500D01*
X122172475Y-103900500D01*
X122312485Y-103862984D01*
X122312488Y-103862981D01*
X122319838Y-103859938D01*
X122367289Y-103850500D01*
X130403456Y-103850500D01*
X130470495Y-103870185D01*
X130491137Y-103886819D01*
X132463181Y-105858863D01*
X132496666Y-105920186D01*
X132499500Y-105946544D01*
X132499500Y-106354456D01*
X132479815Y-106421495D01*
X132427011Y-106467250D01*
X132357853Y-106477194D01*
X132294297Y-106448169D01*
X132287819Y-106442137D01*
X130365213Y-104519531D01*
X130365208Y-104519527D01*
X130285290Y-104473387D01*
X130285289Y-104473386D01*
X130285288Y-104473386D01*
X130196144Y-104449500D01*
X130196143Y-104449500D01*
X121246544Y-104449500D01*
X121179505Y-104429815D01*
X121158863Y-104413181D01*
X118736819Y-101991137D01*
X118703334Y-101929814D01*
X118700500Y-101903456D01*
X118700500Y-97724500D01*
X118720185Y-97657461D01*
X118772989Y-97611706D01*
X118824500Y-97600500D01*
X118872472Y-97600500D01*
X118872475Y-97600500D01*
X119012485Y-97562984D01*
X119138015Y-97490509D01*
X119240509Y-97388015D01*
X119312984Y-97262485D01*
X119350500Y-97122475D01*
X119350500Y-96977525D01*
X119312984Y-96837515D01*
X119253238Y-96734033D01*
X119240511Y-96711988D01*
X119240506Y-96711982D01*
X119138017Y-96609493D01*
X119138011Y-96609488D01*
X119012488Y-96537017D01*
X119012489Y-96537017D01*
X119001006Y-96533940D01*
X118872475Y-96499500D01*
X118727525Y-96499500D01*
X118598993Y-96533940D01*
X118587511Y-96537017D01*
X118461988Y-96609488D01*
X118461982Y-96609493D01*
X118359493Y-96711982D01*
X118359488Y-96711988D01*
X118287017Y-96837511D01*
X118287016Y-96837515D01*
X118249500Y-96977525D01*
X118249500Y-96977527D01*
X118249500Y-97036614D01*
X118229815Y-97103653D01*
X118177011Y-97149408D01*
X118107853Y-97159352D01*
X118044297Y-97130327D01*
X118037819Y-97124295D01*
X117938017Y-97024493D01*
X117938011Y-97024488D01*
X117812488Y-96952017D01*
X117812489Y-96952017D01*
X117787518Y-96945326D01*
X117672475Y-96914500D01*
X117672472Y-96914500D01*
X117596544Y-96914500D01*
X117529505Y-96894815D01*
X117508863Y-96878181D01*
X115686819Y-95056137D01*
X115653334Y-94994814D01*
X115650500Y-94968456D01*
X115650500Y-94892527D01*
X115650500Y-94892525D01*
X115612984Y-94752515D01*
X115602089Y-94733645D01*
X115540511Y-94626988D01*
X115540506Y-94626982D01*
X115438017Y-94524493D01*
X115438011Y-94524488D01*
X115312488Y-94452017D01*
X115312489Y-94452017D01*
X115296728Y-94447794D01*
X115172475Y-94414500D01*
X115027525Y-94414500D01*
X115027523Y-94414500D01*
X115021900Y-94416007D01*
X114952050Y-94414342D01*
X114894189Y-94375177D01*
X114866687Y-94310948D01*
X114878276Y-94242046D01*
X114902127Y-94208553D01*
X115858862Y-93251819D01*
X115920185Y-93218334D01*
X115946543Y-93215500D01*
X116022472Y-93215500D01*
X116022475Y-93215500D01*
X116162485Y-93177984D01*
X116288015Y-93105509D01*
X116390509Y-93003015D01*
X116462984Y-92877485D01*
X116500500Y-92737475D01*
X116500500Y-92592525D01*
X116462984Y-92452515D01*
X116390509Y-92326985D01*
X116288015Y-92224491D01*
X116288013Y-92224490D01*
X116288011Y-92224488D01*
X116162488Y-92152017D01*
X116162489Y-92152017D01*
X116151006Y-92148940D01*
X116022475Y-92114500D01*
X115980544Y-92114500D01*
X115913505Y-92094815D01*
X115867750Y-92042011D01*
X115857806Y-91972853D01*
X115886831Y-91909297D01*
X115892863Y-91902819D01*
X116888132Y-90907550D01*
X118079469Y-89716213D01*
X118125614Y-89636288D01*
X118130058Y-89619702D01*
X118136129Y-89597048D01*
X118146672Y-89557697D01*
X118149500Y-89547144D01*
X118149500Y-88029386D01*
X118169185Y-87962347D01*
X118185819Y-87941705D01*
X118239509Y-87888015D01*
X118311984Y-87762485D01*
X118349500Y-87622475D01*
X118349500Y-87477525D01*
X118311984Y-87337515D01*
X118261168Y-87249500D01*
X118239511Y-87211988D01*
X118239506Y-87211982D01*
X118137017Y-87109493D01*
X118137011Y-87109488D01*
X118004447Y-87032952D01*
X118005842Y-87030535D01*
X117962018Y-86995218D01*
X117939955Y-86928924D01*
X117957235Y-86861225D01*
X118008374Y-86813615D01*
X118063876Y-86800500D01*
X120541324Y-86800500D01*
X120608363Y-86820185D01*
X120629005Y-86836819D01*
X122363181Y-88570995D01*
X122396666Y-88632318D01*
X122399500Y-88658676D01*
X122399500Y-97315891D01*
X122433608Y-97443187D01*
X122444207Y-97461544D01*
X122499500Y-97557314D01*
X122499502Y-97557316D01*
X122607089Y-97664903D01*
X122633965Y-97705121D01*
X122637015Y-97712482D01*
X122637016Y-97712485D01*
X122709491Y-97838015D01*
X122811985Y-97940509D01*
X122811986Y-97940510D01*
X122811988Y-97940511D01*
X122937511Y-98012982D01*
X122937512Y-98012982D01*
X122937515Y-98012984D01*
X123000000Y-98029726D01*
X123000000Y-100700000D01*
X125800000Y-100700000D01*
X125800000Y-100644620D01*
X125814488Y-100669714D01*
X125814490Y-100669716D01*
X125814491Y-100669718D01*
X125916985Y-100772212D01*
X125916986Y-100772213D01*
X125916988Y-100772214D01*
X126042511Y-100844685D01*
X126042512Y-100844685D01*
X126042515Y-100844687D01*
X126182525Y-100882203D01*
X126182528Y-100882203D01*
X126327472Y-100882203D01*
X126327475Y-100882203D01*
X126467485Y-100844687D01*
X126593015Y-100772212D01*
X126695509Y-100669718D01*
X126767984Y-100544188D01*
X126778986Y-100503125D01*
X126791374Y-100473220D01*
X126816392Y-100429889D01*
X126831157Y-100374785D01*
X126850500Y-100302596D01*
X126850500Y-100170811D01*
X126850500Y-97767288D01*
X126859941Y-97719831D01*
X126862982Y-97712488D01*
X126862981Y-97712488D01*
X126862984Y-97712485D01*
X126900500Y-97572475D01*
X126900500Y-97427525D01*
X126862984Y-97287515D01*
X126839329Y-97246544D01*
X126790511Y-97161988D01*
X126790506Y-97161982D01*
X126688017Y-97059493D01*
X126688011Y-97059488D01*
X126562488Y-96987017D01*
X126562489Y-96987017D01*
X126551006Y-96983940D01*
X126422475Y-96949500D01*
X126277525Y-96949500D01*
X126193519Y-96972009D01*
X126137513Y-96987016D01*
X126130162Y-96990062D01*
X126082711Y-96999500D01*
X123524500Y-96999500D01*
X123457461Y-96979815D01*
X123411706Y-96927011D01*
X123400500Y-96875500D01*
X123400500Y-88644073D01*
X123420185Y-88577034D01*
X123472989Y-88531279D01*
X123542147Y-88521335D01*
X123605703Y-88550360D01*
X123612181Y-88556392D01*
X132213181Y-97157392D01*
X132246666Y-97218715D01*
X132249500Y-97245073D01*
X132249500Y-100146144D01*
X132264622Y-100202578D01*
X132273386Y-100235287D01*
X132273387Y-100235290D01*
X132319527Y-100315208D01*
X132319531Y-100315213D01*
X141913181Y-109908863D01*
X141946666Y-109970186D01*
X141949500Y-109996544D01*
X141949500Y-111053469D01*
X141989868Y-111256412D01*
X141989870Y-111256420D01*
X142069058Y-111447596D01*
X142184024Y-111619657D01*
X142330342Y-111765975D01*
X142330345Y-111765977D01*
X142502402Y-111880941D01*
X142693580Y-111960130D01*
X142896530Y-112000499D01*
X142896534Y-112000500D01*
X142896535Y-112000500D01*
X143103466Y-112000500D01*
X143103467Y-112000499D01*
X143306420Y-111960130D01*
X143497598Y-111880941D01*
X143669655Y-111765977D01*
X143815977Y-111619655D01*
X143930941Y-111447598D01*
X144010130Y-111256420D01*
X144050500Y-111053465D01*
X144050500Y-109946535D01*
X144044472Y-109916232D01*
X144044471Y-109916228D01*
X144649500Y-109916228D01*
X144649500Y-111083771D01*
X144682182Y-111248074D01*
X144682184Y-111248082D01*
X144746295Y-111402860D01*
X144839373Y-111542162D01*
X144957837Y-111660626D01*
X145050494Y-111722537D01*
X145097137Y-111753703D01*
X145251918Y-111817816D01*
X145416228Y-111850499D01*
X145416232Y-111850500D01*
X145416233Y-111850500D01*
X145583768Y-111850500D01*
X145583769Y-111850499D01*
X145748082Y-111817816D01*
X145902863Y-111753703D01*
X146042162Y-111660626D01*
X146160626Y-111542162D01*
X146253703Y-111402863D01*
X146317816Y-111248082D01*
X146350500Y-111083767D01*
X146350500Y-109916233D01*
X146317816Y-109751918D01*
X146253703Y-109597137D01*
X146175663Y-109480342D01*
X146160626Y-109457837D01*
X146042162Y-109339373D01*
X145902860Y-109246295D01*
X145748082Y-109182184D01*
X145748074Y-109182182D01*
X145583771Y-109149500D01*
X145583767Y-109149500D01*
X145416233Y-109149500D01*
X145416228Y-109149500D01*
X145251925Y-109182182D01*
X145251917Y-109182184D01*
X145097139Y-109246295D01*
X144957837Y-109339373D01*
X144839373Y-109457837D01*
X144746295Y-109597139D01*
X144682184Y-109751917D01*
X144682182Y-109751925D01*
X144649500Y-109916228D01*
X144044471Y-109916228D01*
X144031266Y-109849840D01*
X144010130Y-109743580D01*
X143930941Y-109552402D01*
X143815977Y-109380345D01*
X143815975Y-109380342D01*
X143669657Y-109234024D01*
X143525962Y-109138011D01*
X143497598Y-109119059D01*
X143306420Y-109039870D01*
X143306412Y-109039868D01*
X143103469Y-108999500D01*
X143103465Y-108999500D01*
X142896535Y-108999500D01*
X142896530Y-108999500D01*
X142693587Y-109039868D01*
X142693579Y-109039870D01*
X142502403Y-109119058D01*
X142354628Y-109217797D01*
X142287950Y-109238674D01*
X142220570Y-109220189D01*
X142198057Y-109202375D01*
X132986819Y-99991137D01*
X132972115Y-99964209D01*
X132955523Y-99938391D01*
X132954631Y-99932190D01*
X132953334Y-99929814D01*
X132950500Y-99903456D01*
X132950500Y-99874038D01*
X135899500Y-99874038D01*
X135899500Y-100125962D01*
X135929475Y-100315213D01*
X135938910Y-100374785D01*
X135938909Y-100374785D01*
X136016760Y-100614383D01*
X136131132Y-100838848D01*
X136279201Y-101042649D01*
X136279205Y-101042654D01*
X136457345Y-101220794D01*
X136457350Y-101220798D01*
X136635117Y-101349952D01*
X136661155Y-101368870D01*
X136804184Y-101441747D01*
X136885616Y-101483239D01*
X136885618Y-101483239D01*
X136885621Y-101483241D01*
X137125215Y-101561090D01*
X137374038Y-101600500D01*
X137374039Y-101600500D01*
X137625961Y-101600500D01*
X137625962Y-101600500D01*
X137874785Y-101561090D01*
X138114379Y-101483241D01*
X138338845Y-101368870D01*
X138542656Y-101220793D01*
X138720793Y-101042656D01*
X138868870Y-100838845D01*
X138983241Y-100614379D01*
X139061090Y-100374785D01*
X139100500Y-100125962D01*
X139100500Y-99874038D01*
X139061090Y-99625215D01*
X138983241Y-99385621D01*
X138983239Y-99385618D01*
X138983239Y-99385616D01*
X138919510Y-99260542D01*
X138868870Y-99161155D01*
X138849952Y-99135117D01*
X138720798Y-98957350D01*
X138720794Y-98957345D01*
X138542654Y-98779205D01*
X138542649Y-98779201D01*
X138338848Y-98631132D01*
X138338847Y-98631131D01*
X138338845Y-98631130D01*
X138268747Y-98595413D01*
X138114383Y-98516760D01*
X137874785Y-98438910D01*
X137789607Y-98425419D01*
X137625962Y-98399500D01*
X137374038Y-98399500D01*
X137249626Y-98419205D01*
X137125214Y-98438910D01*
X136885616Y-98516760D01*
X136661151Y-98631132D01*
X136457350Y-98779201D01*
X136457345Y-98779205D01*
X136279205Y-98957345D01*
X136279201Y-98957350D01*
X136131132Y-99161151D01*
X136016760Y-99385616D01*
X135938910Y-99625214D01*
X135920134Y-99743759D01*
X135899500Y-99874038D01*
X132950500Y-99874038D01*
X132950500Y-97002388D01*
X132950500Y-97002386D01*
X132926614Y-96913242D01*
X132926613Y-96913240D01*
X132924832Y-96906593D01*
X132926495Y-96836744D01*
X132965657Y-96778881D01*
X133029886Y-96751377D01*
X133044607Y-96750500D01*
X144003456Y-96750500D01*
X144070495Y-96770185D01*
X144091137Y-96786819D01*
X144463181Y-97158863D01*
X144496666Y-97220186D01*
X144499500Y-97246544D01*
X144499500Y-98694678D01*
X144514032Y-98767735D01*
X144514033Y-98767739D01*
X144521696Y-98779207D01*
X144569399Y-98850601D01*
X144643331Y-98900000D01*
X144652260Y-98905966D01*
X144652264Y-98905967D01*
X144725321Y-98920499D01*
X144725324Y-98920500D01*
X144725326Y-98920500D01*
X146474676Y-98920500D01*
X146474677Y-98920499D01*
X146547740Y-98905966D01*
X146630601Y-98850601D01*
X146685966Y-98767740D01*
X146700500Y-98694674D01*
X146700500Y-96945326D01*
X146700500Y-96945323D01*
X146700499Y-96945321D01*
X146685967Y-96872264D01*
X146685966Y-96872260D01*
X146630601Y-96789399D01*
X146547740Y-96734034D01*
X146547739Y-96734033D01*
X146547735Y-96734032D01*
X146474677Y-96719500D01*
X146474674Y-96719500D01*
X145066544Y-96719500D01*
X144999505Y-96699815D01*
X144978863Y-96683181D01*
X144508362Y-96212680D01*
X144474877Y-96151357D01*
X144479861Y-96081665D01*
X144508359Y-96037322D01*
X144568786Y-95976895D01*
X144630106Y-95943412D01*
X144699798Y-95948396D01*
X144755731Y-95990268D01*
X144756779Y-95991689D01*
X144760132Y-95996304D01*
X144760586Y-95996928D01*
X144883072Y-96119414D01*
X145023212Y-96221232D01*
X145177555Y-96299873D01*
X145342299Y-96353402D01*
X145513389Y-96380500D01*
X145513390Y-96380500D01*
X145686610Y-96380500D01*
X145686611Y-96380500D01*
X145857701Y-96353402D01*
X146022445Y-96299873D01*
X146176788Y-96221232D01*
X146316928Y-96119414D01*
X146439414Y-95996928D01*
X146541232Y-95856788D01*
X146619873Y-95702445D01*
X146673402Y-95537701D01*
X146700500Y-95366611D01*
X146700500Y-95193389D01*
X146673402Y-95022299D01*
X146619873Y-94857555D01*
X146541232Y-94703212D01*
X146439414Y-94563072D01*
X146316928Y-94440586D01*
X146176788Y-94338768D01*
X146022445Y-94260127D01*
X145857701Y-94206598D01*
X145857699Y-94206597D01*
X145857698Y-94206597D01*
X145726271Y-94185781D01*
X145686611Y-94179500D01*
X145513389Y-94179500D01*
X145473728Y-94185781D01*
X145342302Y-94206597D01*
X145177552Y-94260128D01*
X145023211Y-94338768D01*
X144973099Y-94375177D01*
X144883072Y-94440586D01*
X144883070Y-94440588D01*
X144883069Y-94440588D01*
X144760588Y-94563069D01*
X144760588Y-94563070D01*
X144760586Y-94563072D01*
X144739030Y-94592741D01*
X144658768Y-94703211D01*
X144580128Y-94857550D01*
X144533188Y-95002016D01*
X144502938Y-95051378D01*
X144091137Y-95463181D01*
X144029814Y-95496666D01*
X144003456Y-95499500D01*
X133146544Y-95499500D01*
X133079505Y-95479815D01*
X133058863Y-95463181D01*
X126901003Y-89305321D01*
X136899500Y-89305321D01*
X136899500Y-91054678D01*
X136914032Y-91127735D01*
X136914033Y-91127739D01*
X136914034Y-91127740D01*
X136969399Y-91210601D01*
X137009524Y-91237411D01*
X137052260Y-91265966D01*
X137052264Y-91265967D01*
X137125321Y-91280499D01*
X137125324Y-91280500D01*
X137125326Y-91280500D01*
X138874676Y-91280500D01*
X138874677Y-91280499D01*
X138947740Y-91265966D01*
X139030601Y-91210601D01*
X139085966Y-91127740D01*
X139100500Y-91054674D01*
X139100500Y-90093753D01*
X144250000Y-90093753D01*
X144250000Y-90306246D01*
X144283242Y-90516127D01*
X144283242Y-90516130D01*
X144348904Y-90718217D01*
X144445375Y-90907550D01*
X144484728Y-90961716D01*
X145117037Y-90329408D01*
X145134075Y-90392993D01*
X145199901Y-90507007D01*
X145292993Y-90600099D01*
X145407007Y-90665925D01*
X145470590Y-90682962D01*
X144838282Y-91315269D01*
X144838282Y-91315270D01*
X144892449Y-91354624D01*
X145081784Y-91451096D01*
X145180711Y-91483239D01*
X145238387Y-91522676D01*
X145265586Y-91587034D01*
X145253672Y-91655881D01*
X145206428Y-91707357D01*
X145180722Y-91719097D01*
X145179522Y-91719487D01*
X145177550Y-91720128D01*
X145023211Y-91798768D01*
X144943256Y-91856859D01*
X144883072Y-91900586D01*
X144883070Y-91900588D01*
X144883069Y-91900588D01*
X144760588Y-92023069D01*
X144760588Y-92023070D01*
X144760586Y-92023072D01*
X144746826Y-92042011D01*
X144658768Y-92163211D01*
X144580128Y-92317552D01*
X144526597Y-92482302D01*
X144499500Y-92653389D01*
X144499500Y-92826610D01*
X144519043Y-92950004D01*
X144526598Y-92997701D01*
X144580127Y-93162445D01*
X144658768Y-93316788D01*
X144760586Y-93456928D01*
X144883072Y-93579414D01*
X145023212Y-93681232D01*
X145177555Y-93759873D01*
X145342299Y-93813402D01*
X145513389Y-93840500D01*
X145513390Y-93840500D01*
X145686610Y-93840500D01*
X145686611Y-93840500D01*
X145857701Y-93813402D01*
X146022445Y-93759873D01*
X146176788Y-93681232D01*
X146316928Y-93579414D01*
X146439414Y-93456928D01*
X146541232Y-93316788D01*
X146619873Y-93162445D01*
X146673402Y-92997701D01*
X146700500Y-92826611D01*
X146700500Y-92653389D01*
X146673402Y-92482299D01*
X146619873Y-92317555D01*
X146541232Y-92163212D01*
X146439414Y-92023072D01*
X146316928Y-91900586D01*
X146176788Y-91798768D01*
X146022446Y-91720127D01*
X146019284Y-91719100D01*
X146018236Y-91718383D01*
X146017952Y-91718266D01*
X146017976Y-91718206D01*
X145961609Y-91679661D01*
X145934413Y-91615302D01*
X145946329Y-91546456D01*
X145993574Y-91494981D01*
X146019288Y-91483239D01*
X146118215Y-91451096D01*
X146307554Y-91354622D01*
X146361716Y-91315270D01*
X146361717Y-91315270D01*
X145729408Y-90682962D01*
X145792993Y-90665925D01*
X145907007Y-90600099D01*
X146000099Y-90507007D01*
X146065925Y-90392993D01*
X146082962Y-90329408D01*
X146715270Y-90961717D01*
X146715270Y-90961716D01*
X146754622Y-90907554D01*
X146851095Y-90718217D01*
X146916757Y-90516130D01*
X146916757Y-90516127D01*
X146950000Y-90306246D01*
X146950000Y-90093753D01*
X146916757Y-89883872D01*
X146916757Y-89883869D01*
X146851095Y-89681782D01*
X146754624Y-89492449D01*
X146715270Y-89438282D01*
X146715269Y-89438282D01*
X146082962Y-90070590D01*
X146065925Y-90007007D01*
X146000099Y-89892993D01*
X145907007Y-89799901D01*
X145792993Y-89734075D01*
X145729409Y-89717037D01*
X146361716Y-89084728D01*
X146307550Y-89045375D01*
X146118217Y-88948904D01*
X145916129Y-88883242D01*
X145706246Y-88850000D01*
X145493754Y-88850000D01*
X145283872Y-88883242D01*
X145283869Y-88883242D01*
X145081782Y-88948904D01*
X144892439Y-89045380D01*
X144838282Y-89084727D01*
X144838282Y-89084728D01*
X145470591Y-89717037D01*
X145407007Y-89734075D01*
X145292993Y-89799901D01*
X145199901Y-89892993D01*
X145134075Y-90007007D01*
X145117037Y-90070591D01*
X144484728Y-89438282D01*
X144484727Y-89438282D01*
X144445380Y-89492439D01*
X144348904Y-89681782D01*
X144283242Y-89883869D01*
X144283242Y-89883872D01*
X144250000Y-90093753D01*
X139100500Y-90093753D01*
X139100500Y-89305326D01*
X139100500Y-89305323D01*
X139100499Y-89305321D01*
X139085967Y-89232264D01*
X139085966Y-89232262D01*
X139085966Y-89232260D01*
X139030601Y-89149399D01*
X138947740Y-89094034D01*
X138947739Y-89094033D01*
X138947735Y-89094032D01*
X138874677Y-89079500D01*
X138874674Y-89079500D01*
X137125326Y-89079500D01*
X137125323Y-89079500D01*
X137052264Y-89094032D01*
X137052260Y-89094033D01*
X136969399Y-89149399D01*
X136914033Y-89232260D01*
X136914032Y-89232264D01*
X136899500Y-89305321D01*
X126901003Y-89305321D01*
X123923207Y-86327525D01*
X136449500Y-86327525D01*
X136449500Y-86472475D01*
X136483805Y-86600500D01*
X136487017Y-86612488D01*
X136559488Y-86738011D01*
X136559490Y-86738013D01*
X136559491Y-86738015D01*
X136661985Y-86840509D01*
X136661986Y-86840510D01*
X136661988Y-86840511D01*
X136787511Y-86912982D01*
X136787512Y-86912982D01*
X136787515Y-86912984D01*
X136927525Y-86950500D01*
X136927529Y-86950500D01*
X136930382Y-86950876D01*
X136932611Y-86951862D01*
X136935376Y-86952603D01*
X136935260Y-86953034D01*
X136994279Y-86979142D01*
X137032750Y-87037467D01*
X137033581Y-87107332D01*
X137024682Y-87130110D01*
X136980128Y-87217552D01*
X136926597Y-87382302D01*
X136911515Y-87477527D01*
X136899500Y-87553389D01*
X136899500Y-87726611D01*
X136926598Y-87897701D01*
X136980127Y-88062445D01*
X137058768Y-88216788D01*
X137160586Y-88356928D01*
X137283072Y-88479414D01*
X137423212Y-88581232D01*
X137577555Y-88659873D01*
X137742299Y-88713402D01*
X137913389Y-88740500D01*
X137913390Y-88740500D01*
X138086610Y-88740500D01*
X138086611Y-88740500D01*
X138257701Y-88713402D01*
X138422445Y-88659873D01*
X138576788Y-88581232D01*
X138716928Y-88479414D01*
X138839414Y-88356928D01*
X138941232Y-88216788D01*
X139019873Y-88062445D01*
X139073402Y-87897701D01*
X139100500Y-87726611D01*
X139100500Y-87553389D01*
X139073402Y-87382299D01*
X139019873Y-87217555D01*
X138941232Y-87063212D01*
X138857078Y-86947385D01*
X138833599Y-86881579D01*
X138849424Y-86813525D01*
X138899530Y-86764830D01*
X138957397Y-86750500D01*
X139646142Y-86750500D01*
X139646144Y-86750500D01*
X139735288Y-86726614D01*
X139745912Y-86720480D01*
X139815212Y-86680470D01*
X142530470Y-83965212D01*
X142576614Y-83885288D01*
X142585935Y-83850500D01*
X142600500Y-83796144D01*
X142600500Y-81685321D01*
X144499500Y-81685321D01*
X144499500Y-83434678D01*
X144514032Y-83507735D01*
X144514033Y-83507739D01*
X144514034Y-83507740D01*
X144569399Y-83590601D01*
X144645033Y-83641137D01*
X144652260Y-83645966D01*
X144652264Y-83645967D01*
X144725321Y-83660499D01*
X144725324Y-83660500D01*
X144725326Y-83660500D01*
X146474676Y-83660500D01*
X146474677Y-83660499D01*
X146547740Y-83645966D01*
X146630601Y-83590601D01*
X146685966Y-83507740D01*
X146700500Y-83434674D01*
X146700500Y-81685326D01*
X146700500Y-81685323D01*
X146700499Y-81685321D01*
X146685967Y-81612264D01*
X146685966Y-81612260D01*
X146669432Y-81587515D01*
X146630601Y-81529399D01*
X146547740Y-81474034D01*
X146547739Y-81474033D01*
X146547735Y-81474032D01*
X146474677Y-81459500D01*
X146474674Y-81459500D01*
X144725326Y-81459500D01*
X144725323Y-81459500D01*
X144652264Y-81474032D01*
X144652260Y-81474033D01*
X144569399Y-81529399D01*
X144514033Y-81612260D01*
X144514032Y-81612264D01*
X144499500Y-81685321D01*
X142600500Y-81685321D01*
X142600500Y-81026542D01*
X142620185Y-80959503D01*
X142636814Y-80938866D01*
X143642291Y-79933389D01*
X144499500Y-79933389D01*
X144499500Y-80106610D01*
X144523289Y-80256812D01*
X144526598Y-80277701D01*
X144580127Y-80442445D01*
X144658768Y-80596788D01*
X144760586Y-80736928D01*
X144883072Y-80859414D01*
X145023212Y-80961232D01*
X145177555Y-81039873D01*
X145342299Y-81093402D01*
X145513389Y-81120500D01*
X145513390Y-81120500D01*
X145686610Y-81120500D01*
X145686611Y-81120500D01*
X145857701Y-81093402D01*
X146022445Y-81039873D01*
X146176788Y-80961232D01*
X146316928Y-80859414D01*
X146439414Y-80736928D01*
X146541232Y-80596788D01*
X146619873Y-80442445D01*
X146673402Y-80277701D01*
X146700500Y-80106611D01*
X146700500Y-79933389D01*
X146673402Y-79762299D01*
X146619873Y-79597555D01*
X146541232Y-79443212D01*
X146439414Y-79303072D01*
X146316928Y-79180586D01*
X146176788Y-79078768D01*
X146022445Y-79000127D01*
X145857701Y-78946598D01*
X145857699Y-78946597D01*
X145857698Y-78946597D01*
X145726271Y-78925781D01*
X145686611Y-78919500D01*
X145513389Y-78919500D01*
X145473728Y-78925781D01*
X145342302Y-78946597D01*
X145342299Y-78946598D01*
X145182923Y-78998383D01*
X145177552Y-79000128D01*
X145023211Y-79078768D01*
X144952952Y-79129815D01*
X144883072Y-79180586D01*
X144883070Y-79180588D01*
X144883069Y-79180588D01*
X144760588Y-79303069D01*
X144760588Y-79303070D01*
X144760586Y-79303072D01*
X144716859Y-79363256D01*
X144658768Y-79443211D01*
X144580128Y-79597552D01*
X144526597Y-79762302D01*
X144499500Y-79933389D01*
X143642291Y-79933389D01*
X145047030Y-78528649D01*
X145108351Y-78495166D01*
X145173028Y-78498401D01*
X145177549Y-78499869D01*
X145177555Y-78499873D01*
X145342299Y-78553402D01*
X145513389Y-78580500D01*
X145513390Y-78580500D01*
X145686610Y-78580500D01*
X145686611Y-78580500D01*
X145857701Y-78553402D01*
X146022445Y-78499873D01*
X146176788Y-78421232D01*
X146316928Y-78319414D01*
X146439414Y-78196928D01*
X146541232Y-78056788D01*
X146619873Y-77902445D01*
X146673402Y-77737701D01*
X146700500Y-77566611D01*
X146700500Y-77393389D01*
X146673402Y-77222299D01*
X146619873Y-77057555D01*
X146541232Y-76903212D01*
X146439414Y-76763072D01*
X146316928Y-76640586D01*
X146176788Y-76538768D01*
X146048471Y-76473388D01*
X146022447Y-76460128D01*
X146022446Y-76460127D01*
X146022445Y-76460127D01*
X145857701Y-76406598D01*
X145857699Y-76406597D01*
X145857698Y-76406597D01*
X145726271Y-76385781D01*
X145686611Y-76379500D01*
X145513389Y-76379500D01*
X145473728Y-76385781D01*
X145342302Y-76406597D01*
X145177552Y-76460128D01*
X145023211Y-76538768D01*
X144943256Y-76596859D01*
X144883072Y-76640586D01*
X144883070Y-76640588D01*
X144883069Y-76640588D01*
X144760588Y-76763069D01*
X144760588Y-76763070D01*
X144760586Y-76763072D01*
X144716859Y-76823256D01*
X144658768Y-76903211D01*
X144580128Y-77057552D01*
X144526597Y-77222302D01*
X144502610Y-77373753D01*
X144499500Y-77393389D01*
X144499500Y-77566611D01*
X144505781Y-77606271D01*
X144526597Y-77737698D01*
X144581597Y-77906971D01*
X144583592Y-77976812D01*
X144551347Y-78032970D01*
X141969531Y-80614786D01*
X141969527Y-80614791D01*
X141951428Y-80646142D01*
X141951426Y-80646145D01*
X141923388Y-80694706D01*
X141923387Y-80694709D01*
X141923386Y-80694711D01*
X141923386Y-80694712D01*
X141917893Y-80715212D01*
X141899500Y-80783856D01*
X141899500Y-83553456D01*
X141879815Y-83620495D01*
X141863181Y-83641137D01*
X139491137Y-86013181D01*
X139429814Y-86046666D01*
X139403456Y-86049500D01*
X138906204Y-86049500D01*
X138839165Y-86029815D01*
X138793410Y-85977011D01*
X138783466Y-85907853D01*
X138812491Y-85844297D01*
X138818523Y-85837819D01*
X138826183Y-85830159D01*
X138839414Y-85816928D01*
X138941232Y-85676788D01*
X139019873Y-85522445D01*
X139073402Y-85357701D01*
X139100500Y-85186611D01*
X139100500Y-85013389D01*
X139073402Y-84842299D01*
X139019873Y-84677555D01*
X138941232Y-84523212D01*
X138839414Y-84383072D01*
X138716928Y-84260586D01*
X138576788Y-84158768D01*
X138422445Y-84080127D01*
X138257701Y-84026598D01*
X138257699Y-84026597D01*
X138257698Y-84026597D01*
X138126271Y-84005781D01*
X138086611Y-83999500D01*
X137913389Y-83999500D01*
X137873728Y-84005781D01*
X137742302Y-84026597D01*
X137577552Y-84080128D01*
X137423211Y-84158768D01*
X137343256Y-84216859D01*
X137283072Y-84260586D01*
X137283070Y-84260588D01*
X137283069Y-84260588D01*
X137160588Y-84383069D01*
X137160588Y-84383070D01*
X137160586Y-84383072D01*
X137116939Y-84443147D01*
X137058768Y-84523211D01*
X136980128Y-84677552D01*
X136926597Y-84842302D01*
X136899500Y-85013389D01*
X136899500Y-85186611D01*
X136900001Y-85189774D01*
X136920539Y-85319450D01*
X136926598Y-85357701D01*
X136959351Y-85458505D01*
X136980129Y-85522450D01*
X137054904Y-85669206D01*
X137067800Y-85737875D01*
X137041523Y-85802615D01*
X136984417Y-85842872D01*
X136944419Y-85849500D01*
X136927525Y-85849500D01*
X136798993Y-85883940D01*
X136787511Y-85887017D01*
X136661988Y-85959488D01*
X136661982Y-85959493D01*
X136559493Y-86061982D01*
X136559488Y-86061988D01*
X136487017Y-86187511D01*
X136487016Y-86187515D01*
X136449500Y-86327525D01*
X123923207Y-86327525D01*
X121657863Y-84062181D01*
X121624378Y-84000858D01*
X121629362Y-83931166D01*
X121671234Y-83875233D01*
X121736698Y-83850816D01*
X121745544Y-83850500D01*
X121996142Y-83850500D01*
X121996144Y-83850500D01*
X122085288Y-83826614D01*
X122165212Y-83780470D01*
X122530470Y-83415212D01*
X122576614Y-83335288D01*
X122590145Y-83284788D01*
X122600500Y-83246144D01*
X122600500Y-83168640D01*
X122620185Y-83101601D01*
X122636819Y-83080959D01*
X122692306Y-83025472D01*
X122718113Y-82980772D01*
X122768680Y-82932557D01*
X122837287Y-82919334D01*
X122902152Y-82945302D01*
X122942680Y-83002217D01*
X122949500Y-83042773D01*
X122949500Y-84282710D01*
X122940063Y-84330159D01*
X122937016Y-84337513D01*
X122924810Y-84383069D01*
X122899500Y-84477525D01*
X122899500Y-84622475D01*
X122914259Y-84677555D01*
X122937017Y-84762488D01*
X123009488Y-84888011D01*
X123009490Y-84888013D01*
X123009491Y-84888015D01*
X123111985Y-84990509D01*
X123111986Y-84990510D01*
X123111988Y-84990511D01*
X123237511Y-85062982D01*
X123237512Y-85062982D01*
X123237515Y-85062984D01*
X123377525Y-85100500D01*
X123377528Y-85100500D01*
X123522472Y-85100500D01*
X123522475Y-85100500D01*
X123662485Y-85062984D01*
X123788015Y-84990509D01*
X123890509Y-84888015D01*
X123962984Y-84762485D01*
X124000500Y-84622475D01*
X124000500Y-84477525D01*
X123962984Y-84337515D01*
X123962983Y-84337513D01*
X123959937Y-84330159D01*
X123950500Y-84282710D01*
X123950500Y-80384110D01*
X123950500Y-80384108D01*
X123916392Y-80256814D01*
X123850500Y-80142686D01*
X123757314Y-80049500D01*
X121563564Y-77855750D01*
X121494267Y-77815741D01*
X121449437Y-77789858D01*
X121365061Y-77767250D01*
X121322142Y-77755750D01*
X121322141Y-77755750D01*
X121273539Y-77755750D01*
X121226088Y-77746312D01*
X121218736Y-77743266D01*
X121183732Y-77733887D01*
X121078725Y-77705750D01*
X120933775Y-77705750D01*
X120814549Y-77737697D01*
X120793761Y-77743267D01*
X120668238Y-77815738D01*
X120668232Y-77815743D01*
X120565743Y-77918232D01*
X120565738Y-77918238D01*
X120493267Y-78043761D01*
X120493266Y-78043765D01*
X120455750Y-78183775D01*
X120455750Y-78328725D01*
X120492407Y-78465529D01*
X120493267Y-78468738D01*
X120565738Y-78594261D01*
X120565740Y-78594263D01*
X120565741Y-78594265D01*
X120668235Y-78696759D01*
X120668236Y-78696760D01*
X120668238Y-78696761D01*
X120793761Y-78769232D01*
X120793762Y-78769232D01*
X120793765Y-78769234D01*
X120933775Y-78806750D01*
X120933778Y-78806750D01*
X121047574Y-78806750D01*
X121114613Y-78826435D01*
X121135255Y-78843069D01*
X122913181Y-80620995D01*
X122946666Y-80682318D01*
X122949500Y-80708676D01*
X122949500Y-82332140D01*
X122929815Y-82399179D01*
X122877011Y-82444934D01*
X122807853Y-82454878D01*
X122744297Y-82425853D01*
X122718113Y-82394141D01*
X122692306Y-82349442D01*
X122589812Y-82246948D01*
X122589810Y-82246947D01*
X122589808Y-82246945D01*
X122464285Y-82174474D01*
X122464286Y-82174474D01*
X122448279Y-82170185D01*
X122324272Y-82136957D01*
X122179322Y-82136957D01*
X122171195Y-82136957D01*
X122171195Y-82134017D01*
X122116089Y-82125407D01*
X122063847Y-82079012D01*
X122044981Y-82011737D01*
X122061586Y-81951248D01*
X122079521Y-81920185D01*
X122112984Y-81862225D01*
X122150500Y-81722215D01*
X122150500Y-81577265D01*
X122112984Y-81437255D01*
X122040509Y-81311725D01*
X121938015Y-81209231D01*
X121938013Y-81209230D01*
X121938011Y-81209228D01*
X121812488Y-81136757D01*
X121812489Y-81136757D01*
X121801006Y-81133680D01*
X121672475Y-81099240D01*
X121527525Y-81099240D01*
X121387515Y-81136756D01*
X121307613Y-81182887D01*
X121245614Y-81199500D01*
X120696544Y-81199500D01*
X120629505Y-81179815D01*
X120608863Y-81163181D01*
X119336819Y-79891137D01*
X119303334Y-79829814D01*
X119300500Y-79803456D01*
X119300500Y-77546487D01*
X119320185Y-77479448D01*
X119336819Y-77458806D01*
X119749081Y-77046544D01*
X120180470Y-76615155D01*
X120226614Y-76535231D01*
X120243185Y-76473386D01*
X120250500Y-76446087D01*
X120250500Y-75829386D01*
X120270185Y-75762347D01*
X120286819Y-75741705D01*
X120309491Y-75719033D01*
X120340509Y-75688015D01*
X120412984Y-75562485D01*
X120450500Y-75422475D01*
X120450500Y-75277525D01*
X120412984Y-75137515D01*
X120412982Y-75137512D01*
X120412982Y-75137510D01*
X120412981Y-75137507D01*
X120412397Y-75136496D01*
X120412163Y-75135534D01*
X120409872Y-75130001D01*
X120410734Y-75129643D01*
X120395927Y-75068595D01*
X120418781Y-75002569D01*
X120473704Y-74959381D01*
X120519786Y-74950500D01*
X121603456Y-74950500D01*
X121670495Y-74970185D01*
X121691137Y-74986819D01*
X124988181Y-78283863D01*
X125021666Y-78345186D01*
X125024500Y-78371544D01*
X125024500Y-78447475D01*
X125062016Y-78587485D01*
X125062017Y-78587488D01*
X125134488Y-78713011D01*
X125134490Y-78713013D01*
X125134491Y-78713015D01*
X125236985Y-78815509D01*
X125236986Y-78815510D01*
X125236988Y-78815511D01*
X125362511Y-78887982D01*
X125362512Y-78887982D01*
X125362515Y-78887984D01*
X125502525Y-78925500D01*
X125502528Y-78925500D01*
X125647472Y-78925500D01*
X125647475Y-78925500D01*
X125787485Y-78887984D01*
X125913015Y-78815509D01*
X126015509Y-78713015D01*
X126087984Y-78587485D01*
X126125500Y-78447475D01*
X126125500Y-78324500D01*
X126145185Y-78257461D01*
X126197989Y-78211706D01*
X126249500Y-78200500D01*
X126272472Y-78200500D01*
X126272475Y-78200500D01*
X126393410Y-78168095D01*
X126463255Y-78169758D01*
X126521118Y-78208920D01*
X126548623Y-78273148D01*
X126549500Y-78287870D01*
X126549500Y-80303456D01*
X126529815Y-80370495D01*
X126513181Y-80391137D01*
X124891137Y-82013181D01*
X124829814Y-82046666D01*
X124803456Y-82049500D01*
X124727525Y-82049500D01*
X124598993Y-82083940D01*
X124587511Y-82087017D01*
X124461988Y-82159488D01*
X124461982Y-82159493D01*
X124359493Y-82261982D01*
X124359488Y-82261988D01*
X124287017Y-82387511D01*
X124287016Y-82387515D01*
X124249500Y-82527525D01*
X124249500Y-82672475D01*
X124278262Y-82779815D01*
X124287017Y-82812488D01*
X124359488Y-82938011D01*
X124359490Y-82938013D01*
X124359491Y-82938015D01*
X124461985Y-83040509D01*
X124461986Y-83040510D01*
X124461988Y-83040511D01*
X124587511Y-83112982D01*
X124587512Y-83112982D01*
X124587515Y-83112984D01*
X124727525Y-83150500D01*
X124727528Y-83150500D01*
X124872472Y-83150500D01*
X124872475Y-83150500D01*
X125012485Y-83112984D01*
X125138015Y-83040509D01*
X125240509Y-82938015D01*
X125312984Y-82812485D01*
X125350500Y-82672475D01*
X125350500Y-82596544D01*
X125359144Y-82567103D01*
X125365668Y-82537117D01*
X125369422Y-82532101D01*
X125370185Y-82529505D01*
X125386819Y-82508863D01*
X125422293Y-82473389D01*
X136899500Y-82473389D01*
X136899500Y-82646611D01*
X136926598Y-82817701D01*
X136980127Y-82982445D01*
X137058768Y-83136788D01*
X137160586Y-83276928D01*
X137283072Y-83399414D01*
X137423212Y-83501232D01*
X137577555Y-83579873D01*
X137742299Y-83633402D01*
X137913389Y-83660500D01*
X137913390Y-83660500D01*
X138086610Y-83660500D01*
X138086611Y-83660500D01*
X138257701Y-83633402D01*
X138422445Y-83579873D01*
X138576788Y-83501232D01*
X138716928Y-83399414D01*
X138839414Y-83276928D01*
X138941232Y-83136788D01*
X139019873Y-82982445D01*
X139073402Y-82817701D01*
X139100500Y-82646611D01*
X139100500Y-82473389D01*
X139073402Y-82302299D01*
X139019873Y-82137555D01*
X138941232Y-81983212D01*
X138839414Y-81843072D01*
X138716928Y-81720586D01*
X138576788Y-81618768D01*
X138422445Y-81540127D01*
X138257701Y-81486598D01*
X138257699Y-81486597D01*
X138257698Y-81486597D01*
X138126271Y-81465781D01*
X138086611Y-81459500D01*
X137913389Y-81459500D01*
X137873728Y-81465781D01*
X137742302Y-81486597D01*
X137577552Y-81540128D01*
X137423211Y-81618768D01*
X137343256Y-81676859D01*
X137283072Y-81720586D01*
X137283070Y-81720588D01*
X137283069Y-81720588D01*
X137160588Y-81843069D01*
X137160588Y-81843070D01*
X137160586Y-81843072D01*
X137136216Y-81876614D01*
X137058768Y-81983211D01*
X136980128Y-82137552D01*
X136926597Y-82302302D01*
X136909009Y-82413350D01*
X136899500Y-82473389D01*
X125422293Y-82473389D01*
X125514846Y-82380836D01*
X126318417Y-81577265D01*
X127180469Y-80715213D01*
X127226614Y-80635288D01*
X127230444Y-80620995D01*
X127232108Y-80614786D01*
X127239243Y-80588153D01*
X127250500Y-80546144D01*
X127250500Y-77053856D01*
X127226614Y-76964712D01*
X127198035Y-76915212D01*
X127180470Y-76884788D01*
X125823207Y-75527525D01*
X130699500Y-75527525D01*
X130699500Y-75672475D01*
X130737016Y-75812485D01*
X130737017Y-75812488D01*
X130809488Y-75938011D01*
X130809490Y-75938013D01*
X130809491Y-75938015D01*
X130911985Y-76040509D01*
X130911986Y-76040510D01*
X130911988Y-76040511D01*
X131037511Y-76112982D01*
X131037512Y-76112982D01*
X131037515Y-76112984D01*
X131177525Y-76150500D01*
X131177528Y-76150500D01*
X131322470Y-76150500D01*
X131322475Y-76150500D01*
X131328091Y-76148995D01*
X131397935Y-76150653D01*
X131455800Y-76189812D01*
X131483309Y-76254038D01*
X131471727Y-76322941D01*
X131447869Y-76356449D01*
X131341135Y-76463182D01*
X131279815Y-76496666D01*
X131253456Y-76499500D01*
X131177525Y-76499500D01*
X131048993Y-76533940D01*
X131037511Y-76537017D01*
X130911988Y-76609488D01*
X130911982Y-76609493D01*
X130809493Y-76711982D01*
X130809488Y-76711988D01*
X130737017Y-76837511D01*
X130737016Y-76837515D01*
X130699500Y-76977525D01*
X130699500Y-77122475D01*
X130724199Y-77214652D01*
X130737017Y-77262488D01*
X130809488Y-77388011D01*
X130809490Y-77388013D01*
X130809491Y-77388015D01*
X130911985Y-77490509D01*
X130911986Y-77490510D01*
X130911988Y-77490511D01*
X131037511Y-77562982D01*
X131037512Y-77562982D01*
X131037515Y-77562984D01*
X131177525Y-77600500D01*
X131177528Y-77600500D01*
X131322472Y-77600500D01*
X131322475Y-77600500D01*
X131462485Y-77562984D01*
X131588015Y-77490509D01*
X131690509Y-77388015D01*
X131698743Y-77373753D01*
X136650000Y-77373753D01*
X136650000Y-77586246D01*
X136683242Y-77796127D01*
X136683242Y-77796130D01*
X136748904Y-77998217D01*
X136845375Y-78187550D01*
X136884728Y-78241716D01*
X137517037Y-77609408D01*
X137534075Y-77672993D01*
X137599901Y-77787007D01*
X137692993Y-77880099D01*
X137807007Y-77945925D01*
X137870590Y-77962962D01*
X137238282Y-78595269D01*
X137238282Y-78595270D01*
X137292449Y-78634624D01*
X137481784Y-78731096D01*
X137580711Y-78763239D01*
X137638387Y-78802676D01*
X137665586Y-78867034D01*
X137653672Y-78935881D01*
X137606428Y-78987357D01*
X137580722Y-78999097D01*
X137579522Y-78999487D01*
X137577550Y-79000128D01*
X137423211Y-79078768D01*
X137352952Y-79129815D01*
X137283072Y-79180586D01*
X137283070Y-79180588D01*
X137283069Y-79180588D01*
X137160588Y-79303069D01*
X137160588Y-79303070D01*
X137160586Y-79303072D01*
X137116859Y-79363256D01*
X137058768Y-79443211D01*
X136980128Y-79597552D01*
X136926597Y-79762302D01*
X136899500Y-79933389D01*
X136899500Y-80106610D01*
X136923289Y-80256812D01*
X136926598Y-80277701D01*
X136980127Y-80442445D01*
X137058768Y-80596788D01*
X137160586Y-80736928D01*
X137283072Y-80859414D01*
X137423212Y-80961232D01*
X137577555Y-81039873D01*
X137742299Y-81093402D01*
X137913389Y-81120500D01*
X137913390Y-81120500D01*
X138086610Y-81120500D01*
X138086611Y-81120500D01*
X138257701Y-81093402D01*
X138422445Y-81039873D01*
X138576788Y-80961232D01*
X138716928Y-80859414D01*
X138839414Y-80736928D01*
X138941232Y-80596788D01*
X139019873Y-80442445D01*
X139073402Y-80277701D01*
X139100500Y-80106611D01*
X139100500Y-79933389D01*
X139073402Y-79762299D01*
X139019873Y-79597555D01*
X138941232Y-79443212D01*
X138839414Y-79303072D01*
X138716928Y-79180586D01*
X138576788Y-79078768D01*
X138422446Y-79000127D01*
X138419284Y-78999100D01*
X138418236Y-78998383D01*
X138417952Y-78998266D01*
X138417976Y-78998206D01*
X138361609Y-78959661D01*
X138334413Y-78895302D01*
X138346329Y-78826456D01*
X138393574Y-78774981D01*
X138419288Y-78763239D01*
X138518215Y-78731096D01*
X138707554Y-78634622D01*
X138761716Y-78595270D01*
X138761717Y-78595270D01*
X138129408Y-77962962D01*
X138192993Y-77945925D01*
X138307007Y-77880099D01*
X138400099Y-77787007D01*
X138465925Y-77672993D01*
X138482962Y-77609408D01*
X139115270Y-78241717D01*
X139115270Y-78241716D01*
X139154622Y-78187554D01*
X139251095Y-77998217D01*
X139316757Y-77796130D01*
X139316757Y-77796127D01*
X139350000Y-77586246D01*
X139350000Y-77373753D01*
X139316757Y-77163872D01*
X139316757Y-77163869D01*
X139251095Y-76961782D01*
X139154624Y-76772449D01*
X139115270Y-76718282D01*
X139115269Y-76718282D01*
X138482962Y-77350590D01*
X138465925Y-77287007D01*
X138400099Y-77172993D01*
X138307007Y-77079901D01*
X138192993Y-77014075D01*
X138129409Y-76997037D01*
X138761716Y-76364728D01*
X138707550Y-76325375D01*
X138518217Y-76228904D01*
X138419287Y-76196760D01*
X138361611Y-76157323D01*
X138334413Y-76092964D01*
X138346328Y-76024118D01*
X138393572Y-75972642D01*
X138419290Y-75960897D01*
X138422445Y-75959873D01*
X138576788Y-75881232D01*
X138716928Y-75779414D01*
X138839414Y-75656928D01*
X138941232Y-75516788D01*
X139019873Y-75362445D01*
X139073402Y-75197701D01*
X139100500Y-75026611D01*
X139100500Y-74853389D01*
X139073402Y-74682299D01*
X139019873Y-74517555D01*
X138941232Y-74363212D01*
X138839414Y-74223072D01*
X138716928Y-74100586D01*
X138576788Y-73998768D01*
X138422445Y-73920127D01*
X138257701Y-73866598D01*
X138257699Y-73866597D01*
X138257698Y-73866597D01*
X138126271Y-73845781D01*
X138086611Y-73839500D01*
X137913389Y-73839500D01*
X137873728Y-73845781D01*
X137742302Y-73866597D01*
X137742299Y-73866598D01*
X137582923Y-73918383D01*
X137577552Y-73920128D01*
X137423211Y-73998768D01*
X137343256Y-74056859D01*
X137283072Y-74100586D01*
X137283070Y-74100588D01*
X137283069Y-74100588D01*
X137160588Y-74223069D01*
X137160588Y-74223070D01*
X137160586Y-74223072D01*
X137126045Y-74270614D01*
X137058768Y-74363211D01*
X136980128Y-74517552D01*
X136926597Y-74682302D01*
X136899500Y-74853389D01*
X136899500Y-75026610D01*
X136924905Y-75187016D01*
X136926598Y-75197701D01*
X136980127Y-75362445D01*
X137058768Y-75516788D01*
X137160586Y-75656928D01*
X137283072Y-75779414D01*
X137423212Y-75881232D01*
X137577555Y-75959873D01*
X137580708Y-75960897D01*
X137581752Y-75961611D01*
X137582048Y-75961734D01*
X137582022Y-75961795D01*
X137638383Y-76000330D01*
X137665585Y-76064688D01*
X137653674Y-76133535D01*
X137606433Y-76185013D01*
X137580712Y-76196760D01*
X137481783Y-76228904D01*
X137292439Y-76325380D01*
X137238282Y-76364727D01*
X137238282Y-76364728D01*
X137870591Y-76997037D01*
X137807007Y-77014075D01*
X137692993Y-77079901D01*
X137599901Y-77172993D01*
X137534075Y-77287007D01*
X137517037Y-77350591D01*
X136884728Y-76718282D01*
X136884727Y-76718282D01*
X136845380Y-76772439D01*
X136748904Y-76961782D01*
X136683242Y-77163869D01*
X136683242Y-77163872D01*
X136650000Y-77373753D01*
X131698743Y-77373753D01*
X131762984Y-77262485D01*
X131800500Y-77122475D01*
X131800500Y-77046544D01*
X131820185Y-76979505D01*
X131836819Y-76958863D01*
X134034846Y-74760836D01*
X135349538Y-73446144D01*
X136708162Y-72087519D01*
X136769483Y-72054036D01*
X136839175Y-72059020D01*
X136895108Y-72100892D01*
X136919525Y-72166356D01*
X136918314Y-72194599D01*
X136899500Y-72313388D01*
X136899500Y-72486610D01*
X136925925Y-72653456D01*
X136926598Y-72657701D01*
X136980127Y-72822445D01*
X137058768Y-72976788D01*
X137160586Y-73116928D01*
X137283072Y-73239414D01*
X137423212Y-73341232D01*
X137577555Y-73419873D01*
X137742299Y-73473402D01*
X137913389Y-73500500D01*
X137913390Y-73500500D01*
X138086610Y-73500500D01*
X138086611Y-73500500D01*
X138257701Y-73473402D01*
X138422445Y-73419873D01*
X138576788Y-73341232D01*
X138716928Y-73239414D01*
X138839414Y-73116928D01*
X138941232Y-72976788D01*
X139019873Y-72822445D01*
X139073402Y-72657701D01*
X139100500Y-72486611D01*
X139100500Y-72313389D01*
X139097390Y-72293753D01*
X144250000Y-72293753D01*
X144250000Y-72506246D01*
X144283242Y-72716127D01*
X144283242Y-72716130D01*
X144348904Y-72918217D01*
X144445375Y-73107550D01*
X144484728Y-73161716D01*
X145117037Y-72529408D01*
X145134075Y-72592993D01*
X145199901Y-72707007D01*
X145292993Y-72800099D01*
X145407007Y-72865925D01*
X145470590Y-72882962D01*
X144838282Y-73515269D01*
X144838282Y-73515270D01*
X144892449Y-73554624D01*
X145081784Y-73651096D01*
X145180711Y-73683239D01*
X145238387Y-73722676D01*
X145265586Y-73787034D01*
X145253672Y-73855881D01*
X145206428Y-73907357D01*
X145180722Y-73919097D01*
X145179522Y-73919487D01*
X145177550Y-73920128D01*
X145023211Y-73998768D01*
X144943256Y-74056859D01*
X144883072Y-74100586D01*
X144883070Y-74100588D01*
X144883069Y-74100588D01*
X144760588Y-74223069D01*
X144760588Y-74223070D01*
X144760586Y-74223072D01*
X144726045Y-74270614D01*
X144658768Y-74363211D01*
X144580128Y-74517552D01*
X144526597Y-74682302D01*
X144499500Y-74853389D01*
X144499500Y-75026610D01*
X144524905Y-75187016D01*
X144526598Y-75197701D01*
X144580127Y-75362445D01*
X144658768Y-75516788D01*
X144760586Y-75656928D01*
X144883072Y-75779414D01*
X145023212Y-75881232D01*
X145177555Y-75959873D01*
X145342299Y-76013402D01*
X145513389Y-76040500D01*
X145513390Y-76040500D01*
X145686610Y-76040500D01*
X145686611Y-76040500D01*
X145857701Y-76013402D01*
X146022445Y-75959873D01*
X146176788Y-75881232D01*
X146316928Y-75779414D01*
X146439414Y-75656928D01*
X146541232Y-75516788D01*
X146619873Y-75362445D01*
X146673402Y-75197701D01*
X146700500Y-75026611D01*
X146700500Y-74853389D01*
X146673402Y-74682299D01*
X146619873Y-74517555D01*
X146541232Y-74363212D01*
X146439414Y-74223072D01*
X146316928Y-74100586D01*
X146176788Y-73998768D01*
X146022446Y-73920127D01*
X146019284Y-73919100D01*
X146018236Y-73918383D01*
X146017952Y-73918266D01*
X146017976Y-73918206D01*
X145961609Y-73879661D01*
X145934413Y-73815302D01*
X145946329Y-73746456D01*
X145993574Y-73694981D01*
X146019288Y-73683239D01*
X146118215Y-73651096D01*
X146307554Y-73554622D01*
X146361716Y-73515270D01*
X146361717Y-73515270D01*
X145729408Y-72882962D01*
X145792993Y-72865925D01*
X145907007Y-72800099D01*
X146000099Y-72707007D01*
X146065925Y-72592993D01*
X146082962Y-72529408D01*
X146715270Y-73161717D01*
X146715270Y-73161716D01*
X146754622Y-73107554D01*
X146851095Y-72918217D01*
X146916757Y-72716130D01*
X146916757Y-72716127D01*
X146950000Y-72506246D01*
X146950000Y-72293753D01*
X146916757Y-72083872D01*
X146916757Y-72083869D01*
X146851095Y-71881782D01*
X146754624Y-71692449D01*
X146715270Y-71638282D01*
X146715269Y-71638282D01*
X146082962Y-72270590D01*
X146065925Y-72207007D01*
X146000099Y-72092993D01*
X145907007Y-71999901D01*
X145792993Y-71934075D01*
X145729409Y-71917037D01*
X146361716Y-71284728D01*
X146307550Y-71245375D01*
X146118217Y-71148904D01*
X145916129Y-71083242D01*
X145706246Y-71050000D01*
X145493754Y-71050000D01*
X145283872Y-71083242D01*
X145283869Y-71083242D01*
X145081782Y-71148904D01*
X144892439Y-71245380D01*
X144838282Y-71284727D01*
X144838282Y-71284728D01*
X145470591Y-71917037D01*
X145407007Y-71934075D01*
X145292993Y-71999901D01*
X145199901Y-72092993D01*
X145134075Y-72207007D01*
X145117037Y-72270591D01*
X144484728Y-71638282D01*
X144484727Y-71638282D01*
X144445380Y-71692439D01*
X144348904Y-71881782D01*
X144283242Y-72083869D01*
X144283242Y-72083872D01*
X144250000Y-72293753D01*
X139097390Y-72293753D01*
X139073402Y-72142299D01*
X139019873Y-71977555D01*
X138941232Y-71823212D01*
X138839414Y-71683072D01*
X138716928Y-71560586D01*
X138576788Y-71458768D01*
X138422445Y-71380127D01*
X138257701Y-71326598D01*
X138257699Y-71326597D01*
X138257698Y-71326597D01*
X138126271Y-71305781D01*
X138086611Y-71299500D01*
X137913389Y-71299500D01*
X137794599Y-71318314D01*
X137725306Y-71309359D01*
X137671854Y-71264363D01*
X137651215Y-71197611D01*
X137669940Y-71130298D01*
X137687517Y-71108164D01*
X140780469Y-68015213D01*
X140826614Y-67935288D01*
X140836203Y-67899500D01*
X140850500Y-67846144D01*
X140850500Y-66969386D01*
X140870185Y-66902347D01*
X140886819Y-66881705D01*
X140940509Y-66828015D01*
X141012984Y-66702485D01*
X141050500Y-66562475D01*
X141050500Y-66417525D01*
X141012984Y-66277515D01*
X141009974Y-66272302D01*
X140940511Y-66151988D01*
X140940506Y-66151982D01*
X140838017Y-66049493D01*
X140838011Y-66049488D01*
X140712488Y-65977017D01*
X140712489Y-65977017D01*
X140701006Y-65973940D01*
X140572475Y-65939500D01*
X140427525Y-65939500D01*
X140298993Y-65973940D01*
X140287511Y-65977017D01*
X140236500Y-66006469D01*
X140168600Y-66022942D01*
X140102573Y-66000089D01*
X140059382Y-65945168D01*
X140050500Y-65899082D01*
X140050500Y-63103858D01*
X140050500Y-63103856D01*
X140026614Y-63014712D01*
X140003542Y-62974750D01*
X139980472Y-62934791D01*
X139980468Y-62934786D01*
X139048652Y-62002970D01*
X139015167Y-61941647D01*
X139018402Y-61876971D01*
X139019873Y-61872445D01*
X139073402Y-61707701D01*
X139100500Y-61536611D01*
X139100500Y-61363389D01*
X139073402Y-61192299D01*
X139019873Y-61027555D01*
X138941232Y-60873212D01*
X138839414Y-60733072D01*
X138716928Y-60610586D01*
X138576788Y-60508768D01*
X138548756Y-60494485D01*
X138497960Y-60446510D01*
X138481165Y-60378689D01*
X138503703Y-60312554D01*
X138558418Y-60269103D01*
X138605051Y-60260000D01*
X138897828Y-60260000D01*
X138897844Y-60259999D01*
X138957372Y-60253598D01*
X138957379Y-60253596D01*
X139092086Y-60203354D01*
X139092093Y-60203350D01*
X139207187Y-60117190D01*
X139207190Y-60117187D01*
X139293350Y-60002093D01*
X139293354Y-60002086D01*
X139343596Y-59867379D01*
X139343598Y-59867372D01*
X139349999Y-59807844D01*
X139350000Y-59807827D01*
X139350000Y-59160000D01*
X138433012Y-59160000D01*
X138465925Y-59102993D01*
X138500000Y-58975826D01*
X138500000Y-58844174D01*
X138465925Y-58717007D01*
X138433012Y-58660000D01*
X139350000Y-58660000D01*
X139350000Y-58012172D01*
X139349999Y-58012155D01*
X139343598Y-57952627D01*
X139343596Y-57952620D01*
X139293354Y-57817913D01*
X139293350Y-57817906D01*
X139207190Y-57702812D01*
X139207187Y-57702809D01*
X139092093Y-57616649D01*
X139092086Y-57616645D01*
X138957379Y-57566403D01*
X138957372Y-57566401D01*
X138897844Y-57560000D01*
X138250000Y-57560000D01*
X138250000Y-58476988D01*
X138192993Y-58444075D01*
X138065826Y-58410000D01*
X137934174Y-58410000D01*
X137807007Y-58444075D01*
X137750000Y-58476988D01*
X137750000Y-57560000D01*
X137102155Y-57560000D01*
X137042627Y-57566401D01*
X137042620Y-57566403D01*
X136907913Y-57616645D01*
X136907906Y-57616649D01*
X136792812Y-57702809D01*
X136792809Y-57702812D01*
X136706649Y-57817906D01*
X136706645Y-57817913D01*
X136656403Y-57952620D01*
X136656401Y-57952627D01*
X136650000Y-58012155D01*
X136650000Y-58660000D01*
X137566988Y-58660000D01*
X137534075Y-58717007D01*
X137500000Y-58844174D01*
X137500000Y-58975826D01*
X137534075Y-59102993D01*
X137566988Y-59160000D01*
X136650000Y-59160000D01*
X136650000Y-59807844D01*
X136656401Y-59867372D01*
X136656403Y-59867379D01*
X136706645Y-60002086D01*
X136706649Y-60002093D01*
X136792809Y-60117187D01*
X136792812Y-60117190D01*
X136907906Y-60203350D01*
X136907913Y-60203354D01*
X137042620Y-60253596D01*
X137042627Y-60253598D01*
X137102155Y-60259999D01*
X137102172Y-60260000D01*
X137394949Y-60260000D01*
X137461988Y-60279685D01*
X137507743Y-60332489D01*
X137517687Y-60401647D01*
X137488662Y-60465203D01*
X137451244Y-60494485D01*
X137423211Y-60508768D01*
X137343256Y-60566859D01*
X137283072Y-60610586D01*
X137283070Y-60610588D01*
X137283069Y-60610588D01*
X137160588Y-60733069D01*
X137160588Y-60733070D01*
X137160586Y-60733072D01*
X137116859Y-60793256D01*
X137058768Y-60873211D01*
X136980128Y-61027552D01*
X136926597Y-61192302D01*
X136920877Y-61228419D01*
X136899500Y-61363389D01*
X136899500Y-61536611D01*
X136926598Y-61707701D01*
X136980127Y-61872445D01*
X137058768Y-62026788D01*
X137160586Y-62166928D01*
X137283072Y-62289414D01*
X137423212Y-62391232D01*
X137577555Y-62469873D01*
X137742299Y-62523402D01*
X137913389Y-62550500D01*
X137913390Y-62550500D01*
X138086610Y-62550500D01*
X138086611Y-62550500D01*
X138257701Y-62523402D01*
X138422445Y-62469873D01*
X138422447Y-62469871D01*
X138426971Y-62468402D01*
X138496812Y-62466407D01*
X138552970Y-62498652D01*
X139313181Y-63258863D01*
X139346666Y-63320186D01*
X139349500Y-63346544D01*
X139349500Y-66953456D01*
X139329815Y-67020495D01*
X139313185Y-67041132D01*
X139190005Y-67164313D01*
X139176633Y-67177685D01*
X139115310Y-67211169D01*
X139045618Y-67206185D01*
X138989685Y-67164313D01*
X138965268Y-67098849D01*
X138978466Y-67033710D01*
X139019873Y-66952445D01*
X139073402Y-66787701D01*
X139100500Y-66616611D01*
X139100500Y-66443389D01*
X139073402Y-66272299D01*
X139019873Y-66107555D01*
X138941232Y-65953212D01*
X138839414Y-65813072D01*
X138716928Y-65690586D01*
X138576788Y-65588768D01*
X138422445Y-65510127D01*
X138257701Y-65456598D01*
X138257699Y-65456597D01*
X138257698Y-65456597D01*
X138126271Y-65435781D01*
X138086611Y-65429500D01*
X137913389Y-65429500D01*
X137873728Y-65435781D01*
X137742302Y-65456597D01*
X137577552Y-65510128D01*
X137423211Y-65588768D01*
X137343256Y-65646859D01*
X137283072Y-65690586D01*
X137283070Y-65690588D01*
X137283069Y-65690588D01*
X137160588Y-65813069D01*
X137160588Y-65813070D01*
X137160586Y-65813072D01*
X137116859Y-65873256D01*
X137058768Y-65953211D01*
X136980128Y-66107552D01*
X136926597Y-66272302D01*
X136899500Y-66443389D01*
X136899500Y-66616610D01*
X136913101Y-66702488D01*
X136926598Y-66787701D01*
X136980127Y-66952445D01*
X137058768Y-67106788D01*
X137160586Y-67246928D01*
X137283072Y-67369414D01*
X137423212Y-67471232D01*
X137577555Y-67549873D01*
X137742299Y-67603402D01*
X137913389Y-67630500D01*
X137913390Y-67630500D01*
X138086610Y-67630500D01*
X138086611Y-67630500D01*
X138257701Y-67603402D01*
X138422445Y-67549873D01*
X138503710Y-67508466D01*
X138572377Y-67495571D01*
X138637117Y-67521847D01*
X138677375Y-67578953D01*
X138680367Y-67648759D01*
X138647684Y-67706633D01*
X131341137Y-75013181D01*
X131279814Y-75046666D01*
X131253456Y-75049500D01*
X131177525Y-75049500D01*
X131048993Y-75083940D01*
X131037511Y-75087017D01*
X130911988Y-75159488D01*
X130911982Y-75159493D01*
X130809493Y-75261982D01*
X130809488Y-75261988D01*
X130737017Y-75387511D01*
X130737016Y-75387515D01*
X130699500Y-75527525D01*
X125823207Y-75527525D01*
X123586819Y-73291137D01*
X123553334Y-73229814D01*
X123550500Y-73203456D01*
X123550500Y-70374038D01*
X126399500Y-70374038D01*
X126399500Y-70625961D01*
X126438910Y-70874785D01*
X126516760Y-71114383D01*
X126570645Y-71220137D01*
X126624889Y-71326597D01*
X126631132Y-71338848D01*
X126779201Y-71542649D01*
X126779205Y-71542654D01*
X126957345Y-71720794D01*
X126957350Y-71720798D01*
X127098312Y-71823212D01*
X127161155Y-71868870D01*
X127289127Y-71934075D01*
X127385616Y-71983239D01*
X127385618Y-71983239D01*
X127385621Y-71983241D01*
X127625215Y-72061090D01*
X127874038Y-72100500D01*
X127874039Y-72100500D01*
X128125961Y-72100500D01*
X128125962Y-72100500D01*
X128374785Y-72061090D01*
X128614379Y-71983241D01*
X128838845Y-71868870D01*
X129042656Y-71720793D01*
X129220793Y-71542656D01*
X129368870Y-71338845D01*
X129483241Y-71114379D01*
X129561090Y-70874785D01*
X129600500Y-70625962D01*
X129600500Y-70374038D01*
X129561090Y-70125215D01*
X129483241Y-69885621D01*
X129483239Y-69885618D01*
X129483239Y-69885616D01*
X129434779Y-69790509D01*
X129368870Y-69661155D01*
X129324075Y-69599500D01*
X129220798Y-69457350D01*
X129220794Y-69457345D01*
X129042654Y-69279205D01*
X129042649Y-69279201D01*
X128838848Y-69131132D01*
X128838847Y-69131131D01*
X128838845Y-69131130D01*
X128768747Y-69095413D01*
X128614383Y-69016760D01*
X128374785Y-68938910D01*
X128249300Y-68919035D01*
X128125962Y-68899500D01*
X127874038Y-68899500D01*
X127790975Y-68912656D01*
X127625214Y-68938910D01*
X127385616Y-69016760D01*
X127161151Y-69131132D01*
X126957350Y-69279201D01*
X126957345Y-69279205D01*
X126779205Y-69457345D01*
X126779201Y-69457350D01*
X126631132Y-69661151D01*
X126516760Y-69885616D01*
X126438910Y-70125214D01*
X126399500Y-70374038D01*
X123550500Y-70374038D01*
X123550500Y-63903389D01*
X136899500Y-63903389D01*
X136899500Y-64076611D01*
X136926598Y-64247701D01*
X136980127Y-64412445D01*
X137058768Y-64566788D01*
X137160586Y-64706928D01*
X137283072Y-64829414D01*
X137423212Y-64931232D01*
X137577555Y-65009873D01*
X137742299Y-65063402D01*
X137913389Y-65090500D01*
X137913390Y-65090500D01*
X138086610Y-65090500D01*
X138086611Y-65090500D01*
X138257701Y-65063402D01*
X138422445Y-65009873D01*
X138576788Y-64931232D01*
X138716928Y-64829414D01*
X138839414Y-64706928D01*
X138941232Y-64566788D01*
X139019873Y-64412445D01*
X139073402Y-64247701D01*
X139100500Y-64076611D01*
X139100500Y-63903389D01*
X139073402Y-63732299D01*
X139019873Y-63567555D01*
X138941232Y-63413212D01*
X138839414Y-63273072D01*
X138716928Y-63150586D01*
X138576788Y-63048768D01*
X138422445Y-62970127D01*
X138257701Y-62916598D01*
X138257699Y-62916597D01*
X138257698Y-62916597D01*
X138126271Y-62895781D01*
X138086611Y-62889500D01*
X137913389Y-62889500D01*
X137873728Y-62895781D01*
X137742302Y-62916597D01*
X137577552Y-62970128D01*
X137423211Y-63048768D01*
X137347390Y-63103856D01*
X137283072Y-63150586D01*
X137283070Y-63150588D01*
X137283069Y-63150588D01*
X137160588Y-63273069D01*
X137160588Y-63273070D01*
X137160586Y-63273072D01*
X137144522Y-63295182D01*
X137058768Y-63413211D01*
X136980128Y-63567552D01*
X136926597Y-63732302D01*
X136899500Y-63903389D01*
X123550500Y-63903389D01*
X123550500Y-58853858D01*
X123550500Y-58853856D01*
X123526614Y-58764712D01*
X123525328Y-58762485D01*
X123525325Y-58762481D01*
X123525323Y-58762475D01*
X123480474Y-58684794D01*
X123480468Y-58684786D01*
X123268858Y-58473176D01*
X123235373Y-58411853D01*
X123240357Y-58342161D01*
X123282229Y-58286228D01*
X123347693Y-58261811D01*
X123403991Y-58270934D01*
X123538308Y-58326569D01*
X123580000Y-58334862D01*
X123580000Y-57531988D01*
X123589940Y-57549205D01*
X123645795Y-57605060D01*
X123714204Y-57644556D01*
X123790504Y-57665000D01*
X123869496Y-57665000D01*
X123945796Y-57644556D01*
X124014205Y-57605060D01*
X124070060Y-57549205D01*
X124080000Y-57531988D01*
X124080000Y-58334862D01*
X124121690Y-58326569D01*
X124121692Y-58326569D01*
X124303671Y-58251192D01*
X124303684Y-58251185D01*
X124467462Y-58141751D01*
X124467466Y-58141748D01*
X124606748Y-58002466D01*
X124606751Y-58002462D01*
X124716185Y-57838684D01*
X124716192Y-57838671D01*
X124791569Y-57656693D01*
X124791572Y-57656681D01*
X124829999Y-57463495D01*
X124830000Y-57463492D01*
X124830000Y-57065000D01*
X124130000Y-57065000D01*
X124130000Y-56565000D01*
X124668216Y-56565000D01*
X124735255Y-56584685D01*
X124775602Y-56626999D01*
X124799485Y-56668365D01*
X124906635Y-56775515D01*
X125037865Y-56851281D01*
X125184234Y-56890500D01*
X125184236Y-56890500D01*
X125335764Y-56890500D01*
X125335766Y-56890500D01*
X125482135Y-56851281D01*
X125613365Y-56775515D01*
X125720515Y-56668365D01*
X125796281Y-56537135D01*
X125835500Y-56390766D01*
X125835500Y-56239234D01*
X130464500Y-56239234D01*
X130464500Y-56390765D01*
X130503719Y-56537136D01*
X130519807Y-56565000D01*
X130579485Y-56668365D01*
X130686635Y-56775515D01*
X130817865Y-56851281D01*
X130964234Y-56890500D01*
X130964236Y-56890500D01*
X131115763Y-56890500D01*
X131115766Y-56890500D01*
X131262135Y-56851281D01*
X131393365Y-56775515D01*
X131500515Y-56668365D01*
X131524397Y-56626999D01*
X131574964Y-56578784D01*
X131631784Y-56565000D01*
X132170000Y-56565000D01*
X132170000Y-57065000D01*
X131470000Y-57065000D01*
X131470000Y-57463495D01*
X131508427Y-57656681D01*
X131508430Y-57656693D01*
X131583807Y-57838671D01*
X131583814Y-57838684D01*
X131693248Y-58002462D01*
X131693251Y-58002466D01*
X131832533Y-58141748D01*
X131832537Y-58141751D01*
X131996315Y-58251185D01*
X131996328Y-58251192D01*
X132178308Y-58326569D01*
X132220000Y-58334862D01*
X132220000Y-57531988D01*
X132229940Y-57549205D01*
X132285795Y-57605060D01*
X132354204Y-57644556D01*
X132430504Y-57665000D01*
X132509496Y-57665000D01*
X132585796Y-57644556D01*
X132654205Y-57605060D01*
X132710060Y-57549205D01*
X132720000Y-57531988D01*
X132720000Y-58334862D01*
X132761690Y-58326569D01*
X132761692Y-58326569D01*
X132943671Y-58251192D01*
X132943684Y-58251185D01*
X133107462Y-58141751D01*
X133107466Y-58141748D01*
X133246748Y-58002466D01*
X133246751Y-58002462D01*
X133288515Y-57939960D01*
X133356185Y-57838684D01*
X133356192Y-57838671D01*
X133431569Y-57656693D01*
X133431572Y-57656681D01*
X133469999Y-57463495D01*
X133470000Y-57463492D01*
X133470000Y-57065000D01*
X132770000Y-57065000D01*
X132770000Y-56565000D01*
X133470000Y-56565000D01*
X133470000Y-56166508D01*
X133469999Y-56166504D01*
X133431572Y-55973318D01*
X133431569Y-55973306D01*
X133356192Y-55791328D01*
X133356185Y-55791315D01*
X133246751Y-55627537D01*
X133246748Y-55627533D01*
X133107466Y-55488251D01*
X133107462Y-55488248D01*
X132943684Y-55378814D01*
X132943671Y-55378807D01*
X132761691Y-55303429D01*
X132761683Y-55303427D01*
X132720000Y-55295135D01*
X132720000Y-56098011D01*
X132710060Y-56080795D01*
X132654205Y-56024940D01*
X132585796Y-55985444D01*
X132509496Y-55965000D01*
X132430504Y-55965000D01*
X132354204Y-55985444D01*
X132285795Y-56024940D01*
X132229940Y-56080795D01*
X132220000Y-56098011D01*
X132220000Y-55295136D01*
X132219999Y-55295135D01*
X132178316Y-55303427D01*
X132178308Y-55303429D01*
X131996328Y-55378807D01*
X131996315Y-55378814D01*
X131832537Y-55488248D01*
X131832533Y-55488251D01*
X131693251Y-55627533D01*
X131693248Y-55627537D01*
X131583814Y-55791315D01*
X131583809Y-55791324D01*
X131579866Y-55800845D01*
X131536023Y-55855247D01*
X131469728Y-55877310D01*
X131402030Y-55860029D01*
X131396597Y-55856351D01*
X131262136Y-55778719D01*
X131188950Y-55759109D01*
X131115766Y-55739500D01*
X130964234Y-55739500D01*
X130817863Y-55778719D01*
X130686635Y-55854485D01*
X130686632Y-55854487D01*
X130579487Y-55961632D01*
X130579485Y-55961635D01*
X130503719Y-56092863D01*
X130464500Y-56239234D01*
X125835500Y-56239234D01*
X125796281Y-56092865D01*
X125720515Y-55961635D01*
X125613365Y-55854485D01*
X125528694Y-55805600D01*
X125482136Y-55778719D01*
X125408950Y-55759109D01*
X125335766Y-55739500D01*
X125184234Y-55739500D01*
X125037863Y-55778719D01*
X124946428Y-55831510D01*
X124906635Y-55854485D01*
X124906633Y-55854486D01*
X124899597Y-55858549D01*
X124898327Y-55856349D01*
X124844995Y-55876960D01*
X124776552Y-55862914D01*
X124726568Y-55814094D01*
X124720131Y-55800838D01*
X124716192Y-55791328D01*
X124716185Y-55791315D01*
X124606751Y-55627537D01*
X124606748Y-55627533D01*
X124467466Y-55488251D01*
X124467462Y-55488248D01*
X124303684Y-55378814D01*
X124303671Y-55378807D01*
X124121691Y-55303429D01*
X124121683Y-55303427D01*
X124080000Y-55295135D01*
X124080000Y-56098011D01*
X124070060Y-56080795D01*
X124014205Y-56024940D01*
X123945796Y-55985444D01*
X123869496Y-55965000D01*
X123790504Y-55965000D01*
X123714204Y-55985444D01*
X123645795Y-56024940D01*
X123589940Y-56080795D01*
X123580000Y-56098011D01*
X123580000Y-55295136D01*
X123579999Y-55295135D01*
X123538316Y-55303427D01*
X123538308Y-55303429D01*
X123356328Y-55378807D01*
X123356315Y-55378814D01*
X123192537Y-55488248D01*
X123192533Y-55488251D01*
X123053251Y-55627533D01*
X123053248Y-55627537D01*
X122943814Y-55791315D01*
X122943807Y-55791328D01*
X122868430Y-55973306D01*
X122868427Y-55973318D01*
X122830000Y-56166504D01*
X122830000Y-56565000D01*
X123530000Y-56565000D01*
X123530000Y-57065000D01*
X122830000Y-57065000D01*
X122830000Y-57463495D01*
X122868427Y-57656681D01*
X122868430Y-57656693D01*
X122942896Y-57836472D01*
X122950365Y-57905941D01*
X122919089Y-57968420D01*
X122859000Y-58004072D01*
X122789175Y-58001578D01*
X122766335Y-57991311D01*
X122735290Y-57973387D01*
X122735289Y-57973386D01*
X122735288Y-57973386D01*
X122646144Y-57949500D01*
X121003856Y-57949500D01*
X120914710Y-57973386D01*
X120898256Y-57982887D01*
X120836255Y-57999500D01*
X120727525Y-57999500D01*
X120598993Y-58033940D01*
X120587511Y-58037017D01*
X120461988Y-58109488D01*
X120461982Y-58109493D01*
X120359493Y-58211982D01*
X120359488Y-58211988D01*
X120287017Y-58337511D01*
X120287016Y-58337515D01*
X120249500Y-58477525D01*
X120249500Y-58622475D01*
X120287016Y-58762485D01*
X120287017Y-58762488D01*
X120359488Y-58888011D01*
X120359490Y-58888013D01*
X120359491Y-58888015D01*
X120461985Y-58990509D01*
X120461986Y-58990510D01*
X120461988Y-58990511D01*
X120587511Y-59062982D01*
X120587512Y-59062982D01*
X120587515Y-59062984D01*
X120727525Y-59100500D01*
X120727528Y-59100500D01*
X120872472Y-59100500D01*
X120872475Y-59100500D01*
X121012485Y-59062984D01*
X121138015Y-58990509D01*
X121240509Y-58888015D01*
X121312984Y-58762485D01*
X121318364Y-58742405D01*
X121354730Y-58682746D01*
X121417577Y-58652217D01*
X121438139Y-58650500D01*
X122403456Y-58650500D01*
X122470495Y-58670185D01*
X122491137Y-58686819D01*
X122813181Y-59008863D01*
X122846666Y-59070186D01*
X122849500Y-59096544D01*
X122849500Y-73446144D01*
X122864065Y-73500500D01*
X122864066Y-73500505D01*
X122867407Y-73512976D01*
X122865741Y-73582826D01*
X122826576Y-73640686D01*
X122762347Y-73668188D01*
X122693445Y-73656598D01*
X122685632Y-73652452D01*
X122635288Y-73623386D01*
X122604782Y-73615212D01*
X122546144Y-73599500D01*
X118603856Y-73599500D01*
X118514712Y-73623386D01*
X118514709Y-73623387D01*
X118434791Y-73669527D01*
X118434786Y-73669531D01*
X117518490Y-74585827D01*
X117457167Y-74619312D01*
X117387475Y-74614328D01*
X117331542Y-74572456D01*
X117317860Y-74544286D01*
X117316092Y-74545019D01*
X117312982Y-74537511D01*
X117240511Y-74411988D01*
X117240506Y-74411982D01*
X117186819Y-74358295D01*
X117153334Y-74296972D01*
X117150500Y-74270614D01*
X117150500Y-70096544D01*
X117170185Y-70029505D01*
X117186819Y-70008863D01*
X117258863Y-69936819D01*
X117320186Y-69903334D01*
X117346544Y-69900500D01*
X117422472Y-69900500D01*
X117422475Y-69900500D01*
X117562485Y-69862984D01*
X117688015Y-69790509D01*
X117790509Y-69688015D01*
X117862984Y-69562485D01*
X117900500Y-69422475D01*
X117900500Y-69277525D01*
X117862984Y-69137515D01*
X117809675Y-69045182D01*
X117790511Y-69011988D01*
X117790506Y-69011982D01*
X117688017Y-68909493D01*
X117688011Y-68909488D01*
X117562488Y-68837017D01*
X117562489Y-68837017D01*
X117551006Y-68833940D01*
X117422475Y-68799500D01*
X117277525Y-68799500D01*
X117179108Y-68825870D01*
X117137510Y-68837017D01*
X117137507Y-68837018D01*
X117050343Y-68887343D01*
X116982443Y-68903816D01*
X116916416Y-68880963D01*
X116873226Y-68826042D01*
X116866585Y-68756488D01*
X116880956Y-68717958D01*
X116912984Y-68662485D01*
X116950500Y-68522475D01*
X116950500Y-68377525D01*
X116912984Y-68237515D01*
X116872301Y-68167051D01*
X116840511Y-68111988D01*
X116840506Y-68111982D01*
X116738017Y-68009493D01*
X116738011Y-68009488D01*
X116612488Y-67937017D01*
X116612489Y-67937017D01*
X116601006Y-67933940D01*
X116472475Y-67899500D01*
X116327525Y-67899500D01*
X116198993Y-67933940D01*
X116187511Y-67937017D01*
X116061988Y-68009488D01*
X116061982Y-68009493D01*
X115959493Y-68111982D01*
X115959488Y-68111988D01*
X115887017Y-68237511D01*
X115887016Y-68237515D01*
X115849500Y-68377525D01*
X115849500Y-68377527D01*
X115849500Y-68453456D01*
X115829815Y-68520495D01*
X115813181Y-68541137D01*
X115669531Y-68684786D01*
X115669527Y-68684791D01*
X115623387Y-68764709D01*
X115623386Y-68764712D01*
X115599500Y-68853856D01*
X115599500Y-70753456D01*
X115579815Y-70820495D01*
X115563181Y-70841137D01*
X113916817Y-72487500D01*
X113916813Y-72487505D01*
X113870673Y-72567423D01*
X113870672Y-72567426D01*
X113846786Y-72656570D01*
X113846786Y-82293430D01*
X113849163Y-82302302D01*
X113866478Y-82366922D01*
X113866494Y-82366979D01*
X113870672Y-82382575D01*
X113916813Y-82462494D01*
X113916817Y-82462499D01*
X115063181Y-83608863D01*
X115096666Y-83670186D01*
X115099500Y-83696544D01*
X115099500Y-85458505D01*
X115079815Y-85525544D01*
X115037500Y-85565892D01*
X114961988Y-85609489D01*
X114961982Y-85609493D01*
X114859493Y-85711982D01*
X114859488Y-85711988D01*
X114787017Y-85837511D01*
X114785581Y-85842872D01*
X114749500Y-85977525D01*
X114749500Y-86122475D01*
X114787016Y-86262485D01*
X114787017Y-86262488D01*
X114859488Y-86388011D01*
X114859490Y-86388013D01*
X114859491Y-86388015D01*
X114961985Y-86490509D01*
X114961986Y-86490510D01*
X114961988Y-86490511D01*
X115087511Y-86562982D01*
X115087512Y-86562982D01*
X115087515Y-86562984D01*
X115227525Y-86600500D01*
X115227528Y-86600500D01*
X115372472Y-86600500D01*
X115372475Y-86600500D01*
X115512485Y-86562984D01*
X115638015Y-86490509D01*
X115740509Y-86388015D01*
X115812984Y-86262485D01*
X115850500Y-86122475D01*
X115850500Y-85977525D01*
X115812984Y-85837515D01*
X115812982Y-85837511D01*
X115809937Y-85830159D01*
X115800500Y-85782710D01*
X115800500Y-83453858D01*
X115800500Y-83453856D01*
X115776614Y-83364712D01*
X115759337Y-83334788D01*
X115759336Y-83334786D01*
X115759336Y-83334785D01*
X115730472Y-83284791D01*
X115730468Y-83284786D01*
X114584105Y-82138423D01*
X114550620Y-82077100D01*
X114547786Y-82050742D01*
X114547786Y-80992829D01*
X114567471Y-80925790D01*
X114620275Y-80880035D01*
X114689433Y-80870091D01*
X114752989Y-80899116D01*
X114759452Y-80905134D01*
X118019531Y-84165212D01*
X118084788Y-84230469D01*
X118084791Y-84230470D01*
X118084794Y-84230473D01*
X118164706Y-84276611D01*
X118164707Y-84276611D01*
X118164712Y-84276614D01*
X118253856Y-84300500D01*
X118472034Y-84300500D01*
X118487290Y-84301500D01*
X118487756Y-84301500D01*
X119708816Y-84301500D01*
X119775855Y-84321185D01*
X119821610Y-84373989D01*
X119831554Y-84443147D01*
X119816202Y-84487501D01*
X119787753Y-84536774D01*
X119787752Y-84536775D01*
X119787751Y-84536780D01*
X119750235Y-84676790D01*
X119750235Y-84821740D01*
X119787751Y-84961750D01*
X119787752Y-84961753D01*
X119860223Y-85087276D01*
X119860225Y-85087278D01*
X119860226Y-85087280D01*
X119962720Y-85189774D01*
X119962721Y-85189775D01*
X119962723Y-85189776D01*
X120088246Y-85262247D01*
X120088247Y-85262247D01*
X120088250Y-85262249D01*
X120228260Y-85299765D01*
X120304191Y-85299765D01*
X120371230Y-85319450D01*
X120391872Y-85336084D01*
X120643607Y-85587819D01*
X120677092Y-85649142D01*
X120672108Y-85718834D01*
X120630236Y-85774767D01*
X120564772Y-85799184D01*
X120555926Y-85799500D01*
X117034108Y-85799500D01*
X116906812Y-85833608D01*
X116792686Y-85899500D01*
X116792683Y-85899502D01*
X115479005Y-87213181D01*
X115417682Y-87246666D01*
X115391324Y-87249500D01*
X110858676Y-87249500D01*
X110791637Y-87229815D01*
X110770995Y-87213181D01*
X110292908Y-86735094D01*
X110266026Y-86694860D01*
X110262985Y-86687519D01*
X110262984Y-86687515D01*
X110190509Y-86561985D01*
X110088015Y-86459491D01*
X110088013Y-86459490D01*
X110088011Y-86459488D01*
X109962488Y-86387017D01*
X109962489Y-86387017D01*
X109951006Y-86383940D01*
X109822475Y-86349500D01*
X109677525Y-86349500D01*
X109548993Y-86383940D01*
X109537511Y-86387017D01*
X109411988Y-86459488D01*
X109411982Y-86459493D01*
X109309493Y-86561982D01*
X109309488Y-86561988D01*
X109237017Y-86687511D01*
X109237016Y-86687515D01*
X109199500Y-86827525D01*
X100500500Y-86827525D01*
X100500500Y-86223920D01*
X111299499Y-86223920D01*
X111328340Y-86368907D01*
X111328343Y-86368917D01*
X111384912Y-86505488D01*
X111384919Y-86505501D01*
X111467048Y-86628415D01*
X111467051Y-86628419D01*
X111571580Y-86732948D01*
X111571584Y-86732951D01*
X111694498Y-86815080D01*
X111694511Y-86815087D01*
X111755891Y-86840511D01*
X111831087Y-86871658D01*
X111831091Y-86871658D01*
X111831092Y-86871659D01*
X111976079Y-86900500D01*
X111976082Y-86900500D01*
X112123920Y-86900500D01*
X112221462Y-86881096D01*
X112268913Y-86871658D01*
X112405495Y-86815084D01*
X112528416Y-86732951D01*
X112632951Y-86628416D01*
X112715084Y-86505495D01*
X112771658Y-86368913D01*
X112792828Y-86262488D01*
X112800500Y-86223920D01*
X112800500Y-86076079D01*
X112771659Y-85931092D01*
X112771658Y-85931091D01*
X112771658Y-85931087D01*
X112737864Y-85849500D01*
X112715087Y-85794511D01*
X112715080Y-85794498D01*
X112632951Y-85671584D01*
X112632948Y-85671580D01*
X112528419Y-85567051D01*
X112528415Y-85567048D01*
X112405501Y-85484919D01*
X112405488Y-85484912D01*
X112268917Y-85428343D01*
X112268907Y-85428340D01*
X112123920Y-85399500D01*
X112123918Y-85399500D01*
X111976082Y-85399500D01*
X111976080Y-85399500D01*
X111831092Y-85428340D01*
X111831082Y-85428343D01*
X111694511Y-85484912D01*
X111694498Y-85484919D01*
X111571584Y-85567048D01*
X111571580Y-85567051D01*
X111467051Y-85671580D01*
X111467048Y-85671584D01*
X111384919Y-85794498D01*
X111384912Y-85794511D01*
X111328343Y-85931082D01*
X111328340Y-85931092D01*
X111299500Y-86076079D01*
X111299500Y-86076082D01*
X111299500Y-86223918D01*
X111299500Y-86223920D01*
X111299499Y-86223920D01*
X100500500Y-86223920D01*
X100500500Y-70258676D01*
X100520185Y-70191637D01*
X100536819Y-70170995D01*
X101430289Y-69277525D01*
X102400500Y-68307314D01*
X102466392Y-68193186D01*
X102500500Y-68065893D01*
X102500500Y-67934108D01*
X102500500Y-52258676D01*
X102520185Y-52191637D01*
X102536819Y-52170995D01*
X102553958Y-52153856D01*
X103349500Y-52153856D01*
X103349500Y-52163486D01*
X103349500Y-78846145D01*
X103360710Y-78887983D01*
X103360711Y-78887983D01*
X103360711Y-78887984D01*
X103370763Y-78925500D01*
X103373387Y-78935290D01*
X103419527Y-79015208D01*
X103419529Y-79015211D01*
X103419530Y-79015212D01*
X104184787Y-79780469D01*
X104264712Y-79826614D01*
X104353856Y-79850500D01*
X108553456Y-79850500D01*
X108620495Y-79870185D01*
X108641137Y-79886819D01*
X110834788Y-82080470D01*
X110904085Y-82120478D01*
X110904087Y-82120480D01*
X110911342Y-82124668D01*
X110914712Y-82126614D01*
X111003856Y-82150500D01*
X111163876Y-82150500D01*
X111230915Y-82170185D01*
X111251557Y-82186819D01*
X111305247Y-82240509D01*
X111305248Y-82240510D01*
X111305250Y-82240511D01*
X111430773Y-82312982D01*
X111430774Y-82312982D01*
X111430777Y-82312984D01*
X111570787Y-82350500D01*
X111570790Y-82350500D01*
X111715734Y-82350500D01*
X111715737Y-82350500D01*
X111855747Y-82312984D01*
X111981277Y-82240509D01*
X112083771Y-82138015D01*
X112156246Y-82012485D01*
X112193762Y-81872475D01*
X112193762Y-81727525D01*
X112156246Y-81587515D01*
X112150329Y-81577267D01*
X112083773Y-81461988D01*
X112083768Y-81461982D01*
X111981279Y-81359493D01*
X111981273Y-81359488D01*
X111855750Y-81287017D01*
X111855751Y-81287017D01*
X111844268Y-81283940D01*
X111715737Y-81249500D01*
X111570787Y-81249500D01*
X111442255Y-81283940D01*
X111430773Y-81287017D01*
X111305250Y-81359488D01*
X111305244Y-81359493D01*
X111292891Y-81371847D01*
X111231568Y-81405332D01*
X111161876Y-81400348D01*
X111117529Y-81371847D01*
X108965213Y-79219531D01*
X108965208Y-79219527D01*
X108885290Y-79173387D01*
X108885289Y-79173386D01*
X108885288Y-79173386D01*
X108796144Y-79149500D01*
X108796143Y-79149500D01*
X104596544Y-79149500D01*
X104529505Y-79129815D01*
X104508863Y-79113181D01*
X104086819Y-78691137D01*
X104053334Y-78629814D01*
X104050500Y-78603456D01*
X104050500Y-68823920D01*
X107049499Y-68823920D01*
X107078340Y-68968907D01*
X107078343Y-68968917D01*
X107134912Y-69105488D01*
X107134919Y-69105501D01*
X107217048Y-69228415D01*
X107217051Y-69228419D01*
X107321580Y-69332948D01*
X107321584Y-69332951D01*
X107444498Y-69415080D01*
X107444511Y-69415087D01*
X107546532Y-69457345D01*
X107581087Y-69471658D01*
X107581091Y-69471658D01*
X107581092Y-69471659D01*
X107726079Y-69500500D01*
X107726082Y-69500500D01*
X107873920Y-69500500D01*
X107971462Y-69481096D01*
X108018913Y-69471658D01*
X108155495Y-69415084D01*
X108278416Y-69332951D01*
X108382951Y-69228416D01*
X108465084Y-69105495D01*
X108521658Y-68968913D01*
X108531580Y-68919035D01*
X108550500Y-68823920D01*
X108550500Y-68676079D01*
X108521659Y-68531092D01*
X108521658Y-68531091D01*
X108521658Y-68531087D01*
X108510777Y-68504818D01*
X108465087Y-68394511D01*
X108465080Y-68394498D01*
X108382951Y-68271584D01*
X108382948Y-68271580D01*
X108278419Y-68167051D01*
X108278415Y-68167048D01*
X108155501Y-68084919D01*
X108155488Y-68084912D01*
X108018917Y-68028343D01*
X108018907Y-68028340D01*
X107873920Y-67999500D01*
X107873918Y-67999500D01*
X107726082Y-67999500D01*
X107726080Y-67999500D01*
X107581092Y-68028340D01*
X107581082Y-68028343D01*
X107444511Y-68084912D01*
X107444498Y-68084919D01*
X107321584Y-68167048D01*
X107321580Y-68167051D01*
X107217051Y-68271580D01*
X107217048Y-68271584D01*
X107134919Y-68394498D01*
X107134912Y-68394511D01*
X107078343Y-68531082D01*
X107078340Y-68531092D01*
X107049500Y-68676079D01*
X107049500Y-68676082D01*
X107049500Y-68823918D01*
X107049500Y-68823920D01*
X107049499Y-68823920D01*
X104050500Y-68823920D01*
X104050500Y-60823920D01*
X107049499Y-60823920D01*
X107078340Y-60968907D01*
X107078343Y-60968917D01*
X107134912Y-61105488D01*
X107134919Y-61105501D01*
X107217048Y-61228415D01*
X107217051Y-61228419D01*
X107321580Y-61332948D01*
X107321584Y-61332951D01*
X107444498Y-61415080D01*
X107444511Y-61415087D01*
X107581082Y-61471656D01*
X107581087Y-61471658D01*
X107581091Y-61471658D01*
X107581092Y-61471659D01*
X107726079Y-61500500D01*
X107726082Y-61500500D01*
X107873920Y-61500500D01*
X107971462Y-61481096D01*
X108018913Y-61471658D01*
X108155495Y-61415084D01*
X108278416Y-61332951D01*
X108382951Y-61228416D01*
X108465084Y-61105495D01*
X108521658Y-60968913D01*
X108550500Y-60823918D01*
X108550500Y-60676082D01*
X108550500Y-60676079D01*
X108521659Y-60531092D01*
X108521658Y-60531091D01*
X108521658Y-60531087D01*
X108479839Y-60430127D01*
X108465087Y-60394511D01*
X108465080Y-60394498D01*
X108382951Y-60271584D01*
X108382948Y-60271580D01*
X108278419Y-60167051D01*
X108278415Y-60167048D01*
X108155501Y-60084919D01*
X108155488Y-60084912D01*
X108018917Y-60028343D01*
X108018907Y-60028340D01*
X107873920Y-59999500D01*
X107873918Y-59999500D01*
X107726082Y-59999500D01*
X107726080Y-59999500D01*
X107581092Y-60028340D01*
X107581082Y-60028343D01*
X107444511Y-60084912D01*
X107444498Y-60084919D01*
X107321584Y-60167048D01*
X107321580Y-60167051D01*
X107217051Y-60271580D01*
X107217048Y-60271584D01*
X107134919Y-60394498D01*
X107134912Y-60394511D01*
X107078343Y-60531082D01*
X107078340Y-60531092D01*
X107049500Y-60676079D01*
X107049500Y-60676082D01*
X107049500Y-60823918D01*
X107049500Y-60823920D01*
X107049499Y-60823920D01*
X104050500Y-60823920D01*
X104050500Y-52396544D01*
X104070185Y-52329505D01*
X104086819Y-52308863D01*
X104408863Y-51986819D01*
X104470186Y-51953334D01*
X104496544Y-51950500D01*
X109761861Y-51950500D01*
X109828900Y-51970185D01*
X109874655Y-52022989D01*
X109881636Y-52042406D01*
X109887016Y-52062487D01*
X109887017Y-52062488D01*
X109959488Y-52188011D01*
X109959490Y-52188013D01*
X109959491Y-52188015D01*
X110061985Y-52290509D01*
X110061986Y-52290510D01*
X110061988Y-52290511D01*
X110187511Y-52362982D01*
X110187512Y-52362982D01*
X110187515Y-52362984D01*
X110327525Y-52400500D01*
X110327528Y-52400500D01*
X110472472Y-52400500D01*
X110472475Y-52400500D01*
X110612485Y-52362984D01*
X110738015Y-52290509D01*
X110840509Y-52188015D01*
X110870249Y-52136504D01*
X122830000Y-52136504D01*
X122830000Y-52385000D01*
X123530000Y-52385000D01*
X123530000Y-52885000D01*
X122830000Y-52885000D01*
X122830000Y-53133495D01*
X122868427Y-53326681D01*
X122868430Y-53326693D01*
X122943807Y-53508671D01*
X122943814Y-53508684D01*
X123053248Y-53672462D01*
X123053251Y-53672466D01*
X123192533Y-53811748D01*
X123192537Y-53811751D01*
X123356315Y-53921185D01*
X123356328Y-53921192D01*
X123538308Y-53996569D01*
X123580000Y-54004862D01*
X123580000Y-53201988D01*
X123589940Y-53219205D01*
X123645795Y-53275060D01*
X123714204Y-53314556D01*
X123790504Y-53335000D01*
X123869496Y-53335000D01*
X123945796Y-53314556D01*
X124014205Y-53275060D01*
X124070060Y-53219205D01*
X124080000Y-53201988D01*
X124080000Y-54004862D01*
X124121690Y-53996569D01*
X124121692Y-53996569D01*
X124303671Y-53921192D01*
X124303684Y-53921185D01*
X124467462Y-53811751D01*
X124467466Y-53811748D01*
X124606748Y-53672466D01*
X124606751Y-53672462D01*
X124716185Y-53508684D01*
X124716192Y-53508671D01*
X124791569Y-53326693D01*
X124791572Y-53326681D01*
X124829999Y-53133495D01*
X124830000Y-53133492D01*
X124830000Y-52885000D01*
X124130000Y-52885000D01*
X124130000Y-52385000D01*
X124830000Y-52385000D01*
X124830000Y-52136508D01*
X124829999Y-52136504D01*
X131470000Y-52136504D01*
X131470000Y-52385000D01*
X132170000Y-52385000D01*
X132170000Y-52885000D01*
X131470000Y-52885000D01*
X131470000Y-53133495D01*
X131508427Y-53326681D01*
X131508430Y-53326693D01*
X131583807Y-53508671D01*
X131583814Y-53508684D01*
X131693248Y-53672462D01*
X131693251Y-53672466D01*
X131832533Y-53811748D01*
X131832537Y-53811751D01*
X131996315Y-53921185D01*
X131996328Y-53921192D01*
X132178308Y-53996569D01*
X132220000Y-54004862D01*
X132220000Y-53201988D01*
X132229940Y-53219205D01*
X132285795Y-53275060D01*
X132354204Y-53314556D01*
X132430504Y-53335000D01*
X132509496Y-53335000D01*
X132585796Y-53314556D01*
X132654205Y-53275060D01*
X132710060Y-53219205D01*
X132720000Y-53201988D01*
X132720000Y-54004862D01*
X132761690Y-53996569D01*
X132761692Y-53996569D01*
X132943671Y-53921192D01*
X132943684Y-53921185D01*
X133107462Y-53811751D01*
X133107466Y-53811748D01*
X133246748Y-53672466D01*
X133246751Y-53672462D01*
X133356185Y-53508684D01*
X133356192Y-53508671D01*
X133431569Y-53326693D01*
X133431572Y-53326681D01*
X133469999Y-53133495D01*
X133470000Y-53133492D01*
X133470000Y-53041156D01*
X133974499Y-53041156D01*
X134010065Y-53219952D01*
X134010068Y-53219962D01*
X134079831Y-53388387D01*
X134079833Y-53388391D01*
X134181113Y-53539967D01*
X134181119Y-53539975D01*
X134310024Y-53668880D01*
X134310032Y-53668886D01*
X134461608Y-53770166D01*
X134461612Y-53770168D01*
X134499687Y-53785939D01*
X134554091Y-53829780D01*
X134576156Y-53896074D01*
X134558877Y-53963773D01*
X134507740Y-54011384D01*
X134452235Y-54024500D01*
X134200323Y-54024500D01*
X134127264Y-54039032D01*
X134127260Y-54039033D01*
X134044399Y-54094399D01*
X133989033Y-54177260D01*
X133989032Y-54177264D01*
X133974500Y-54250321D01*
X133974500Y-55649678D01*
X133989032Y-55722735D01*
X133989033Y-55722739D01*
X133989034Y-55722740D01*
X134044399Y-55805601D01*
X134118701Y-55855247D01*
X134127260Y-55860966D01*
X134127264Y-55860967D01*
X134200321Y-55875499D01*
X134200324Y-55875500D01*
X134200326Y-55875500D01*
X135599676Y-55875500D01*
X135599677Y-55875499D01*
X135672740Y-55860966D01*
X135755601Y-55805601D01*
X135810966Y-55722740D01*
X135825500Y-55649674D01*
X135825500Y-54250326D01*
X135825500Y-54250323D01*
X135825499Y-54250321D01*
X135810967Y-54177264D01*
X135810966Y-54177260D01*
X135755601Y-54094399D01*
X135672740Y-54039034D01*
X135672739Y-54039033D01*
X135672735Y-54039032D01*
X135599677Y-54024500D01*
X135599674Y-54024500D01*
X135347765Y-54024500D01*
X135280726Y-54004815D01*
X135234971Y-53952011D01*
X135225027Y-53882853D01*
X135254052Y-53819297D01*
X135300313Y-53785939D01*
X135338387Y-53770168D01*
X135338391Y-53770166D01*
X135413672Y-53719864D01*
X135489972Y-53668883D01*
X135618883Y-53539972D01*
X135720167Y-53388389D01*
X135789933Y-53219958D01*
X135807132Y-53133495D01*
X135825500Y-53041156D01*
X135825500Y-52858843D01*
X135789934Y-52680047D01*
X135789933Y-52680046D01*
X135789933Y-52680042D01*
X135789931Y-52680037D01*
X135720168Y-52511612D01*
X135720166Y-52511608D01*
X135618886Y-52360032D01*
X135618880Y-52360024D01*
X135489975Y-52231119D01*
X135489967Y-52231113D01*
X135338391Y-52129833D01*
X135338387Y-52129831D01*
X135169962Y-52060068D01*
X135169952Y-52060065D01*
X134991156Y-52024500D01*
X134991154Y-52024500D01*
X134808846Y-52024500D01*
X134808844Y-52024500D01*
X134630047Y-52060065D01*
X134630037Y-52060068D01*
X134461612Y-52129831D01*
X134461608Y-52129833D01*
X134310032Y-52231113D01*
X134310024Y-52231119D01*
X134181119Y-52360024D01*
X134181113Y-52360032D01*
X134079833Y-52511608D01*
X134079831Y-52511612D01*
X134010068Y-52680037D01*
X134010065Y-52680047D01*
X133974500Y-52858843D01*
X133974500Y-52858846D01*
X133974500Y-53041154D01*
X133974500Y-53041156D01*
X133974499Y-53041156D01*
X133470000Y-53041156D01*
X133470000Y-52885000D01*
X132770000Y-52885000D01*
X132770000Y-52385000D01*
X133470000Y-52385000D01*
X133470000Y-52136508D01*
X133469999Y-52136504D01*
X133431572Y-51943318D01*
X133431569Y-51943306D01*
X133356192Y-51761328D01*
X133356185Y-51761315D01*
X133246751Y-51597537D01*
X133246748Y-51597533D01*
X133107466Y-51458251D01*
X133107462Y-51458248D01*
X132943684Y-51348814D01*
X132943671Y-51348807D01*
X132761691Y-51273429D01*
X132761683Y-51273427D01*
X132720000Y-51265135D01*
X132720000Y-52068011D01*
X132710060Y-52050795D01*
X132654205Y-51994940D01*
X132585796Y-51955444D01*
X132509496Y-51935000D01*
X132430504Y-51935000D01*
X132354204Y-51955444D01*
X132285795Y-51994940D01*
X132229940Y-52050795D01*
X132220000Y-52068011D01*
X132220000Y-51265136D01*
X132219999Y-51265135D01*
X132178316Y-51273427D01*
X132178308Y-51273429D01*
X131996328Y-51348807D01*
X131996315Y-51348814D01*
X131832537Y-51458248D01*
X131832533Y-51458251D01*
X131693251Y-51597533D01*
X131693248Y-51597537D01*
X131583814Y-51761315D01*
X131583807Y-51761328D01*
X131508430Y-51943306D01*
X131508427Y-51943318D01*
X131470000Y-52136504D01*
X124829999Y-52136504D01*
X124791572Y-51943318D01*
X124791569Y-51943306D01*
X124716192Y-51761328D01*
X124716185Y-51761315D01*
X124606751Y-51597537D01*
X124606748Y-51597533D01*
X124467466Y-51458251D01*
X124467462Y-51458248D01*
X124303684Y-51348814D01*
X124303671Y-51348807D01*
X124121691Y-51273429D01*
X124121683Y-51273427D01*
X124080000Y-51265135D01*
X124080000Y-52068011D01*
X124070060Y-52050795D01*
X124014205Y-51994940D01*
X123945796Y-51955444D01*
X123869496Y-51935000D01*
X123790504Y-51935000D01*
X123714204Y-51955444D01*
X123645795Y-51994940D01*
X123589940Y-52050795D01*
X123580000Y-52068011D01*
X123580000Y-51265136D01*
X123579999Y-51265135D01*
X123538316Y-51273427D01*
X123538308Y-51273429D01*
X123356328Y-51348807D01*
X123356315Y-51348814D01*
X123192537Y-51458248D01*
X123192533Y-51458251D01*
X123053251Y-51597533D01*
X123053248Y-51597537D01*
X122943814Y-51761315D01*
X122943807Y-51761328D01*
X122868430Y-51943306D01*
X122868427Y-51943318D01*
X122830000Y-52136504D01*
X110870249Y-52136504D01*
X110912984Y-52062485D01*
X110950500Y-51922475D01*
X110950500Y-51777525D01*
X110912984Y-51637515D01*
X110889900Y-51597533D01*
X110840511Y-51511988D01*
X110840506Y-51511982D01*
X110738017Y-51409493D01*
X110738011Y-51409488D01*
X110612488Y-51337017D01*
X110612489Y-51337017D01*
X110601006Y-51333940D01*
X110472475Y-51299500D01*
X110472472Y-51299500D01*
X110363744Y-51299500D01*
X110301745Y-51282887D01*
X110285288Y-51273386D01*
X110196144Y-51249500D01*
X104253856Y-51249500D01*
X104164712Y-51273386D01*
X104164709Y-51273387D01*
X104084791Y-51319527D01*
X104084786Y-51319531D01*
X103419531Y-51984786D01*
X103419527Y-51984791D01*
X103383516Y-52047164D01*
X103383514Y-52047169D01*
X103376068Y-52060067D01*
X103373386Y-52064712D01*
X103349500Y-52153856D01*
X102553958Y-52153856D01*
X104170995Y-50536819D01*
X104232318Y-50503334D01*
X104258676Y-50500500D01*
X147741324Y-50500500D01*
X147808363Y-50520185D01*
G37*
%TD.AperFunction*%
%TD*%
M02*
