%TF.GenerationSoftware,KiCad,Pcbnew,10.0.6*%
%TF.CreationDate,2026-10-05T10:51:38-07:00*%
%TF.ProjectId,STM32JukeboxPCB,53544d33-324a-4756-9b65-626f78504342,rev?*%
%TF.SameCoordinates,Original*%
%TF.FileFunction,Soldermask,Bot*%
%TF.FilePolarity,Negative*%
%FSLAX46Y46*%
G04 Gerber Fmt 4.6, Leading zero omitted, Abs format (unit mm)*
G04 Created by KiCad (PCBNEW 10.0.6) date 2026-10-05 10:51:38*
%MOMM*%
%LPD*%
G01*
G04 APERTURE LIST*
G04 Aperture macros list*
%AMRoundRect*
0 Rectangle with rounded corners*
0 $1 Rounding radius*
0 $2 $3 $4 $5 $6 $7 $8 $9 X,Y pos of 4 corners*
0 Add a 4 corners polygon primitive as box body*
4,1,4,$2,$3,$4,$5,$6,$7,$8,$9,$2,$3,0*
0 Add four circle primitives for the rounded corners*
1,1,$1+$1,$2,$3*
1,1,$1+$1,$4,$5*
1,1,$1+$1,$6,$7*
1,1,$1+$1,$8,$9*
0 Add four rect primitives between the rounded corners*
20,1,$1+$1,$2,$3,$4,$5,0*
20,1,$1+$1,$4,$5,$6,$7,0*
20,1,$1+$1,$6,$7,$8,$9,0*
20,1,$1+$1,$8,$9,$2,$3,0*%
%AMFreePoly0*
4,1,6,1.000000,0.000000,0.500000,-0.750000,-0.500000,-0.750000,-0.500000,0.750000,0.500000,0.750000,1.000000,0.000000,1.000000,0.000000,$1*%
G04 Aperture macros list end*
%ADD10O,1.000000X1.800000*%
%ADD11O,1.000000X2.100000*%
%ADD12C,0.650000*%
%ADD13C,1.000000*%
%ADD14C,2.700000*%
%ADD15R,1.700000X1.700000*%
%ADD16C,1.700000*%
%ADD17RoundRect,0.250000X-1.050000X-1.050000X1.050000X-1.050000X1.050000X1.050000X-1.050000X1.050000X0*%
%ADD18C,2.600000*%
%ADD19R,1.350000X1.350000*%
%ADD20C,1.350000*%
%ADD21C,1.200000*%
%ADD22O,1.200000X2.200000*%
%ADD23O,1.600000X2.300000*%
%ADD24O,2.200000X1.200000*%
%ADD25O,1.600000X2.500000*%
%ADD26FreePoly0,180.000000*%
%ADD27FreePoly0,0.000000*%
G04 APERTURE END LIST*
%TO.C,JP1*%
G36*
X104400000Y-91450000D02*
G01*
X109400000Y-91450000D01*
X109400000Y-92950000D01*
X104400000Y-92950000D01*
X104400000Y-91450000D01*
G37*
%TD*%
D10*
%TO.C,J3*%
X123830000Y-52635000D03*
D11*
X123830000Y-56815000D03*
D10*
X132470000Y-52635000D03*
D11*
X132470000Y-56815000D03*
D12*
X125260000Y-56315000D03*
X131040000Y-56315000D03*
%TD*%
D13*
%TO.C,J1*%
X107800000Y-60750000D03*
X107800000Y-68750000D03*
%TD*%
D14*
%TO.C,H2*%
X137500000Y-100000000D03*
%TD*%
%TO.C,H1*%
X128000000Y-70500000D03*
%TD*%
D15*
%TO.C,J7*%
X145600000Y-97820000D03*
D16*
X145600000Y-95280000D03*
X145600000Y-92740000D03*
X145600000Y-90200000D03*
%TD*%
D17*
%TO.C,J2*%
X106700000Y-108900000D03*
D18*
X111700000Y-108900000D03*
%TD*%
D15*
%TO.C,J9*%
X105650000Y-89300000D03*
D16*
X108190000Y-89300000D03*
%TD*%
D13*
%TO.C,DDet*%
X112050000Y-86150000D03*
%TD*%
D19*
%TO.C,PWRSW*%
X134900000Y-54950000D03*
D20*
X134900000Y-52950000D03*
%TD*%
D15*
%TO.C,J6*%
X145600000Y-82560000D03*
D16*
X145600000Y-80020000D03*
X145600000Y-77480000D03*
X145600000Y-74940000D03*
X145600000Y-72400000D03*
%TD*%
D21*
%TO.C,J4*%
X135500000Y-115500000D03*
X135500000Y-118000000D03*
X140500000Y-110500000D03*
X145500000Y-115500000D03*
X145500000Y-118000000D03*
D22*
X135500000Y-110500000D03*
D23*
X138000000Y-110500000D03*
D24*
X140500000Y-115500000D03*
D22*
X145500000Y-110500000D03*
D25*
X143000000Y-110500000D03*
%TD*%
D15*
%TO.C,J8*%
X138000000Y-58910000D03*
D16*
X138000000Y-61450000D03*
X138000000Y-63990000D03*
X138000000Y-66530000D03*
%TD*%
D15*
%TO.C,J5*%
X138000000Y-90180000D03*
D16*
X138000000Y-87640000D03*
X138000000Y-85100000D03*
X138000000Y-82560000D03*
X138000000Y-80020000D03*
X138000000Y-77480000D03*
X138000000Y-74940000D03*
X138000000Y-72400000D03*
%TD*%
D14*
%TO.C,H3*%
X124500000Y-116000000D03*
%TD*%
D26*
%TO.C,JP1*%
X108900000Y-92200000D03*
D27*
X104900000Y-92200000D03*
%TD*%
M02*
