%TF.GenerationSoftware,KiCad,Pcbnew,10.0.6*%
%TF.CreationDate,2026-10-05T10:51:38-07:00*%
%TF.ProjectId,STM32JukeboxPCB,53544d33-324a-4756-9b65-626f78504342,rev?*%
%TF.SameCoordinates,Original*%
%TF.FileFunction,Copper,L3,Inr*%
%TF.FilePolarity,Positive*%
%FSLAX46Y46*%
G04 Gerber Fmt 4.6, Leading zero omitted, Abs format (unit mm)*
G04 Created by KiCad (PCBNEW 10.0.6) date 2026-10-05 10:51:38*
%MOMM*%
%LPD*%
G01*
G04 APERTURE LIST*
G04 Aperture macros list*
%AMRoundRect*
0 Rectangle with rounded corners*
0 $1 Rounding radius*
0 $2 $3 $4 $5 $6 $7 $8 $9 X,Y pos of 4 corners*
0 Add a 4 corners polygon primitive as box body*
4,1,4,$2,$3,$4,$5,$6,$7,$8,$9,$2,$3,0*
0 Add four circle primitives for the rounded corners*
1,1,$1+$1,$2,$3*
1,1,$1+$1,$4,$5*
1,1,$1+$1,$6,$7*
1,1,$1+$1,$8,$9*
0 Add four rect primitives between the rounded corners*
20,1,$1+$1,$2,$3,$4,$5,0*
20,1,$1+$1,$4,$5,$6,$7,0*
20,1,$1+$1,$6,$7,$8,$9,0*
20,1,$1+$1,$8,$9,$2,$3,0*%
G04 Aperture macros list end*
%TA.AperFunction,HeatsinkPad*%
%ADD10O,1.000000X1.800000*%
%TD*%
%TA.AperFunction,HeatsinkPad*%
%ADD11O,1.000000X2.100000*%
%TD*%
%TA.AperFunction,ComponentPad*%
%ADD12R,1.700000X1.700000*%
%TD*%
%TA.AperFunction,ComponentPad*%
%ADD13C,1.700000*%
%TD*%
%TA.AperFunction,HeatsinkPad*%
%ADD14C,0.500000*%
%TD*%
%TA.AperFunction,ComponentPad*%
%ADD15RoundRect,0.250000X-1.050000X-1.050000X1.050000X-1.050000X1.050000X1.050000X-1.050000X1.050000X0*%
%TD*%
%TA.AperFunction,ComponentPad*%
%ADD16C,2.600000*%
%TD*%
%TA.AperFunction,ComponentPad*%
%ADD17C,1.000000*%
%TD*%
%TA.AperFunction,ComponentPad*%
%ADD18R,1.350000X1.350000*%
%TD*%
%TA.AperFunction,ComponentPad*%
%ADD19C,1.350000*%
%TD*%
%TA.AperFunction,ComponentPad*%
%ADD20O,1.200000X2.200000*%
%TD*%
%TA.AperFunction,ComponentPad*%
%ADD21O,1.600000X2.300000*%
%TD*%
%TA.AperFunction,ComponentPad*%
%ADD22O,2.200000X1.200000*%
%TD*%
%TA.AperFunction,ComponentPad*%
%ADD23O,1.600000X2.500000*%
%TD*%
%TA.AperFunction,ViaPad*%
%ADD24C,0.600000*%
%TD*%
G04 APERTURE END LIST*
D10*
%TO.N,GND*%
%TO.C,J3*%
X123830000Y-52635000D03*
D11*
X123830000Y-56815000D03*
D10*
X132470000Y-52635000D03*
D11*
X132470000Y-56815000D03*
%TD*%
D12*
%TO.N,/SSD1306 OLED Sheet/SDA*%
%TO.C,J7*%
X145600000Y-97820000D03*
D13*
%TO.N,/SSD1306 OLED Sheet/SCL*%
X145600000Y-95280000D03*
%TO.N,+3.3V*%
X145600000Y-92740000D03*
%TO.N,GND*%
X145600000Y-90200000D03*
%TD*%
D14*
%TO.N,GND*%
%TO.C,U5*%
X124255000Y-98275000D03*
X124255000Y-99525000D03*
X125505000Y-98275000D03*
X125505000Y-99525000D03*
%TD*%
D15*
%TO.N,/Speaker DAC & Amplifier Sheet/SPEAKER_OUTP*%
%TO.C,J2*%
X106700000Y-108900000D03*
D16*
%TO.N,/Speaker DAC & Amplifier Sheet/SPEAKER_OUTN*%
X111700000Y-108900000D03*
%TD*%
D12*
%TO.N,/STM32F411 Sheet/USART2_TX*%
%TO.C,J9*%
X105650000Y-89300000D03*
D13*
%TO.N,/STM32F411 Sheet/USART2_RX*%
X108190000Y-89300000D03*
%TD*%
D17*
%TO.N,/STM32F411 Sheet/Insert_Disc_Detect*%
%TO.C,DDet*%
X112050000Y-86150000D03*
%TD*%
D18*
%TO.N,/STM32F411 Sheet/USB_5V*%
%TO.C,PWRSW*%
X134900000Y-54950000D03*
D19*
%TO.N,+5V*%
X134900000Y-52950000D03*
%TD*%
D12*
%TO.N,/Rotary Encoder Sheet/A1*%
%TO.C,J6*%
X145600000Y-82560000D03*
D13*
%TO.N,/Rotary Encoder Sheet/A2*%
X145600000Y-80020000D03*
%TO.N,/Rotary Encoder Sheet/BTN*%
X145600000Y-77480000D03*
%TO.N,+3.3V*%
X145600000Y-74940000D03*
%TO.N,GND*%
X145600000Y-72400000D03*
%TD*%
D20*
%TO.N,/Headphone DAC & Amplifier Sheet/OUTR*%
%TO.C,J4*%
X135500000Y-110500000D03*
D21*
%TO.N,unconnected-(J4-PadRN)*%
X138000000Y-110500000D03*
D22*
%TO.N,GND*%
X140500000Y-115500000D03*
D20*
%TO.N,/Headphone DAC & Amplifier Sheet/OUTL*%
X145500000Y-110500000D03*
D23*
%TO.N,/Headphone DAC & Amplifier Sheet/HDPHN_JACK_DETECT*%
X143000000Y-110500000D03*
%TD*%
D12*
%TO.N,GND*%
%TO.C,J8*%
X138000000Y-58910000D03*
D13*
%TO.N,/STM32F411 Sheet/SYS_JTCK-SWCLK*%
X138000000Y-61450000D03*
%TO.N,/STM32F411 Sheet/SYS_JTMS-SWDIO*%
X138000000Y-63990000D03*
%TO.N,+3.3V*%
X138000000Y-66530000D03*
%TD*%
D12*
%TO.N,/RFID MFRC522 Sheet/SDA {slash} CS*%
%TO.C,J5*%
X138000000Y-90180000D03*
D13*
%TO.N,/RFID MFRC522 Sheet/SCK*%
X138000000Y-87640000D03*
%TO.N,/RFID MFRC522 Sheet/MOSI*%
X138000000Y-85100000D03*
%TO.N,/RFID MFRC522 Sheet/MISO*%
X138000000Y-82560000D03*
%TO.N,/RFID MFRC522 Sheet/RQ*%
X138000000Y-80020000D03*
%TO.N,GND*%
X138000000Y-77480000D03*
%TO.N,/RFID MFRC522 Sheet/RST*%
X138000000Y-74940000D03*
%TO.N,+3.3V*%
X138000000Y-72400000D03*
%TD*%
D24*
%TO.N,GND*%
X130500000Y-69000000D03*
X118350000Y-111900000D03*
X115300000Y-86900000D03*
X127000000Y-117750000D03*
X119600000Y-99500000D03*
X143900000Y-88800000D03*
X139700000Y-78100000D03*
X116700000Y-79600000D03*
X106300000Y-57850000D03*
X122500000Y-81800000D03*
X118350000Y-114050000D03*
X129350000Y-99050000D03*
X104300000Y-85900000D03*
X134200000Y-65200000D03*
X118500000Y-81400000D03*
X103300000Y-84700000D03*
X131850000Y-111200000D03*
X105200000Y-53950000D03*
X105950000Y-99150000D03*
X120600000Y-98500000D03*
X143900000Y-76500000D03*
X103400000Y-80700000D03*
X126750000Y-105700000D03*
X128550000Y-60200000D03*
X120800000Y-57650000D03*
X147300000Y-94100000D03*
X125350000Y-60200000D03*
X135000000Y-98250000D03*
X103200000Y-98900000D03*
X133950000Y-61000000D03*
X140000000Y-101750000D03*
X120100000Y-62650000D03*
X113597286Y-74700000D03*
X115400000Y-110000000D03*
X147300000Y-99200000D03*
X115400000Y-105000000D03*
X111500000Y-77050000D03*
X143900000Y-78100000D03*
X111250000Y-51700000D03*
X141200000Y-67050000D03*
X130800000Y-76300000D03*
X119750000Y-51700000D03*
X147300000Y-96400000D03*
X108300000Y-82400000D03*
X122500000Y-64900000D03*
X136300000Y-76550000D03*
X112450000Y-74700000D03*
X115600000Y-56200000D03*
X108400000Y-76300000D03*
X143900000Y-80700000D03*
X112700000Y-93300000D03*
X124300000Y-81900000D03*
X110100000Y-57900000D03*
X117700000Y-73750000D03*
X114900000Y-81400000D03*
X136300000Y-90300000D03*
X119200000Y-76200000D03*
X121100000Y-111300000D03*
X105300000Y-85900000D03*
X126700000Y-108800000D03*
X103300000Y-83700000D03*
X139700000Y-81900000D03*
X139700000Y-83200000D03*
X136300000Y-81900000D03*
X109250000Y-77050000D03*
X119650000Y-101000000D03*
X139700000Y-79350000D03*
X116700000Y-83200000D03*
X118350000Y-112950000D03*
X135600000Y-65200000D03*
X131000000Y-112000000D03*
X126750000Y-110450000D03*
X115600000Y-51700000D03*
X108300000Y-84000000D03*
X140000000Y-70000000D03*
X103300000Y-82700000D03*
X127100000Y-104150000D03*
X113400000Y-96550000D03*
X111150000Y-82600000D03*
X116550000Y-69300000D03*
X136300000Y-84500000D03*
X120800000Y-55350000D03*
X117500000Y-62750000D03*
X110712500Y-77800000D03*
X145000000Y-60000000D03*
X139700000Y-75000000D03*
X115000000Y-98700000D03*
X122000000Y-117750000D03*
X127000000Y-114250000D03*
X115850000Y-71900000D03*
X123550000Y-108300000D03*
X107300000Y-85900000D03*
X128750000Y-114600000D03*
X103300000Y-81700000D03*
X130500000Y-72250000D03*
X145000000Y-70000000D03*
X130450000Y-60200000D03*
X136300000Y-83200000D03*
X131050000Y-104800000D03*
X136300000Y-85750000D03*
X117700000Y-95750000D03*
X139700000Y-80600000D03*
X127950000Y-113850000D03*
X111450000Y-99900000D03*
X136300000Y-78100000D03*
X132000000Y-105750000D03*
X140500000Y-65600000D03*
X115400000Y-73450000D03*
X143900000Y-81900000D03*
X117703693Y-96671746D03*
X108600000Y-53950000D03*
X125400000Y-83200000D03*
X122000000Y-114250000D03*
X122500000Y-63500000D03*
X103400000Y-85700000D03*
X115950000Y-93550000D03*
X122600000Y-78450000D03*
X108300000Y-85900000D03*
X118000000Y-53400000D03*
X130050000Y-104150000D03*
X126797177Y-100919959D03*
X108200000Y-72150000D03*
X136300000Y-80600000D03*
X128800000Y-96800000D03*
X121000000Y-96200000D03*
X143900000Y-91500000D03*
X124650000Y-78350000D03*
X136300000Y-73750000D03*
X111400000Y-98450000D03*
X117500000Y-70200000D03*
X117500000Y-56600000D03*
X111350000Y-56200000D03*
X110000000Y-73500000D03*
X145000000Y-65000000D03*
X104300000Y-80300000D03*
X139700000Y-76500000D03*
X131400000Y-61140000D03*
X114800000Y-74600000D03*
X108556992Y-94533462D03*
X115300000Y-88600000D03*
X115100000Y-95850000D03*
X103000000Y-110000000D03*
X130700000Y-112650000D03*
X136300000Y-87950000D03*
X134850000Y-108450000D03*
X127250000Y-60200000D03*
X103200000Y-98050000D03*
X105000000Y-100000000D03*
X140000000Y-60000000D03*
X123550000Y-110950000D03*
X103000000Y-105000000D03*
X109850000Y-83200000D03*
X136300000Y-79350000D03*
X143900000Y-94100000D03*
X122550000Y-84250000D03*
X121650000Y-101000000D03*
X113500000Y-99900000D03*
X143900000Y-83250000D03*
X106300000Y-85900000D03*
X123500000Y-105900000D03*
X108400000Y-77800000D03*
X133050000Y-63300000D03*
X119200000Y-57950000D03*
X136300000Y-75050000D03*
X119250000Y-114950000D03*
X125500000Y-72250000D03*
X112700000Y-94550000D03*
X110200000Y-85250000D03*
X125500000Y-69000000D03*
X140000000Y-98250000D03*
%TO.N,/SD Card Sheet/SDIO_D2*%
X119900000Y-75350000D03*
X121600000Y-81649740D03*
%TO.N,/SD Card Sheet/SDIO_D3*%
X116800000Y-74750000D03*
X117350000Y-69350000D03*
%TO.N,/SD Card Sheet/SDIO_CMD*%
X116400000Y-68450000D03*
X115300000Y-86050000D03*
%TO.N,+3.3V*%
X109750000Y-86900000D03*
X126350000Y-97500000D03*
X126255000Y-100331703D03*
X120950000Y-86300000D03*
X123150000Y-97500000D03*
X101750000Y-90700000D03*
X121006250Y-78256250D03*
X123450000Y-84550000D03*
%TO.N,/SD Card Sheet/SDIO_CK*%
X121474265Y-82875735D03*
X119100000Y-75400000D03*
%TO.N,/SD Card Sheet/SDIO_D1*%
X122251797Y-82687457D03*
X115550000Y-72650000D03*
%TO.N,/SD Card Sheet/SD_DETECT*%
X120800000Y-58550000D03*
X124800000Y-82600000D03*
%TO.N,/Headphone DAC & Amplifier Sheet/AUDIO_L*%
X131950000Y-108800000D03*
X122100000Y-103350000D03*
%TO.N,/SSD1306 OLED Sheet/SDA*%
X114797286Y-75700000D03*
%TO.N,/SSD1306 OLED Sheet/SCL*%
X115401000Y-75175090D03*
%TO.N,/Headphone DAC & Amplifier Sheet/AUDIO_R*%
X118800000Y-97050000D03*
X131900000Y-107550000D03*
%TO.N,/Headphone DAC & Amplifier Sheet/DIN*%
X113400000Y-95200000D03*
X115950000Y-92665000D03*
%TO.N,/Rotary Encoder Sheet/A1*%
X125575000Y-78375000D03*
X116850000Y-76951473D03*
%TO.N,/Rotary Encoder Sheet/A2*%
X116775368Y-75825368D03*
X126200000Y-77650000D03*
%TO.N,/Rotary Encoder Sheet/BTN*%
X137000000Y-86400000D03*
%TO.N,/STM32F411 Sheet/NRST*%
X111643262Y-81800000D03*
X110400000Y-51850000D03*
%TO.N,/Headphone DAC & Amplifier Sheet/BCK*%
X117600000Y-97465000D03*
X112700000Y-95900000D03*
X115100000Y-94965000D03*
%TO.N,/STM32F411 Sheet/SPEAKER_ENABLE*%
X113400000Y-93900000D03*
X117799000Y-87550000D03*
%TO.N,/Headphone DAC & Amplifier Sheet/HDPHN_JACK_DETECT*%
X120300735Y-84749265D03*
%TO.N,/STM32F411 Sheet/SYS_JTMS-SWDIO*%
X140500000Y-66490000D03*
X131250000Y-77050000D03*
%TO.N,/STM32F411 Sheet/SYS_JTCK-SWCLK*%
X131250000Y-75600000D03*
%TO.N,/Speaker DAC & Amplifier Sheet/GAIN*%
X109392179Y-94520269D03*
%TD*%
%TA.AperFunction,Conductor*%
%TO.N,GND*%
G36*
X147808363Y-50520185D02*
G01*
X147829005Y-50536819D01*
X149463181Y-52170995D01*
X149496666Y-52232318D01*
X149499500Y-52258676D01*
X149499500Y-117741324D01*
X149479815Y-117808363D01*
X149463181Y-117829005D01*
X147829005Y-119463181D01*
X147767682Y-119496666D01*
X147741324Y-119499500D01*
X143324500Y-119499500D01*
X143257461Y-119479815D01*
X143211706Y-119427011D01*
X143200500Y-119375500D01*
X143200500Y-118911309D01*
X143200499Y-118911305D01*
X143188404Y-118850499D01*
X143165895Y-118737335D01*
X143098013Y-118573454D01*
X143098012Y-118573453D01*
X143098009Y-118573447D01*
X142999464Y-118425965D01*
X142999461Y-118425961D01*
X142874038Y-118300538D01*
X142874034Y-118300535D01*
X142726552Y-118201990D01*
X142726543Y-118201985D01*
X142562665Y-118134105D01*
X142562657Y-118134103D01*
X142388694Y-118099500D01*
X142388690Y-118099500D01*
X142365892Y-118099500D01*
X138773499Y-118099500D01*
X138773482Y-118099499D01*
X138765889Y-118099499D01*
X138699997Y-118099500D01*
X138611306Y-118099500D01*
X138611301Y-118099501D01*
X138437337Y-118134105D01*
X138437331Y-118134107D01*
X138273456Y-118201987D01*
X138273446Y-118201992D01*
X138125965Y-118300536D01*
X138125961Y-118300539D01*
X138000539Y-118425961D01*
X138000536Y-118425965D01*
X137901992Y-118573446D01*
X137901987Y-118573456D01*
X137834107Y-118737331D01*
X137834105Y-118737337D01*
X137799501Y-118911301D01*
X137799500Y-118911306D01*
X137799500Y-118999999D01*
X137799499Y-119080320D01*
X137799500Y-119080329D01*
X137799500Y-119375500D01*
X137779815Y-119442539D01*
X137727011Y-119488294D01*
X137675500Y-119499500D01*
X102258676Y-119499500D01*
X102191637Y-119479815D01*
X102170995Y-119463181D01*
X100624042Y-117916228D01*
X134649500Y-117916228D01*
X134649500Y-118083771D01*
X134682182Y-118248074D01*
X134682184Y-118248082D01*
X134746295Y-118402860D01*
X134839373Y-118542162D01*
X134957837Y-118660626D01*
X135050494Y-118722537D01*
X135097137Y-118753703D01*
X135251918Y-118817816D01*
X135416228Y-118850499D01*
X135416232Y-118850500D01*
X135416233Y-118850500D01*
X135583768Y-118850500D01*
X135583769Y-118850499D01*
X135748082Y-118817816D01*
X135902863Y-118753703D01*
X136042162Y-118660626D01*
X136160626Y-118542162D01*
X136253703Y-118402863D01*
X136317816Y-118248082D01*
X136350500Y-118083767D01*
X136350500Y-117916233D01*
X136350499Y-117916228D01*
X144649500Y-117916228D01*
X144649500Y-118083771D01*
X144682182Y-118248074D01*
X144682184Y-118248082D01*
X144746295Y-118402860D01*
X144839373Y-118542162D01*
X144957837Y-118660626D01*
X145050494Y-118722537D01*
X145097137Y-118753703D01*
X145251918Y-118817816D01*
X145416228Y-118850499D01*
X145416232Y-118850500D01*
X145416233Y-118850500D01*
X145583768Y-118850500D01*
X145583769Y-118850499D01*
X145748082Y-118817816D01*
X145902863Y-118753703D01*
X146042162Y-118660626D01*
X146160626Y-118542162D01*
X146253703Y-118402863D01*
X146317816Y-118248082D01*
X146350500Y-118083767D01*
X146350500Y-117916233D01*
X146317816Y-117751918D01*
X146253703Y-117597137D01*
X146177600Y-117483241D01*
X146160626Y-117457837D01*
X146042162Y-117339373D01*
X145902860Y-117246295D01*
X145748082Y-117182184D01*
X145748074Y-117182182D01*
X145583771Y-117149500D01*
X145583767Y-117149500D01*
X145416233Y-117149500D01*
X145416228Y-117149500D01*
X145251925Y-117182182D01*
X145251917Y-117182184D01*
X145097139Y-117246295D01*
X144957837Y-117339373D01*
X144839373Y-117457837D01*
X144746295Y-117597139D01*
X144682184Y-117751917D01*
X144682182Y-117751925D01*
X144649500Y-117916228D01*
X136350499Y-117916228D01*
X136317816Y-117751918D01*
X136253703Y-117597137D01*
X136177600Y-117483241D01*
X136160626Y-117457837D01*
X136042162Y-117339373D01*
X135902860Y-117246295D01*
X135748082Y-117182184D01*
X135748074Y-117182182D01*
X135583771Y-117149500D01*
X135583767Y-117149500D01*
X135416233Y-117149500D01*
X135416228Y-117149500D01*
X135251925Y-117182182D01*
X135251917Y-117182184D01*
X135097139Y-117246295D01*
X134957837Y-117339373D01*
X134839373Y-117457837D01*
X134746295Y-117597139D01*
X134682184Y-117751917D01*
X134682182Y-117751925D01*
X134649500Y-117916228D01*
X100624042Y-117916228D01*
X100536819Y-117829005D01*
X100503334Y-117767682D01*
X100500500Y-117741324D01*
X100500500Y-115874038D01*
X122899500Y-115874038D01*
X122899500Y-116125961D01*
X122938910Y-116374785D01*
X123016760Y-116614383D01*
X123131132Y-116838848D01*
X123279201Y-117042649D01*
X123279205Y-117042654D01*
X123457345Y-117220794D01*
X123457350Y-117220798D01*
X123492447Y-117246297D01*
X123661155Y-117368870D01*
X123804184Y-117441747D01*
X123885616Y-117483239D01*
X123885618Y-117483239D01*
X123885621Y-117483241D01*
X124125215Y-117561090D01*
X124374038Y-117600500D01*
X124374039Y-117600500D01*
X124625961Y-117600500D01*
X124625962Y-117600500D01*
X124874785Y-117561090D01*
X125114379Y-117483241D01*
X125338845Y-117368870D01*
X125542656Y-117220793D01*
X125720793Y-117042656D01*
X125868870Y-116838845D01*
X125983241Y-116614379D01*
X126061090Y-116374785D01*
X126100500Y-116125962D01*
X126100500Y-115874038D01*
X126061090Y-115625215D01*
X125993186Y-115416228D01*
X134649500Y-115416228D01*
X134649500Y-115583771D01*
X134682182Y-115748074D01*
X134682184Y-115748082D01*
X134746295Y-115902860D01*
X134839373Y-116042162D01*
X134957837Y-116160626D01*
X135050494Y-116222537D01*
X135097137Y-116253703D01*
X135251918Y-116317816D01*
X135416228Y-116350499D01*
X135416232Y-116350500D01*
X135416233Y-116350500D01*
X135583768Y-116350500D01*
X135583769Y-116350499D01*
X135748082Y-116317816D01*
X135902863Y-116253703D01*
X136042162Y-116160626D01*
X136160626Y-116042162D01*
X136253703Y-115902863D01*
X136317816Y-115748082D01*
X136350500Y-115583767D01*
X136350500Y-115416233D01*
X136350499Y-115416228D01*
X144649500Y-115416228D01*
X144649500Y-115583771D01*
X144682182Y-115748074D01*
X144682184Y-115748082D01*
X144746295Y-115902860D01*
X144839373Y-116042162D01*
X144957837Y-116160626D01*
X145050494Y-116222537D01*
X145097137Y-116253703D01*
X145251918Y-116317816D01*
X145416228Y-116350499D01*
X145416232Y-116350500D01*
X145416233Y-116350500D01*
X145583768Y-116350500D01*
X145583769Y-116350499D01*
X145748082Y-116317816D01*
X145902863Y-116253703D01*
X146042162Y-116160626D01*
X146160626Y-116042162D01*
X146253703Y-115902863D01*
X146317816Y-115748082D01*
X146350500Y-115583767D01*
X146350500Y-115416233D01*
X146317816Y-115251918D01*
X146253703Y-115097137D01*
X146222537Y-115050494D01*
X146160626Y-114957837D01*
X146042162Y-114839373D01*
X145902860Y-114746295D01*
X145748082Y-114682184D01*
X145748074Y-114682182D01*
X145583771Y-114649500D01*
X145583767Y-114649500D01*
X145416233Y-114649500D01*
X145416228Y-114649500D01*
X145251925Y-114682182D01*
X145251917Y-114682184D01*
X145097139Y-114746295D01*
X144957837Y-114839373D01*
X144839373Y-114957837D01*
X144746295Y-115097139D01*
X144682184Y-115251917D01*
X144682182Y-115251925D01*
X144649500Y-115416228D01*
X136350499Y-115416228D01*
X136317816Y-115251918D01*
X136253703Y-115097137D01*
X136222537Y-115050494D01*
X136160626Y-114957837D01*
X136042162Y-114839373D01*
X135902860Y-114746295D01*
X135748082Y-114682184D01*
X135748074Y-114682182D01*
X135583771Y-114649500D01*
X135583767Y-114649500D01*
X135416233Y-114649500D01*
X135416228Y-114649500D01*
X135251925Y-114682182D01*
X135251917Y-114682184D01*
X135097139Y-114746295D01*
X134957837Y-114839373D01*
X134839373Y-114957837D01*
X134746295Y-115097139D01*
X134682184Y-115251917D01*
X134682182Y-115251925D01*
X134649500Y-115416228D01*
X125993186Y-115416228D01*
X125983241Y-115385621D01*
X125868870Y-115161155D01*
X125822358Y-115097137D01*
X125720798Y-114957350D01*
X125720794Y-114957345D01*
X125542654Y-114779205D01*
X125542649Y-114779201D01*
X125338848Y-114631132D01*
X125338847Y-114631131D01*
X125338845Y-114631130D01*
X125268747Y-114595413D01*
X125114383Y-114516760D01*
X124874785Y-114438910D01*
X124625962Y-114399500D01*
X124374038Y-114399500D01*
X124249626Y-114419205D01*
X124125214Y-114438910D01*
X123885616Y-114516760D01*
X123661151Y-114631132D01*
X123457350Y-114779201D01*
X123457345Y-114779205D01*
X123279205Y-114957345D01*
X123279201Y-114957350D01*
X123131132Y-115161151D01*
X123016760Y-115385616D01*
X122938910Y-115625214D01*
X122899500Y-115874038D01*
X100500500Y-115874038D01*
X100500500Y-107802135D01*
X105149500Y-107802135D01*
X105149500Y-109997870D01*
X105149501Y-109997876D01*
X105155908Y-110057483D01*
X105206202Y-110192328D01*
X105206206Y-110192335D01*
X105292452Y-110307544D01*
X105292455Y-110307547D01*
X105407664Y-110393793D01*
X105407671Y-110393797D01*
X105542517Y-110444091D01*
X105542516Y-110444091D01*
X105549444Y-110444835D01*
X105602127Y-110450500D01*
X107797872Y-110450499D01*
X107857483Y-110444091D01*
X107992331Y-110393796D01*
X108107546Y-110307546D01*
X108193796Y-110192331D01*
X108244091Y-110057483D01*
X108250500Y-109997873D01*
X108250499Y-108777973D01*
X110149500Y-108777973D01*
X110149500Y-109022026D01*
X110184104Y-109240509D01*
X110187679Y-109263076D01*
X110263096Y-109495185D01*
X110358376Y-109682184D01*
X110373896Y-109712642D01*
X110517339Y-109910076D01*
X110517343Y-109910081D01*
X110689918Y-110082656D01*
X110689923Y-110082660D01*
X110840879Y-110192335D01*
X110887361Y-110226106D01*
X111104815Y-110336904D01*
X111336924Y-110412321D01*
X111577973Y-110450500D01*
X111577974Y-110450500D01*
X111822026Y-110450500D01*
X111822027Y-110450500D01*
X112063076Y-110412321D01*
X112295185Y-110336904D01*
X112512639Y-110226106D01*
X112710083Y-110082655D01*
X112876510Y-109916228D01*
X134649500Y-109916228D01*
X134649500Y-111083771D01*
X134682182Y-111248074D01*
X134682184Y-111248082D01*
X134746295Y-111402860D01*
X134839373Y-111542162D01*
X134957837Y-111660626D01*
X135050494Y-111722537D01*
X135097137Y-111753703D01*
X135251918Y-111817816D01*
X135416228Y-111850499D01*
X135416232Y-111850500D01*
X135416233Y-111850500D01*
X135583768Y-111850500D01*
X135583769Y-111850499D01*
X135748082Y-111817816D01*
X135902863Y-111753703D01*
X136042162Y-111660626D01*
X136160626Y-111542162D01*
X136253703Y-111402863D01*
X136317816Y-111248082D01*
X136350500Y-111083767D01*
X136350500Y-110046530D01*
X136949500Y-110046530D01*
X136949500Y-110953469D01*
X136989868Y-111156412D01*
X136989870Y-111156420D01*
X137027834Y-111248074D01*
X137069059Y-111347598D01*
X137070998Y-111350500D01*
X137184024Y-111519657D01*
X137330342Y-111665975D01*
X137330345Y-111665977D01*
X137502402Y-111780941D01*
X137693580Y-111860130D01*
X137896530Y-111900499D01*
X137896534Y-111900500D01*
X137896535Y-111900500D01*
X138103466Y-111900500D01*
X138103467Y-111900499D01*
X138306420Y-111860130D01*
X138497598Y-111780941D01*
X138669655Y-111665977D01*
X138815977Y-111519655D01*
X138930941Y-111347598D01*
X139010130Y-111156420D01*
X139050500Y-110953465D01*
X139050500Y-110416228D01*
X139649500Y-110416228D01*
X139649500Y-110583771D01*
X139682182Y-110748074D01*
X139682184Y-110748082D01*
X139746295Y-110902860D01*
X139839373Y-111042162D01*
X139957837Y-111160626D01*
X140050494Y-111222537D01*
X140097137Y-111253703D01*
X140251918Y-111317816D01*
X140401644Y-111347598D01*
X140416228Y-111350499D01*
X140416232Y-111350500D01*
X140416233Y-111350500D01*
X140583768Y-111350500D01*
X140583769Y-111350499D01*
X140748082Y-111317816D01*
X140902863Y-111253703D01*
X141042162Y-111160626D01*
X141160626Y-111042162D01*
X141253703Y-110902863D01*
X141317816Y-110748082D01*
X141350500Y-110583767D01*
X141350500Y-110416233D01*
X141317816Y-110251918D01*
X141253703Y-110097137D01*
X141244027Y-110082656D01*
X141195036Y-110009335D01*
X141195035Y-110009334D01*
X141160626Y-109957838D01*
X141160623Y-109957834D01*
X141149319Y-109946530D01*
X141949500Y-109946530D01*
X141949500Y-111053469D01*
X141989868Y-111256412D01*
X141989870Y-111256420D01*
X142069058Y-111447596D01*
X142184024Y-111619657D01*
X142330342Y-111765975D01*
X142330345Y-111765977D01*
X142502402Y-111880941D01*
X142693580Y-111960130D01*
X142896530Y-112000499D01*
X142896534Y-112000500D01*
X142896535Y-112000500D01*
X143103466Y-112000500D01*
X143103467Y-112000499D01*
X143306420Y-111960130D01*
X143497598Y-111880941D01*
X143669655Y-111765977D01*
X143815977Y-111619655D01*
X143930941Y-111447598D01*
X144010130Y-111256420D01*
X144050500Y-111053465D01*
X144050500Y-109946535D01*
X144044472Y-109916232D01*
X144044471Y-109916228D01*
X144649500Y-109916228D01*
X144649500Y-111083771D01*
X144682182Y-111248074D01*
X144682184Y-111248082D01*
X144746295Y-111402860D01*
X144839373Y-111542162D01*
X144957837Y-111660626D01*
X145050494Y-111722537D01*
X145097137Y-111753703D01*
X145251918Y-111817816D01*
X145416228Y-111850499D01*
X145416232Y-111850500D01*
X145416233Y-111850500D01*
X145583768Y-111850500D01*
X145583769Y-111850499D01*
X145748082Y-111817816D01*
X145902863Y-111753703D01*
X146042162Y-111660626D01*
X146160626Y-111542162D01*
X146253703Y-111402863D01*
X146317816Y-111248082D01*
X146350500Y-111083767D01*
X146350500Y-109916233D01*
X146317816Y-109751918D01*
X146253703Y-109597137D01*
X146175663Y-109480342D01*
X146160626Y-109457837D01*
X146042162Y-109339373D01*
X145902860Y-109246295D01*
X145748082Y-109182184D01*
X145748074Y-109182182D01*
X145583771Y-109149500D01*
X145583767Y-109149500D01*
X145416233Y-109149500D01*
X145416228Y-109149500D01*
X145251925Y-109182182D01*
X145251917Y-109182184D01*
X145097139Y-109246295D01*
X144957837Y-109339373D01*
X144839373Y-109457837D01*
X144746295Y-109597139D01*
X144682184Y-109751917D01*
X144682182Y-109751925D01*
X144649500Y-109916228D01*
X144044471Y-109916228D01*
X144031266Y-109849840D01*
X144010130Y-109743580D01*
X143930941Y-109552402D01*
X143815977Y-109380345D01*
X143815975Y-109380342D01*
X143669657Y-109234024D01*
X143525962Y-109138011D01*
X143497598Y-109119059D01*
X143306420Y-109039870D01*
X143306412Y-109039868D01*
X143103469Y-108999500D01*
X143103465Y-108999500D01*
X142896535Y-108999500D01*
X142896530Y-108999500D01*
X142693587Y-109039868D01*
X142693579Y-109039870D01*
X142502403Y-109119058D01*
X142330342Y-109234024D01*
X142184024Y-109380342D01*
X142069058Y-109552403D01*
X141989870Y-109743579D01*
X141989868Y-109743587D01*
X141949500Y-109946530D01*
X141149319Y-109946530D01*
X141042162Y-109839373D01*
X140902860Y-109746295D01*
X140748082Y-109682184D01*
X140748074Y-109682182D01*
X140583771Y-109649500D01*
X140583767Y-109649500D01*
X140416233Y-109649500D01*
X140416228Y-109649500D01*
X140251925Y-109682182D01*
X140251917Y-109682184D01*
X140097139Y-109746295D01*
X139957837Y-109839373D01*
X139839373Y-109957837D01*
X139746295Y-110097139D01*
X139682184Y-110251917D01*
X139682182Y-110251925D01*
X139649500Y-110416228D01*
X139050500Y-110416228D01*
X139050500Y-110046535D01*
X139010130Y-109843580D01*
X138930941Y-109652402D01*
X138815977Y-109480345D01*
X138815975Y-109480342D01*
X138669657Y-109334024D01*
X138583626Y-109276541D01*
X138497598Y-109219059D01*
X138408574Y-109182184D01*
X138306420Y-109139870D01*
X138306412Y-109139868D01*
X138103469Y-109099500D01*
X138103465Y-109099500D01*
X137896535Y-109099500D01*
X137896530Y-109099500D01*
X137693587Y-109139868D01*
X137693579Y-109139870D01*
X137502403Y-109219058D01*
X137330342Y-109334024D01*
X137184024Y-109480342D01*
X137069058Y-109652403D01*
X136989870Y-109843579D01*
X136989868Y-109843587D01*
X136949500Y-110046530D01*
X136350500Y-110046530D01*
X136350500Y-109916233D01*
X136317816Y-109751918D01*
X136253703Y-109597137D01*
X136175663Y-109480342D01*
X136160626Y-109457837D01*
X136042162Y-109339373D01*
X135902860Y-109246295D01*
X135748082Y-109182184D01*
X135748074Y-109182182D01*
X135583771Y-109149500D01*
X135583767Y-109149500D01*
X135416233Y-109149500D01*
X135416228Y-109149500D01*
X135251925Y-109182182D01*
X135251917Y-109182184D01*
X135097139Y-109246295D01*
X134957837Y-109339373D01*
X134839373Y-109457837D01*
X134746295Y-109597139D01*
X134682184Y-109751917D01*
X134682182Y-109751925D01*
X134649500Y-109916228D01*
X112876510Y-109916228D01*
X112882655Y-109910083D01*
X112886037Y-109905427D01*
X112935568Y-109837256D01*
X113026103Y-109712643D01*
X113026104Y-109712642D01*
X113026106Y-109712639D01*
X113136904Y-109495185D01*
X113212321Y-109263076D01*
X113250500Y-109022027D01*
X113250500Y-108777973D01*
X113212321Y-108536924D01*
X113136904Y-108304815D01*
X113026106Y-108087361D01*
X112955737Y-107990506D01*
X112882660Y-107889923D01*
X112882656Y-107889918D01*
X112710081Y-107717343D01*
X112710076Y-107717339D01*
X112512644Y-107573897D01*
X112512641Y-107573895D01*
X112323504Y-107477525D01*
X131349500Y-107477525D01*
X131349500Y-107622475D01*
X131381666Y-107742517D01*
X131387017Y-107762488D01*
X131459488Y-107888011D01*
X131459490Y-107888013D01*
X131459491Y-107888015D01*
X131561985Y-107990509D01*
X131561986Y-107990510D01*
X131561988Y-107990511D01*
X131687510Y-108062982D01*
X131687512Y-108062982D01*
X131687515Y-108062984D01*
X131697535Y-108065668D01*
X131757194Y-108102031D01*
X131787725Y-108164877D01*
X131779432Y-108234253D01*
X131734948Y-108288132D01*
X131727443Y-108292829D01*
X131611991Y-108359487D01*
X131611982Y-108359493D01*
X131509493Y-108461982D01*
X131509488Y-108461988D01*
X131437017Y-108587511D01*
X131437016Y-108587515D01*
X131399500Y-108727525D01*
X131399500Y-108872475D01*
X131433537Y-108999500D01*
X131437017Y-109012488D01*
X131509488Y-109138011D01*
X131509490Y-109138013D01*
X131509491Y-109138015D01*
X131611985Y-109240509D01*
X131611986Y-109240510D01*
X131611988Y-109240511D01*
X131737511Y-109312982D01*
X131737512Y-109312982D01*
X131737515Y-109312984D01*
X131877525Y-109350500D01*
X131877528Y-109350500D01*
X132022472Y-109350500D01*
X132022475Y-109350500D01*
X132162485Y-109312984D01*
X132288015Y-109240509D01*
X132390509Y-109138015D01*
X132462984Y-109012485D01*
X132500500Y-108872475D01*
X132500500Y-108727525D01*
X132462984Y-108587515D01*
X132390509Y-108461985D01*
X132288015Y-108359491D01*
X132288013Y-108359490D01*
X132288011Y-108359488D01*
X132162488Y-108287017D01*
X132162483Y-108287015D01*
X132152462Y-108284330D01*
X132092802Y-108247965D01*
X132062274Y-108185118D01*
X132070569Y-108115742D01*
X132115055Y-108061865D01*
X132122557Y-108057169D01*
X132129952Y-108052898D01*
X132238015Y-107990509D01*
X132340509Y-107888015D01*
X132412984Y-107762485D01*
X132450500Y-107622475D01*
X132450500Y-107477525D01*
X132412984Y-107337515D01*
X132340509Y-107211985D01*
X132238015Y-107109491D01*
X132238013Y-107109490D01*
X132238011Y-107109488D01*
X132112488Y-107037017D01*
X132112489Y-107037017D01*
X132101006Y-107033940D01*
X131972475Y-106999500D01*
X131827525Y-106999500D01*
X131698993Y-107033940D01*
X131687511Y-107037017D01*
X131561988Y-107109488D01*
X131561982Y-107109493D01*
X131459493Y-107211982D01*
X131459488Y-107211988D01*
X131387017Y-107337511D01*
X131387016Y-107337515D01*
X131349500Y-107477525D01*
X112323504Y-107477525D01*
X112295187Y-107463097D01*
X112295186Y-107463096D01*
X112295185Y-107463096D01*
X112063076Y-107387679D01*
X112063074Y-107387678D01*
X112063072Y-107387678D01*
X111862491Y-107355909D01*
X111822027Y-107349500D01*
X111577973Y-107349500D01*
X111537515Y-107355908D01*
X111336927Y-107387678D01*
X111104812Y-107463097D01*
X110887357Y-107573896D01*
X110689923Y-107717339D01*
X110689918Y-107717343D01*
X110517343Y-107889918D01*
X110517339Y-107889923D01*
X110373896Y-108087357D01*
X110263097Y-108304812D01*
X110187678Y-108536927D01*
X110149500Y-108777973D01*
X108250499Y-108777973D01*
X108250499Y-107802128D01*
X108244091Y-107742517D01*
X108234702Y-107717345D01*
X108193797Y-107607671D01*
X108193793Y-107607664D01*
X108107547Y-107492455D01*
X108107544Y-107492452D01*
X107992335Y-107406206D01*
X107992328Y-107406202D01*
X107857482Y-107355908D01*
X107857483Y-107355908D01*
X107797883Y-107349501D01*
X107797881Y-107349500D01*
X107797873Y-107349500D01*
X107797864Y-107349500D01*
X105602129Y-107349500D01*
X105602123Y-107349501D01*
X105542516Y-107355908D01*
X105407671Y-107406202D01*
X105407664Y-107406206D01*
X105292455Y-107492452D01*
X105292452Y-107492455D01*
X105206206Y-107607664D01*
X105206202Y-107607671D01*
X105155908Y-107742517D01*
X105149501Y-107802116D01*
X105149501Y-107802123D01*
X105149500Y-107802135D01*
X100500500Y-107802135D01*
X100500500Y-103277525D01*
X121549500Y-103277525D01*
X121549500Y-103422475D01*
X121587016Y-103562485D01*
X121587017Y-103562488D01*
X121659488Y-103688011D01*
X121659490Y-103688013D01*
X121659491Y-103688015D01*
X121761985Y-103790509D01*
X121761986Y-103790510D01*
X121761988Y-103790511D01*
X121887511Y-103862982D01*
X121887512Y-103862982D01*
X121887515Y-103862984D01*
X122027525Y-103900500D01*
X122027528Y-103900500D01*
X122172472Y-103900500D01*
X122172475Y-103900500D01*
X122312485Y-103862984D01*
X122438015Y-103790509D01*
X122540509Y-103688015D01*
X122612984Y-103562485D01*
X122650500Y-103422475D01*
X122650500Y-103277525D01*
X122612984Y-103137515D01*
X122540509Y-103011985D01*
X122438015Y-102909491D01*
X122438013Y-102909490D01*
X122438011Y-102909488D01*
X122312488Y-102837017D01*
X122312489Y-102837017D01*
X122301006Y-102833940D01*
X122172475Y-102799500D01*
X122027525Y-102799500D01*
X121898993Y-102833940D01*
X121887511Y-102837017D01*
X121761988Y-102909488D01*
X121761982Y-102909493D01*
X121659493Y-103011982D01*
X121659488Y-103011988D01*
X121587017Y-103137511D01*
X121587016Y-103137515D01*
X121549500Y-103277525D01*
X100500500Y-103277525D01*
X100500500Y-100259228D01*
X125704500Y-100259228D01*
X125704500Y-100404178D01*
X125742016Y-100544188D01*
X125742017Y-100544191D01*
X125814488Y-100669714D01*
X125814490Y-100669716D01*
X125814491Y-100669718D01*
X125916985Y-100772212D01*
X125916986Y-100772213D01*
X125916988Y-100772214D01*
X126042511Y-100844685D01*
X126042512Y-100844685D01*
X126042515Y-100844687D01*
X126182525Y-100882203D01*
X126182528Y-100882203D01*
X126327472Y-100882203D01*
X126327475Y-100882203D01*
X126467485Y-100844687D01*
X126593015Y-100772212D01*
X126695509Y-100669718D01*
X126767984Y-100544188D01*
X126805500Y-100404178D01*
X126805500Y-100259228D01*
X126767984Y-100119218D01*
X126695509Y-99993688D01*
X126593015Y-99891194D01*
X126593013Y-99891193D01*
X126593011Y-99891191D01*
X126563301Y-99874038D01*
X135899500Y-99874038D01*
X135899500Y-100125961D01*
X135938910Y-100374785D01*
X136016760Y-100614383D01*
X136131132Y-100838848D01*
X136279201Y-101042649D01*
X136279205Y-101042654D01*
X136457345Y-101220794D01*
X136457350Y-101220798D01*
X136635117Y-101349952D01*
X136661155Y-101368870D01*
X136804184Y-101441747D01*
X136885616Y-101483239D01*
X136885618Y-101483239D01*
X136885621Y-101483241D01*
X137125215Y-101561090D01*
X137374038Y-101600500D01*
X137374039Y-101600500D01*
X137625961Y-101600500D01*
X137625962Y-101600500D01*
X137874785Y-101561090D01*
X138114379Y-101483241D01*
X138338845Y-101368870D01*
X138542656Y-101220793D01*
X138720793Y-101042656D01*
X138868870Y-100838845D01*
X138983241Y-100614379D01*
X139061090Y-100374785D01*
X139100500Y-100125962D01*
X139100500Y-99874038D01*
X139061090Y-99625215D01*
X138983241Y-99385621D01*
X138983239Y-99385618D01*
X138983239Y-99385616D01*
X138941747Y-99304184D01*
X138868870Y-99161155D01*
X138849952Y-99135117D01*
X138720798Y-98957350D01*
X138720794Y-98957345D01*
X138542654Y-98779205D01*
X138542649Y-98779201D01*
X138338848Y-98631132D01*
X138338847Y-98631131D01*
X138338845Y-98631130D01*
X138268747Y-98595413D01*
X138114383Y-98516760D01*
X137874785Y-98438910D01*
X137625962Y-98399500D01*
X137374038Y-98399500D01*
X137249626Y-98419205D01*
X137125214Y-98438910D01*
X136885616Y-98516760D01*
X136661151Y-98631132D01*
X136457350Y-98779201D01*
X136457345Y-98779205D01*
X136279205Y-98957345D01*
X136279201Y-98957350D01*
X136131132Y-99161151D01*
X136016760Y-99385616D01*
X135938910Y-99625214D01*
X135899500Y-99874038D01*
X126563301Y-99874038D01*
X126467488Y-99818720D01*
X126467489Y-99818720D01*
X126456006Y-99815643D01*
X126327475Y-99781203D01*
X126182525Y-99781203D01*
X126053993Y-99815643D01*
X126042511Y-99818720D01*
X125916988Y-99891191D01*
X125916982Y-99891196D01*
X125814493Y-99993685D01*
X125814488Y-99993691D01*
X125742017Y-100119214D01*
X125742016Y-100119218D01*
X125704500Y-100259228D01*
X100500500Y-100259228D01*
X100500500Y-97392525D01*
X117049500Y-97392525D01*
X117049500Y-97537475D01*
X117066388Y-97600500D01*
X117087017Y-97677488D01*
X117159488Y-97803011D01*
X117159490Y-97803013D01*
X117159491Y-97803015D01*
X117261985Y-97905509D01*
X117261986Y-97905510D01*
X117261988Y-97905511D01*
X117387511Y-97977982D01*
X117387512Y-97977982D01*
X117387515Y-97977984D01*
X117527525Y-98015500D01*
X117527528Y-98015500D01*
X117672472Y-98015500D01*
X117672475Y-98015500D01*
X117812485Y-97977984D01*
X117938015Y-97905509D01*
X118040509Y-97803015D01*
X118112984Y-97677485D01*
X118150500Y-97537475D01*
X118150500Y-97478386D01*
X118170185Y-97411347D01*
X118222989Y-97365592D01*
X118292147Y-97355648D01*
X118355703Y-97384673D01*
X118362181Y-97390705D01*
X118461985Y-97490509D01*
X118461986Y-97490510D01*
X118461988Y-97490511D01*
X118587511Y-97562982D01*
X118587512Y-97562982D01*
X118587515Y-97562984D01*
X118727525Y-97600500D01*
X118727528Y-97600500D01*
X118872472Y-97600500D01*
X118872475Y-97600500D01*
X119012485Y-97562984D01*
X119138015Y-97490509D01*
X119200999Y-97427525D01*
X122599500Y-97427525D01*
X122599500Y-97572475D01*
X122637016Y-97712485D01*
X122637017Y-97712488D01*
X122709488Y-97838011D01*
X122709490Y-97838013D01*
X122709491Y-97838015D01*
X122811985Y-97940509D01*
X122811986Y-97940510D01*
X122811988Y-97940511D01*
X122937511Y-98012982D01*
X122937512Y-98012982D01*
X122937515Y-98012984D01*
X123077525Y-98050500D01*
X123077528Y-98050500D01*
X123222472Y-98050500D01*
X123222475Y-98050500D01*
X123362485Y-98012984D01*
X123488015Y-97940509D01*
X123590509Y-97838015D01*
X123662984Y-97712485D01*
X123700500Y-97572475D01*
X123700500Y-97427525D01*
X125799500Y-97427525D01*
X125799500Y-97572475D01*
X125837016Y-97712485D01*
X125837017Y-97712488D01*
X125909488Y-97838011D01*
X125909490Y-97838013D01*
X125909491Y-97838015D01*
X126011985Y-97940509D01*
X126011986Y-97940510D01*
X126011988Y-97940511D01*
X126137511Y-98012982D01*
X126137512Y-98012982D01*
X126137515Y-98012984D01*
X126277525Y-98050500D01*
X126277528Y-98050500D01*
X126422472Y-98050500D01*
X126422475Y-98050500D01*
X126562485Y-98012984D01*
X126688015Y-97940509D01*
X126790509Y-97838015D01*
X126862984Y-97712485D01*
X126900500Y-97572475D01*
X126900500Y-97427525D01*
X126862984Y-97287515D01*
X126842774Y-97252511D01*
X126790511Y-97161988D01*
X126790506Y-97161982D01*
X126688017Y-97059493D01*
X126688015Y-97059491D01*
X126665722Y-97046620D01*
X126665721Y-97046619D01*
X126562488Y-96987017D01*
X126562489Y-96987017D01*
X126551006Y-96983940D01*
X126422475Y-96949500D01*
X126277525Y-96949500D01*
X126148993Y-96983940D01*
X126137511Y-96987017D01*
X126011988Y-97059488D01*
X126011982Y-97059493D01*
X125909493Y-97161982D01*
X125909488Y-97161988D01*
X125837017Y-97287511D01*
X125837016Y-97287515D01*
X125799500Y-97427525D01*
X123700500Y-97427525D01*
X123662984Y-97287515D01*
X123642774Y-97252511D01*
X123590511Y-97161988D01*
X123590506Y-97161982D01*
X123488017Y-97059493D01*
X123488011Y-97059488D01*
X123362488Y-96987017D01*
X123362489Y-96987017D01*
X123351006Y-96983940D01*
X123222475Y-96949500D01*
X123077525Y-96949500D01*
X122948993Y-96983940D01*
X122937511Y-96987017D01*
X122811988Y-97059488D01*
X122811982Y-97059493D01*
X122709493Y-97161982D01*
X122709488Y-97161988D01*
X122637017Y-97287511D01*
X122637016Y-97287515D01*
X122599500Y-97427525D01*
X119200999Y-97427525D01*
X119240509Y-97388015D01*
X119312984Y-97262485D01*
X119350500Y-97122475D01*
X119350500Y-96977525D01*
X119341871Y-96945321D01*
X144499500Y-96945321D01*
X144499500Y-98694678D01*
X144514032Y-98767735D01*
X144514033Y-98767739D01*
X144521696Y-98779207D01*
X144569399Y-98850601D01*
X144652260Y-98905966D01*
X144652264Y-98905967D01*
X144725321Y-98920499D01*
X144725324Y-98920500D01*
X144725326Y-98920500D01*
X146474676Y-98920500D01*
X146474677Y-98920499D01*
X146547740Y-98905966D01*
X146630601Y-98850601D01*
X146685966Y-98767740D01*
X146700500Y-98694674D01*
X146700500Y-96945326D01*
X146700500Y-96945323D01*
X146700499Y-96945321D01*
X146685967Y-96872264D01*
X146685966Y-96872260D01*
X146630601Y-96789399D01*
X146547740Y-96734034D01*
X146547739Y-96734033D01*
X146547735Y-96734032D01*
X146474677Y-96719500D01*
X146474674Y-96719500D01*
X144725326Y-96719500D01*
X144725323Y-96719500D01*
X144652264Y-96734032D01*
X144652260Y-96734033D01*
X144569399Y-96789399D01*
X144514033Y-96872260D01*
X144514032Y-96872264D01*
X144499500Y-96945321D01*
X119341871Y-96945321D01*
X119312984Y-96837515D01*
X119253238Y-96734033D01*
X119240511Y-96711988D01*
X119240506Y-96711982D01*
X119138017Y-96609493D01*
X119138011Y-96609488D01*
X119012488Y-96537017D01*
X119012489Y-96537017D01*
X119001006Y-96533940D01*
X118872475Y-96499500D01*
X118727525Y-96499500D01*
X118598993Y-96533940D01*
X118587511Y-96537017D01*
X118461988Y-96609488D01*
X118461982Y-96609493D01*
X118359493Y-96711982D01*
X118359488Y-96711988D01*
X118287017Y-96837511D01*
X118287016Y-96837515D01*
X118249500Y-96977525D01*
X118249500Y-96977527D01*
X118249500Y-97036614D01*
X118229815Y-97103653D01*
X118177011Y-97149408D01*
X118107853Y-97159352D01*
X118044297Y-97130327D01*
X118037819Y-97124295D01*
X117938017Y-97024493D01*
X117938011Y-97024488D01*
X117812488Y-96952017D01*
X117812489Y-96952017D01*
X117787518Y-96945326D01*
X117672475Y-96914500D01*
X117527525Y-96914500D01*
X117412482Y-96945326D01*
X117387511Y-96952017D01*
X117261988Y-97024488D01*
X117261982Y-97024493D01*
X117159493Y-97126982D01*
X117159488Y-97126988D01*
X117087017Y-97252511D01*
X117084344Y-97262488D01*
X117049500Y-97392525D01*
X100500500Y-97392525D01*
X100500500Y-95827525D01*
X112149500Y-95827525D01*
X112149500Y-95972475D01*
X112156053Y-95996929D01*
X112187017Y-96112488D01*
X112259488Y-96238011D01*
X112259490Y-96238013D01*
X112259491Y-96238015D01*
X112361985Y-96340509D01*
X112361986Y-96340510D01*
X112361988Y-96340511D01*
X112487511Y-96412982D01*
X112487512Y-96412982D01*
X112487515Y-96412984D01*
X112627525Y-96450500D01*
X112627528Y-96450500D01*
X112772472Y-96450500D01*
X112772475Y-96450500D01*
X112912485Y-96412984D01*
X113038015Y-96340509D01*
X113140509Y-96238015D01*
X113212984Y-96112485D01*
X113250500Y-95972475D01*
X113250500Y-95874500D01*
X113270185Y-95807461D01*
X113322989Y-95761706D01*
X113374500Y-95750500D01*
X113472472Y-95750500D01*
X113472475Y-95750500D01*
X113612485Y-95712984D01*
X113738015Y-95640509D01*
X113840509Y-95538015D01*
X113912984Y-95412485D01*
X113950500Y-95272475D01*
X113950500Y-95127525D01*
X113912984Y-94987515D01*
X113912982Y-94987511D01*
X113912982Y-94987510D01*
X113912981Y-94987509D01*
X113889246Y-94946399D01*
X113889245Y-94946398D01*
X113858141Y-94892525D01*
X114549500Y-94892525D01*
X114549500Y-95037475D01*
X114587016Y-95177485D01*
X114587017Y-95177488D01*
X114659488Y-95303011D01*
X114659490Y-95303013D01*
X114659491Y-95303015D01*
X114761985Y-95405509D01*
X114761986Y-95405510D01*
X114761988Y-95405511D01*
X114887511Y-95477982D01*
X114887512Y-95477982D01*
X114887515Y-95477984D01*
X115027525Y-95515500D01*
X115027528Y-95515500D01*
X115172472Y-95515500D01*
X115172475Y-95515500D01*
X115312485Y-95477984D01*
X115438015Y-95405509D01*
X115540509Y-95303015D01*
X115603802Y-95193389D01*
X144499500Y-95193389D01*
X144499500Y-95366610D01*
X144523081Y-95515500D01*
X144526598Y-95537701D01*
X144580127Y-95702445D01*
X144658768Y-95856788D01*
X144760586Y-95996928D01*
X144883072Y-96119414D01*
X145023212Y-96221232D01*
X145177555Y-96299873D01*
X145342299Y-96353402D01*
X145513389Y-96380500D01*
X145513390Y-96380500D01*
X145686610Y-96380500D01*
X145686611Y-96380500D01*
X145857701Y-96353402D01*
X146022445Y-96299873D01*
X146176788Y-96221232D01*
X146316928Y-96119414D01*
X146439414Y-95996928D01*
X146541232Y-95856788D01*
X146619873Y-95702445D01*
X146673402Y-95537701D01*
X146700500Y-95366611D01*
X146700500Y-95193389D01*
X146673402Y-95022299D01*
X146619873Y-94857555D01*
X146541232Y-94703212D01*
X146439414Y-94563072D01*
X146316928Y-94440586D01*
X146176788Y-94338768D01*
X146022445Y-94260127D01*
X145857701Y-94206598D01*
X145857699Y-94206597D01*
X145857698Y-94206597D01*
X145726271Y-94185781D01*
X145686611Y-94179500D01*
X145513389Y-94179500D01*
X145473728Y-94185781D01*
X145342302Y-94206597D01*
X145177552Y-94260128D01*
X145023211Y-94338768D01*
X144943256Y-94396859D01*
X144883072Y-94440586D01*
X144883070Y-94440588D01*
X144883069Y-94440588D01*
X144760588Y-94563069D01*
X144760588Y-94563070D01*
X144760586Y-94563072D01*
X144739030Y-94592741D01*
X144658768Y-94703211D01*
X144580128Y-94857552D01*
X144580127Y-94857554D01*
X144580127Y-94857555D01*
X144578689Y-94861982D01*
X144526597Y-95022302D01*
X144499500Y-95193389D01*
X115603802Y-95193389D01*
X115612984Y-95177485D01*
X115650500Y-95037475D01*
X115650500Y-94892525D01*
X115612984Y-94752515D01*
X115584518Y-94703211D01*
X115540511Y-94626988D01*
X115540506Y-94626982D01*
X115438017Y-94524493D01*
X115438011Y-94524488D01*
X115312488Y-94452017D01*
X115312489Y-94452017D01*
X115294918Y-94447309D01*
X115172475Y-94414500D01*
X115027525Y-94414500D01*
X114905082Y-94447309D01*
X114887511Y-94452017D01*
X114761988Y-94524488D01*
X114761982Y-94524493D01*
X114659493Y-94626982D01*
X114659488Y-94626988D01*
X114587017Y-94752511D01*
X114587016Y-94752515D01*
X114549500Y-94892525D01*
X113858141Y-94892525D01*
X113840509Y-94861985D01*
X113738015Y-94759491D01*
X113738013Y-94759490D01*
X113738011Y-94759488D01*
X113612488Y-94687017D01*
X113612489Y-94687017D01*
X113606157Y-94685320D01*
X113548137Y-94669773D01*
X113488479Y-94633410D01*
X113457950Y-94570563D01*
X113466245Y-94501187D01*
X113510730Y-94447309D01*
X113548135Y-94430226D01*
X113612485Y-94412984D01*
X113738015Y-94340509D01*
X113840509Y-94238015D01*
X113912984Y-94112485D01*
X113950500Y-93972475D01*
X113950500Y-93827525D01*
X113912984Y-93687515D01*
X113909356Y-93681232D01*
X113840511Y-93561988D01*
X113840506Y-93561982D01*
X113738017Y-93459493D01*
X113738011Y-93459488D01*
X113612488Y-93387017D01*
X113612489Y-93387017D01*
X113601006Y-93383940D01*
X113472475Y-93349500D01*
X113327525Y-93349500D01*
X113198993Y-93383940D01*
X113187511Y-93387017D01*
X113061988Y-93459488D01*
X113061982Y-93459493D01*
X112959493Y-93561982D01*
X112959488Y-93561988D01*
X112887017Y-93687511D01*
X112887016Y-93687515D01*
X112849500Y-93827525D01*
X112849500Y-93972475D01*
X112878248Y-94079762D01*
X112887017Y-94112488D01*
X112959488Y-94238011D01*
X112959490Y-94238013D01*
X112959491Y-94238015D01*
X113061985Y-94340509D01*
X113061986Y-94340510D01*
X113061988Y-94340511D01*
X113187511Y-94412982D01*
X113187512Y-94412982D01*
X113187515Y-94412984D01*
X113251861Y-94430225D01*
X113311520Y-94466591D01*
X113342049Y-94529438D01*
X113333754Y-94598813D01*
X113289268Y-94652691D01*
X113251862Y-94669774D01*
X113197516Y-94684336D01*
X113187511Y-94687017D01*
X113061988Y-94759488D01*
X113061982Y-94759493D01*
X112959493Y-94861982D01*
X112959488Y-94861988D01*
X112887017Y-94987511D01*
X112887016Y-94987515D01*
X112849500Y-95127525D01*
X112849500Y-95127527D01*
X112849500Y-95225500D01*
X112829815Y-95292539D01*
X112777011Y-95338294D01*
X112725500Y-95349500D01*
X112627525Y-95349500D01*
X112522309Y-95377693D01*
X112487511Y-95387017D01*
X112361988Y-95459488D01*
X112361982Y-95459493D01*
X112259493Y-95561982D01*
X112259488Y-95561988D01*
X112187017Y-95687511D01*
X112187016Y-95687515D01*
X112149500Y-95827525D01*
X100500500Y-95827525D01*
X100500500Y-94447794D01*
X108841679Y-94447794D01*
X108841679Y-94592744D01*
X108866940Y-94687017D01*
X108879196Y-94732757D01*
X108951667Y-94858280D01*
X108951669Y-94858282D01*
X108951670Y-94858284D01*
X109054164Y-94960778D01*
X109054165Y-94960779D01*
X109054167Y-94960780D01*
X109179690Y-95033251D01*
X109179691Y-95033251D01*
X109179694Y-95033253D01*
X109319704Y-95070769D01*
X109319707Y-95070769D01*
X109464651Y-95070769D01*
X109464654Y-95070769D01*
X109604664Y-95033253D01*
X109730194Y-94960778D01*
X109832688Y-94858284D01*
X109905163Y-94732754D01*
X109942679Y-94592744D01*
X109942679Y-94447794D01*
X109905163Y-94307784D01*
X109864879Y-94238011D01*
X109832690Y-94182257D01*
X109832685Y-94182251D01*
X109730196Y-94079762D01*
X109730190Y-94079757D01*
X109604667Y-94007286D01*
X109604668Y-94007286D01*
X109593185Y-94004209D01*
X109464654Y-93969769D01*
X109319704Y-93969769D01*
X109191172Y-94004209D01*
X109179690Y-94007286D01*
X109054167Y-94079757D01*
X109054161Y-94079762D01*
X108951672Y-94182251D01*
X108951667Y-94182257D01*
X108879196Y-94307780D01*
X108879195Y-94307784D01*
X108841679Y-94447794D01*
X100500500Y-94447794D01*
X100500500Y-92592525D01*
X115399500Y-92592525D01*
X115399500Y-92737475D01*
X115437016Y-92877485D01*
X115437017Y-92877488D01*
X115509488Y-93003011D01*
X115509490Y-93003013D01*
X115509491Y-93003015D01*
X115611985Y-93105509D01*
X115611986Y-93105510D01*
X115611988Y-93105511D01*
X115737511Y-93177982D01*
X115737512Y-93177982D01*
X115737515Y-93177984D01*
X115877525Y-93215500D01*
X115877528Y-93215500D01*
X116022472Y-93215500D01*
X116022475Y-93215500D01*
X116162485Y-93177984D01*
X116288015Y-93105509D01*
X116390509Y-93003015D01*
X116462984Y-92877485D01*
X116500500Y-92737475D01*
X116500500Y-92653389D01*
X144499500Y-92653389D01*
X144499500Y-92826611D01*
X144526598Y-92997701D01*
X144580127Y-93162445D01*
X144658768Y-93316788D01*
X144760586Y-93456928D01*
X144883072Y-93579414D01*
X145023212Y-93681232D01*
X145177555Y-93759873D01*
X145342299Y-93813402D01*
X145513389Y-93840500D01*
X145513390Y-93840500D01*
X145686610Y-93840500D01*
X145686611Y-93840500D01*
X145857701Y-93813402D01*
X146022445Y-93759873D01*
X146176788Y-93681232D01*
X146316928Y-93579414D01*
X146439414Y-93456928D01*
X146541232Y-93316788D01*
X146619873Y-93162445D01*
X146673402Y-92997701D01*
X146700500Y-92826611D01*
X146700500Y-92653389D01*
X146673402Y-92482299D01*
X146619873Y-92317555D01*
X146541232Y-92163212D01*
X146439414Y-92023072D01*
X146316928Y-91900586D01*
X146176788Y-91798768D01*
X146022445Y-91720127D01*
X145857701Y-91666598D01*
X145857699Y-91666597D01*
X145857698Y-91666597D01*
X145726271Y-91645781D01*
X145686611Y-91639500D01*
X145513389Y-91639500D01*
X145473728Y-91645781D01*
X145342302Y-91666597D01*
X145177552Y-91720128D01*
X145023211Y-91798768D01*
X144943256Y-91856859D01*
X144883072Y-91900586D01*
X144883070Y-91900588D01*
X144883069Y-91900588D01*
X144760588Y-92023069D01*
X144760588Y-92023070D01*
X144760586Y-92023072D01*
X144716859Y-92083256D01*
X144658768Y-92163211D01*
X144580128Y-92317552D01*
X144526597Y-92482302D01*
X144499500Y-92653389D01*
X116500500Y-92653389D01*
X116500500Y-92592525D01*
X116462984Y-92452515D01*
X116390509Y-92326985D01*
X116288015Y-92224491D01*
X116288013Y-92224490D01*
X116288011Y-92224488D01*
X116162488Y-92152017D01*
X116162489Y-92152017D01*
X116151006Y-92148940D01*
X116022475Y-92114500D01*
X115877525Y-92114500D01*
X115748993Y-92148940D01*
X115737511Y-92152017D01*
X115611988Y-92224488D01*
X115611982Y-92224493D01*
X115509493Y-92326982D01*
X115509488Y-92326988D01*
X115437017Y-92452511D01*
X115437016Y-92452515D01*
X115399500Y-92592525D01*
X100500500Y-92592525D01*
X100500500Y-90627525D01*
X101199500Y-90627525D01*
X101199500Y-90772475D01*
X101237016Y-90912485D01*
X101237017Y-90912488D01*
X101309488Y-91038011D01*
X101309490Y-91038013D01*
X101309491Y-91038015D01*
X101411985Y-91140509D01*
X101411986Y-91140510D01*
X101411988Y-91140511D01*
X101537511Y-91212982D01*
X101537512Y-91212982D01*
X101537515Y-91212984D01*
X101677525Y-91250500D01*
X101677528Y-91250500D01*
X101822472Y-91250500D01*
X101822475Y-91250500D01*
X101962485Y-91212984D01*
X102088015Y-91140509D01*
X102190509Y-91038015D01*
X102262984Y-90912485D01*
X102300500Y-90772475D01*
X102300500Y-90627525D01*
X102262984Y-90487515D01*
X102204354Y-90385966D01*
X102190511Y-90361988D01*
X102190506Y-90361982D01*
X102088017Y-90259493D01*
X102088011Y-90259488D01*
X101962488Y-90187017D01*
X101962489Y-90187017D01*
X101916439Y-90174678D01*
X101822475Y-90149500D01*
X101677525Y-90149500D01*
X101583561Y-90174678D01*
X101537511Y-90187017D01*
X101411988Y-90259488D01*
X101411982Y-90259493D01*
X101309493Y-90361982D01*
X101309488Y-90361988D01*
X101237017Y-90487511D01*
X101237016Y-90487515D01*
X101199500Y-90627525D01*
X100500500Y-90627525D01*
X100500500Y-88425321D01*
X104549500Y-88425321D01*
X104549500Y-90174678D01*
X104564032Y-90247735D01*
X104564033Y-90247739D01*
X104571887Y-90259493D01*
X104619399Y-90330601D01*
X104702260Y-90385966D01*
X104702264Y-90385967D01*
X104775321Y-90400499D01*
X104775324Y-90400500D01*
X104775326Y-90400500D01*
X106524676Y-90400500D01*
X106524677Y-90400499D01*
X106597740Y-90385966D01*
X106680601Y-90330601D01*
X106735966Y-90247740D01*
X106750500Y-90174674D01*
X106750500Y-89213389D01*
X107089500Y-89213389D01*
X107089500Y-89386611D01*
X107116598Y-89557701D01*
X107170127Y-89722445D01*
X107248768Y-89876788D01*
X107350586Y-90016928D01*
X107473072Y-90139414D01*
X107613212Y-90241232D01*
X107767555Y-90319873D01*
X107932299Y-90373402D01*
X108103389Y-90400500D01*
X108103390Y-90400500D01*
X108276610Y-90400500D01*
X108276611Y-90400500D01*
X108447701Y-90373402D01*
X108612445Y-90319873D01*
X108766788Y-90241232D01*
X108906928Y-90139414D01*
X109029414Y-90016928D01*
X109131232Y-89876788D01*
X109209873Y-89722445D01*
X109263402Y-89557701D01*
X109290500Y-89386611D01*
X109290500Y-89305321D01*
X136899500Y-89305321D01*
X136899500Y-91054678D01*
X136914032Y-91127735D01*
X136914033Y-91127739D01*
X136914034Y-91127740D01*
X136969399Y-91210601D01*
X137052260Y-91265966D01*
X137052264Y-91265967D01*
X137125321Y-91280499D01*
X137125324Y-91280500D01*
X137125326Y-91280500D01*
X138874676Y-91280500D01*
X138874677Y-91280499D01*
X138947740Y-91265966D01*
X139030601Y-91210601D01*
X139085966Y-91127740D01*
X139100500Y-91054674D01*
X139100500Y-89305326D01*
X139100500Y-89305323D01*
X139100499Y-89305321D01*
X139085967Y-89232264D01*
X139085966Y-89232260D01*
X139073357Y-89213389D01*
X139030601Y-89149399D01*
X138947740Y-89094034D01*
X138947739Y-89094033D01*
X138947735Y-89094032D01*
X138874677Y-89079500D01*
X138874674Y-89079500D01*
X137125326Y-89079500D01*
X137125323Y-89079500D01*
X137052264Y-89094032D01*
X137052260Y-89094033D01*
X136969399Y-89149399D01*
X136914033Y-89232260D01*
X136914032Y-89232264D01*
X136899500Y-89305321D01*
X109290500Y-89305321D01*
X109290500Y-89213389D01*
X109263402Y-89042299D01*
X109209873Y-88877555D01*
X109131232Y-88723212D01*
X109029414Y-88583072D01*
X108906928Y-88460586D01*
X108766788Y-88358768D01*
X108612445Y-88280127D01*
X108447701Y-88226598D01*
X108447699Y-88226597D01*
X108447698Y-88226597D01*
X108316271Y-88205781D01*
X108276611Y-88199500D01*
X108103389Y-88199500D01*
X108063728Y-88205781D01*
X107932302Y-88226597D01*
X107767552Y-88280128D01*
X107613211Y-88358768D01*
X107533256Y-88416859D01*
X107473072Y-88460586D01*
X107473070Y-88460588D01*
X107473069Y-88460588D01*
X107350588Y-88583069D01*
X107350588Y-88583070D01*
X107350586Y-88583072D01*
X107306859Y-88643256D01*
X107248768Y-88723211D01*
X107170128Y-88877552D01*
X107116597Y-89042302D01*
X107110706Y-89079500D01*
X107089500Y-89213389D01*
X106750500Y-89213389D01*
X106750500Y-88425326D01*
X106750500Y-88425323D01*
X106750499Y-88425321D01*
X106735967Y-88352264D01*
X106735966Y-88352260D01*
X106680601Y-88269399D01*
X106597740Y-88214034D01*
X106597739Y-88214033D01*
X106597735Y-88214032D01*
X106524677Y-88199500D01*
X106524674Y-88199500D01*
X104775326Y-88199500D01*
X104775323Y-88199500D01*
X104702264Y-88214032D01*
X104702260Y-88214033D01*
X104619399Y-88269399D01*
X104564033Y-88352260D01*
X104564032Y-88352264D01*
X104549500Y-88425321D01*
X100500500Y-88425321D01*
X100500500Y-87477525D01*
X117248500Y-87477525D01*
X117248500Y-87622475D01*
X117286016Y-87762485D01*
X117286017Y-87762488D01*
X117358488Y-87888011D01*
X117358490Y-87888013D01*
X117358491Y-87888015D01*
X117460985Y-87990509D01*
X117460986Y-87990510D01*
X117460988Y-87990511D01*
X117586511Y-88062982D01*
X117586512Y-88062982D01*
X117586515Y-88062984D01*
X117726525Y-88100500D01*
X117726528Y-88100500D01*
X117871472Y-88100500D01*
X117871475Y-88100500D01*
X118011485Y-88062984D01*
X118137015Y-87990509D01*
X118239509Y-87888015D01*
X118311984Y-87762485D01*
X118349500Y-87622475D01*
X118349500Y-87477525D01*
X118311984Y-87337515D01*
X118254537Y-87238015D01*
X118239511Y-87211988D01*
X118239506Y-87211982D01*
X118137017Y-87109493D01*
X118137011Y-87109488D01*
X118011488Y-87037017D01*
X118011489Y-87037017D01*
X118000006Y-87033940D01*
X117871475Y-86999500D01*
X117726525Y-86999500D01*
X117597993Y-87033940D01*
X117586511Y-87037017D01*
X117460988Y-87109488D01*
X117460982Y-87109493D01*
X117358493Y-87211982D01*
X117358488Y-87211988D01*
X117286017Y-87337511D01*
X117285214Y-87340508D01*
X117248500Y-87477525D01*
X100500500Y-87477525D01*
X100500500Y-86827525D01*
X109199500Y-86827525D01*
X109199500Y-86972475D01*
X109235635Y-87107332D01*
X109237017Y-87112488D01*
X109309488Y-87238011D01*
X109309490Y-87238013D01*
X109309491Y-87238015D01*
X109411985Y-87340509D01*
X109411986Y-87340510D01*
X109411988Y-87340511D01*
X109537511Y-87412982D01*
X109537512Y-87412982D01*
X109537515Y-87412984D01*
X109677525Y-87450500D01*
X109677528Y-87450500D01*
X109822472Y-87450500D01*
X109822475Y-87450500D01*
X109962485Y-87412984D01*
X110088015Y-87340509D01*
X110190509Y-87238015D01*
X110262984Y-87112485D01*
X110300500Y-86972475D01*
X110300500Y-86827525D01*
X110262984Y-86687515D01*
X110234406Y-86638017D01*
X110190511Y-86561988D01*
X110190506Y-86561982D01*
X110088017Y-86459493D01*
X110088011Y-86459488D01*
X109962488Y-86387017D01*
X109962489Y-86387017D01*
X109951006Y-86383940D01*
X109822475Y-86349500D01*
X109677525Y-86349500D01*
X109548993Y-86383940D01*
X109537511Y-86387017D01*
X109411988Y-86459488D01*
X109411982Y-86459493D01*
X109309493Y-86561982D01*
X109309488Y-86561988D01*
X109237017Y-86687511D01*
X109237016Y-86687515D01*
X109199500Y-86827525D01*
X100500500Y-86827525D01*
X100500500Y-86223920D01*
X111299499Y-86223920D01*
X111328340Y-86368907D01*
X111328343Y-86368917D01*
X111384912Y-86505488D01*
X111384919Y-86505501D01*
X111467048Y-86628415D01*
X111467051Y-86628419D01*
X111571580Y-86732948D01*
X111571584Y-86732951D01*
X111694498Y-86815080D01*
X111694511Y-86815087D01*
X111831082Y-86871656D01*
X111831087Y-86871658D01*
X111831091Y-86871658D01*
X111831092Y-86871659D01*
X111976079Y-86900500D01*
X111976082Y-86900500D01*
X112123920Y-86900500D01*
X112221462Y-86881096D01*
X112268913Y-86871658D01*
X112405495Y-86815084D01*
X112528416Y-86732951D01*
X112632951Y-86628416D01*
X112715084Y-86505495D01*
X112771658Y-86368913D01*
X112792828Y-86262487D01*
X112800500Y-86223920D01*
X112800500Y-86076079D01*
X112784091Y-85993590D01*
X112784091Y-85993589D01*
X112780895Y-85977525D01*
X114749500Y-85977525D01*
X114749500Y-86122475D01*
X114777649Y-86227527D01*
X114787017Y-86262488D01*
X114859488Y-86388011D01*
X114859490Y-86388013D01*
X114859491Y-86388015D01*
X114961985Y-86490509D01*
X114961986Y-86490510D01*
X114961988Y-86490511D01*
X115087511Y-86562982D01*
X115087512Y-86562982D01*
X115087515Y-86562984D01*
X115227525Y-86600500D01*
X115227528Y-86600500D01*
X115372472Y-86600500D01*
X115372475Y-86600500D01*
X115512485Y-86562984D01*
X115638015Y-86490509D01*
X115740509Y-86388015D01*
X115812984Y-86262485D01*
X115822352Y-86227525D01*
X120399500Y-86227525D01*
X120399500Y-86372475D01*
X120431128Y-86490511D01*
X120437017Y-86512488D01*
X120509488Y-86638011D01*
X120509490Y-86638013D01*
X120509491Y-86638015D01*
X120611985Y-86740509D01*
X120611986Y-86740510D01*
X120611988Y-86740511D01*
X120737511Y-86812982D01*
X120737512Y-86812982D01*
X120737515Y-86812984D01*
X120877525Y-86850500D01*
X120877528Y-86850500D01*
X121022472Y-86850500D01*
X121022475Y-86850500D01*
X121162485Y-86812984D01*
X121288015Y-86740509D01*
X121390509Y-86638015D01*
X121462984Y-86512485D01*
X121500500Y-86372475D01*
X121500500Y-86327525D01*
X136449500Y-86327525D01*
X136449500Y-86472475D01*
X136477822Y-86578172D01*
X136487017Y-86612488D01*
X136559488Y-86738011D01*
X136559490Y-86738013D01*
X136559491Y-86738015D01*
X136661985Y-86840509D01*
X136661986Y-86840510D01*
X136661988Y-86840511D01*
X136787511Y-86912982D01*
X136787512Y-86912982D01*
X136787515Y-86912984D01*
X136927525Y-86950500D01*
X136927529Y-86950500D01*
X136930382Y-86950876D01*
X136932611Y-86951862D01*
X136935376Y-86952603D01*
X136935260Y-86953034D01*
X136994279Y-86979142D01*
X137032750Y-87037467D01*
X137033581Y-87107332D01*
X137024682Y-87130110D01*
X136980128Y-87217552D01*
X136926597Y-87382302D01*
X136911515Y-87477527D01*
X136899500Y-87553389D01*
X136899500Y-87726611D01*
X136926598Y-87897701D01*
X136980127Y-88062445D01*
X137058768Y-88216788D01*
X137160586Y-88356928D01*
X137283072Y-88479414D01*
X137423212Y-88581232D01*
X137577555Y-88659873D01*
X137742299Y-88713402D01*
X137913389Y-88740500D01*
X137913390Y-88740500D01*
X138086610Y-88740500D01*
X138086611Y-88740500D01*
X138257701Y-88713402D01*
X138422445Y-88659873D01*
X138576788Y-88581232D01*
X138716928Y-88479414D01*
X138839414Y-88356928D01*
X138941232Y-88216788D01*
X139019873Y-88062445D01*
X139073402Y-87897701D01*
X139100500Y-87726611D01*
X139100500Y-87553389D01*
X139073402Y-87382299D01*
X139019873Y-87217555D01*
X138941232Y-87063212D01*
X138839414Y-86923072D01*
X138716928Y-86800586D01*
X138576788Y-86698768D01*
X138457556Y-86638017D01*
X138422447Y-86620128D01*
X138422446Y-86620127D01*
X138422445Y-86620127D01*
X138257701Y-86566598D01*
X138257699Y-86566597D01*
X138257698Y-86566597D01*
X138126271Y-86545781D01*
X138086611Y-86539500D01*
X137913389Y-86539500D01*
X137881192Y-86544599D01*
X137742301Y-86566597D01*
X137742297Y-86566598D01*
X137712817Y-86576177D01*
X137642976Y-86578172D01*
X137583143Y-86542091D01*
X137552316Y-86479390D01*
X137550500Y-86458246D01*
X137550500Y-86327528D01*
X137550500Y-86327527D01*
X137550500Y-86327525D01*
X137546082Y-86311037D01*
X137547743Y-86241193D01*
X137586903Y-86183329D01*
X137651130Y-86155822D01*
X137704172Y-86161013D01*
X137742299Y-86173402D01*
X137913389Y-86200500D01*
X137913390Y-86200500D01*
X138086610Y-86200500D01*
X138086611Y-86200500D01*
X138257701Y-86173402D01*
X138422445Y-86119873D01*
X138576788Y-86041232D01*
X138716928Y-85939414D01*
X138839414Y-85816928D01*
X138941232Y-85676788D01*
X139019873Y-85522445D01*
X139073402Y-85357701D01*
X139100500Y-85186611D01*
X139100500Y-85013389D01*
X139073402Y-84842299D01*
X139019873Y-84677555D01*
X138941232Y-84523212D01*
X138839414Y-84383072D01*
X138716928Y-84260586D01*
X138576788Y-84158768D01*
X138422445Y-84080127D01*
X138257701Y-84026598D01*
X138257699Y-84026597D01*
X138257698Y-84026597D01*
X138126271Y-84005781D01*
X138086611Y-83999500D01*
X137913389Y-83999500D01*
X137873728Y-84005781D01*
X137742302Y-84026597D01*
X137577552Y-84080128D01*
X137423211Y-84158768D01*
X137368161Y-84198765D01*
X137283072Y-84260586D01*
X137283070Y-84260588D01*
X137283069Y-84260588D01*
X137160588Y-84383069D01*
X137160588Y-84383070D01*
X137160586Y-84383072D01*
X137116859Y-84443256D01*
X137058768Y-84523211D01*
X136980128Y-84677552D01*
X136926597Y-84842302D01*
X136899500Y-85013389D01*
X136899500Y-85186611D01*
X136900001Y-85189774D01*
X136911479Y-85262247D01*
X136926598Y-85357701D01*
X136949550Y-85428340D01*
X136980129Y-85522450D01*
X137054904Y-85669206D01*
X137067800Y-85737875D01*
X137041523Y-85802615D01*
X136984417Y-85842872D01*
X136944419Y-85849500D01*
X136927525Y-85849500D01*
X136798993Y-85883940D01*
X136787511Y-85887017D01*
X136661988Y-85959488D01*
X136661982Y-85959493D01*
X136559493Y-86061982D01*
X136559488Y-86061988D01*
X136487017Y-86187511D01*
X136487016Y-86187515D01*
X136449500Y-86327525D01*
X121500500Y-86327525D01*
X121500500Y-86227525D01*
X121462984Y-86087515D01*
X121456381Y-86076079D01*
X121390511Y-85961988D01*
X121390506Y-85961982D01*
X121288017Y-85859493D01*
X121288011Y-85859488D01*
X121162488Y-85787017D01*
X121162489Y-85787017D01*
X121151006Y-85783940D01*
X121022475Y-85749500D01*
X120877525Y-85749500D01*
X120748993Y-85783940D01*
X120737511Y-85787017D01*
X120611988Y-85859488D01*
X120611982Y-85859493D01*
X120509493Y-85961982D01*
X120509488Y-85961988D01*
X120437017Y-86087511D01*
X120437016Y-86087515D01*
X120399500Y-86227525D01*
X115822352Y-86227525D01*
X115850500Y-86122475D01*
X115850500Y-85977525D01*
X115812984Y-85837515D01*
X115801099Y-85816930D01*
X115740511Y-85711988D01*
X115740506Y-85711982D01*
X115638017Y-85609493D01*
X115638011Y-85609488D01*
X115512488Y-85537017D01*
X115512489Y-85537017D01*
X115501006Y-85533940D01*
X115372475Y-85499500D01*
X115227525Y-85499500D01*
X115098993Y-85533940D01*
X115087511Y-85537017D01*
X114961988Y-85609488D01*
X114961982Y-85609493D01*
X114859493Y-85711982D01*
X114859488Y-85711988D01*
X114787017Y-85837511D01*
X114787016Y-85837515D01*
X114749500Y-85977525D01*
X112780895Y-85977525D01*
X112777804Y-85961985D01*
X112771658Y-85931087D01*
X112737864Y-85849500D01*
X112715087Y-85794511D01*
X112715080Y-85794498D01*
X112632951Y-85671584D01*
X112632948Y-85671580D01*
X112528419Y-85567051D01*
X112528415Y-85567048D01*
X112405501Y-85484919D01*
X112405488Y-85484912D01*
X112268917Y-85428343D01*
X112268907Y-85428340D01*
X112123920Y-85399500D01*
X112123918Y-85399500D01*
X111976082Y-85399500D01*
X111976080Y-85399500D01*
X111831092Y-85428340D01*
X111831082Y-85428343D01*
X111694511Y-85484912D01*
X111694498Y-85484919D01*
X111571584Y-85567048D01*
X111571580Y-85567051D01*
X111467051Y-85671580D01*
X111467048Y-85671584D01*
X111384919Y-85794498D01*
X111384912Y-85794511D01*
X111328343Y-85931082D01*
X111328340Y-85931092D01*
X111299500Y-86076079D01*
X111299500Y-86076082D01*
X111299500Y-86223918D01*
X111299500Y-86223920D01*
X111299499Y-86223920D01*
X100500500Y-86223920D01*
X100500500Y-84676790D01*
X119750235Y-84676790D01*
X119750235Y-84821740D01*
X119787751Y-84961750D01*
X119787752Y-84961753D01*
X119860223Y-85087276D01*
X119860225Y-85087278D01*
X119860226Y-85087280D01*
X119962720Y-85189774D01*
X119962721Y-85189775D01*
X119962723Y-85189776D01*
X120088246Y-85262247D01*
X120088247Y-85262247D01*
X120088250Y-85262249D01*
X120228260Y-85299765D01*
X120228263Y-85299765D01*
X120373207Y-85299765D01*
X120373210Y-85299765D01*
X120513220Y-85262249D01*
X120638750Y-85189774D01*
X120741244Y-85087280D01*
X120813719Y-84961750D01*
X120851235Y-84821740D01*
X120851235Y-84676790D01*
X120813719Y-84536780D01*
X120805885Y-84523212D01*
X120779508Y-84477525D01*
X122899500Y-84477525D01*
X122899500Y-84622475D01*
X122914259Y-84677555D01*
X122937017Y-84762488D01*
X123009488Y-84888011D01*
X123009490Y-84888013D01*
X123009491Y-84888015D01*
X123111985Y-84990509D01*
X123111986Y-84990510D01*
X123111988Y-84990511D01*
X123237511Y-85062982D01*
X123237512Y-85062982D01*
X123237515Y-85062984D01*
X123377525Y-85100500D01*
X123377528Y-85100500D01*
X123522472Y-85100500D01*
X123522475Y-85100500D01*
X123662485Y-85062984D01*
X123788015Y-84990509D01*
X123890509Y-84888015D01*
X123962984Y-84762485D01*
X124000500Y-84622475D01*
X124000500Y-84477525D01*
X123962984Y-84337515D01*
X123946378Y-84308753D01*
X123890511Y-84211988D01*
X123890506Y-84211982D01*
X123788017Y-84109493D01*
X123788011Y-84109488D01*
X123662488Y-84037017D01*
X123662489Y-84037017D01*
X123651006Y-84033940D01*
X123522475Y-83999500D01*
X123377525Y-83999500D01*
X123248993Y-84033940D01*
X123237511Y-84037017D01*
X123111988Y-84109488D01*
X123111982Y-84109493D01*
X123009493Y-84211982D01*
X123009488Y-84211988D01*
X122937017Y-84337511D01*
X122937016Y-84337515D01*
X122899500Y-84477525D01*
X120779508Y-84477525D01*
X120741244Y-84411250D01*
X120638750Y-84308756D01*
X120638748Y-84308755D01*
X120638746Y-84308753D01*
X120513223Y-84236282D01*
X120513224Y-84236282D01*
X120501741Y-84233205D01*
X120373210Y-84198765D01*
X120228260Y-84198765D01*
X120099728Y-84233205D01*
X120088246Y-84236282D01*
X119962723Y-84308753D01*
X119962717Y-84308758D01*
X119860228Y-84411247D01*
X119860223Y-84411253D01*
X119787752Y-84536776D01*
X119787751Y-84536780D01*
X119750235Y-84676790D01*
X100500500Y-84676790D01*
X100500500Y-82803260D01*
X120923765Y-82803260D01*
X120923765Y-82948210D01*
X120961281Y-83088220D01*
X120961282Y-83088223D01*
X121033753Y-83213746D01*
X121033755Y-83213748D01*
X121033756Y-83213750D01*
X121136250Y-83316244D01*
X121136251Y-83316245D01*
X121136253Y-83316246D01*
X121261776Y-83388717D01*
X121261777Y-83388717D01*
X121261780Y-83388719D01*
X121401790Y-83426235D01*
X121401793Y-83426235D01*
X121546737Y-83426235D01*
X121546740Y-83426235D01*
X121686750Y-83388719D01*
X121812280Y-83316244D01*
X121902077Y-83226446D01*
X121963396Y-83192964D01*
X122033088Y-83197948D01*
X122037209Y-83199570D01*
X122039307Y-83200439D01*
X122039309Y-83200439D01*
X122039312Y-83200441D01*
X122179322Y-83237957D01*
X122179325Y-83237957D01*
X122324269Y-83237957D01*
X122324272Y-83237957D01*
X122464282Y-83200441D01*
X122589812Y-83127966D01*
X122692306Y-83025472D01*
X122764781Y-82899942D01*
X122802297Y-82759932D01*
X122802297Y-82614982D01*
X122778863Y-82527525D01*
X124249500Y-82527525D01*
X124249500Y-82672475D01*
X124284544Y-82803260D01*
X124287017Y-82812488D01*
X124359488Y-82938011D01*
X124359490Y-82938013D01*
X124359491Y-82938015D01*
X124461985Y-83040509D01*
X124461986Y-83040510D01*
X124461988Y-83040511D01*
X124587511Y-83112982D01*
X124587512Y-83112982D01*
X124587515Y-83112984D01*
X124727525Y-83150500D01*
X124727528Y-83150500D01*
X124872472Y-83150500D01*
X124872475Y-83150500D01*
X125012485Y-83112984D01*
X125138015Y-83040509D01*
X125240509Y-82938015D01*
X125312984Y-82812485D01*
X125350500Y-82672475D01*
X125350500Y-82527525D01*
X125335994Y-82473389D01*
X136899500Y-82473389D01*
X136899500Y-82646611D01*
X136907677Y-82698239D01*
X136924310Y-82803260D01*
X136926598Y-82817701D01*
X136980127Y-82982445D01*
X137058768Y-83136788D01*
X137160586Y-83276928D01*
X137283072Y-83399414D01*
X137423212Y-83501232D01*
X137577555Y-83579873D01*
X137742299Y-83633402D01*
X137913389Y-83660500D01*
X137913390Y-83660500D01*
X138086610Y-83660500D01*
X138086611Y-83660500D01*
X138257701Y-83633402D01*
X138422445Y-83579873D01*
X138576788Y-83501232D01*
X138716928Y-83399414D01*
X138839414Y-83276928D01*
X138941232Y-83136788D01*
X139019873Y-82982445D01*
X139073402Y-82817701D01*
X139100500Y-82646611D01*
X139100500Y-82473389D01*
X139073402Y-82302299D01*
X139019873Y-82137555D01*
X138941232Y-81983212D01*
X138839414Y-81843072D01*
X138716928Y-81720586D01*
X138668390Y-81685321D01*
X144499500Y-81685321D01*
X144499500Y-83434678D01*
X144514032Y-83507735D01*
X144514033Y-83507739D01*
X144514034Y-83507740D01*
X144569399Y-83590601D01*
X144652260Y-83645966D01*
X144652264Y-83645967D01*
X144725321Y-83660499D01*
X144725324Y-83660500D01*
X144725326Y-83660500D01*
X146474676Y-83660500D01*
X146474677Y-83660499D01*
X146547740Y-83645966D01*
X146630601Y-83590601D01*
X146685966Y-83507740D01*
X146700500Y-83434674D01*
X146700500Y-81685326D01*
X146700500Y-81685323D01*
X146700499Y-81685321D01*
X146685967Y-81612264D01*
X146685966Y-81612260D01*
X146669432Y-81587515D01*
X146630601Y-81529399D01*
X146547740Y-81474034D01*
X146547739Y-81474033D01*
X146547735Y-81474032D01*
X146474677Y-81459500D01*
X146474674Y-81459500D01*
X144725326Y-81459500D01*
X144725323Y-81459500D01*
X144652264Y-81474032D01*
X144652260Y-81474033D01*
X144569399Y-81529399D01*
X144514033Y-81612260D01*
X144514032Y-81612264D01*
X144499500Y-81685321D01*
X138668390Y-81685321D01*
X138576788Y-81618768D01*
X138422445Y-81540127D01*
X138257701Y-81486598D01*
X138257699Y-81486597D01*
X138257698Y-81486597D01*
X138126271Y-81465781D01*
X138086611Y-81459500D01*
X137913389Y-81459500D01*
X137873728Y-81465781D01*
X137742302Y-81486597D01*
X137577552Y-81540128D01*
X137423211Y-81618768D01*
X137343256Y-81676859D01*
X137283072Y-81720586D01*
X137283070Y-81720588D01*
X137283069Y-81720588D01*
X137160588Y-81843069D01*
X137160588Y-81843070D01*
X137160586Y-81843072D01*
X137116859Y-81903256D01*
X137058768Y-81983211D01*
X136980128Y-82137552D01*
X136926597Y-82302302D01*
X136913101Y-82387515D01*
X136899500Y-82473389D01*
X125335994Y-82473389D01*
X125312984Y-82387515D01*
X125298686Y-82362751D01*
X125240511Y-82261988D01*
X125240506Y-82261982D01*
X125138017Y-82159493D01*
X125138011Y-82159488D01*
X125012488Y-82087017D01*
X125012489Y-82087017D01*
X124982614Y-82079012D01*
X124872475Y-82049500D01*
X124727525Y-82049500D01*
X124617386Y-82079012D01*
X124587511Y-82087017D01*
X124461988Y-82159488D01*
X124461982Y-82159493D01*
X124359493Y-82261982D01*
X124359488Y-82261988D01*
X124287017Y-82387511D01*
X124287016Y-82387515D01*
X124249500Y-82527525D01*
X122778863Y-82527525D01*
X122764781Y-82474972D01*
X122729203Y-82413350D01*
X122692308Y-82349445D01*
X122692303Y-82349439D01*
X122589814Y-82246950D01*
X122589808Y-82246945D01*
X122464285Y-82174474D01*
X122464286Y-82174474D01*
X122452803Y-82171397D01*
X122324272Y-82136957D01*
X122179322Y-82136957D01*
X122171195Y-82136957D01*
X122171195Y-82134017D01*
X122116089Y-82125407D01*
X122063847Y-82079012D01*
X122044981Y-82011737D01*
X122061586Y-81951248D01*
X122112981Y-81862230D01*
X122112982Y-81862229D01*
X122112982Y-81862227D01*
X122112984Y-81862225D01*
X122150500Y-81722215D01*
X122150500Y-81577265D01*
X122112984Y-81437255D01*
X122040509Y-81311725D01*
X121938015Y-81209231D01*
X121938013Y-81209230D01*
X121938011Y-81209228D01*
X121812488Y-81136757D01*
X121812489Y-81136757D01*
X121801006Y-81133680D01*
X121672475Y-81099240D01*
X121527525Y-81099240D01*
X121398993Y-81133680D01*
X121387511Y-81136757D01*
X121261988Y-81209228D01*
X121261982Y-81209233D01*
X121159493Y-81311722D01*
X121159488Y-81311728D01*
X121087017Y-81437251D01*
X121087016Y-81437255D01*
X121049500Y-81577265D01*
X121049500Y-81722215D01*
X121081884Y-81843072D01*
X121087017Y-81862228D01*
X121159488Y-81987751D01*
X121159490Y-81987753D01*
X121159491Y-81987755D01*
X121261985Y-82090249D01*
X121325037Y-82126652D01*
X121373253Y-82177219D01*
X121386476Y-82245826D01*
X121360508Y-82310691D01*
X121303593Y-82351219D01*
X121295134Y-82353813D01*
X121261778Y-82362751D01*
X121261776Y-82362752D01*
X121136253Y-82435223D01*
X121136247Y-82435228D01*
X121033758Y-82537717D01*
X121033753Y-82537723D01*
X120961282Y-82663246D01*
X120961281Y-82663250D01*
X120923765Y-82803260D01*
X100500500Y-82803260D01*
X100500500Y-81727525D01*
X111092762Y-81727525D01*
X111092762Y-81872475D01*
X111123652Y-81987755D01*
X111130279Y-82012488D01*
X111202750Y-82138011D01*
X111202752Y-82138013D01*
X111202753Y-82138015D01*
X111305247Y-82240509D01*
X111305248Y-82240510D01*
X111305250Y-82240511D01*
X111430773Y-82312982D01*
X111430774Y-82312982D01*
X111430777Y-82312984D01*
X111570787Y-82350500D01*
X111570790Y-82350500D01*
X111715734Y-82350500D01*
X111715737Y-82350500D01*
X111855747Y-82312984D01*
X111981277Y-82240509D01*
X112083771Y-82138015D01*
X112156246Y-82012485D01*
X112193762Y-81872475D01*
X112193762Y-81727525D01*
X112156246Y-81587515D01*
X112150329Y-81577267D01*
X112083773Y-81461988D01*
X112083768Y-81461982D01*
X111981279Y-81359493D01*
X111981273Y-81359488D01*
X111855750Y-81287017D01*
X111855751Y-81287017D01*
X111844268Y-81283940D01*
X111715737Y-81249500D01*
X111570787Y-81249500D01*
X111442255Y-81283940D01*
X111430773Y-81287017D01*
X111305250Y-81359488D01*
X111305244Y-81359493D01*
X111202755Y-81461982D01*
X111202750Y-81461988D01*
X111130279Y-81587511D01*
X111130278Y-81587515D01*
X111092762Y-81727525D01*
X100500500Y-81727525D01*
X100500500Y-79933389D01*
X136899500Y-79933389D01*
X136899500Y-80106611D01*
X136926598Y-80277701D01*
X136980127Y-80442445D01*
X137058768Y-80596788D01*
X137160586Y-80736928D01*
X137283072Y-80859414D01*
X137423212Y-80961232D01*
X137577555Y-81039873D01*
X137742299Y-81093402D01*
X137913389Y-81120500D01*
X137913390Y-81120500D01*
X138086610Y-81120500D01*
X138086611Y-81120500D01*
X138257701Y-81093402D01*
X138422445Y-81039873D01*
X138576788Y-80961232D01*
X138716928Y-80859414D01*
X138839414Y-80736928D01*
X138941232Y-80596788D01*
X139019873Y-80442445D01*
X139073402Y-80277701D01*
X139100500Y-80106611D01*
X139100500Y-79933389D01*
X144499500Y-79933389D01*
X144499500Y-80106611D01*
X144526598Y-80277701D01*
X144580127Y-80442445D01*
X144658768Y-80596788D01*
X144760586Y-80736928D01*
X144883072Y-80859414D01*
X145023212Y-80961232D01*
X145177555Y-81039873D01*
X145342299Y-81093402D01*
X145513389Y-81120500D01*
X145513390Y-81120500D01*
X145686610Y-81120500D01*
X145686611Y-81120500D01*
X145857701Y-81093402D01*
X146022445Y-81039873D01*
X146176788Y-80961232D01*
X146316928Y-80859414D01*
X146439414Y-80736928D01*
X146541232Y-80596788D01*
X146619873Y-80442445D01*
X146673402Y-80277701D01*
X146700500Y-80106611D01*
X146700500Y-79933389D01*
X146673402Y-79762299D01*
X146619873Y-79597555D01*
X146541232Y-79443212D01*
X146439414Y-79303072D01*
X146316928Y-79180586D01*
X146176788Y-79078768D01*
X146022445Y-79000127D01*
X145857701Y-78946598D01*
X145857699Y-78946597D01*
X145857698Y-78946597D01*
X145726271Y-78925781D01*
X145686611Y-78919500D01*
X145513389Y-78919500D01*
X145473728Y-78925781D01*
X145342302Y-78946597D01*
X145177552Y-79000128D01*
X145023211Y-79078768D01*
X144943256Y-79136859D01*
X144883072Y-79180586D01*
X144883070Y-79180588D01*
X144883069Y-79180588D01*
X144760588Y-79303069D01*
X144760588Y-79303070D01*
X144760586Y-79303072D01*
X144716859Y-79363256D01*
X144658768Y-79443211D01*
X144580128Y-79597552D01*
X144526597Y-79762302D01*
X144499500Y-79933389D01*
X139100500Y-79933389D01*
X139073402Y-79762299D01*
X139019873Y-79597555D01*
X138941232Y-79443212D01*
X138839414Y-79303072D01*
X138716928Y-79180586D01*
X138576788Y-79078768D01*
X138422445Y-79000127D01*
X138257701Y-78946598D01*
X138257699Y-78946597D01*
X138257698Y-78946597D01*
X138126271Y-78925781D01*
X138086611Y-78919500D01*
X137913389Y-78919500D01*
X137873728Y-78925781D01*
X137742302Y-78946597D01*
X137577552Y-79000128D01*
X137423211Y-79078768D01*
X137343256Y-79136859D01*
X137283072Y-79180586D01*
X137283070Y-79180588D01*
X137283069Y-79180588D01*
X137160588Y-79303069D01*
X137160588Y-79303070D01*
X137160586Y-79303072D01*
X137116859Y-79363256D01*
X137058768Y-79443211D01*
X136980128Y-79597552D01*
X136926597Y-79762302D01*
X136899500Y-79933389D01*
X100500500Y-79933389D01*
X100500500Y-78183775D01*
X120455750Y-78183775D01*
X120455750Y-78328725D01*
X120493266Y-78468735D01*
X120493267Y-78468738D01*
X120565738Y-78594261D01*
X120565740Y-78594263D01*
X120565741Y-78594265D01*
X120668235Y-78696759D01*
X120668236Y-78696760D01*
X120668238Y-78696761D01*
X120793761Y-78769232D01*
X120793762Y-78769232D01*
X120793765Y-78769234D01*
X120933775Y-78806750D01*
X120933778Y-78806750D01*
X121078722Y-78806750D01*
X121078725Y-78806750D01*
X121218735Y-78769234D01*
X121344265Y-78696759D01*
X121446759Y-78594265D01*
X121519234Y-78468735D01*
X121556750Y-78328725D01*
X121556750Y-78302525D01*
X125024500Y-78302525D01*
X125024500Y-78447475D01*
X125062016Y-78587485D01*
X125062017Y-78587488D01*
X125134488Y-78713011D01*
X125134490Y-78713013D01*
X125134491Y-78713015D01*
X125236985Y-78815509D01*
X125236986Y-78815510D01*
X125236988Y-78815511D01*
X125362511Y-78887982D01*
X125362512Y-78887982D01*
X125362515Y-78887984D01*
X125502525Y-78925500D01*
X125502528Y-78925500D01*
X125647472Y-78925500D01*
X125647475Y-78925500D01*
X125787485Y-78887984D01*
X125913015Y-78815509D01*
X126015509Y-78713015D01*
X126087984Y-78587485D01*
X126125500Y-78447475D01*
X126125500Y-78324500D01*
X126145185Y-78257461D01*
X126197989Y-78211706D01*
X126249500Y-78200500D01*
X126272472Y-78200500D01*
X126272475Y-78200500D01*
X126412485Y-78162984D01*
X126538015Y-78090509D01*
X126640509Y-77988015D01*
X126712984Y-77862485D01*
X126750500Y-77722475D01*
X126750500Y-77577525D01*
X126712984Y-77437515D01*
X126686695Y-77391982D01*
X126640511Y-77311988D01*
X126640506Y-77311982D01*
X126538017Y-77209493D01*
X126538011Y-77209488D01*
X126412488Y-77137017D01*
X126412489Y-77137017D01*
X126401006Y-77133940D01*
X126272475Y-77099500D01*
X126127525Y-77099500D01*
X125998993Y-77133940D01*
X125987511Y-77137017D01*
X125861988Y-77209488D01*
X125861982Y-77209493D01*
X125759493Y-77311982D01*
X125759488Y-77311988D01*
X125687017Y-77437511D01*
X125687016Y-77437515D01*
X125649500Y-77577525D01*
X125649500Y-77577527D01*
X125649500Y-77700500D01*
X125629815Y-77767539D01*
X125577011Y-77813294D01*
X125525500Y-77824500D01*
X125502525Y-77824500D01*
X125373993Y-77858940D01*
X125362511Y-77862017D01*
X125236988Y-77934488D01*
X125236982Y-77934493D01*
X125134493Y-78036982D01*
X125134488Y-78036988D01*
X125062017Y-78162511D01*
X125062016Y-78162515D01*
X125024500Y-78302525D01*
X121556750Y-78302525D01*
X121556750Y-78183775D01*
X121519234Y-78043765D01*
X121515321Y-78036988D01*
X121446761Y-77918238D01*
X121446756Y-77918232D01*
X121344267Y-77815743D01*
X121344261Y-77815738D01*
X121218738Y-77743267D01*
X121218739Y-77743267D01*
X121197951Y-77737697D01*
X121078725Y-77705750D01*
X120933775Y-77705750D01*
X120814549Y-77737697D01*
X120793761Y-77743267D01*
X120668238Y-77815738D01*
X120668232Y-77815743D01*
X120565743Y-77918232D01*
X120565738Y-77918238D01*
X120493267Y-78043761D01*
X120493266Y-78043765D01*
X120455750Y-78183775D01*
X100500500Y-78183775D01*
X100500500Y-75627525D01*
X114246786Y-75627525D01*
X114246786Y-75772475D01*
X114275928Y-75881232D01*
X114284303Y-75912488D01*
X114356774Y-76038011D01*
X114356776Y-76038013D01*
X114356777Y-76038015D01*
X114459271Y-76140509D01*
X114459272Y-76140510D01*
X114459274Y-76140511D01*
X114584797Y-76212982D01*
X114584798Y-76212982D01*
X114584801Y-76212984D01*
X114724811Y-76250500D01*
X114724814Y-76250500D01*
X114869758Y-76250500D01*
X114869761Y-76250500D01*
X115009771Y-76212984D01*
X115135301Y-76140509D01*
X115237795Y-76038015D01*
X115310270Y-75912485D01*
X115335722Y-75817494D01*
X115372087Y-75757836D01*
X115382263Y-75752893D01*
X116224868Y-75752893D01*
X116224868Y-75897843D01*
X116262384Y-76037853D01*
X116262385Y-76037856D01*
X116334856Y-76163379D01*
X116334858Y-76163381D01*
X116334859Y-76163383D01*
X116437353Y-76265877D01*
X116501489Y-76302906D01*
X116549705Y-76353473D01*
X116562928Y-76422080D01*
X116536960Y-76486945D01*
X116514982Y-76508664D01*
X116511985Y-76510963D01*
X116409493Y-76613455D01*
X116409488Y-76613461D01*
X116337017Y-76738984D01*
X116337016Y-76738988D01*
X116299500Y-76878998D01*
X116299500Y-77023948D01*
X116325900Y-77122472D01*
X116337017Y-77163961D01*
X116409488Y-77289484D01*
X116409490Y-77289486D01*
X116409491Y-77289488D01*
X116511985Y-77391982D01*
X116511986Y-77391983D01*
X116511988Y-77391984D01*
X116637511Y-77464455D01*
X116637512Y-77464455D01*
X116637515Y-77464457D01*
X116777525Y-77501973D01*
X116777528Y-77501973D01*
X116922472Y-77501973D01*
X116922475Y-77501973D01*
X117062485Y-77464457D01*
X117188015Y-77391982D01*
X117290509Y-77289488D01*
X117362984Y-77163958D01*
X117400500Y-77023948D01*
X117400500Y-76977525D01*
X130699500Y-76977525D01*
X130699500Y-77122475D01*
X130722817Y-77209493D01*
X130737017Y-77262488D01*
X130809488Y-77388011D01*
X130809490Y-77388013D01*
X130809491Y-77388015D01*
X130911985Y-77490509D01*
X130911986Y-77490510D01*
X130911988Y-77490511D01*
X131037511Y-77562982D01*
X131037512Y-77562982D01*
X131037515Y-77562984D01*
X131177525Y-77600500D01*
X131177528Y-77600500D01*
X131322472Y-77600500D01*
X131322475Y-77600500D01*
X131462485Y-77562984D01*
X131588015Y-77490509D01*
X131685135Y-77393389D01*
X144499500Y-77393389D01*
X144499500Y-77566611D01*
X144526598Y-77737701D01*
X144580127Y-77902445D01*
X144658768Y-78056788D01*
X144760586Y-78196928D01*
X144883072Y-78319414D01*
X145023212Y-78421232D01*
X145177555Y-78499873D01*
X145342299Y-78553402D01*
X145513389Y-78580500D01*
X145513390Y-78580500D01*
X145686610Y-78580500D01*
X145686611Y-78580500D01*
X145857701Y-78553402D01*
X146022445Y-78499873D01*
X146176788Y-78421232D01*
X146316928Y-78319414D01*
X146439414Y-78196928D01*
X146541232Y-78056788D01*
X146619873Y-77902445D01*
X146673402Y-77737701D01*
X146700500Y-77566611D01*
X146700500Y-77393389D01*
X146673402Y-77222299D01*
X146619873Y-77057555D01*
X146541232Y-76903212D01*
X146439414Y-76763072D01*
X146316928Y-76640586D01*
X146176788Y-76538768D01*
X146022445Y-76460127D01*
X145857701Y-76406598D01*
X145857699Y-76406597D01*
X145857698Y-76406597D01*
X145726271Y-76385781D01*
X145686611Y-76379500D01*
X145513389Y-76379500D01*
X145473728Y-76385781D01*
X145342302Y-76406597D01*
X145177552Y-76460128D01*
X145023211Y-76538768D01*
X144943256Y-76596859D01*
X144883072Y-76640586D01*
X144883070Y-76640588D01*
X144883069Y-76640588D01*
X144760588Y-76763069D01*
X144760588Y-76763070D01*
X144760586Y-76763072D01*
X144716859Y-76823256D01*
X144658768Y-76903211D01*
X144580128Y-77057552D01*
X144526597Y-77222302D01*
X144510091Y-77326517D01*
X144499500Y-77393389D01*
X131685135Y-77393389D01*
X131690509Y-77388015D01*
X131762984Y-77262485D01*
X131800500Y-77122475D01*
X131800500Y-76977525D01*
X131762984Y-76837515D01*
X131720002Y-76763069D01*
X131690511Y-76711988D01*
X131690506Y-76711982D01*
X131588017Y-76609493D01*
X131588011Y-76609488D01*
X131462488Y-76537017D01*
X131462489Y-76537017D01*
X131451006Y-76533940D01*
X131322475Y-76499500D01*
X131177525Y-76499500D01*
X131048993Y-76533940D01*
X131037511Y-76537017D01*
X130911988Y-76609488D01*
X130911982Y-76609493D01*
X130809493Y-76711982D01*
X130809488Y-76711988D01*
X130737017Y-76837511D01*
X130737016Y-76837515D01*
X130699500Y-76977525D01*
X117400500Y-76977525D01*
X117400500Y-76878998D01*
X117362984Y-76738988D01*
X117347395Y-76711988D01*
X117290511Y-76613461D01*
X117290506Y-76613455D01*
X117188017Y-76510966D01*
X117188015Y-76510964D01*
X117123876Y-76473933D01*
X117075662Y-76423366D01*
X117062440Y-76354759D01*
X117088408Y-76289895D01*
X117110397Y-76268167D01*
X117113372Y-76265882D01*
X117113383Y-76265877D01*
X117215877Y-76163383D01*
X117288352Y-76037853D01*
X117325868Y-75897843D01*
X117325868Y-75752893D01*
X117288352Y-75612883D01*
X117288122Y-75612485D01*
X117215879Y-75487356D01*
X117215874Y-75487350D01*
X117113454Y-75384930D01*
X117082108Y-75327525D01*
X118549500Y-75327525D01*
X118549500Y-75472475D01*
X118587016Y-75612485D01*
X118587017Y-75612488D01*
X118659488Y-75738011D01*
X118659490Y-75738013D01*
X118659491Y-75738015D01*
X118761985Y-75840509D01*
X118761986Y-75840510D01*
X118761988Y-75840511D01*
X118887511Y-75912982D01*
X118887512Y-75912982D01*
X118887515Y-75912984D01*
X119027525Y-75950500D01*
X119027528Y-75950500D01*
X119172472Y-75950500D01*
X119172475Y-75950500D01*
X119312485Y-75912984D01*
X119438015Y-75840509D01*
X119447808Y-75830715D01*
X119509128Y-75797230D01*
X119578820Y-75802212D01*
X119597486Y-75811005D01*
X119687515Y-75862984D01*
X119827525Y-75900500D01*
X119827528Y-75900500D01*
X119972472Y-75900500D01*
X119972475Y-75900500D01*
X120112485Y-75862984D01*
X120238015Y-75790509D01*
X120340509Y-75688015D01*
X120412984Y-75562485D01*
X120422352Y-75527525D01*
X130699500Y-75527525D01*
X130699500Y-75672475D01*
X130736620Y-75811008D01*
X130737017Y-75812488D01*
X130809488Y-75938011D01*
X130809490Y-75938013D01*
X130809491Y-75938015D01*
X130911985Y-76040509D01*
X130911986Y-76040510D01*
X130911988Y-76040511D01*
X131037511Y-76112982D01*
X131037512Y-76112982D01*
X131037515Y-76112984D01*
X131177525Y-76150500D01*
X131177528Y-76150500D01*
X131322472Y-76150500D01*
X131322475Y-76150500D01*
X131462485Y-76112984D01*
X131588015Y-76040509D01*
X131690509Y-75938015D01*
X131762984Y-75812485D01*
X131800500Y-75672475D01*
X131800500Y-75527525D01*
X131762984Y-75387515D01*
X131757135Y-75377385D01*
X131690511Y-75261988D01*
X131690506Y-75261982D01*
X131588017Y-75159493D01*
X131588011Y-75159488D01*
X131462488Y-75087017D01*
X131462489Y-75087017D01*
X131451006Y-75083940D01*
X131322475Y-75049500D01*
X131177525Y-75049500D01*
X131048993Y-75083940D01*
X131037511Y-75087017D01*
X130911988Y-75159488D01*
X130911982Y-75159493D01*
X130809493Y-75261982D01*
X130809488Y-75261988D01*
X130737017Y-75387511D01*
X130737016Y-75387515D01*
X130699500Y-75527525D01*
X120422352Y-75527525D01*
X120450500Y-75422475D01*
X120450500Y-75277525D01*
X120412984Y-75137515D01*
X120401286Y-75117254D01*
X120340511Y-75011988D01*
X120340506Y-75011982D01*
X120238017Y-74909493D01*
X120238011Y-74909488D01*
X120140845Y-74853389D01*
X136899500Y-74853389D01*
X136899500Y-75026610D01*
X136924984Y-75187515D01*
X136926598Y-75197701D01*
X136980127Y-75362445D01*
X137058768Y-75516788D01*
X137160586Y-75656928D01*
X137283072Y-75779414D01*
X137423212Y-75881232D01*
X137577555Y-75959873D01*
X137742299Y-76013402D01*
X137913389Y-76040500D01*
X137913390Y-76040500D01*
X138086610Y-76040500D01*
X138086611Y-76040500D01*
X138257701Y-76013402D01*
X138422445Y-75959873D01*
X138576788Y-75881232D01*
X138716928Y-75779414D01*
X138839414Y-75656928D01*
X138941232Y-75516788D01*
X139019873Y-75362445D01*
X139073402Y-75197701D01*
X139100500Y-75026611D01*
X139100500Y-74853389D01*
X144499500Y-74853389D01*
X144499500Y-75026610D01*
X144524984Y-75187515D01*
X144526598Y-75197701D01*
X144580127Y-75362445D01*
X144658768Y-75516788D01*
X144760586Y-75656928D01*
X144883072Y-75779414D01*
X145023212Y-75881232D01*
X145177555Y-75959873D01*
X145342299Y-76013402D01*
X145513389Y-76040500D01*
X145513390Y-76040500D01*
X145686610Y-76040500D01*
X145686611Y-76040500D01*
X145857701Y-76013402D01*
X146022445Y-75959873D01*
X146176788Y-75881232D01*
X146316928Y-75779414D01*
X146439414Y-75656928D01*
X146541232Y-75516788D01*
X146619873Y-75362445D01*
X146673402Y-75197701D01*
X146700500Y-75026611D01*
X146700500Y-74853389D01*
X146673402Y-74682299D01*
X146619873Y-74517555D01*
X146541232Y-74363212D01*
X146439414Y-74223072D01*
X146316928Y-74100586D01*
X146176788Y-73998768D01*
X146022445Y-73920127D01*
X145857701Y-73866598D01*
X145857699Y-73866597D01*
X145857698Y-73866597D01*
X145726271Y-73845781D01*
X145686611Y-73839500D01*
X145513389Y-73839500D01*
X145473728Y-73845781D01*
X145342302Y-73866597D01*
X145177552Y-73920128D01*
X145023211Y-73998768D01*
X144943256Y-74056859D01*
X144883072Y-74100586D01*
X144883070Y-74100588D01*
X144883069Y-74100588D01*
X144760588Y-74223069D01*
X144760588Y-74223070D01*
X144760586Y-74223072D01*
X144716859Y-74283256D01*
X144658768Y-74363211D01*
X144580128Y-74517552D01*
X144526597Y-74682302D01*
X144499500Y-74853389D01*
X139100500Y-74853389D01*
X139073402Y-74682299D01*
X139019873Y-74517555D01*
X138941232Y-74363212D01*
X138839414Y-74223072D01*
X138716928Y-74100586D01*
X138576788Y-73998768D01*
X138422445Y-73920127D01*
X138257701Y-73866598D01*
X138257699Y-73866597D01*
X138257698Y-73866597D01*
X138126271Y-73845781D01*
X138086611Y-73839500D01*
X137913389Y-73839500D01*
X137873728Y-73845781D01*
X137742302Y-73866597D01*
X137577552Y-73920128D01*
X137423211Y-73998768D01*
X137343256Y-74056859D01*
X137283072Y-74100586D01*
X137283070Y-74100588D01*
X137283069Y-74100588D01*
X137160588Y-74223069D01*
X137160588Y-74223070D01*
X137160586Y-74223072D01*
X137116859Y-74283256D01*
X137058768Y-74363211D01*
X136980128Y-74517552D01*
X136926597Y-74682302D01*
X136899500Y-74853389D01*
X120140845Y-74853389D01*
X120112488Y-74837017D01*
X120112489Y-74837017D01*
X120101006Y-74833940D01*
X119972475Y-74799500D01*
X119827525Y-74799500D01*
X119698993Y-74833940D01*
X119687511Y-74837017D01*
X119561988Y-74909488D01*
X119561980Y-74909495D01*
X119552187Y-74919288D01*
X119490863Y-74952771D01*
X119421172Y-74947784D01*
X119402509Y-74938991D01*
X119312488Y-74887017D01*
X119312489Y-74887017D01*
X119301006Y-74883940D01*
X119172475Y-74849500D01*
X119027525Y-74849500D01*
X118898993Y-74883940D01*
X118887511Y-74887017D01*
X118761988Y-74959488D01*
X118761982Y-74959493D01*
X118659493Y-75061982D01*
X118659488Y-75061988D01*
X118587017Y-75187511D01*
X118586214Y-75190509D01*
X118549500Y-75327525D01*
X117082108Y-75327525D01*
X117079969Y-75323607D01*
X117084953Y-75253915D01*
X117126825Y-75197982D01*
X117137154Y-75191168D01*
X117138007Y-75190513D01*
X117138015Y-75190509D01*
X117240509Y-75088015D01*
X117312984Y-74962485D01*
X117350500Y-74822475D01*
X117350500Y-74677525D01*
X117312984Y-74537515D01*
X117301458Y-74517552D01*
X117240511Y-74411988D01*
X117240506Y-74411982D01*
X117138017Y-74309493D01*
X117138011Y-74309488D01*
X117012488Y-74237017D01*
X117012489Y-74237017D01*
X117001006Y-74233940D01*
X116872475Y-74199500D01*
X116727525Y-74199500D01*
X116598993Y-74233940D01*
X116587511Y-74237017D01*
X116461988Y-74309488D01*
X116461982Y-74309493D01*
X116359493Y-74411982D01*
X116359488Y-74411988D01*
X116287017Y-74537511D01*
X116287016Y-74537515D01*
X116249500Y-74677525D01*
X116249500Y-74822475D01*
X116280721Y-74938991D01*
X116287017Y-74962488D01*
X116359488Y-75088011D01*
X116359493Y-75088017D01*
X116461913Y-75190437D01*
X116495398Y-75251760D01*
X116490414Y-75321452D01*
X116448542Y-75377385D01*
X116438216Y-75384196D01*
X116437350Y-75384861D01*
X116334861Y-75487350D01*
X116334856Y-75487356D01*
X116262385Y-75612879D01*
X116262384Y-75612883D01*
X116224868Y-75752893D01*
X115382263Y-75752893D01*
X115434934Y-75727307D01*
X115455497Y-75725590D01*
X115473472Y-75725590D01*
X115473475Y-75725590D01*
X115613485Y-75688074D01*
X115739015Y-75615599D01*
X115841509Y-75513105D01*
X115913984Y-75387575D01*
X115951500Y-75247565D01*
X115951500Y-75102615D01*
X115913984Y-74962605D01*
X115913916Y-74962488D01*
X115841511Y-74837078D01*
X115841506Y-74837072D01*
X115739017Y-74734583D01*
X115739011Y-74734578D01*
X115613488Y-74662107D01*
X115613489Y-74662107D01*
X115602006Y-74659030D01*
X115473475Y-74624590D01*
X115328525Y-74624590D01*
X115199993Y-74659030D01*
X115188511Y-74662107D01*
X115062988Y-74734578D01*
X115062982Y-74734583D01*
X114960493Y-74837072D01*
X114960488Y-74837078D01*
X114888017Y-74962601D01*
X114888016Y-74962605D01*
X114862563Y-75057595D01*
X114826199Y-75117254D01*
X114763352Y-75147783D01*
X114742789Y-75149500D01*
X114724811Y-75149500D01*
X114596279Y-75183940D01*
X114584797Y-75187017D01*
X114459274Y-75259488D01*
X114459268Y-75259493D01*
X114356779Y-75361982D01*
X114356774Y-75361988D01*
X114284303Y-75487511D01*
X114284302Y-75487515D01*
X114246786Y-75627525D01*
X100500500Y-75627525D01*
X100500500Y-72577525D01*
X114999500Y-72577525D01*
X114999500Y-72722475D01*
X115026288Y-72822447D01*
X115037017Y-72862488D01*
X115109488Y-72988011D01*
X115109490Y-72988013D01*
X115109491Y-72988015D01*
X115211985Y-73090509D01*
X115211986Y-73090510D01*
X115211988Y-73090511D01*
X115337511Y-73162982D01*
X115337512Y-73162982D01*
X115337515Y-73162984D01*
X115477525Y-73200500D01*
X115477528Y-73200500D01*
X115622472Y-73200500D01*
X115622475Y-73200500D01*
X115762485Y-73162984D01*
X115888015Y-73090509D01*
X115990509Y-72988015D01*
X116062984Y-72862485D01*
X116100500Y-72722475D01*
X116100500Y-72577525D01*
X116062984Y-72437515D01*
X115991320Y-72313389D01*
X136899500Y-72313389D01*
X136899500Y-72486611D01*
X136926598Y-72657701D01*
X136980127Y-72822445D01*
X137058768Y-72976788D01*
X137160586Y-73116928D01*
X137283072Y-73239414D01*
X137423212Y-73341232D01*
X137577555Y-73419873D01*
X137742299Y-73473402D01*
X137913389Y-73500500D01*
X137913390Y-73500500D01*
X138086610Y-73500500D01*
X138086611Y-73500500D01*
X138257701Y-73473402D01*
X138422445Y-73419873D01*
X138576788Y-73341232D01*
X138716928Y-73239414D01*
X138839414Y-73116928D01*
X138941232Y-72976788D01*
X139019873Y-72822445D01*
X139073402Y-72657701D01*
X139100500Y-72486611D01*
X139100500Y-72313389D01*
X139073402Y-72142299D01*
X139019873Y-71977555D01*
X138941232Y-71823212D01*
X138839414Y-71683072D01*
X138716928Y-71560586D01*
X138576788Y-71458768D01*
X138422445Y-71380127D01*
X138257701Y-71326598D01*
X138257699Y-71326597D01*
X138257698Y-71326597D01*
X138126271Y-71305781D01*
X138086611Y-71299500D01*
X137913389Y-71299500D01*
X137873728Y-71305781D01*
X137742302Y-71326597D01*
X137577552Y-71380128D01*
X137423211Y-71458768D01*
X137343256Y-71516859D01*
X137283072Y-71560586D01*
X137283070Y-71560588D01*
X137283069Y-71560588D01*
X137160588Y-71683069D01*
X137160588Y-71683070D01*
X137160586Y-71683072D01*
X137116859Y-71743256D01*
X137058768Y-71823211D01*
X136980128Y-71977552D01*
X136980127Y-71977554D01*
X136980127Y-71977555D01*
X136953362Y-72059927D01*
X136926597Y-72142302D01*
X136899723Y-72311982D01*
X136899500Y-72313389D01*
X115991320Y-72313389D01*
X115990509Y-72311985D01*
X115888015Y-72209491D01*
X115888013Y-72209490D01*
X115888011Y-72209488D01*
X115762488Y-72137017D01*
X115762489Y-72137017D01*
X115751006Y-72133940D01*
X115622475Y-72099500D01*
X115477525Y-72099500D01*
X115348993Y-72133940D01*
X115337511Y-72137017D01*
X115211988Y-72209488D01*
X115211982Y-72209493D01*
X115109493Y-72311982D01*
X115109488Y-72311988D01*
X115037017Y-72437511D01*
X115037016Y-72437515D01*
X114999500Y-72577525D01*
X100500500Y-72577525D01*
X100500500Y-70374038D01*
X126399500Y-70374038D01*
X126399500Y-70625961D01*
X126438910Y-70874785D01*
X126516760Y-71114383D01*
X126595413Y-71268747D01*
X126624889Y-71326597D01*
X126631132Y-71338848D01*
X126779201Y-71542649D01*
X126779205Y-71542654D01*
X126957345Y-71720794D01*
X126957350Y-71720798D01*
X127098312Y-71823212D01*
X127161155Y-71868870D01*
X127304184Y-71941747D01*
X127385616Y-71983239D01*
X127385618Y-71983239D01*
X127385621Y-71983241D01*
X127625215Y-72061090D01*
X127874038Y-72100500D01*
X127874039Y-72100500D01*
X128125961Y-72100500D01*
X128125962Y-72100500D01*
X128374785Y-72061090D01*
X128614379Y-71983241D01*
X128838845Y-71868870D01*
X129042656Y-71720793D01*
X129220793Y-71542656D01*
X129368870Y-71338845D01*
X129483241Y-71114379D01*
X129561090Y-70874785D01*
X129600500Y-70625962D01*
X129600500Y-70374038D01*
X129561090Y-70125215D01*
X129483241Y-69885621D01*
X129483239Y-69885618D01*
X129483239Y-69885616D01*
X129434779Y-69790509D01*
X129368870Y-69661155D01*
X129324075Y-69599500D01*
X129220798Y-69457350D01*
X129220794Y-69457345D01*
X129042654Y-69279205D01*
X129042649Y-69279201D01*
X128838848Y-69131132D01*
X128838847Y-69131131D01*
X128838845Y-69131130D01*
X128768747Y-69095413D01*
X128614383Y-69016760D01*
X128374785Y-68938910D01*
X128249300Y-68919035D01*
X128125962Y-68899500D01*
X127874038Y-68899500D01*
X127790975Y-68912656D01*
X127625214Y-68938910D01*
X127385616Y-69016760D01*
X127161151Y-69131132D01*
X126957350Y-69279201D01*
X126957345Y-69279205D01*
X126779205Y-69457345D01*
X126779201Y-69457350D01*
X126631132Y-69661151D01*
X126516760Y-69885616D01*
X126438910Y-70125214D01*
X126399500Y-70374038D01*
X100500500Y-70374038D01*
X100500500Y-70258676D01*
X100520185Y-70191637D01*
X100536819Y-70170995D01*
X101883894Y-68823920D01*
X107049499Y-68823920D01*
X107078340Y-68968907D01*
X107078343Y-68968917D01*
X107134912Y-69105488D01*
X107134919Y-69105501D01*
X107217048Y-69228415D01*
X107217051Y-69228419D01*
X107321580Y-69332948D01*
X107321584Y-69332951D01*
X107444498Y-69415080D01*
X107444511Y-69415087D01*
X107546532Y-69457345D01*
X107581087Y-69471658D01*
X107581091Y-69471658D01*
X107581092Y-69471659D01*
X107726079Y-69500500D01*
X107726082Y-69500500D01*
X107873920Y-69500500D01*
X107971462Y-69481096D01*
X108018913Y-69471658D01*
X108155495Y-69415084D01*
X108278416Y-69332951D01*
X108382951Y-69228416D01*
X108465084Y-69105495D01*
X108521658Y-68968913D01*
X108531580Y-68919035D01*
X108550500Y-68823920D01*
X108550500Y-68676079D01*
X108521659Y-68531092D01*
X108521658Y-68531091D01*
X108521658Y-68531087D01*
X108472054Y-68411334D01*
X108465087Y-68394511D01*
X108465080Y-68394498D01*
X108453739Y-68377525D01*
X115849500Y-68377525D01*
X115849500Y-68522475D01*
X115865533Y-68582309D01*
X115887017Y-68662488D01*
X115959488Y-68788011D01*
X115959490Y-68788013D01*
X115959491Y-68788015D01*
X116061985Y-68890509D01*
X116061986Y-68890510D01*
X116061988Y-68890511D01*
X116187511Y-68962982D01*
X116187512Y-68962982D01*
X116187515Y-68962984D01*
X116327525Y-69000500D01*
X116327528Y-69000500D01*
X116472472Y-69000500D01*
X116472475Y-69000500D01*
X116612485Y-68962984D01*
X116699656Y-68912655D01*
X116767554Y-68896183D01*
X116833581Y-68919035D01*
X116876772Y-68973956D01*
X116883414Y-69043509D01*
X116869042Y-69082043D01*
X116837017Y-69137511D01*
X116837016Y-69137515D01*
X116799500Y-69277525D01*
X116799500Y-69422475D01*
X116820407Y-69500500D01*
X116837017Y-69562488D01*
X116909488Y-69688011D01*
X116909490Y-69688013D01*
X116909491Y-69688015D01*
X117011985Y-69790509D01*
X117011986Y-69790510D01*
X117011988Y-69790511D01*
X117137511Y-69862982D01*
X117137512Y-69862982D01*
X117137515Y-69862984D01*
X117277525Y-69900500D01*
X117277528Y-69900500D01*
X117422472Y-69900500D01*
X117422475Y-69900500D01*
X117562485Y-69862984D01*
X117688015Y-69790509D01*
X117790509Y-69688015D01*
X117862984Y-69562485D01*
X117900500Y-69422475D01*
X117900500Y-69277525D01*
X117862984Y-69137515D01*
X117808709Y-69043509D01*
X117790511Y-69011988D01*
X117790506Y-69011982D01*
X117688017Y-68909493D01*
X117688011Y-68909488D01*
X117562488Y-68837017D01*
X117562489Y-68837017D01*
X117551006Y-68833940D01*
X117422475Y-68799500D01*
X117277525Y-68799500D01*
X117179108Y-68825870D01*
X117137510Y-68837017D01*
X117137507Y-68837018D01*
X117050343Y-68887343D01*
X116982443Y-68903816D01*
X116916416Y-68880963D01*
X116873226Y-68826042D01*
X116866585Y-68756488D01*
X116880956Y-68717958D01*
X116912984Y-68662485D01*
X116950500Y-68522475D01*
X116950500Y-68377525D01*
X116912984Y-68237515D01*
X116872301Y-68167051D01*
X116840511Y-68111988D01*
X116840506Y-68111982D01*
X116738017Y-68009493D01*
X116738011Y-68009488D01*
X116612488Y-67937017D01*
X116612489Y-67937017D01*
X116601006Y-67933940D01*
X116472475Y-67899500D01*
X116327525Y-67899500D01*
X116198993Y-67933940D01*
X116187511Y-67937017D01*
X116061988Y-68009488D01*
X116061982Y-68009493D01*
X115959493Y-68111982D01*
X115959488Y-68111988D01*
X115887017Y-68237511D01*
X115887016Y-68237515D01*
X115849500Y-68377525D01*
X108453739Y-68377525D01*
X108382951Y-68271584D01*
X108382948Y-68271580D01*
X108278419Y-68167051D01*
X108278415Y-68167048D01*
X108155501Y-68084919D01*
X108155488Y-68084912D01*
X108018917Y-68028343D01*
X108018907Y-68028340D01*
X107873920Y-67999500D01*
X107873918Y-67999500D01*
X107726082Y-67999500D01*
X107726080Y-67999500D01*
X107581092Y-68028340D01*
X107581082Y-68028343D01*
X107444511Y-68084912D01*
X107444498Y-68084919D01*
X107321584Y-68167048D01*
X107321580Y-68167051D01*
X107217051Y-68271580D01*
X107217048Y-68271584D01*
X107134919Y-68394498D01*
X107134912Y-68394511D01*
X107078343Y-68531082D01*
X107078340Y-68531092D01*
X107049500Y-68676079D01*
X107049500Y-68676082D01*
X107049500Y-68823918D01*
X107049500Y-68823920D01*
X107049499Y-68823920D01*
X101883894Y-68823920D01*
X102125505Y-68582309D01*
X102185342Y-68522472D01*
X102400500Y-68307314D01*
X102466392Y-68193186D01*
X102500500Y-68065893D01*
X102500500Y-67934108D01*
X102500500Y-66443389D01*
X136899500Y-66443389D01*
X136899500Y-66616610D01*
X136913101Y-66702488D01*
X136926598Y-66787701D01*
X136980127Y-66952445D01*
X137058768Y-67106788D01*
X137160586Y-67246928D01*
X137283072Y-67369414D01*
X137423212Y-67471232D01*
X137577555Y-67549873D01*
X137742299Y-67603402D01*
X137913389Y-67630500D01*
X137913390Y-67630500D01*
X138086610Y-67630500D01*
X138086611Y-67630500D01*
X138257701Y-67603402D01*
X138422445Y-67549873D01*
X138576788Y-67471232D01*
X138716928Y-67369414D01*
X138839414Y-67246928D01*
X138941232Y-67106788D01*
X139019873Y-66952445D01*
X139073402Y-66787701D01*
X139100500Y-66616611D01*
X139100500Y-66443389D01*
X139096404Y-66417525D01*
X139949500Y-66417525D01*
X139949500Y-66562475D01*
X139964006Y-66616610D01*
X139987017Y-66702488D01*
X140059488Y-66828011D01*
X140059490Y-66828013D01*
X140059491Y-66828015D01*
X140161985Y-66930509D01*
X140161986Y-66930510D01*
X140161988Y-66930511D01*
X140287511Y-67002982D01*
X140287512Y-67002982D01*
X140287515Y-67002984D01*
X140427525Y-67040500D01*
X140427528Y-67040500D01*
X140572472Y-67040500D01*
X140572475Y-67040500D01*
X140712485Y-67002984D01*
X140838015Y-66930509D01*
X140940509Y-66828015D01*
X141012984Y-66702485D01*
X141050500Y-66562475D01*
X141050500Y-66417525D01*
X141012984Y-66277515D01*
X141009974Y-66272302D01*
X140940511Y-66151988D01*
X140940506Y-66151982D01*
X140838017Y-66049493D01*
X140838011Y-66049488D01*
X140712488Y-65977017D01*
X140712489Y-65977017D01*
X140701006Y-65973940D01*
X140572475Y-65939500D01*
X140427525Y-65939500D01*
X140298993Y-65973940D01*
X140287511Y-65977017D01*
X140161988Y-66049488D01*
X140161982Y-66049493D01*
X140059493Y-66151982D01*
X140059488Y-66151988D01*
X139987017Y-66277511D01*
X139987016Y-66277515D01*
X139949500Y-66417525D01*
X139096404Y-66417525D01*
X139073402Y-66272299D01*
X139019873Y-66107555D01*
X138941232Y-65953212D01*
X138839414Y-65813072D01*
X138716928Y-65690586D01*
X138576788Y-65588768D01*
X138422445Y-65510127D01*
X138257701Y-65456598D01*
X138257699Y-65456597D01*
X138257698Y-65456597D01*
X138126271Y-65435781D01*
X138086611Y-65429500D01*
X137913389Y-65429500D01*
X137873728Y-65435781D01*
X137742302Y-65456597D01*
X137577552Y-65510128D01*
X137423211Y-65588768D01*
X137343256Y-65646859D01*
X137283072Y-65690586D01*
X137283070Y-65690588D01*
X137283069Y-65690588D01*
X137160588Y-65813069D01*
X137160588Y-65813070D01*
X137160586Y-65813072D01*
X137116859Y-65873256D01*
X137058768Y-65953211D01*
X136980128Y-66107552D01*
X136926597Y-66272302D01*
X136899500Y-66443389D01*
X102500500Y-66443389D01*
X102500500Y-63903389D01*
X136899500Y-63903389D01*
X136899500Y-64076611D01*
X136926598Y-64247701D01*
X136980127Y-64412445D01*
X137058768Y-64566788D01*
X137160586Y-64706928D01*
X137283072Y-64829414D01*
X137423212Y-64931232D01*
X137577555Y-65009873D01*
X137742299Y-65063402D01*
X137913389Y-65090500D01*
X137913390Y-65090500D01*
X138086610Y-65090500D01*
X138086611Y-65090500D01*
X138257701Y-65063402D01*
X138422445Y-65009873D01*
X138576788Y-64931232D01*
X138716928Y-64829414D01*
X138839414Y-64706928D01*
X138941232Y-64566788D01*
X139019873Y-64412445D01*
X139073402Y-64247701D01*
X139100500Y-64076611D01*
X139100500Y-63903389D01*
X139073402Y-63732299D01*
X139019873Y-63567555D01*
X138941232Y-63413212D01*
X138839414Y-63273072D01*
X138716928Y-63150586D01*
X138576788Y-63048768D01*
X138422445Y-62970127D01*
X138257701Y-62916598D01*
X138257699Y-62916597D01*
X138257698Y-62916597D01*
X138126271Y-62895781D01*
X138086611Y-62889500D01*
X137913389Y-62889500D01*
X137873728Y-62895781D01*
X137742302Y-62916597D01*
X137577552Y-62970128D01*
X137423211Y-63048768D01*
X137343256Y-63106859D01*
X137283072Y-63150586D01*
X137283070Y-63150588D01*
X137283069Y-63150588D01*
X137160588Y-63273069D01*
X137160588Y-63273070D01*
X137160586Y-63273072D01*
X137116859Y-63333256D01*
X137058768Y-63413211D01*
X136980128Y-63567552D01*
X136926597Y-63732302D01*
X136899500Y-63903389D01*
X102500500Y-63903389D01*
X102500500Y-60823920D01*
X107049499Y-60823920D01*
X107078340Y-60968907D01*
X107078343Y-60968917D01*
X107134912Y-61105488D01*
X107134919Y-61105501D01*
X107217048Y-61228415D01*
X107217051Y-61228419D01*
X107321580Y-61332948D01*
X107321584Y-61332951D01*
X107444498Y-61415080D01*
X107444511Y-61415087D01*
X107581082Y-61471656D01*
X107581087Y-61471658D01*
X107581091Y-61471658D01*
X107581092Y-61471659D01*
X107726079Y-61500500D01*
X107726082Y-61500500D01*
X107873920Y-61500500D01*
X107971462Y-61481096D01*
X108018913Y-61471658D01*
X108155495Y-61415084D01*
X108232862Y-61363389D01*
X136899500Y-61363389D01*
X136899500Y-61536611D01*
X136926598Y-61707701D01*
X136980127Y-61872445D01*
X137058768Y-62026788D01*
X137160586Y-62166928D01*
X137283072Y-62289414D01*
X137423212Y-62391232D01*
X137577555Y-62469873D01*
X137742299Y-62523402D01*
X137913389Y-62550500D01*
X137913390Y-62550500D01*
X138086610Y-62550500D01*
X138086611Y-62550500D01*
X138257701Y-62523402D01*
X138422445Y-62469873D01*
X138576788Y-62391232D01*
X138716928Y-62289414D01*
X138839414Y-62166928D01*
X138941232Y-62026788D01*
X139019873Y-61872445D01*
X139073402Y-61707701D01*
X139100500Y-61536611D01*
X139100500Y-61363389D01*
X139073402Y-61192299D01*
X139019873Y-61027555D01*
X138941232Y-60873212D01*
X138839414Y-60733072D01*
X138716928Y-60610586D01*
X138576788Y-60508768D01*
X138422445Y-60430127D01*
X138257701Y-60376598D01*
X138257699Y-60376597D01*
X138257698Y-60376597D01*
X138126271Y-60355781D01*
X138086611Y-60349500D01*
X137913389Y-60349500D01*
X137873728Y-60355781D01*
X137742302Y-60376597D01*
X137577552Y-60430128D01*
X137423211Y-60508768D01*
X137343256Y-60566859D01*
X137283072Y-60610586D01*
X137283070Y-60610588D01*
X137283069Y-60610588D01*
X137160588Y-60733069D01*
X137160588Y-60733070D01*
X137160586Y-60733072D01*
X137116859Y-60793256D01*
X137058768Y-60873211D01*
X136980128Y-61027552D01*
X136926597Y-61192302D01*
X136920877Y-61228419D01*
X136899500Y-61363389D01*
X108232862Y-61363389D01*
X108278416Y-61332951D01*
X108278419Y-61332948D01*
X108340532Y-61270836D01*
X108382948Y-61228419D01*
X108382951Y-61228416D01*
X108465084Y-61105495D01*
X108521658Y-60968913D01*
X108550500Y-60823918D01*
X108550500Y-60676082D01*
X108550500Y-60676079D01*
X108521659Y-60531092D01*
X108521658Y-60531091D01*
X108521658Y-60531087D01*
X108512413Y-60508768D01*
X108465087Y-60394511D01*
X108465080Y-60394498D01*
X108382951Y-60271584D01*
X108382948Y-60271580D01*
X108278419Y-60167051D01*
X108278415Y-60167048D01*
X108155501Y-60084919D01*
X108155488Y-60084912D01*
X108018917Y-60028343D01*
X108018907Y-60028340D01*
X107873920Y-59999500D01*
X107873918Y-59999500D01*
X107726082Y-59999500D01*
X107726080Y-59999500D01*
X107581092Y-60028340D01*
X107581082Y-60028343D01*
X107444511Y-60084912D01*
X107444498Y-60084919D01*
X107321584Y-60167048D01*
X107321580Y-60167051D01*
X107217051Y-60271580D01*
X107217048Y-60271584D01*
X107134919Y-60394498D01*
X107134912Y-60394511D01*
X107078343Y-60531082D01*
X107078340Y-60531092D01*
X107049500Y-60676079D01*
X107049500Y-60676082D01*
X107049500Y-60823918D01*
X107049500Y-60823920D01*
X107049499Y-60823920D01*
X102500500Y-60823920D01*
X102500500Y-58477525D01*
X120249500Y-58477525D01*
X120249500Y-58622475D01*
X120287016Y-58762485D01*
X120287017Y-58762488D01*
X120359488Y-58888011D01*
X120359490Y-58888013D01*
X120359491Y-58888015D01*
X120461985Y-58990509D01*
X120461986Y-58990510D01*
X120461988Y-58990511D01*
X120587511Y-59062982D01*
X120587512Y-59062982D01*
X120587515Y-59062984D01*
X120727525Y-59100500D01*
X120727528Y-59100500D01*
X120872472Y-59100500D01*
X120872475Y-59100500D01*
X121012485Y-59062984D01*
X121138015Y-58990509D01*
X121240509Y-58888015D01*
X121312984Y-58762485D01*
X121350500Y-58622475D01*
X121350500Y-58477525D01*
X121312984Y-58337515D01*
X121240509Y-58211985D01*
X121138015Y-58109491D01*
X121138013Y-58109490D01*
X121138011Y-58109488D01*
X121012488Y-58037017D01*
X121012489Y-58037017D01*
X121001006Y-58033940D01*
X120872475Y-57999500D01*
X120727525Y-57999500D01*
X120598993Y-58033940D01*
X120587511Y-58037017D01*
X120461988Y-58109488D01*
X120461982Y-58109493D01*
X120359493Y-58211982D01*
X120359488Y-58211988D01*
X120287017Y-58337511D01*
X120287016Y-58337515D01*
X120249500Y-58477525D01*
X102500500Y-58477525D01*
X102500500Y-56239234D01*
X124684500Y-56239234D01*
X124684500Y-56390765D01*
X124723719Y-56537136D01*
X124761602Y-56602750D01*
X124799485Y-56668365D01*
X124906635Y-56775515D01*
X125037865Y-56851281D01*
X125184234Y-56890500D01*
X125184236Y-56890500D01*
X125335764Y-56890500D01*
X125335766Y-56890500D01*
X125482135Y-56851281D01*
X125613365Y-56775515D01*
X125720515Y-56668365D01*
X125796281Y-56537135D01*
X125835500Y-56390766D01*
X125835500Y-56239234D01*
X130464500Y-56239234D01*
X130464500Y-56390765D01*
X130503719Y-56537136D01*
X130541602Y-56602750D01*
X130579485Y-56668365D01*
X130686635Y-56775515D01*
X130817865Y-56851281D01*
X130964234Y-56890500D01*
X130964236Y-56890500D01*
X131115764Y-56890500D01*
X131115766Y-56890500D01*
X131262135Y-56851281D01*
X131393365Y-56775515D01*
X131500515Y-56668365D01*
X131576281Y-56537135D01*
X131615500Y-56390766D01*
X131615500Y-56239234D01*
X131576281Y-56092865D01*
X131500515Y-55961635D01*
X131393365Y-55854485D01*
X131308694Y-55805600D01*
X131262136Y-55778719D01*
X131188950Y-55759109D01*
X131115766Y-55739500D01*
X130964234Y-55739500D01*
X130817863Y-55778719D01*
X130686635Y-55854485D01*
X130686632Y-55854487D01*
X130579487Y-55961632D01*
X130579485Y-55961635D01*
X130503719Y-56092863D01*
X130464500Y-56239234D01*
X125835500Y-56239234D01*
X125796281Y-56092865D01*
X125720515Y-55961635D01*
X125613365Y-55854485D01*
X125528694Y-55805600D01*
X125482136Y-55778719D01*
X125408950Y-55759109D01*
X125335766Y-55739500D01*
X125184234Y-55739500D01*
X125037863Y-55778719D01*
X124906635Y-55854485D01*
X124906632Y-55854487D01*
X124799487Y-55961632D01*
X124799485Y-55961635D01*
X124723719Y-56092863D01*
X124684500Y-56239234D01*
X102500500Y-56239234D01*
X102500500Y-53041156D01*
X133974499Y-53041156D01*
X134010065Y-53219952D01*
X134010068Y-53219962D01*
X134079831Y-53388387D01*
X134079833Y-53388391D01*
X134181113Y-53539967D01*
X134181119Y-53539975D01*
X134310024Y-53668880D01*
X134310032Y-53668886D01*
X134461608Y-53770166D01*
X134461612Y-53770168D01*
X134499687Y-53785939D01*
X134554091Y-53829780D01*
X134576156Y-53896074D01*
X134558877Y-53963773D01*
X134507740Y-54011384D01*
X134452235Y-54024500D01*
X134200323Y-54024500D01*
X134127264Y-54039032D01*
X134127260Y-54039033D01*
X134044399Y-54094399D01*
X133989033Y-54177260D01*
X133989032Y-54177264D01*
X133974500Y-54250321D01*
X133974500Y-55649678D01*
X133989032Y-55722735D01*
X133989033Y-55722739D01*
X133989034Y-55722740D01*
X134044399Y-55805601D01*
X134127260Y-55860966D01*
X134127264Y-55860967D01*
X134200321Y-55875499D01*
X134200324Y-55875500D01*
X134200326Y-55875500D01*
X135599676Y-55875500D01*
X135599677Y-55875499D01*
X135672740Y-55860966D01*
X135755601Y-55805601D01*
X135810966Y-55722740D01*
X135825500Y-55649674D01*
X135825500Y-54250326D01*
X135825500Y-54250323D01*
X135825499Y-54250321D01*
X135810967Y-54177264D01*
X135810966Y-54177260D01*
X135755601Y-54094399D01*
X135672740Y-54039034D01*
X135672739Y-54039033D01*
X135672735Y-54039032D01*
X135599677Y-54024500D01*
X135599674Y-54024500D01*
X135347765Y-54024500D01*
X135280726Y-54004815D01*
X135234971Y-53952011D01*
X135225027Y-53882853D01*
X135254052Y-53819297D01*
X135300313Y-53785939D01*
X135338387Y-53770168D01*
X135338391Y-53770166D01*
X135413672Y-53719864D01*
X135489972Y-53668883D01*
X135618883Y-53539972D01*
X135720167Y-53388389D01*
X135789933Y-53219958D01*
X135825500Y-53041154D01*
X135825500Y-52858846D01*
X135825500Y-52858843D01*
X135789934Y-52680047D01*
X135789933Y-52680046D01*
X135789933Y-52680042D01*
X135789931Y-52680037D01*
X135720168Y-52511612D01*
X135720166Y-52511608D01*
X135618886Y-52360032D01*
X135618880Y-52360024D01*
X135489975Y-52231119D01*
X135489967Y-52231113D01*
X135338391Y-52129833D01*
X135338387Y-52129831D01*
X135169962Y-52060068D01*
X135169952Y-52060065D01*
X134991156Y-52024500D01*
X134991154Y-52024500D01*
X134808846Y-52024500D01*
X134808844Y-52024500D01*
X134630047Y-52060065D01*
X134630037Y-52060068D01*
X134461612Y-52129831D01*
X134461608Y-52129833D01*
X134310032Y-52231113D01*
X134310024Y-52231119D01*
X134181119Y-52360024D01*
X134181113Y-52360032D01*
X134079833Y-52511608D01*
X134079831Y-52511612D01*
X134010068Y-52680037D01*
X134010065Y-52680047D01*
X133974500Y-52858843D01*
X133974500Y-52858846D01*
X133974500Y-53041154D01*
X133974500Y-53041156D01*
X133974499Y-53041156D01*
X102500500Y-53041156D01*
X102500500Y-52258676D01*
X102520185Y-52191637D01*
X102536819Y-52170995D01*
X102930289Y-51777525D01*
X109849500Y-51777525D01*
X109849500Y-51922475D01*
X109887016Y-52062485D01*
X109887017Y-52062488D01*
X109959488Y-52188011D01*
X109959490Y-52188013D01*
X109959491Y-52188015D01*
X110061985Y-52290509D01*
X110061986Y-52290510D01*
X110061988Y-52290511D01*
X110187511Y-52362982D01*
X110187512Y-52362982D01*
X110187515Y-52362984D01*
X110327525Y-52400500D01*
X110327528Y-52400500D01*
X110472472Y-52400500D01*
X110472475Y-52400500D01*
X110612485Y-52362984D01*
X110738015Y-52290509D01*
X110840509Y-52188015D01*
X110912984Y-52062485D01*
X110950500Y-51922475D01*
X110950500Y-51777525D01*
X110912984Y-51637515D01*
X110840509Y-51511985D01*
X110738015Y-51409491D01*
X110738013Y-51409490D01*
X110738011Y-51409488D01*
X110612488Y-51337017D01*
X110612489Y-51337017D01*
X110601006Y-51333940D01*
X110472475Y-51299500D01*
X110327525Y-51299500D01*
X110198993Y-51333940D01*
X110187511Y-51337017D01*
X110061988Y-51409488D01*
X110061982Y-51409493D01*
X109959493Y-51511982D01*
X109959488Y-51511988D01*
X109887017Y-51637511D01*
X109887016Y-51637515D01*
X109849500Y-51777525D01*
X102930289Y-51777525D01*
X104170995Y-50536819D01*
X104232318Y-50503334D01*
X104258676Y-50500500D01*
X147741324Y-50500500D01*
X147808363Y-50520185D01*
G37*
%TD.AperFunction*%
%TD*%
M02*
