%TF.GenerationSoftware,KiCad,Pcbnew,9.0.7*%
%TF.CreationDate,2026-09-16T10:24:48-07:00*%
%TF.ProjectId,STM32JukeboxPCB,53544d33-324a-4756-9b65-626f78504342,rev?*%
%TF.SameCoordinates,Original*%
%TF.FileFunction,Drillmap*%
%TF.FilePolarity,Positive*%
%FSLAX45Y45*%
G04 Gerber Fmt 4.5, Leading zero omitted, Abs format (unit mm)*
G04 Created by KiCad (PCBNEW 9.0.7) date 2026-09-16 10:24:48*
%MOMM*%
%LPD*%
G01*
G04 APERTURE LIST*
%ADD10C,0.050000*%
%ADD11C,0.120000*%
%ADD12C,0.200000*%
%ADD13C,0.100000*%
%ADD14C,0.130000*%
G04 APERTURE END LIST*
D10*
X10000000Y-11800000D02*
X10000000Y-7000000D01*
X14800000Y-12000000D02*
X14700000Y-12000000D01*
X10400000Y-5000000D02*
X10200000Y-5200000D01*
X10000000Y-11800000D02*
X10200000Y-12000000D01*
X10200000Y-5200000D02*
X10200000Y-6800000D01*
X14800000Y-5000000D02*
X15000000Y-5200000D01*
X15000000Y-5200000D02*
X15000000Y-11800000D01*
X10400000Y-5000000D02*
X14800000Y-5000000D01*
X15000000Y-11800000D02*
X14800000Y-12000000D01*
X10200000Y-6800000D02*
X10000000Y-7000000D01*
X13400000Y-12000000D02*
X10200000Y-12000000D01*
D11*
X13830000Y-11900000D02*
X13830000Y-12000000D01*
X13830000Y-12000000D02*
X13400000Y-12000000D01*
X14230000Y-11860000D02*
X13870000Y-11860000D01*
X14270000Y-11900000D02*
X14270000Y-12000000D01*
X14270000Y-12000000D02*
X14700000Y-12000000D01*
X13830000Y-11900000D02*
G75*
G02*
X13870000Y-11860000I40000J0D01*
G01*
X14230000Y-11860000D02*
G75*
G02*
X14270000Y-11900000I0J-40000D01*
G01*
D12*
D13*
X12415500Y-9817500D02*
X12435500Y-9837500D01*
X12435500Y-9817500D02*
X12415500Y-9837500D01*
X12415500Y-9942500D02*
X12435500Y-9962500D01*
X12435500Y-9942500D02*
X12415500Y-9962500D01*
X12540500Y-9817500D02*
X12560500Y-9837500D01*
X12560500Y-9817500D02*
X12540500Y-9837500D01*
X12540500Y-9942500D02*
X12560500Y-9962500D01*
X12560500Y-9942500D02*
X12540500Y-9962500D01*
X10190000Y-9070000D02*
G75*
G02*
X10160000Y-9070000I-15000J0D01*
G01*
X10160000Y-9070000D02*
G75*
G02*
X10190000Y-9070000I15000J0D01*
G01*
X10315000Y-10500000D02*
G75*
G02*
X10285000Y-10500000I-15000J0D01*
G01*
X10285000Y-10500000D02*
G75*
G02*
X10315000Y-10500000I15000J0D01*
G01*
X10315000Y-11000000D02*
G75*
G02*
X10285000Y-11000000I-15000J0D01*
G01*
X10285000Y-11000000D02*
G75*
G02*
X10315000Y-11000000I15000J0D01*
G01*
X10335000Y-9805000D02*
G75*
G02*
X10305000Y-9805000I-15000J0D01*
G01*
X10305000Y-9805000D02*
G75*
G02*
X10335000Y-9805000I15000J0D01*
G01*
X10335000Y-9890000D02*
G75*
G02*
X10305000Y-9890000I-15000J0D01*
G01*
X10305000Y-9890000D02*
G75*
G02*
X10335000Y-9890000I15000J0D01*
G01*
X10345000Y-8170000D02*
G75*
G02*
X10315000Y-8170000I-15000J0D01*
G01*
X10315000Y-8170000D02*
G75*
G02*
X10345000Y-8170000I15000J0D01*
G01*
X10345000Y-8270000D02*
G75*
G02*
X10315000Y-8270000I-15000J0D01*
G01*
X10315000Y-8270000D02*
G75*
G02*
X10345000Y-8270000I15000J0D01*
G01*
X10345000Y-8370000D02*
G75*
G02*
X10315000Y-8370000I-15000J0D01*
G01*
X10315000Y-8370000D02*
G75*
G02*
X10345000Y-8370000I15000J0D01*
G01*
X10345000Y-8470000D02*
G75*
G02*
X10315000Y-8470000I-15000J0D01*
G01*
X10315000Y-8470000D02*
G75*
G02*
X10345000Y-8470000I15000J0D01*
G01*
X10355000Y-8070000D02*
G75*
G02*
X10325000Y-8070000I-15000J0D01*
G01*
X10325000Y-8070000D02*
G75*
G02*
X10355000Y-8070000I15000J0D01*
G01*
X10355000Y-8570000D02*
G75*
G02*
X10325000Y-8570000I-15000J0D01*
G01*
X10325000Y-8570000D02*
G75*
G02*
X10355000Y-8570000I15000J0D01*
G01*
X10445000Y-8030000D02*
G75*
G02*
X10415000Y-8030000I-15000J0D01*
G01*
X10415000Y-8030000D02*
G75*
G02*
X10445000Y-8030000I15000J0D01*
G01*
X10445000Y-8590000D02*
G75*
G02*
X10415000Y-8590000I-15000J0D01*
G01*
X10415000Y-8590000D02*
G75*
G02*
X10445000Y-8590000I15000J0D01*
G01*
X10515000Y-10000000D02*
G75*
G02*
X10485000Y-10000000I-15000J0D01*
G01*
X10485000Y-10000000D02*
G75*
G02*
X10515000Y-10000000I15000J0D01*
G01*
X10535000Y-5395000D02*
G75*
G02*
X10505000Y-5395000I-15000J0D01*
G01*
X10505000Y-5395000D02*
G75*
G02*
X10535000Y-5395000I15000J0D01*
G01*
X10545000Y-8590000D02*
G75*
G02*
X10515000Y-8590000I-15000J0D01*
G01*
X10515000Y-8590000D02*
G75*
G02*
X10545000Y-8590000I15000J0D01*
G01*
X10610000Y-9915000D02*
G75*
G02*
X10580000Y-9915000I-15000J0D01*
G01*
X10580000Y-9915000D02*
G75*
G02*
X10610000Y-9915000I15000J0D01*
G01*
X10645000Y-5785000D02*
G75*
G02*
X10615000Y-5785000I-15000J0D01*
G01*
X10615000Y-5785000D02*
G75*
G02*
X10645000Y-5785000I15000J0D01*
G01*
X10645000Y-8590000D02*
G75*
G02*
X10615000Y-8590000I-15000J0D01*
G01*
X10615000Y-8590000D02*
G75*
G02*
X10645000Y-8590000I15000J0D01*
G01*
X10745000Y-8590000D02*
G75*
G02*
X10715000Y-8590000I-15000J0D01*
G01*
X10715000Y-8590000D02*
G75*
G02*
X10745000Y-8590000I15000J0D01*
G01*
X10835000Y-5660000D02*
G75*
G02*
X10805000Y-5660000I-15000J0D01*
G01*
X10805000Y-5660000D02*
G75*
G02*
X10835000Y-5660000I15000J0D01*
G01*
X10835000Y-7215000D02*
G75*
G02*
X10805000Y-7215000I-15000J0D01*
G01*
X10805000Y-7215000D02*
G75*
G02*
X10835000Y-7215000I15000J0D01*
G01*
X10845000Y-8240000D02*
G75*
G02*
X10815000Y-8240000I-15000J0D01*
G01*
X10815000Y-8240000D02*
G75*
G02*
X10845000Y-8240000I15000J0D01*
G01*
X10845000Y-8400000D02*
G75*
G02*
X10815000Y-8400000I-15000J0D01*
G01*
X10815000Y-8400000D02*
G75*
G02*
X10845000Y-8400000I15000J0D01*
G01*
X10845000Y-8590000D02*
G75*
G02*
X10815000Y-8590000I-15000J0D01*
G01*
X10815000Y-8590000D02*
G75*
G02*
X10845000Y-8590000I15000J0D01*
G01*
X10855000Y-7630000D02*
G75*
G02*
X10825000Y-7630000I-15000J0D01*
G01*
X10825000Y-7630000D02*
G75*
G02*
X10855000Y-7630000I15000J0D01*
G01*
X10855000Y-7780000D02*
G75*
G02*
X10825000Y-7780000I-15000J0D01*
G01*
X10825000Y-7780000D02*
G75*
G02*
X10855000Y-7780000I15000J0D01*
G01*
X10870699Y-9453346D02*
G75*
G02*
X10840699Y-9453346I-15000J0D01*
G01*
X10840699Y-9453346D02*
G75*
G02*
X10870699Y-9453346I15000J0D01*
G01*
X10875000Y-5395000D02*
G75*
G02*
X10845000Y-5395000I-15000J0D01*
G01*
X10845000Y-5395000D02*
G75*
G02*
X10875000Y-5395000I15000J0D01*
G01*
X10940000Y-7705000D02*
G75*
G02*
X10910000Y-7705000I-15000J0D01*
G01*
X10910000Y-7705000D02*
G75*
G02*
X10940000Y-7705000I15000J0D01*
G01*
X10954218Y-9452027D02*
G75*
G02*
X10924218Y-9452027I-15000J0D01*
G01*
X10924218Y-9452027D02*
G75*
G02*
X10954218Y-9452027I15000J0D01*
G01*
X10990000Y-8690000D02*
G75*
G02*
X10960000Y-8690000I-15000J0D01*
G01*
X10960000Y-8690000D02*
G75*
G02*
X10990000Y-8690000I15000J0D01*
G01*
X11000000Y-8320000D02*
G75*
G02*
X10970000Y-8320000I-15000J0D01*
G01*
X10970000Y-8320000D02*
G75*
G02*
X11000000Y-8320000I15000J0D01*
G01*
X11015000Y-7350000D02*
G75*
G02*
X10985000Y-7350000I-15000J0D01*
G01*
X10985000Y-7350000D02*
G75*
G02*
X11015000Y-7350000I15000J0D01*
G01*
X11035000Y-8525000D02*
G75*
G02*
X11005000Y-8525000I-15000J0D01*
G01*
X11005000Y-8525000D02*
G75*
G02*
X11035000Y-8525000I15000J0D01*
G01*
X11055000Y-5185000D02*
G75*
G02*
X11025000Y-5185000I-15000J0D01*
G01*
X11025000Y-5185000D02*
G75*
G02*
X11055000Y-5185000I15000J0D01*
G01*
X11086250Y-7780000D02*
G75*
G02*
X11056250Y-7780000I-15000J0D01*
G01*
X11056250Y-7780000D02*
G75*
G02*
X11086250Y-7780000I15000J0D01*
G01*
X11130000Y-8260000D02*
G75*
G02*
X11100000Y-8260000I-15000J0D01*
G01*
X11100000Y-8260000D02*
G75*
G02*
X11130000Y-8260000I15000J0D01*
G01*
X11140000Y-5170000D02*
G75*
G02*
X11110000Y-5170000I-15000J0D01*
G01*
X11110000Y-5170000D02*
G75*
G02*
X11140000Y-5170000I15000J0D01*
G01*
X11150000Y-5620000D02*
G75*
G02*
X11120000Y-5620000I-15000J0D01*
G01*
X11120000Y-5620000D02*
G75*
G02*
X11150000Y-5620000I15000J0D01*
G01*
X11155000Y-9845000D02*
G75*
G02*
X11125000Y-9845000I-15000J0D01*
G01*
X11125000Y-9845000D02*
G75*
G02*
X11155000Y-9845000I15000J0D01*
G01*
X11160000Y-9990000D02*
G75*
G02*
X11130000Y-9990000I-15000J0D01*
G01*
X11130000Y-9990000D02*
G75*
G02*
X11160000Y-9990000I15000J0D01*
G01*
X11165000Y-7705000D02*
G75*
G02*
X11135000Y-7705000I-15000J0D01*
G01*
X11135000Y-7705000D02*
G75*
G02*
X11165000Y-7705000I15000J0D01*
G01*
X11179326Y-8180000D02*
G75*
G02*
X11149326Y-8180000I-15000J0D01*
G01*
X11149326Y-8180000D02*
G75*
G02*
X11179326Y-8180000I15000J0D01*
G01*
X11260000Y-7470000D02*
G75*
G02*
X11230000Y-7470000I-15000J0D01*
G01*
X11230000Y-7470000D02*
G75*
G02*
X11260000Y-7470000I15000J0D01*
G01*
X11285000Y-9330000D02*
G75*
G02*
X11255000Y-9330000I-15000J0D01*
G01*
X11255000Y-9330000D02*
G75*
G02*
X11285000Y-9330000I15000J0D01*
G01*
X11285000Y-9455000D02*
G75*
G02*
X11255000Y-9455000I-15000J0D01*
G01*
X11255000Y-9455000D02*
G75*
G02*
X11285000Y-9455000I15000J0D01*
G01*
X11285000Y-9590000D02*
G75*
G02*
X11255000Y-9590000I-15000J0D01*
G01*
X11255000Y-9590000D02*
G75*
G02*
X11285000Y-9590000I15000J0D01*
G01*
X11355000Y-9390000D02*
G75*
G02*
X11325000Y-9390000I-15000J0D01*
G01*
X11325000Y-9390000D02*
G75*
G02*
X11355000Y-9390000I15000J0D01*
G01*
X11355000Y-9520000D02*
G75*
G02*
X11325000Y-9520000I-15000J0D01*
G01*
X11325000Y-9520000D02*
G75*
G02*
X11355000Y-9520000I15000J0D01*
G01*
X11355000Y-9655000D02*
G75*
G02*
X11325000Y-9655000I-15000J0D01*
G01*
X11325000Y-9655000D02*
G75*
G02*
X11355000Y-9655000I15000J0D01*
G01*
X11365000Y-9990000D02*
G75*
G02*
X11335000Y-9990000I-15000J0D01*
G01*
X11335000Y-9990000D02*
G75*
G02*
X11365000Y-9990000I15000J0D01*
G01*
X11374729Y-7470000D02*
G75*
G02*
X11344729Y-7470000I-15000J0D01*
G01*
X11344729Y-7470000D02*
G75*
G02*
X11374729Y-7470000I15000J0D01*
G01*
X11494729Y-7570000D02*
G75*
G02*
X11464729Y-7570000I-15000J0D01*
G01*
X11464729Y-7570000D02*
G75*
G02*
X11494729Y-7570000I15000J0D01*
G01*
X11495000Y-7460000D02*
G75*
G02*
X11465000Y-7460000I-15000J0D01*
G01*
X11465000Y-7460000D02*
G75*
G02*
X11495000Y-7460000I15000J0D01*
G01*
X11505000Y-8140000D02*
G75*
G02*
X11475000Y-8140000I-15000J0D01*
G01*
X11475000Y-8140000D02*
G75*
G02*
X11505000Y-8140000I15000J0D01*
G01*
X11515000Y-9870000D02*
G75*
G02*
X11485000Y-9870000I-15000J0D01*
G01*
X11485000Y-9870000D02*
G75*
G02*
X11515000Y-9870000I15000J0D01*
G01*
X11525000Y-9496500D02*
G75*
G02*
X11495000Y-9496500I-15000J0D01*
G01*
X11495000Y-9496500D02*
G75*
G02*
X11525000Y-9496500I15000J0D01*
G01*
X11525000Y-9585000D02*
G75*
G02*
X11495000Y-9585000I-15000J0D01*
G01*
X11495000Y-9585000D02*
G75*
G02*
X11525000Y-9585000I15000J0D01*
G01*
X11545000Y-8605000D02*
G75*
G02*
X11515000Y-8605000I-15000J0D01*
G01*
X11515000Y-8605000D02*
G75*
G02*
X11545000Y-8605000I15000J0D01*
G01*
X11545000Y-8690000D02*
G75*
G02*
X11515000Y-8690000I-15000J0D01*
G01*
X11515000Y-8690000D02*
G75*
G02*
X11545000Y-8690000I15000J0D01*
G01*
X11545000Y-8860000D02*
G75*
G02*
X11515000Y-8860000I-15000J0D01*
G01*
X11515000Y-8860000D02*
G75*
G02*
X11545000Y-8860000I15000J0D01*
G01*
X11555000Y-7345000D02*
G75*
G02*
X11525000Y-7345000I-15000J0D01*
G01*
X11525000Y-7345000D02*
G75*
G02*
X11555000Y-7345000I15000J0D01*
G01*
X11555000Y-10500000D02*
G75*
G02*
X11525000Y-10500000I-15000J0D01*
G01*
X11525000Y-10500000D02*
G75*
G02*
X11555000Y-10500000I15000J0D01*
G01*
X11555000Y-11000000D02*
G75*
G02*
X11525000Y-11000000I-15000J0D01*
G01*
X11525000Y-11000000D02*
G75*
G02*
X11555000Y-11000000I15000J0D01*
G01*
X11555100Y-7517509D02*
G75*
G02*
X11525100Y-7517509I-15000J0D01*
G01*
X11525100Y-7517509D02*
G75*
G02*
X11555100Y-7517509I15000J0D01*
G01*
X11570000Y-7265000D02*
G75*
G02*
X11540000Y-7265000I-15000J0D01*
G01*
X11540000Y-7265000D02*
G75*
G02*
X11570000Y-7265000I15000J0D01*
G01*
X11575000Y-5170000D02*
G75*
G02*
X11545000Y-5170000I-15000J0D01*
G01*
X11545000Y-5170000D02*
G75*
G02*
X11575000Y-5170000I15000J0D01*
G01*
X11575000Y-5620000D02*
G75*
G02*
X11545000Y-5620000I-15000J0D01*
G01*
X11545000Y-5620000D02*
G75*
G02*
X11575000Y-5620000I15000J0D01*
G01*
X11600000Y-7190000D02*
G75*
G02*
X11570000Y-7190000I-15000J0D01*
G01*
X11570000Y-7190000D02*
G75*
G02*
X11600000Y-7190000I15000J0D01*
G01*
X11610000Y-9266500D02*
G75*
G02*
X11580000Y-9266500I-15000J0D01*
G01*
X11580000Y-9266500D02*
G75*
G02*
X11610000Y-9266500I15000J0D01*
G01*
X11610000Y-9355000D02*
G75*
G02*
X11580000Y-9355000I-15000J0D01*
G01*
X11580000Y-9355000D02*
G75*
G02*
X11610000Y-9355000I15000J0D01*
G01*
X11655000Y-6845000D02*
G75*
G02*
X11625000Y-6845000I-15000J0D01*
G01*
X11625000Y-6845000D02*
G75*
G02*
X11655000Y-6845000I15000J0D01*
G01*
X11670000Y-6930000D02*
G75*
G02*
X11640000Y-6930000I-15000J0D01*
G01*
X11640000Y-6930000D02*
G75*
G02*
X11670000Y-6930000I15000J0D01*
G01*
X11685000Y-7960000D02*
G75*
G02*
X11655000Y-7960000I-15000J0D01*
G01*
X11655000Y-7960000D02*
G75*
G02*
X11685000Y-7960000I15000J0D01*
G01*
X11685000Y-8320000D02*
G75*
G02*
X11655000Y-8320000I-15000J0D01*
G01*
X11655000Y-8320000D02*
G75*
G02*
X11685000Y-8320000I15000J0D01*
G01*
X11692537Y-7582537D02*
G75*
G02*
X11662537Y-7582537I-15000J0D01*
G01*
X11662537Y-7582537D02*
G75*
G02*
X11692537Y-7582537I15000J0D01*
G01*
X11695000Y-7475000D02*
G75*
G02*
X11665000Y-7475000I-15000J0D01*
G01*
X11665000Y-7475000D02*
G75*
G02*
X11695000Y-7475000I15000J0D01*
G01*
X11700000Y-7695147D02*
G75*
G02*
X11670000Y-7695147I-15000J0D01*
G01*
X11670000Y-7695147D02*
G75*
G02*
X11700000Y-7695147I15000J0D01*
G01*
X11750000Y-6935000D02*
G75*
G02*
X11720000Y-6935000I-15000J0D01*
G01*
X11720000Y-6935000D02*
G75*
G02*
X11750000Y-6935000I15000J0D01*
G01*
X11765000Y-5660000D02*
G75*
G02*
X11735000Y-5660000I-15000J0D01*
G01*
X11735000Y-5660000D02*
G75*
G02*
X11765000Y-5660000I15000J0D01*
G01*
X11765000Y-6275000D02*
G75*
G02*
X11735000Y-6275000I-15000J0D01*
G01*
X11735000Y-6275000D02*
G75*
G02*
X11765000Y-6275000I15000J0D01*
G01*
X11765000Y-7020000D02*
G75*
G02*
X11735000Y-7020000I-15000J0D01*
G01*
X11735000Y-7020000D02*
G75*
G02*
X11765000Y-7020000I15000J0D01*
G01*
X11775000Y-9746500D02*
G75*
G02*
X11745000Y-9746500I-15000J0D01*
G01*
X11745000Y-9746500D02*
G75*
G02*
X11775000Y-9746500I15000J0D01*
G01*
X11785000Y-7375000D02*
G75*
G02*
X11755000Y-7375000I-15000J0D01*
G01*
X11755000Y-7375000D02*
G75*
G02*
X11785000Y-7375000I15000J0D01*
G01*
X11785000Y-9575000D02*
G75*
G02*
X11755000Y-9575000I-15000J0D01*
G01*
X11755000Y-9575000D02*
G75*
G02*
X11785000Y-9575000I15000J0D01*
G01*
X11785369Y-9667175D02*
G75*
G02*
X11755369Y-9667175I-15000J0D01*
G01*
X11755369Y-9667175D02*
G75*
G02*
X11785369Y-9667175I15000J0D01*
G01*
X11794900Y-8755000D02*
G75*
G02*
X11764900Y-8755000I-15000J0D01*
G01*
X11764900Y-8755000D02*
G75*
G02*
X11794900Y-8755000I15000J0D01*
G01*
X11815000Y-5340000D02*
G75*
G02*
X11785000Y-5340000I-15000J0D01*
G01*
X11785000Y-5340000D02*
G75*
G02*
X11815000Y-5340000I15000J0D01*
G01*
X11850000Y-11190000D02*
G75*
G02*
X11820000Y-11190000I-15000J0D01*
G01*
X11820000Y-11190000D02*
G75*
G02*
X11850000Y-11190000I15000J0D01*
G01*
X11850000Y-11295000D02*
G75*
G02*
X11820000Y-11295000I-15000J0D01*
G01*
X11820000Y-11295000D02*
G75*
G02*
X11850000Y-11295000I15000J0D01*
G01*
X11850000Y-11405000D02*
G75*
G02*
X11820000Y-11405000I-15000J0D01*
G01*
X11820000Y-11405000D02*
G75*
G02*
X11850000Y-11405000I15000J0D01*
G01*
X11865000Y-8140000D02*
G75*
G02*
X11835000Y-8140000I-15000J0D01*
G01*
X11835000Y-8140000D02*
G75*
G02*
X11865000Y-8140000I15000J0D01*
G01*
X11895000Y-9705000D02*
G75*
G02*
X11865000Y-9705000I-15000J0D01*
G01*
X11865000Y-9705000D02*
G75*
G02*
X11895000Y-9705000I15000J0D01*
G01*
X11925000Y-7540000D02*
G75*
G02*
X11895000Y-7540000I-15000J0D01*
G01*
X11895000Y-7540000D02*
G75*
G02*
X11925000Y-7540000I15000J0D01*
G01*
X11935000Y-5795000D02*
G75*
G02*
X11905000Y-5795000I-15000J0D01*
G01*
X11905000Y-5795000D02*
G75*
G02*
X11935000Y-5795000I15000J0D01*
G01*
X11935000Y-7620000D02*
G75*
G02*
X11905000Y-7620000I-15000J0D01*
G01*
X11905000Y-7620000D02*
G75*
G02*
X11935000Y-7620000I15000J0D01*
G01*
X11940000Y-11495000D02*
G75*
G02*
X11910000Y-11495000I-15000J0D01*
G01*
X11910000Y-11495000D02*
G75*
G02*
X11940000Y-11495000I15000J0D01*
G01*
X11975000Y-9950000D02*
G75*
G02*
X11945000Y-9950000I-15000J0D01*
G01*
X11945000Y-9950000D02*
G75*
G02*
X11975000Y-9950000I15000J0D01*
G01*
X11980000Y-10100000D02*
G75*
G02*
X11950000Y-10100000I-15000J0D01*
G01*
X11950000Y-10100000D02*
G75*
G02*
X11980000Y-10100000I15000J0D01*
G01*
X11990000Y-5170000D02*
G75*
G02*
X11960000Y-5170000I-15000J0D01*
G01*
X11960000Y-5170000D02*
G75*
G02*
X11990000Y-5170000I15000J0D01*
G01*
X12005000Y-7535000D02*
G75*
G02*
X11975000Y-7535000I-15000J0D01*
G01*
X11975000Y-7535000D02*
G75*
G02*
X12005000Y-7535000I15000J0D01*
G01*
X12025000Y-6265000D02*
G75*
G02*
X11995000Y-6265000I-15000J0D01*
G01*
X11995000Y-6265000D02*
G75*
G02*
X12025000Y-6265000I15000J0D01*
G01*
X12045073Y-8474927D02*
G75*
G02*
X12015073Y-8474927I-15000J0D01*
G01*
X12015073Y-8474927D02*
G75*
G02*
X12045073Y-8474927I15000J0D01*
G01*
X12075000Y-9850000D02*
G75*
G02*
X12045000Y-9850000I-15000J0D01*
G01*
X12045000Y-9850000D02*
G75*
G02*
X12075000Y-9850000I15000J0D01*
G01*
X12095000Y-5535000D02*
G75*
G02*
X12065000Y-5535000I-15000J0D01*
G01*
X12065000Y-5535000D02*
G75*
G02*
X12095000Y-5535000I15000J0D01*
G01*
X12095000Y-5765000D02*
G75*
G02*
X12065000Y-5765000I-15000J0D01*
G01*
X12065000Y-5765000D02*
G75*
G02*
X12095000Y-5765000I15000J0D01*
G01*
X12095000Y-5855000D02*
G75*
G02*
X12065000Y-5855000I-15000J0D01*
G01*
X12065000Y-5855000D02*
G75*
G02*
X12095000Y-5855000I15000J0D01*
G01*
X12110000Y-8630000D02*
G75*
G02*
X12080000Y-8630000I-15000J0D01*
G01*
X12080000Y-8630000D02*
G75*
G02*
X12110000Y-8630000I15000J0D01*
G01*
X12115000Y-9620000D02*
G75*
G02*
X12085000Y-9620000I-15000J0D01*
G01*
X12085000Y-9620000D02*
G75*
G02*
X12115000Y-9620000I15000J0D01*
G01*
X12115625Y-7825625D02*
G75*
G02*
X12085625Y-7825625I-15000J0D01*
G01*
X12085625Y-7825625D02*
G75*
G02*
X12115625Y-7825625I15000J0D01*
G01*
X12125000Y-11130000D02*
G75*
G02*
X12095000Y-11130000I-15000J0D01*
G01*
X12095000Y-11130000D02*
G75*
G02*
X12125000Y-11130000I15000J0D01*
G01*
X12162426Y-8287573D02*
G75*
G02*
X12132426Y-8287573I-15000J0D01*
G01*
X12132426Y-8287573D02*
G75*
G02*
X12162426Y-8287573I15000J0D01*
G01*
X12175000Y-8164974D02*
G75*
G02*
X12145000Y-8164974I-15000J0D01*
G01*
X12145000Y-8164974D02*
G75*
G02*
X12175000Y-8164974I15000J0D01*
G01*
X12180000Y-10100000D02*
G75*
G02*
X12150000Y-10100000I-15000J0D01*
G01*
X12150000Y-10100000D02*
G75*
G02*
X12180000Y-10100000I15000J0D01*
G01*
X12215000Y-11425000D02*
G75*
G02*
X12185000Y-11425000I-15000J0D01*
G01*
X12185000Y-11425000D02*
G75*
G02*
X12215000Y-11425000I15000J0D01*
G01*
X12215000Y-11775000D02*
G75*
G02*
X12185000Y-11775000I-15000J0D01*
G01*
X12185000Y-11775000D02*
G75*
G02*
X12215000Y-11775000I15000J0D01*
G01*
X12225000Y-10335000D02*
G75*
G02*
X12195000Y-10335000I-15000J0D01*
G01*
X12195000Y-10335000D02*
G75*
G02*
X12225000Y-10335000I15000J0D01*
G01*
X12240180Y-8268746D02*
G75*
G02*
X12210180Y-8268746I-15000J0D01*
G01*
X12210180Y-8268746D02*
G75*
G02*
X12240180Y-8268746I15000J0D01*
G01*
X12265000Y-6350000D02*
G75*
G02*
X12235000Y-6350000I-15000J0D01*
G01*
X12235000Y-6350000D02*
G75*
G02*
X12265000Y-6350000I15000J0D01*
G01*
X12265000Y-6490000D02*
G75*
G02*
X12235000Y-6490000I-15000J0D01*
G01*
X12235000Y-6490000D02*
G75*
G02*
X12265000Y-6490000I15000J0D01*
G01*
X12265000Y-8180000D02*
G75*
G02*
X12235000Y-8180000I-15000J0D01*
G01*
X12235000Y-8180000D02*
G75*
G02*
X12265000Y-8180000I15000J0D01*
G01*
X12270000Y-8425000D02*
G75*
G02*
X12240000Y-8425000I-15000J0D01*
G01*
X12240000Y-8425000D02*
G75*
G02*
X12270000Y-8425000I15000J0D01*
G01*
X12275000Y-7845000D02*
G75*
G02*
X12245000Y-7845000I-15000J0D01*
G01*
X12245000Y-7845000D02*
G75*
G02*
X12275000Y-7845000I15000J0D01*
G01*
X12330000Y-9750000D02*
G75*
G02*
X12300000Y-9750000I-15000J0D01*
G01*
X12300000Y-9750000D02*
G75*
G02*
X12330000Y-9750000I15000J0D01*
G01*
X12360000Y-8455000D02*
G75*
G02*
X12330000Y-8455000I-15000J0D01*
G01*
X12330000Y-8455000D02*
G75*
G02*
X12360000Y-8455000I15000J0D01*
G01*
X12365000Y-10590000D02*
G75*
G02*
X12335000Y-10590000I-15000J0D01*
G01*
X12335000Y-10590000D02*
G75*
G02*
X12365000Y-10590000I15000J0D01*
G01*
X12370000Y-10830000D02*
G75*
G02*
X12340000Y-10830000I-15000J0D01*
G01*
X12340000Y-10830000D02*
G75*
G02*
X12370000Y-10830000I15000J0D01*
G01*
X12370000Y-11095000D02*
G75*
G02*
X12340000Y-11095000I-15000J0D01*
G01*
X12340000Y-11095000D02*
G75*
G02*
X12370000Y-11095000I15000J0D01*
G01*
X12445000Y-8190000D02*
G75*
G02*
X12415000Y-8190000I-15000J0D01*
G01*
X12415000Y-8190000D02*
G75*
G02*
X12445000Y-8190000I15000J0D01*
G01*
X12480000Y-7835000D02*
G75*
G02*
X12450000Y-7835000I-15000J0D01*
G01*
X12450000Y-7835000D02*
G75*
G02*
X12480000Y-7835000I15000J0D01*
G01*
X12495000Y-8260000D02*
G75*
G02*
X12465000Y-8260000I-15000J0D01*
G01*
X12465000Y-8260000D02*
G75*
G02*
X12495000Y-8260000I15000J0D01*
G01*
X12550000Y-6020000D02*
G75*
G02*
X12520000Y-6020000I-15000J0D01*
G01*
X12520000Y-6020000D02*
G75*
G02*
X12550000Y-6020000I15000J0D01*
G01*
X12555000Y-8320000D02*
G75*
G02*
X12525000Y-8320000I-15000J0D01*
G01*
X12525000Y-8320000D02*
G75*
G02*
X12555000Y-8320000I15000J0D01*
G01*
X12565000Y-6900000D02*
G75*
G02*
X12535000Y-6900000I-15000J0D01*
G01*
X12535000Y-6900000D02*
G75*
G02*
X12565000Y-6900000I15000J0D01*
G01*
X12565000Y-7225000D02*
G75*
G02*
X12535000Y-7225000I-15000J0D01*
G01*
X12535000Y-7225000D02*
G75*
G02*
X12565000Y-7225000I15000J0D01*
G01*
X12572500Y-7837500D02*
G75*
G02*
X12542500Y-7837500I-15000J0D01*
G01*
X12542500Y-7837500D02*
G75*
G02*
X12572500Y-7837500I15000J0D01*
G01*
X12635000Y-7765000D02*
G75*
G02*
X12605000Y-7765000I-15000J0D01*
G01*
X12605000Y-7765000D02*
G75*
G02*
X12635000Y-7765000I15000J0D01*
G01*
X12640500Y-10033170D02*
G75*
G02*
X12610500Y-10033170I-15000J0D01*
G01*
X12610500Y-10033170D02*
G75*
G02*
X12640500Y-10033170I15000J0D01*
G01*
X12650000Y-9750000D02*
G75*
G02*
X12620000Y-9750000I-15000J0D01*
G01*
X12620000Y-9750000D02*
G75*
G02*
X12650000Y-9750000I15000J0D01*
G01*
X12685000Y-10880000D02*
G75*
G02*
X12655000Y-10880000I-15000J0D01*
G01*
X12655000Y-10880000D02*
G75*
G02*
X12685000Y-10880000I15000J0D01*
G01*
X12690000Y-10570000D02*
G75*
G02*
X12660000Y-10570000I-15000J0D01*
G01*
X12660000Y-10570000D02*
G75*
G02*
X12690000Y-10570000I15000J0D01*
G01*
X12690000Y-11045000D02*
G75*
G02*
X12660000Y-11045000I-15000J0D01*
G01*
X12660000Y-11045000D02*
G75*
G02*
X12690000Y-11045000I15000J0D01*
G01*
X12694718Y-10091996D02*
G75*
G02*
X12664718Y-10091996I-15000J0D01*
G01*
X12664718Y-10091996D02*
G75*
G02*
X12694718Y-10091996I15000J0D01*
G01*
X12715000Y-11425000D02*
G75*
G02*
X12685000Y-11425000I-15000J0D01*
G01*
X12685000Y-11425000D02*
G75*
G02*
X12715000Y-11425000I15000J0D01*
G01*
X12715000Y-11775000D02*
G75*
G02*
X12685000Y-11775000I-15000J0D01*
G01*
X12685000Y-11775000D02*
G75*
G02*
X12715000Y-11775000I15000J0D01*
G01*
X12725000Y-10415000D02*
G75*
G02*
X12695000Y-10415000I-15000J0D01*
G01*
X12695000Y-10415000D02*
G75*
G02*
X12725000Y-10415000I15000J0D01*
G01*
X12740000Y-6020000D02*
G75*
G02*
X12710000Y-6020000I-15000J0D01*
G01*
X12710000Y-6020000D02*
G75*
G02*
X12740000Y-6020000I15000J0D01*
G01*
X12810000Y-11385000D02*
G75*
G02*
X12780000Y-11385000I-15000J0D01*
G01*
X12780000Y-11385000D02*
G75*
G02*
X12810000Y-11385000I15000J0D01*
G01*
X12870000Y-6020000D02*
G75*
G02*
X12840000Y-6020000I-15000J0D01*
G01*
X12840000Y-6020000D02*
G75*
G02*
X12870000Y-6020000I15000J0D01*
G01*
X12890000Y-11460000D02*
G75*
G02*
X12860000Y-11460000I-15000J0D01*
G01*
X12860000Y-11460000D02*
G75*
G02*
X12890000Y-11460000I15000J0D01*
G01*
X12895000Y-9680000D02*
G75*
G02*
X12865000Y-9680000I-15000J0D01*
G01*
X12865000Y-9680000D02*
G75*
G02*
X12895000Y-9680000I15000J0D01*
G01*
X12950000Y-9905000D02*
G75*
G02*
X12920000Y-9905000I-15000J0D01*
G01*
X12920000Y-9905000D02*
G75*
G02*
X12950000Y-9905000I15000J0D01*
G01*
X13020000Y-10415000D02*
G75*
G02*
X12990000Y-10415000I-15000J0D01*
G01*
X12990000Y-10415000D02*
G75*
G02*
X13020000Y-10415000I15000J0D01*
G01*
X13065000Y-6900000D02*
G75*
G02*
X13035000Y-6900000I-15000J0D01*
G01*
X13035000Y-6900000D02*
G75*
G02*
X13065000Y-6900000I15000J0D01*
G01*
X13065000Y-7225000D02*
G75*
G02*
X13035000Y-7225000I-15000J0D01*
G01*
X13035000Y-7225000D02*
G75*
G02*
X13065000Y-7225000I15000J0D01*
G01*
X13085000Y-11265000D02*
G75*
G02*
X13055000Y-11265000I-15000J0D01*
G01*
X13055000Y-11265000D02*
G75*
G02*
X13085000Y-11265000I15000J0D01*
G01*
X13095000Y-6110000D02*
G75*
G02*
X13065000Y-6110000I-15000J0D01*
G01*
X13065000Y-6110000D02*
G75*
G02*
X13095000Y-6110000I15000J0D01*
G01*
X13095000Y-7630000D02*
G75*
G02*
X13065000Y-7630000I-15000J0D01*
G01*
X13065000Y-7630000D02*
G75*
G02*
X13095000Y-7630000I15000J0D01*
G01*
X13115000Y-11200000D02*
G75*
G02*
X13085000Y-11200000I-15000J0D01*
G01*
X13085000Y-11200000D02*
G75*
G02*
X13115000Y-11200000I15000J0D01*
G01*
X13120000Y-10480000D02*
G75*
G02*
X13090000Y-10480000I-15000J0D01*
G01*
X13090000Y-10480000D02*
G75*
G02*
X13120000Y-10480000I15000J0D01*
G01*
X13140000Y-7560000D02*
G75*
G02*
X13110000Y-7560000I-15000J0D01*
G01*
X13110000Y-7560000D02*
G75*
G02*
X13140000Y-7560000I15000J0D01*
G01*
X13140000Y-7705000D02*
G75*
G02*
X13110000Y-7705000I-15000J0D01*
G01*
X13110000Y-7705000D02*
G75*
G02*
X13140000Y-7705000I15000J0D01*
G01*
X13200000Y-11120000D02*
G75*
G02*
X13170000Y-11120000I-15000J0D01*
G01*
X13170000Y-11120000D02*
G75*
G02*
X13200000Y-11120000I15000J0D01*
G01*
X13205000Y-10755000D02*
G75*
G02*
X13175000Y-10755000I-15000J0D01*
G01*
X13175000Y-10755000D02*
G75*
G02*
X13205000Y-10755000I15000J0D01*
G01*
X13210000Y-10880000D02*
G75*
G02*
X13180000Y-10880000I-15000J0D01*
G01*
X13180000Y-10880000D02*
G75*
G02*
X13210000Y-10880000I15000J0D01*
G01*
X13215000Y-10575000D02*
G75*
G02*
X13185000Y-10575000I-15000J0D01*
G01*
X13185000Y-10575000D02*
G75*
G02*
X13215000Y-10575000I15000J0D01*
G01*
X13320000Y-6330000D02*
G75*
G02*
X13290000Y-6330000I-15000J0D01*
G01*
X13290000Y-6330000D02*
G75*
G02*
X13320000Y-6330000I15000J0D01*
G01*
X13410000Y-6100000D02*
G75*
G02*
X13380000Y-6100000I-15000J0D01*
G01*
X13380000Y-6100000D02*
G75*
G02*
X13410000Y-6100000I15000J0D01*
G01*
X13435000Y-6520000D02*
G75*
G02*
X13405000Y-6520000I-15000J0D01*
G01*
X13405000Y-6520000D02*
G75*
G02*
X13435000Y-6520000I15000J0D01*
G01*
X13500000Y-10845000D02*
G75*
G02*
X13470000Y-10845000I-15000J0D01*
G01*
X13470000Y-10845000D02*
G75*
G02*
X13500000Y-10845000I15000J0D01*
G01*
X13515000Y-9825000D02*
G75*
G02*
X13485000Y-9825000I-15000J0D01*
G01*
X13485000Y-9825000D02*
G75*
G02*
X13515000Y-9825000I15000J0D01*
G01*
X13575000Y-6520000D02*
G75*
G02*
X13545000Y-6520000I-15000J0D01*
G01*
X13545000Y-6520000D02*
G75*
G02*
X13575000Y-6520000I15000J0D01*
G01*
X13645000Y-7375000D02*
G75*
G02*
X13615000Y-7375000I-15000J0D01*
G01*
X13615000Y-7375000D02*
G75*
G02*
X13645000Y-7375000I15000J0D01*
G01*
X13645000Y-7505000D02*
G75*
G02*
X13615000Y-7505000I-15000J0D01*
G01*
X13615000Y-7505000D02*
G75*
G02*
X13645000Y-7505000I15000J0D01*
G01*
X13645000Y-7655000D02*
G75*
G02*
X13615000Y-7655000I-15000J0D01*
G01*
X13615000Y-7655000D02*
G75*
G02*
X13645000Y-7655000I15000J0D01*
G01*
X13645000Y-7810000D02*
G75*
G02*
X13615000Y-7810000I-15000J0D01*
G01*
X13615000Y-7810000D02*
G75*
G02*
X13645000Y-7810000I15000J0D01*
G01*
X13645000Y-7935000D02*
G75*
G02*
X13615000Y-7935000I-15000J0D01*
G01*
X13615000Y-7935000D02*
G75*
G02*
X13645000Y-7935000I15000J0D01*
G01*
X13645000Y-8060000D02*
G75*
G02*
X13615000Y-8060000I-15000J0D01*
G01*
X13615000Y-8060000D02*
G75*
G02*
X13645000Y-8060000I15000J0D01*
G01*
X13645000Y-8190000D02*
G75*
G02*
X13615000Y-8190000I-15000J0D01*
G01*
X13615000Y-8190000D02*
G75*
G02*
X13645000Y-8190000I15000J0D01*
G01*
X13645000Y-8320000D02*
G75*
G02*
X13615000Y-8320000I-15000J0D01*
G01*
X13615000Y-8320000D02*
G75*
G02*
X13645000Y-8320000I15000J0D01*
G01*
X13645000Y-8450000D02*
G75*
G02*
X13615000Y-8450000I-15000J0D01*
G01*
X13615000Y-8450000D02*
G75*
G02*
X13645000Y-8450000I15000J0D01*
G01*
X13645000Y-8575000D02*
G75*
G02*
X13615000Y-8575000I-15000J0D01*
G01*
X13615000Y-8575000D02*
G75*
G02*
X13645000Y-8575000I15000J0D01*
G01*
X13645000Y-8795000D02*
G75*
G02*
X13615000Y-8795000I-15000J0D01*
G01*
X13615000Y-8795000D02*
G75*
G02*
X13645000Y-8795000I15000J0D01*
G01*
X13645000Y-9030000D02*
G75*
G02*
X13615000Y-9030000I-15000J0D01*
G01*
X13615000Y-9030000D02*
G75*
G02*
X13645000Y-9030000I15000J0D01*
G01*
X13715000Y-8640000D02*
G75*
G02*
X13685000Y-8640000I-15000J0D01*
G01*
X13685000Y-8640000D02*
G75*
G02*
X13715000Y-8640000I15000J0D01*
G01*
X13985000Y-7500000D02*
G75*
G02*
X13955000Y-7500000I-15000J0D01*
G01*
X13955000Y-7500000D02*
G75*
G02*
X13985000Y-7500000I15000J0D01*
G01*
X13985000Y-7650000D02*
G75*
G02*
X13955000Y-7650000I-15000J0D01*
G01*
X13955000Y-7650000D02*
G75*
G02*
X13985000Y-7650000I15000J0D01*
G01*
X13985000Y-7810000D02*
G75*
G02*
X13955000Y-7810000I-15000J0D01*
G01*
X13955000Y-7810000D02*
G75*
G02*
X13985000Y-7810000I15000J0D01*
G01*
X13985000Y-7935000D02*
G75*
G02*
X13955000Y-7935000I-15000J0D01*
G01*
X13955000Y-7935000D02*
G75*
G02*
X13985000Y-7935000I15000J0D01*
G01*
X13985000Y-8060000D02*
G75*
G02*
X13955000Y-8060000I-15000J0D01*
G01*
X13955000Y-8060000D02*
G75*
G02*
X13985000Y-8060000I15000J0D01*
G01*
X13985000Y-8190000D02*
G75*
G02*
X13955000Y-8190000I-15000J0D01*
G01*
X13955000Y-8190000D02*
G75*
G02*
X13985000Y-8190000I15000J0D01*
G01*
X13985000Y-8320000D02*
G75*
G02*
X13955000Y-8320000I-15000J0D01*
G01*
X13955000Y-8320000D02*
G75*
G02*
X13985000Y-8320000I15000J0D01*
G01*
X14015000Y-6000000D02*
G75*
G02*
X13985000Y-6000000I-15000J0D01*
G01*
X13985000Y-6000000D02*
G75*
G02*
X14015000Y-6000000I15000J0D01*
G01*
X14015000Y-7000000D02*
G75*
G02*
X13985000Y-7000000I-15000J0D01*
G01*
X13985000Y-7000000D02*
G75*
G02*
X14015000Y-7000000I15000J0D01*
G01*
X14015000Y-9825000D02*
G75*
G02*
X13985000Y-9825000I-15000J0D01*
G01*
X13985000Y-9825000D02*
G75*
G02*
X14015000Y-9825000I15000J0D01*
G01*
X14015000Y-10175000D02*
G75*
G02*
X13985000Y-10175000I-15000J0D01*
G01*
X13985000Y-10175000D02*
G75*
G02*
X14015000Y-10175000I15000J0D01*
G01*
X14065000Y-6560000D02*
G75*
G02*
X14035000Y-6560000I-15000J0D01*
G01*
X14035000Y-6560000D02*
G75*
G02*
X14065000Y-6560000I15000J0D01*
G01*
X14065000Y-6649000D02*
G75*
G02*
X14035000Y-6649000I-15000J0D01*
G01*
X14035000Y-6649000D02*
G75*
G02*
X14065000Y-6649000I15000J0D01*
G01*
X14135000Y-6705000D02*
G75*
G02*
X14105000Y-6705000I-15000J0D01*
G01*
X14105000Y-6705000D02*
G75*
G02*
X14135000Y-6705000I15000J0D01*
G01*
X14405000Y-7650000D02*
G75*
G02*
X14375000Y-7650000I-15000J0D01*
G01*
X14375000Y-7650000D02*
G75*
G02*
X14405000Y-7650000I15000J0D01*
G01*
X14405000Y-7810000D02*
G75*
G02*
X14375000Y-7810000I-15000J0D01*
G01*
X14375000Y-7810000D02*
G75*
G02*
X14405000Y-7810000I15000J0D01*
G01*
X14405000Y-8070000D02*
G75*
G02*
X14375000Y-8070000I-15000J0D01*
G01*
X14375000Y-8070000D02*
G75*
G02*
X14405000Y-8070000I15000J0D01*
G01*
X14405000Y-8190000D02*
G75*
G02*
X14375000Y-8190000I-15000J0D01*
G01*
X14375000Y-8190000D02*
G75*
G02*
X14405000Y-8190000I15000J0D01*
G01*
X14405000Y-8325000D02*
G75*
G02*
X14375000Y-8325000I-15000J0D01*
G01*
X14375000Y-8325000D02*
G75*
G02*
X14405000Y-8325000I15000J0D01*
G01*
X14405000Y-8880000D02*
G75*
G02*
X14375000Y-8880000I-15000J0D01*
G01*
X14375000Y-8880000D02*
G75*
G02*
X14405000Y-8880000I15000J0D01*
G01*
X14405000Y-9150000D02*
G75*
G02*
X14375000Y-9150000I-15000J0D01*
G01*
X14375000Y-9150000D02*
G75*
G02*
X14405000Y-9150000I15000J0D01*
G01*
X14405000Y-9410000D02*
G75*
G02*
X14375000Y-9410000I-15000J0D01*
G01*
X14375000Y-9410000D02*
G75*
G02*
X14405000Y-9410000I15000J0D01*
G01*
X14515000Y-6000000D02*
G75*
G02*
X14485000Y-6000000I-15000J0D01*
G01*
X14485000Y-6000000D02*
G75*
G02*
X14515000Y-6000000I15000J0D01*
G01*
X14515000Y-6500000D02*
G75*
G02*
X14485000Y-6500000I-15000J0D01*
G01*
X14485000Y-6500000D02*
G75*
G02*
X14515000Y-6500000I15000J0D01*
G01*
X14515000Y-7000000D02*
G75*
G02*
X14485000Y-7000000I-15000J0D01*
G01*
X14485000Y-7000000D02*
G75*
G02*
X14515000Y-7000000I15000J0D01*
G01*
X14745000Y-9410000D02*
G75*
G02*
X14715000Y-9410000I-15000J0D01*
G01*
X14715000Y-9410000D02*
G75*
G02*
X14745000Y-9410000I15000J0D01*
G01*
X14745000Y-9640000D02*
G75*
G02*
X14715000Y-9640000I-15000J0D01*
G01*
X14715000Y-9640000D02*
G75*
G02*
X14745000Y-9640000I15000J0D01*
G01*
X14745000Y-9920000D02*
G75*
G02*
X14715000Y-9920000I-15000J0D01*
G01*
X14715000Y-9920000D02*
G75*
G02*
X14745000Y-9920000I15000J0D01*
G01*
X13550000Y-11030000D02*
X13550000Y-11070000D01*
X13530000Y-11050000D02*
X13570000Y-11050000D01*
X13530000Y-11000000D02*
X13530000Y-11100000D01*
X13570000Y-11100000D02*
G75*
G02*
X13530000Y-11100000I-20000J0D01*
G01*
X13570000Y-11100000D02*
X13570000Y-11000000D01*
X13570000Y-11000000D02*
G75*
G03*
X13530000Y-11000000I-20000J0D01*
G01*
X14050000Y-11530000D02*
X14050000Y-11570000D01*
X14030000Y-11550000D02*
X14070000Y-11550000D01*
X14000000Y-11570000D02*
X14100000Y-11570000D01*
X14100000Y-11530000D02*
G75*
G02*
X14100000Y-11570000I0J-20000D01*
G01*
X14100000Y-11530000D02*
X14000000Y-11530000D01*
X14000000Y-11530000D02*
G75*
G03*
X14000000Y-11570000I0J-20000D01*
G01*
X14550000Y-11030000D02*
X14550000Y-11070000D01*
X14530000Y-11050000D02*
X14570000Y-11050000D01*
X14570000Y-11100000D02*
X14570000Y-11000000D01*
X14530000Y-11000000D02*
G75*
G02*
X14570000Y-11000000I20000J0D01*
G01*
X14530000Y-11000000D02*
X14530000Y-11100000D01*
X14530000Y-11100000D02*
G75*
G03*
X14570000Y-11100000I20000J0D01*
G01*
X12404213Y-5284713D02*
X12404213Y-5242287D01*
X12361787Y-5242287D01*
X12361787Y-5284713D01*
X12404213Y-5284713D01*
X12413000Y-5303500D02*
X12413000Y-5223500D01*
X12353000Y-5223500D02*
G75*
G02*
X12413000Y-5223500I30000J0D01*
G01*
X12353000Y-5223500D02*
X12353000Y-5303500D01*
X12353000Y-5303500D02*
G75*
G03*
X12413000Y-5303500I30000J0D01*
G01*
X12404213Y-5702713D02*
X12404213Y-5660287D01*
X12361787Y-5660287D01*
X12361787Y-5702713D01*
X12404213Y-5702713D01*
X12413000Y-5736500D02*
X12413000Y-5626500D01*
X12353000Y-5626500D02*
G75*
G02*
X12413000Y-5626500I30000J0D01*
G01*
X12353000Y-5626500D02*
X12353000Y-5736500D01*
X12353000Y-5736500D02*
G75*
G03*
X12413000Y-5736500I30000J0D01*
G01*
X13268213Y-5284713D02*
X13268213Y-5242287D01*
X13225787Y-5242287D01*
X13225787Y-5284713D01*
X13268213Y-5284713D01*
X13277000Y-5303500D02*
X13277000Y-5223500D01*
X13217000Y-5223500D02*
G75*
G02*
X13277000Y-5223500I30000J0D01*
G01*
X13217000Y-5223500D02*
X13217000Y-5303500D01*
X13217000Y-5303500D02*
G75*
G03*
X13277000Y-5303500I30000J0D01*
G01*
X13268213Y-5702713D02*
X13268213Y-5660287D01*
X13225787Y-5660287D01*
X13225787Y-5702713D01*
X13268213Y-5702713D01*
X13277000Y-5736500D02*
X13277000Y-5626500D01*
X13217000Y-5626500D02*
G75*
G02*
X13277000Y-5626500I30000J0D01*
G01*
X13217000Y-5626500D02*
X13217000Y-5736500D01*
X13217000Y-5736500D02*
G75*
G03*
X13277000Y-5736500I30000J0D01*
G01*
X13800000Y-11090000D02*
X13840000Y-11050000D01*
X13800000Y-11010000D01*
X13760000Y-11050000D01*
X13800000Y-11090000D01*
X13760000Y-11015000D02*
X13760000Y-11085000D01*
X13840000Y-11085000D02*
G75*
G02*
X13760000Y-11085000I-40000J0D01*
G01*
X13840000Y-11085000D02*
X13840000Y-11015000D01*
X13840000Y-11015000D02*
G75*
G03*
X13760000Y-11015000I-40000J0D01*
G01*
X14300000Y-11090000D02*
X14340000Y-11050000D01*
X14300000Y-11010000D01*
X14260000Y-11050000D01*
X14300000Y-11090000D01*
X14340000Y-11085000D02*
X14340000Y-11015000D01*
X14260000Y-11015000D02*
G75*
G02*
X14340000Y-11015000I40000J0D01*
G01*
X14260000Y-11015000D02*
X14260000Y-11085000D01*
X14260000Y-11085000D02*
G75*
G03*
X14340000Y-11085000I40000J0D01*
G01*
X10515000Y-8880000D02*
X10615000Y-8980000D01*
X10615000Y-8880000D02*
X10515000Y-8980000D01*
X10615000Y-8930000D02*
G75*
G02*
X10515000Y-8930000I-50000J0D01*
G01*
X10515000Y-8930000D02*
G75*
G02*
X10615000Y-8930000I50000J0D01*
G01*
X10769000Y-8880000D02*
X10869000Y-8980000D01*
X10869000Y-8880000D02*
X10769000Y-8980000D01*
X10869000Y-8930000D02*
G75*
G02*
X10769000Y-8930000I-50000J0D01*
G01*
X10769000Y-8930000D02*
G75*
G02*
X10869000Y-8930000I50000J0D01*
G01*
X13750000Y-5841000D02*
X13850000Y-5941000D01*
X13850000Y-5841000D02*
X13750000Y-5941000D01*
X13850000Y-5891000D02*
G75*
G02*
X13750000Y-5891000I-50000J0D01*
G01*
X13750000Y-5891000D02*
G75*
G02*
X13850000Y-5891000I50000J0D01*
G01*
X13750000Y-6095000D02*
X13850000Y-6195000D01*
X13850000Y-6095000D02*
X13750000Y-6195000D01*
X13850000Y-6145000D02*
G75*
G02*
X13750000Y-6145000I-50000J0D01*
G01*
X13750000Y-6145000D02*
G75*
G02*
X13850000Y-6145000I50000J0D01*
G01*
X13750000Y-6349000D02*
X13850000Y-6449000D01*
X13850000Y-6349000D02*
X13750000Y-6449000D01*
X13850000Y-6399000D02*
G75*
G02*
X13750000Y-6399000I-50000J0D01*
G01*
X13750000Y-6399000D02*
G75*
G02*
X13850000Y-6399000I50000J0D01*
G01*
X13750000Y-6603000D02*
X13850000Y-6703000D01*
X13850000Y-6603000D02*
X13750000Y-6703000D01*
X13850000Y-6653000D02*
G75*
G02*
X13750000Y-6653000I-50000J0D01*
G01*
X13750000Y-6653000D02*
G75*
G02*
X13850000Y-6653000I50000J0D01*
G01*
X13750000Y-7190000D02*
X13850000Y-7290000D01*
X13850000Y-7190000D02*
X13750000Y-7290000D01*
X13850000Y-7240000D02*
G75*
G02*
X13750000Y-7240000I-50000J0D01*
G01*
X13750000Y-7240000D02*
G75*
G02*
X13850000Y-7240000I50000J0D01*
G01*
X13750000Y-7444000D02*
X13850000Y-7544000D01*
X13850000Y-7444000D02*
X13750000Y-7544000D01*
X13850000Y-7494000D02*
G75*
G02*
X13750000Y-7494000I-50000J0D01*
G01*
X13750000Y-7494000D02*
G75*
G02*
X13850000Y-7494000I50000J0D01*
G01*
X13750000Y-7698000D02*
X13850000Y-7798000D01*
X13850000Y-7698000D02*
X13750000Y-7798000D01*
X13850000Y-7748000D02*
G75*
G02*
X13750000Y-7748000I-50000J0D01*
G01*
X13750000Y-7748000D02*
G75*
G02*
X13850000Y-7748000I50000J0D01*
G01*
X13750000Y-7952000D02*
X13850000Y-8052000D01*
X13850000Y-7952000D02*
X13750000Y-8052000D01*
X13850000Y-8002000D02*
G75*
G02*
X13750000Y-8002000I-50000J0D01*
G01*
X13750000Y-8002000D02*
G75*
G02*
X13850000Y-8002000I50000J0D01*
G01*
X13750000Y-8206000D02*
X13850000Y-8306000D01*
X13850000Y-8206000D02*
X13750000Y-8306000D01*
X13850000Y-8256000D02*
G75*
G02*
X13750000Y-8256000I-50000J0D01*
G01*
X13750000Y-8256000D02*
G75*
G02*
X13850000Y-8256000I50000J0D01*
G01*
X13750000Y-8460000D02*
X13850000Y-8560000D01*
X13850000Y-8460000D02*
X13750000Y-8560000D01*
X13850000Y-8510000D02*
G75*
G02*
X13750000Y-8510000I-50000J0D01*
G01*
X13750000Y-8510000D02*
G75*
G02*
X13850000Y-8510000I50000J0D01*
G01*
X13750000Y-8714000D02*
X13850000Y-8814000D01*
X13850000Y-8714000D02*
X13750000Y-8814000D01*
X13850000Y-8764000D02*
G75*
G02*
X13750000Y-8764000I-50000J0D01*
G01*
X13750000Y-8764000D02*
G75*
G02*
X13850000Y-8764000I50000J0D01*
G01*
X13750000Y-8968000D02*
X13850000Y-9068000D01*
X13850000Y-8968000D02*
X13750000Y-9068000D01*
X13850000Y-9018000D02*
G75*
G02*
X13750000Y-9018000I-50000J0D01*
G01*
X13750000Y-9018000D02*
G75*
G02*
X13850000Y-9018000I50000J0D01*
G01*
X14510000Y-7190000D02*
X14610000Y-7290000D01*
X14610000Y-7190000D02*
X14510000Y-7290000D01*
X14610000Y-7240000D02*
G75*
G02*
X14510000Y-7240000I-50000J0D01*
G01*
X14510000Y-7240000D02*
G75*
G02*
X14610000Y-7240000I50000J0D01*
G01*
X14510000Y-7444000D02*
X14610000Y-7544000D01*
X14610000Y-7444000D02*
X14510000Y-7544000D01*
X14610000Y-7494000D02*
G75*
G02*
X14510000Y-7494000I-50000J0D01*
G01*
X14510000Y-7494000D02*
G75*
G02*
X14610000Y-7494000I50000J0D01*
G01*
X14510000Y-7698000D02*
X14610000Y-7798000D01*
X14610000Y-7698000D02*
X14510000Y-7798000D01*
X14610000Y-7748000D02*
G75*
G02*
X14510000Y-7748000I-50000J0D01*
G01*
X14510000Y-7748000D02*
G75*
G02*
X14610000Y-7748000I50000J0D01*
G01*
X14510000Y-7952000D02*
X14610000Y-8052000D01*
X14610000Y-7952000D02*
X14510000Y-8052000D01*
X14610000Y-8002000D02*
G75*
G02*
X14510000Y-8002000I-50000J0D01*
G01*
X14510000Y-8002000D02*
G75*
G02*
X14610000Y-8002000I50000J0D01*
G01*
X14510000Y-8206000D02*
X14610000Y-8306000D01*
X14610000Y-8206000D02*
X14510000Y-8306000D01*
X14610000Y-8256000D02*
G75*
G02*
X14510000Y-8256000I-50000J0D01*
G01*
X14510000Y-8256000D02*
G75*
G02*
X14610000Y-8256000I50000J0D01*
G01*
X14510000Y-8970000D02*
X14610000Y-9070000D01*
X14610000Y-8970000D02*
X14510000Y-9070000D01*
X14610000Y-9020000D02*
G75*
G02*
X14510000Y-9020000I-50000J0D01*
G01*
X14510000Y-9020000D02*
G75*
G02*
X14610000Y-9020000I50000J0D01*
G01*
X14510000Y-9224000D02*
X14610000Y-9324000D01*
X14610000Y-9224000D02*
X14510000Y-9324000D01*
X14610000Y-9274000D02*
G75*
G02*
X14510000Y-9274000I-50000J0D01*
G01*
X14510000Y-9274000D02*
G75*
G02*
X14610000Y-9274000I50000J0D01*
G01*
X14510000Y-9478000D02*
X14610000Y-9578000D01*
X14610000Y-9478000D02*
X14510000Y-9578000D01*
X14610000Y-9528000D02*
G75*
G02*
X14510000Y-9528000I-50000J0D01*
G01*
X14510000Y-9528000D02*
G75*
G02*
X14610000Y-9528000I50000J0D01*
G01*
X14510000Y-9732000D02*
X14610000Y-9832000D01*
X14610000Y-9732000D02*
X14510000Y-9832000D01*
X14610000Y-9782000D02*
G75*
G02*
X14510000Y-9782000I-50000J0D01*
G01*
X14510000Y-9782000D02*
G75*
G02*
X14610000Y-9782000I50000J0D01*
G01*
D14*
X10605000Y-10825000D02*
X10735000Y-10955000D01*
X10735000Y-10825000D02*
X10605000Y-10955000D01*
X10670000Y-10825000D02*
X10670000Y-10955000D01*
X10605000Y-10890000D02*
X10735000Y-10890000D01*
X11105000Y-10825000D02*
X11235000Y-10955000D01*
X11235000Y-10825000D02*
X11105000Y-10955000D01*
X11170000Y-10825000D02*
X11170000Y-10955000D01*
X11105000Y-10890000D02*
X11235000Y-10890000D01*
D12*
X10258277Y-12317484D02*
X10258277Y-12117484D01*
X10258277Y-12117484D02*
X10305896Y-12117484D01*
X10305896Y-12117484D02*
X10334467Y-12127008D01*
X10334467Y-12127008D02*
X10353515Y-12146055D01*
X10353515Y-12146055D02*
X10363039Y-12165103D01*
X10363039Y-12165103D02*
X10372563Y-12203198D01*
X10372563Y-12203198D02*
X10372563Y-12231769D01*
X10372563Y-12231769D02*
X10363039Y-12269865D01*
X10363039Y-12269865D02*
X10353515Y-12288912D01*
X10353515Y-12288912D02*
X10334467Y-12307960D01*
X10334467Y-12307960D02*
X10305896Y-12317484D01*
X10305896Y-12317484D02*
X10258277Y-12317484D01*
X10458277Y-12317484D02*
X10458277Y-12184150D01*
X10458277Y-12222246D02*
X10467801Y-12203198D01*
X10467801Y-12203198D02*
X10477324Y-12193674D01*
X10477324Y-12193674D02*
X10496372Y-12184150D01*
X10496372Y-12184150D02*
X10515420Y-12184150D01*
X10582086Y-12317484D02*
X10582086Y-12184150D01*
X10582086Y-12117484D02*
X10572563Y-12127008D01*
X10572563Y-12127008D02*
X10582086Y-12136531D01*
X10582086Y-12136531D02*
X10591610Y-12127008D01*
X10591610Y-12127008D02*
X10582086Y-12117484D01*
X10582086Y-12117484D02*
X10582086Y-12136531D01*
X10705896Y-12317484D02*
X10686848Y-12307960D01*
X10686848Y-12307960D02*
X10677324Y-12288912D01*
X10677324Y-12288912D02*
X10677324Y-12117484D01*
X10810658Y-12317484D02*
X10791610Y-12307960D01*
X10791610Y-12307960D02*
X10782086Y-12288912D01*
X10782086Y-12288912D02*
X10782086Y-12117484D01*
X11039229Y-12317484D02*
X11039229Y-12117484D01*
X11039229Y-12117484D02*
X11105896Y-12260341D01*
X11105896Y-12260341D02*
X11172563Y-12117484D01*
X11172563Y-12117484D02*
X11172563Y-12317484D01*
X11353515Y-12317484D02*
X11353515Y-12212722D01*
X11353515Y-12212722D02*
X11343991Y-12193674D01*
X11343991Y-12193674D02*
X11324943Y-12184150D01*
X11324943Y-12184150D02*
X11286848Y-12184150D01*
X11286848Y-12184150D02*
X11267801Y-12193674D01*
X11353515Y-12307960D02*
X11334467Y-12317484D01*
X11334467Y-12317484D02*
X11286848Y-12317484D01*
X11286848Y-12317484D02*
X11267801Y-12307960D01*
X11267801Y-12307960D02*
X11258277Y-12288912D01*
X11258277Y-12288912D02*
X11258277Y-12269865D01*
X11258277Y-12269865D02*
X11267801Y-12250817D01*
X11267801Y-12250817D02*
X11286848Y-12241293D01*
X11286848Y-12241293D02*
X11334467Y-12241293D01*
X11334467Y-12241293D02*
X11353515Y-12231769D01*
X11448753Y-12184150D02*
X11448753Y-12384150D01*
X11448753Y-12193674D02*
X11467801Y-12184150D01*
X11467801Y-12184150D02*
X11505896Y-12184150D01*
X11505896Y-12184150D02*
X11524943Y-12193674D01*
X11524943Y-12193674D02*
X11534467Y-12203198D01*
X11534467Y-12203198D02*
X11543991Y-12222246D01*
X11543991Y-12222246D02*
X11543991Y-12279388D01*
X11543991Y-12279388D02*
X11534467Y-12298436D01*
X11534467Y-12298436D02*
X11524943Y-12307960D01*
X11524943Y-12307960D02*
X11505896Y-12317484D01*
X11505896Y-12317484D02*
X11467801Y-12317484D01*
X11467801Y-12317484D02*
X11448753Y-12307960D01*
X11629705Y-12298436D02*
X11639229Y-12307960D01*
X11639229Y-12307960D02*
X11629705Y-12317484D01*
X11629705Y-12317484D02*
X11620182Y-12307960D01*
X11620182Y-12307960D02*
X11629705Y-12298436D01*
X11629705Y-12298436D02*
X11629705Y-12317484D01*
X11629705Y-12193674D02*
X11639229Y-12203198D01*
X11639229Y-12203198D02*
X11629705Y-12212722D01*
X11629705Y-12212722D02*
X11620182Y-12203198D01*
X11620182Y-12203198D02*
X11629705Y-12193674D01*
X11629705Y-12193674D02*
X11629705Y-12212722D01*
D13*
X9977500Y-12636000D02*
X9997500Y-12656000D01*
X9997500Y-12636000D02*
X9977500Y-12656000D01*
D12*
X10296372Y-12537484D02*
X10315420Y-12537484D01*
X10315420Y-12537484D02*
X10334467Y-12547008D01*
X10334467Y-12547008D02*
X10343991Y-12556531D01*
X10343991Y-12556531D02*
X10353515Y-12575579D01*
X10353515Y-12575579D02*
X10363039Y-12613674D01*
X10363039Y-12613674D02*
X10363039Y-12661293D01*
X10363039Y-12661293D02*
X10353515Y-12699388D01*
X10353515Y-12699388D02*
X10343991Y-12718436D01*
X10343991Y-12718436D02*
X10334467Y-12727960D01*
X10334467Y-12727960D02*
X10315420Y-12737484D01*
X10315420Y-12737484D02*
X10296372Y-12737484D01*
X10296372Y-12737484D02*
X10277324Y-12727960D01*
X10277324Y-12727960D02*
X10267801Y-12718436D01*
X10267801Y-12718436D02*
X10258277Y-12699388D01*
X10258277Y-12699388D02*
X10248753Y-12661293D01*
X10248753Y-12661293D02*
X10248753Y-12613674D01*
X10248753Y-12613674D02*
X10258277Y-12575579D01*
X10258277Y-12575579D02*
X10267801Y-12556531D01*
X10267801Y-12556531D02*
X10277324Y-12547008D01*
X10277324Y-12547008D02*
X10296372Y-12537484D01*
X10448753Y-12718436D02*
X10458277Y-12727960D01*
X10458277Y-12727960D02*
X10448753Y-12737484D01*
X10448753Y-12737484D02*
X10439229Y-12727960D01*
X10439229Y-12727960D02*
X10448753Y-12718436D01*
X10448753Y-12718436D02*
X10448753Y-12737484D01*
X10534467Y-12556531D02*
X10543991Y-12547008D01*
X10543991Y-12547008D02*
X10563039Y-12537484D01*
X10563039Y-12537484D02*
X10610658Y-12537484D01*
X10610658Y-12537484D02*
X10629705Y-12547008D01*
X10629705Y-12547008D02*
X10639229Y-12556531D01*
X10639229Y-12556531D02*
X10648753Y-12575579D01*
X10648753Y-12575579D02*
X10648753Y-12594627D01*
X10648753Y-12594627D02*
X10639229Y-12623198D01*
X10639229Y-12623198D02*
X10524944Y-12737484D01*
X10524944Y-12737484D02*
X10648753Y-12737484D01*
X10772563Y-12537484D02*
X10791610Y-12537484D01*
X10791610Y-12537484D02*
X10810658Y-12547008D01*
X10810658Y-12547008D02*
X10820182Y-12556531D01*
X10820182Y-12556531D02*
X10829705Y-12575579D01*
X10829705Y-12575579D02*
X10839229Y-12613674D01*
X10839229Y-12613674D02*
X10839229Y-12661293D01*
X10839229Y-12661293D02*
X10829705Y-12699388D01*
X10829705Y-12699388D02*
X10820182Y-12718436D01*
X10820182Y-12718436D02*
X10810658Y-12727960D01*
X10810658Y-12727960D02*
X10791610Y-12737484D01*
X10791610Y-12737484D02*
X10772563Y-12737484D01*
X10772563Y-12737484D02*
X10753515Y-12727960D01*
X10753515Y-12727960D02*
X10743991Y-12718436D01*
X10743991Y-12718436D02*
X10734467Y-12699388D01*
X10734467Y-12699388D02*
X10724944Y-12661293D01*
X10724944Y-12661293D02*
X10724944Y-12613674D01*
X10724944Y-12613674D02*
X10734467Y-12575579D01*
X10734467Y-12575579D02*
X10743991Y-12556531D01*
X10743991Y-12556531D02*
X10753515Y-12547008D01*
X10753515Y-12547008D02*
X10772563Y-12537484D01*
X10963039Y-12537484D02*
X10982086Y-12537484D01*
X10982086Y-12537484D02*
X11001134Y-12547008D01*
X11001134Y-12547008D02*
X11010658Y-12556531D01*
X11010658Y-12556531D02*
X11020182Y-12575579D01*
X11020182Y-12575579D02*
X11029705Y-12613674D01*
X11029705Y-12613674D02*
X11029705Y-12661293D01*
X11029705Y-12661293D02*
X11020182Y-12699388D01*
X11020182Y-12699388D02*
X11010658Y-12718436D01*
X11010658Y-12718436D02*
X11001134Y-12727960D01*
X11001134Y-12727960D02*
X10982086Y-12737484D01*
X10982086Y-12737484D02*
X10963039Y-12737484D01*
X10963039Y-12737484D02*
X10943991Y-12727960D01*
X10943991Y-12727960D02*
X10934467Y-12718436D01*
X10934467Y-12718436D02*
X10924944Y-12699388D01*
X10924944Y-12699388D02*
X10915420Y-12661293D01*
X10915420Y-12661293D02*
X10915420Y-12613674D01*
X10915420Y-12613674D02*
X10924944Y-12575579D01*
X10924944Y-12575579D02*
X10934467Y-12556531D01*
X10934467Y-12556531D02*
X10943991Y-12547008D01*
X10943991Y-12547008D02*
X10963039Y-12537484D01*
X11115420Y-12737484D02*
X11115420Y-12604150D01*
X11115420Y-12623198D02*
X11124944Y-12613674D01*
X11124944Y-12613674D02*
X11143991Y-12604150D01*
X11143991Y-12604150D02*
X11172563Y-12604150D01*
X11172563Y-12604150D02*
X11191610Y-12613674D01*
X11191610Y-12613674D02*
X11201134Y-12632722D01*
X11201134Y-12632722D02*
X11201134Y-12737484D01*
X11201134Y-12632722D02*
X11210658Y-12613674D01*
X11210658Y-12613674D02*
X11229705Y-12604150D01*
X11229705Y-12604150D02*
X11258277Y-12604150D01*
X11258277Y-12604150D02*
X11277324Y-12613674D01*
X11277324Y-12613674D02*
X11286848Y-12632722D01*
X11286848Y-12632722D02*
X11286848Y-12737484D01*
X11382086Y-12737484D02*
X11382086Y-12604150D01*
X11382086Y-12623198D02*
X11391610Y-12613674D01*
X11391610Y-12613674D02*
X11410658Y-12604150D01*
X11410658Y-12604150D02*
X11439229Y-12604150D01*
X11439229Y-12604150D02*
X11458277Y-12613674D01*
X11458277Y-12613674D02*
X11467801Y-12632722D01*
X11467801Y-12632722D02*
X11467801Y-12737484D01*
X11467801Y-12632722D02*
X11477324Y-12613674D01*
X11477324Y-12613674D02*
X11496372Y-12604150D01*
X11496372Y-12604150D02*
X11524943Y-12604150D01*
X11524943Y-12604150D02*
X11543991Y-12613674D01*
X11543991Y-12613674D02*
X11553515Y-12632722D01*
X11553515Y-12632722D02*
X11553515Y-12737484D01*
X11943991Y-12527960D02*
X11772563Y-12785103D01*
X12201134Y-12537484D02*
X12220182Y-12537484D01*
X12220182Y-12537484D02*
X12239229Y-12547008D01*
X12239229Y-12547008D02*
X12248753Y-12556531D01*
X12248753Y-12556531D02*
X12258277Y-12575579D01*
X12258277Y-12575579D02*
X12267801Y-12613674D01*
X12267801Y-12613674D02*
X12267801Y-12661293D01*
X12267801Y-12661293D02*
X12258277Y-12699388D01*
X12258277Y-12699388D02*
X12248753Y-12718436D01*
X12248753Y-12718436D02*
X12239229Y-12727960D01*
X12239229Y-12727960D02*
X12220182Y-12737484D01*
X12220182Y-12737484D02*
X12201134Y-12737484D01*
X12201134Y-12737484D02*
X12182086Y-12727960D01*
X12182086Y-12727960D02*
X12172563Y-12718436D01*
X12172563Y-12718436D02*
X12163039Y-12699388D01*
X12163039Y-12699388D02*
X12153515Y-12661293D01*
X12153515Y-12661293D02*
X12153515Y-12613674D01*
X12153515Y-12613674D02*
X12163039Y-12575579D01*
X12163039Y-12575579D02*
X12172563Y-12556531D01*
X12172563Y-12556531D02*
X12182086Y-12547008D01*
X12182086Y-12547008D02*
X12201134Y-12537484D01*
X12353515Y-12718436D02*
X12363039Y-12727960D01*
X12363039Y-12727960D02*
X12353515Y-12737484D01*
X12353515Y-12737484D02*
X12343991Y-12727960D01*
X12343991Y-12727960D02*
X12353515Y-12718436D01*
X12353515Y-12718436D02*
X12353515Y-12737484D01*
X12486848Y-12537484D02*
X12505896Y-12537484D01*
X12505896Y-12537484D02*
X12524944Y-12547008D01*
X12524944Y-12547008D02*
X12534467Y-12556531D01*
X12534467Y-12556531D02*
X12543991Y-12575579D01*
X12543991Y-12575579D02*
X12553515Y-12613674D01*
X12553515Y-12613674D02*
X12553515Y-12661293D01*
X12553515Y-12661293D02*
X12543991Y-12699388D01*
X12543991Y-12699388D02*
X12534467Y-12718436D01*
X12534467Y-12718436D02*
X12524944Y-12727960D01*
X12524944Y-12727960D02*
X12505896Y-12737484D01*
X12505896Y-12737484D02*
X12486848Y-12737484D01*
X12486848Y-12737484D02*
X12467801Y-12727960D01*
X12467801Y-12727960D02*
X12458277Y-12718436D01*
X12458277Y-12718436D02*
X12448753Y-12699388D01*
X12448753Y-12699388D02*
X12439229Y-12661293D01*
X12439229Y-12661293D02*
X12439229Y-12613674D01*
X12439229Y-12613674D02*
X12448753Y-12575579D01*
X12448753Y-12575579D02*
X12458277Y-12556531D01*
X12458277Y-12556531D02*
X12467801Y-12547008D01*
X12467801Y-12547008D02*
X12486848Y-12537484D01*
X12677325Y-12537484D02*
X12696372Y-12537484D01*
X12696372Y-12537484D02*
X12715420Y-12547008D01*
X12715420Y-12547008D02*
X12724944Y-12556531D01*
X12724944Y-12556531D02*
X12734467Y-12575579D01*
X12734467Y-12575579D02*
X12743991Y-12613674D01*
X12743991Y-12613674D02*
X12743991Y-12661293D01*
X12743991Y-12661293D02*
X12734467Y-12699388D01*
X12734467Y-12699388D02*
X12724944Y-12718436D01*
X12724944Y-12718436D02*
X12715420Y-12727960D01*
X12715420Y-12727960D02*
X12696372Y-12737484D01*
X12696372Y-12737484D02*
X12677325Y-12737484D01*
X12677325Y-12737484D02*
X12658277Y-12727960D01*
X12658277Y-12727960D02*
X12648753Y-12718436D01*
X12648753Y-12718436D02*
X12639229Y-12699388D01*
X12639229Y-12699388D02*
X12629706Y-12661293D01*
X12629706Y-12661293D02*
X12629706Y-12613674D01*
X12629706Y-12613674D02*
X12639229Y-12575579D01*
X12639229Y-12575579D02*
X12648753Y-12556531D01*
X12648753Y-12556531D02*
X12658277Y-12547008D01*
X12658277Y-12547008D02*
X12677325Y-12537484D01*
X12810658Y-12537484D02*
X12943991Y-12537484D01*
X12943991Y-12537484D02*
X12858277Y-12737484D01*
X13029706Y-12737484D02*
X13067801Y-12737484D01*
X13067801Y-12737484D02*
X13086848Y-12727960D01*
X13086848Y-12727960D02*
X13096372Y-12718436D01*
X13096372Y-12718436D02*
X13115420Y-12689865D01*
X13115420Y-12689865D02*
X13124944Y-12651769D01*
X13124944Y-12651769D02*
X13124944Y-12575579D01*
X13124944Y-12575579D02*
X13115420Y-12556531D01*
X13115420Y-12556531D02*
X13105896Y-12547008D01*
X13105896Y-12547008D02*
X13086848Y-12537484D01*
X13086848Y-12537484D02*
X13048753Y-12537484D01*
X13048753Y-12537484D02*
X13029706Y-12547008D01*
X13029706Y-12547008D02*
X13020182Y-12556531D01*
X13020182Y-12556531D02*
X13010658Y-12575579D01*
X13010658Y-12575579D02*
X13010658Y-12623198D01*
X13010658Y-12623198D02*
X13020182Y-12642246D01*
X13020182Y-12642246D02*
X13029706Y-12651769D01*
X13029706Y-12651769D02*
X13048753Y-12661293D01*
X13048753Y-12661293D02*
X13086848Y-12661293D01*
X13086848Y-12661293D02*
X13105896Y-12651769D01*
X13105896Y-12651769D02*
X13115420Y-12642246D01*
X13115420Y-12642246D02*
X13124944Y-12623198D01*
X13201134Y-12537484D02*
X13201134Y-12575579D01*
X13277325Y-12537484D02*
X13277325Y-12575579D01*
X13572563Y-12813674D02*
X13563039Y-12804150D01*
X13563039Y-12804150D02*
X13543991Y-12775579D01*
X13543991Y-12775579D02*
X13534468Y-12756531D01*
X13534468Y-12756531D02*
X13524944Y-12727960D01*
X13524944Y-12727960D02*
X13515420Y-12680341D01*
X13515420Y-12680341D02*
X13515420Y-12642246D01*
X13515420Y-12642246D02*
X13524944Y-12594627D01*
X13524944Y-12594627D02*
X13534468Y-12566055D01*
X13534468Y-12566055D02*
X13543991Y-12547008D01*
X13543991Y-12547008D02*
X13563039Y-12518436D01*
X13563039Y-12518436D02*
X13572563Y-12508912D01*
X13734468Y-12604150D02*
X13734468Y-12737484D01*
X13686848Y-12527960D02*
X13639229Y-12670817D01*
X13639229Y-12670817D02*
X13763039Y-12670817D01*
X13991610Y-12737484D02*
X13991610Y-12537484D01*
X14077325Y-12737484D02*
X14077325Y-12632722D01*
X14077325Y-12632722D02*
X14067801Y-12613674D01*
X14067801Y-12613674D02*
X14048753Y-12604150D01*
X14048753Y-12604150D02*
X14020182Y-12604150D01*
X14020182Y-12604150D02*
X14001134Y-12613674D01*
X14001134Y-12613674D02*
X13991610Y-12623198D01*
X14201134Y-12737484D02*
X14182087Y-12727960D01*
X14182087Y-12727960D02*
X14172563Y-12718436D01*
X14172563Y-12718436D02*
X14163039Y-12699388D01*
X14163039Y-12699388D02*
X14163039Y-12642246D01*
X14163039Y-12642246D02*
X14172563Y-12623198D01*
X14172563Y-12623198D02*
X14182087Y-12613674D01*
X14182087Y-12613674D02*
X14201134Y-12604150D01*
X14201134Y-12604150D02*
X14229706Y-12604150D01*
X14229706Y-12604150D02*
X14248753Y-12613674D01*
X14248753Y-12613674D02*
X14258277Y-12623198D01*
X14258277Y-12623198D02*
X14267801Y-12642246D01*
X14267801Y-12642246D02*
X14267801Y-12699388D01*
X14267801Y-12699388D02*
X14258277Y-12718436D01*
X14258277Y-12718436D02*
X14248753Y-12727960D01*
X14248753Y-12727960D02*
X14229706Y-12737484D01*
X14229706Y-12737484D02*
X14201134Y-12737484D01*
X14382087Y-12737484D02*
X14363039Y-12727960D01*
X14363039Y-12727960D02*
X14353515Y-12708912D01*
X14353515Y-12708912D02*
X14353515Y-12537484D01*
X14534468Y-12727960D02*
X14515420Y-12737484D01*
X14515420Y-12737484D02*
X14477325Y-12737484D01*
X14477325Y-12737484D02*
X14458277Y-12727960D01*
X14458277Y-12727960D02*
X14448753Y-12708912D01*
X14448753Y-12708912D02*
X14448753Y-12632722D01*
X14448753Y-12632722D02*
X14458277Y-12613674D01*
X14458277Y-12613674D02*
X14477325Y-12604150D01*
X14477325Y-12604150D02*
X14515420Y-12604150D01*
X14515420Y-12604150D02*
X14534468Y-12613674D01*
X14534468Y-12613674D02*
X14543991Y-12632722D01*
X14543991Y-12632722D02*
X14543991Y-12651769D01*
X14543991Y-12651769D02*
X14448753Y-12670817D01*
X14620182Y-12727960D02*
X14639230Y-12737484D01*
X14639230Y-12737484D02*
X14677325Y-12737484D01*
X14677325Y-12737484D02*
X14696372Y-12727960D01*
X14696372Y-12727960D02*
X14705896Y-12708912D01*
X14705896Y-12708912D02*
X14705896Y-12699388D01*
X14705896Y-12699388D02*
X14696372Y-12680341D01*
X14696372Y-12680341D02*
X14677325Y-12670817D01*
X14677325Y-12670817D02*
X14648753Y-12670817D01*
X14648753Y-12670817D02*
X14629706Y-12661293D01*
X14629706Y-12661293D02*
X14620182Y-12642246D01*
X14620182Y-12642246D02*
X14620182Y-12632722D01*
X14620182Y-12632722D02*
X14629706Y-12613674D01*
X14629706Y-12613674D02*
X14648753Y-12604150D01*
X14648753Y-12604150D02*
X14677325Y-12604150D01*
X14677325Y-12604150D02*
X14696372Y-12613674D01*
X14772563Y-12813674D02*
X14782087Y-12804150D01*
X14782087Y-12804150D02*
X14801134Y-12775579D01*
X14801134Y-12775579D02*
X14810658Y-12756531D01*
X14810658Y-12756531D02*
X14820182Y-12727960D01*
X14820182Y-12727960D02*
X14829706Y-12680341D01*
X14829706Y-12680341D02*
X14829706Y-12642246D01*
X14829706Y-12642246D02*
X14820182Y-12594627D01*
X14820182Y-12594627D02*
X14810658Y-12566055D01*
X14810658Y-12566055D02*
X14801134Y-12547008D01*
X14801134Y-12547008D02*
X14782087Y-12518436D01*
X14782087Y-12518436D02*
X14772563Y-12508912D01*
D13*
X9997500Y-12910000D02*
G75*
G02*
X9967500Y-12910000I-15000J0D01*
G01*
X9967500Y-12910000D02*
G75*
G02*
X9997500Y-12910000I15000J0D01*
G01*
D12*
X10296372Y-12801484D02*
X10315420Y-12801484D01*
X10315420Y-12801484D02*
X10334467Y-12811008D01*
X10334467Y-12811008D02*
X10343991Y-12820531D01*
X10343991Y-12820531D02*
X10353515Y-12839579D01*
X10353515Y-12839579D02*
X10363039Y-12877674D01*
X10363039Y-12877674D02*
X10363039Y-12925293D01*
X10363039Y-12925293D02*
X10353515Y-12963388D01*
X10353515Y-12963388D02*
X10343991Y-12982436D01*
X10343991Y-12982436D02*
X10334467Y-12991960D01*
X10334467Y-12991960D02*
X10315420Y-13001484D01*
X10315420Y-13001484D02*
X10296372Y-13001484D01*
X10296372Y-13001484D02*
X10277324Y-12991960D01*
X10277324Y-12991960D02*
X10267801Y-12982436D01*
X10267801Y-12982436D02*
X10258277Y-12963388D01*
X10258277Y-12963388D02*
X10248753Y-12925293D01*
X10248753Y-12925293D02*
X10248753Y-12877674D01*
X10248753Y-12877674D02*
X10258277Y-12839579D01*
X10258277Y-12839579D02*
X10267801Y-12820531D01*
X10267801Y-12820531D02*
X10277324Y-12811008D01*
X10277324Y-12811008D02*
X10296372Y-12801484D01*
X10448753Y-12982436D02*
X10458277Y-12991960D01*
X10458277Y-12991960D02*
X10448753Y-13001484D01*
X10448753Y-13001484D02*
X10439229Y-12991960D01*
X10439229Y-12991960D02*
X10448753Y-12982436D01*
X10448753Y-12982436D02*
X10448753Y-13001484D01*
X10524944Y-12801484D02*
X10648753Y-12801484D01*
X10648753Y-12801484D02*
X10582086Y-12877674D01*
X10582086Y-12877674D02*
X10610658Y-12877674D01*
X10610658Y-12877674D02*
X10629705Y-12887198D01*
X10629705Y-12887198D02*
X10639229Y-12896722D01*
X10639229Y-12896722D02*
X10648753Y-12915769D01*
X10648753Y-12915769D02*
X10648753Y-12963388D01*
X10648753Y-12963388D02*
X10639229Y-12982436D01*
X10639229Y-12982436D02*
X10629705Y-12991960D01*
X10629705Y-12991960D02*
X10610658Y-13001484D01*
X10610658Y-13001484D02*
X10553515Y-13001484D01*
X10553515Y-13001484D02*
X10534467Y-12991960D01*
X10534467Y-12991960D02*
X10524944Y-12982436D01*
X10772563Y-12801484D02*
X10791610Y-12801484D01*
X10791610Y-12801484D02*
X10810658Y-12811008D01*
X10810658Y-12811008D02*
X10820182Y-12820531D01*
X10820182Y-12820531D02*
X10829705Y-12839579D01*
X10829705Y-12839579D02*
X10839229Y-12877674D01*
X10839229Y-12877674D02*
X10839229Y-12925293D01*
X10839229Y-12925293D02*
X10829705Y-12963388D01*
X10829705Y-12963388D02*
X10820182Y-12982436D01*
X10820182Y-12982436D02*
X10810658Y-12991960D01*
X10810658Y-12991960D02*
X10791610Y-13001484D01*
X10791610Y-13001484D02*
X10772563Y-13001484D01*
X10772563Y-13001484D02*
X10753515Y-12991960D01*
X10753515Y-12991960D02*
X10743991Y-12982436D01*
X10743991Y-12982436D02*
X10734467Y-12963388D01*
X10734467Y-12963388D02*
X10724944Y-12925293D01*
X10724944Y-12925293D02*
X10724944Y-12877674D01*
X10724944Y-12877674D02*
X10734467Y-12839579D01*
X10734467Y-12839579D02*
X10743991Y-12820531D01*
X10743991Y-12820531D02*
X10753515Y-12811008D01*
X10753515Y-12811008D02*
X10772563Y-12801484D01*
X10963039Y-12801484D02*
X10982086Y-12801484D01*
X10982086Y-12801484D02*
X11001134Y-12811008D01*
X11001134Y-12811008D02*
X11010658Y-12820531D01*
X11010658Y-12820531D02*
X11020182Y-12839579D01*
X11020182Y-12839579D02*
X11029705Y-12877674D01*
X11029705Y-12877674D02*
X11029705Y-12925293D01*
X11029705Y-12925293D02*
X11020182Y-12963388D01*
X11020182Y-12963388D02*
X11010658Y-12982436D01*
X11010658Y-12982436D02*
X11001134Y-12991960D01*
X11001134Y-12991960D02*
X10982086Y-13001484D01*
X10982086Y-13001484D02*
X10963039Y-13001484D01*
X10963039Y-13001484D02*
X10943991Y-12991960D01*
X10943991Y-12991960D02*
X10934467Y-12982436D01*
X10934467Y-12982436D02*
X10924944Y-12963388D01*
X10924944Y-12963388D02*
X10915420Y-12925293D01*
X10915420Y-12925293D02*
X10915420Y-12877674D01*
X10915420Y-12877674D02*
X10924944Y-12839579D01*
X10924944Y-12839579D02*
X10934467Y-12820531D01*
X10934467Y-12820531D02*
X10943991Y-12811008D01*
X10943991Y-12811008D02*
X10963039Y-12801484D01*
X11115420Y-13001484D02*
X11115420Y-12868150D01*
X11115420Y-12887198D02*
X11124944Y-12877674D01*
X11124944Y-12877674D02*
X11143991Y-12868150D01*
X11143991Y-12868150D02*
X11172563Y-12868150D01*
X11172563Y-12868150D02*
X11191610Y-12877674D01*
X11191610Y-12877674D02*
X11201134Y-12896722D01*
X11201134Y-12896722D02*
X11201134Y-13001484D01*
X11201134Y-12896722D02*
X11210658Y-12877674D01*
X11210658Y-12877674D02*
X11229705Y-12868150D01*
X11229705Y-12868150D02*
X11258277Y-12868150D01*
X11258277Y-12868150D02*
X11277324Y-12877674D01*
X11277324Y-12877674D02*
X11286848Y-12896722D01*
X11286848Y-12896722D02*
X11286848Y-13001484D01*
X11382086Y-13001484D02*
X11382086Y-12868150D01*
X11382086Y-12887198D02*
X11391610Y-12877674D01*
X11391610Y-12877674D02*
X11410658Y-12868150D01*
X11410658Y-12868150D02*
X11439229Y-12868150D01*
X11439229Y-12868150D02*
X11458277Y-12877674D01*
X11458277Y-12877674D02*
X11467801Y-12896722D01*
X11467801Y-12896722D02*
X11467801Y-13001484D01*
X11467801Y-12896722D02*
X11477324Y-12877674D01*
X11477324Y-12877674D02*
X11496372Y-12868150D01*
X11496372Y-12868150D02*
X11524943Y-12868150D01*
X11524943Y-12868150D02*
X11543991Y-12877674D01*
X11543991Y-12877674D02*
X11553515Y-12896722D01*
X11553515Y-12896722D02*
X11553515Y-13001484D01*
X11943991Y-12791960D02*
X11772563Y-13049103D01*
X12201134Y-12801484D02*
X12220182Y-12801484D01*
X12220182Y-12801484D02*
X12239229Y-12811008D01*
X12239229Y-12811008D02*
X12248753Y-12820531D01*
X12248753Y-12820531D02*
X12258277Y-12839579D01*
X12258277Y-12839579D02*
X12267801Y-12877674D01*
X12267801Y-12877674D02*
X12267801Y-12925293D01*
X12267801Y-12925293D02*
X12258277Y-12963388D01*
X12258277Y-12963388D02*
X12248753Y-12982436D01*
X12248753Y-12982436D02*
X12239229Y-12991960D01*
X12239229Y-12991960D02*
X12220182Y-13001484D01*
X12220182Y-13001484D02*
X12201134Y-13001484D01*
X12201134Y-13001484D02*
X12182086Y-12991960D01*
X12182086Y-12991960D02*
X12172563Y-12982436D01*
X12172563Y-12982436D02*
X12163039Y-12963388D01*
X12163039Y-12963388D02*
X12153515Y-12925293D01*
X12153515Y-12925293D02*
X12153515Y-12877674D01*
X12153515Y-12877674D02*
X12163039Y-12839579D01*
X12163039Y-12839579D02*
X12172563Y-12820531D01*
X12172563Y-12820531D02*
X12182086Y-12811008D01*
X12182086Y-12811008D02*
X12201134Y-12801484D01*
X12353515Y-12982436D02*
X12363039Y-12991960D01*
X12363039Y-12991960D02*
X12353515Y-13001484D01*
X12353515Y-13001484D02*
X12343991Y-12991960D01*
X12343991Y-12991960D02*
X12353515Y-12982436D01*
X12353515Y-12982436D02*
X12353515Y-13001484D01*
X12486848Y-12801484D02*
X12505896Y-12801484D01*
X12505896Y-12801484D02*
X12524944Y-12811008D01*
X12524944Y-12811008D02*
X12534467Y-12820531D01*
X12534467Y-12820531D02*
X12543991Y-12839579D01*
X12543991Y-12839579D02*
X12553515Y-12877674D01*
X12553515Y-12877674D02*
X12553515Y-12925293D01*
X12553515Y-12925293D02*
X12543991Y-12963388D01*
X12543991Y-12963388D02*
X12534467Y-12982436D01*
X12534467Y-12982436D02*
X12524944Y-12991960D01*
X12524944Y-12991960D02*
X12505896Y-13001484D01*
X12505896Y-13001484D02*
X12486848Y-13001484D01*
X12486848Y-13001484D02*
X12467801Y-12991960D01*
X12467801Y-12991960D02*
X12458277Y-12982436D01*
X12458277Y-12982436D02*
X12448753Y-12963388D01*
X12448753Y-12963388D02*
X12439229Y-12925293D01*
X12439229Y-12925293D02*
X12439229Y-12877674D01*
X12439229Y-12877674D02*
X12448753Y-12839579D01*
X12448753Y-12839579D02*
X12458277Y-12820531D01*
X12458277Y-12820531D02*
X12467801Y-12811008D01*
X12467801Y-12811008D02*
X12486848Y-12801484D01*
X12743991Y-13001484D02*
X12629706Y-13001484D01*
X12686848Y-13001484D02*
X12686848Y-12801484D01*
X12686848Y-12801484D02*
X12667801Y-12830055D01*
X12667801Y-12830055D02*
X12648753Y-12849103D01*
X12648753Y-12849103D02*
X12629706Y-12858627D01*
X12934467Y-13001484D02*
X12820182Y-13001484D01*
X12877325Y-13001484D02*
X12877325Y-12801484D01*
X12877325Y-12801484D02*
X12858277Y-12830055D01*
X12858277Y-12830055D02*
X12839229Y-12849103D01*
X12839229Y-12849103D02*
X12820182Y-12858627D01*
X13048753Y-12887198D02*
X13029706Y-12877674D01*
X13029706Y-12877674D02*
X13020182Y-12868150D01*
X13020182Y-12868150D02*
X13010658Y-12849103D01*
X13010658Y-12849103D02*
X13010658Y-12839579D01*
X13010658Y-12839579D02*
X13020182Y-12820531D01*
X13020182Y-12820531D02*
X13029706Y-12811008D01*
X13029706Y-12811008D02*
X13048753Y-12801484D01*
X13048753Y-12801484D02*
X13086848Y-12801484D01*
X13086848Y-12801484D02*
X13105896Y-12811008D01*
X13105896Y-12811008D02*
X13115420Y-12820531D01*
X13115420Y-12820531D02*
X13124944Y-12839579D01*
X13124944Y-12839579D02*
X13124944Y-12849103D01*
X13124944Y-12849103D02*
X13115420Y-12868150D01*
X13115420Y-12868150D02*
X13105896Y-12877674D01*
X13105896Y-12877674D02*
X13086848Y-12887198D01*
X13086848Y-12887198D02*
X13048753Y-12887198D01*
X13048753Y-12887198D02*
X13029706Y-12896722D01*
X13029706Y-12896722D02*
X13020182Y-12906246D01*
X13020182Y-12906246D02*
X13010658Y-12925293D01*
X13010658Y-12925293D02*
X13010658Y-12963388D01*
X13010658Y-12963388D02*
X13020182Y-12982436D01*
X13020182Y-12982436D02*
X13029706Y-12991960D01*
X13029706Y-12991960D02*
X13048753Y-13001484D01*
X13048753Y-13001484D02*
X13086848Y-13001484D01*
X13086848Y-13001484D02*
X13105896Y-12991960D01*
X13105896Y-12991960D02*
X13115420Y-12982436D01*
X13115420Y-12982436D02*
X13124944Y-12963388D01*
X13124944Y-12963388D02*
X13124944Y-12925293D01*
X13124944Y-12925293D02*
X13115420Y-12906246D01*
X13115420Y-12906246D02*
X13105896Y-12896722D01*
X13105896Y-12896722D02*
X13086848Y-12887198D01*
X13201134Y-12801484D02*
X13201134Y-12839579D01*
X13277325Y-12801484D02*
X13277325Y-12839579D01*
X13572563Y-13077674D02*
X13563039Y-13068150D01*
X13563039Y-13068150D02*
X13543991Y-13039579D01*
X13543991Y-13039579D02*
X13534468Y-13020531D01*
X13534468Y-13020531D02*
X13524944Y-12991960D01*
X13524944Y-12991960D02*
X13515420Y-12944341D01*
X13515420Y-12944341D02*
X13515420Y-12906246D01*
X13515420Y-12906246D02*
X13524944Y-12858627D01*
X13524944Y-12858627D02*
X13534468Y-12830055D01*
X13534468Y-12830055D02*
X13543991Y-12811008D01*
X13543991Y-12811008D02*
X13563039Y-12782436D01*
X13563039Y-12782436D02*
X13572563Y-12772912D01*
X13639229Y-12820531D02*
X13648753Y-12811008D01*
X13648753Y-12811008D02*
X13667801Y-12801484D01*
X13667801Y-12801484D02*
X13715420Y-12801484D01*
X13715420Y-12801484D02*
X13734468Y-12811008D01*
X13734468Y-12811008D02*
X13743991Y-12820531D01*
X13743991Y-12820531D02*
X13753515Y-12839579D01*
X13753515Y-12839579D02*
X13753515Y-12858627D01*
X13753515Y-12858627D02*
X13743991Y-12887198D01*
X13743991Y-12887198D02*
X13629706Y-13001484D01*
X13629706Y-13001484D02*
X13753515Y-13001484D01*
X13943991Y-13001484D02*
X13829706Y-13001484D01*
X13886848Y-13001484D02*
X13886848Y-12801484D01*
X13886848Y-12801484D02*
X13867801Y-12830055D01*
X13867801Y-12830055D02*
X13848753Y-12849103D01*
X13848753Y-12849103D02*
X13829706Y-12858627D01*
X14115420Y-12868150D02*
X14115420Y-13001484D01*
X14067801Y-12791960D02*
X14020182Y-12934817D01*
X14020182Y-12934817D02*
X14143991Y-12934817D01*
X14372563Y-13001484D02*
X14372563Y-12801484D01*
X14458277Y-13001484D02*
X14458277Y-12896722D01*
X14458277Y-12896722D02*
X14448753Y-12877674D01*
X14448753Y-12877674D02*
X14429706Y-12868150D01*
X14429706Y-12868150D02*
X14401134Y-12868150D01*
X14401134Y-12868150D02*
X14382087Y-12877674D01*
X14382087Y-12877674D02*
X14372563Y-12887198D01*
X14582087Y-13001484D02*
X14563039Y-12991960D01*
X14563039Y-12991960D02*
X14553515Y-12982436D01*
X14553515Y-12982436D02*
X14543991Y-12963388D01*
X14543991Y-12963388D02*
X14543991Y-12906246D01*
X14543991Y-12906246D02*
X14553515Y-12887198D01*
X14553515Y-12887198D02*
X14563039Y-12877674D01*
X14563039Y-12877674D02*
X14582087Y-12868150D01*
X14582087Y-12868150D02*
X14610658Y-12868150D01*
X14610658Y-12868150D02*
X14629706Y-12877674D01*
X14629706Y-12877674D02*
X14639230Y-12887198D01*
X14639230Y-12887198D02*
X14648753Y-12906246D01*
X14648753Y-12906246D02*
X14648753Y-12963388D01*
X14648753Y-12963388D02*
X14639230Y-12982436D01*
X14639230Y-12982436D02*
X14629706Y-12991960D01*
X14629706Y-12991960D02*
X14610658Y-13001484D01*
X14610658Y-13001484D02*
X14582087Y-13001484D01*
X14763039Y-13001484D02*
X14743991Y-12991960D01*
X14743991Y-12991960D02*
X14734468Y-12972912D01*
X14734468Y-12972912D02*
X14734468Y-12801484D01*
X14915420Y-12991960D02*
X14896372Y-13001484D01*
X14896372Y-13001484D02*
X14858277Y-13001484D01*
X14858277Y-13001484D02*
X14839230Y-12991960D01*
X14839230Y-12991960D02*
X14829706Y-12972912D01*
X14829706Y-12972912D02*
X14829706Y-12896722D01*
X14829706Y-12896722D02*
X14839230Y-12877674D01*
X14839230Y-12877674D02*
X14858277Y-12868150D01*
X14858277Y-12868150D02*
X14896372Y-12868150D01*
X14896372Y-12868150D02*
X14915420Y-12877674D01*
X14915420Y-12877674D02*
X14924944Y-12896722D01*
X14924944Y-12896722D02*
X14924944Y-12915769D01*
X14924944Y-12915769D02*
X14829706Y-12934817D01*
X15001134Y-12991960D02*
X15020182Y-13001484D01*
X15020182Y-13001484D02*
X15058277Y-13001484D01*
X15058277Y-13001484D02*
X15077325Y-12991960D01*
X15077325Y-12991960D02*
X15086849Y-12972912D01*
X15086849Y-12972912D02*
X15086849Y-12963388D01*
X15086849Y-12963388D02*
X15077325Y-12944341D01*
X15077325Y-12944341D02*
X15058277Y-12934817D01*
X15058277Y-12934817D02*
X15029706Y-12934817D01*
X15029706Y-12934817D02*
X15010658Y-12925293D01*
X15010658Y-12925293D02*
X15001134Y-12906246D01*
X15001134Y-12906246D02*
X15001134Y-12896722D01*
X15001134Y-12896722D02*
X15010658Y-12877674D01*
X15010658Y-12877674D02*
X15029706Y-12868150D01*
X15029706Y-12868150D02*
X15058277Y-12868150D01*
X15058277Y-12868150D02*
X15077325Y-12877674D01*
X15153515Y-13077674D02*
X15163039Y-13068150D01*
X15163039Y-13068150D02*
X15182087Y-13039579D01*
X15182087Y-13039579D02*
X15191611Y-13020531D01*
X15191611Y-13020531D02*
X15201134Y-12991960D01*
X15201134Y-12991960D02*
X15210658Y-12944341D01*
X15210658Y-12944341D02*
X15210658Y-12906246D01*
X15210658Y-12906246D02*
X15201134Y-12858627D01*
X15201134Y-12858627D02*
X15191611Y-12830055D01*
X15191611Y-12830055D02*
X15182087Y-12811008D01*
X15182087Y-12811008D02*
X15163039Y-12782436D01*
X15163039Y-12782436D02*
X15153515Y-12772912D01*
D13*
X9977500Y-13154000D02*
X9977500Y-13194000D01*
X9957500Y-13174000D02*
X9997500Y-13174000D01*
D12*
X10296372Y-13065484D02*
X10315420Y-13065484D01*
X10315420Y-13065484D02*
X10334467Y-13075008D01*
X10334467Y-13075008D02*
X10343991Y-13084531D01*
X10343991Y-13084531D02*
X10353515Y-13103579D01*
X10353515Y-13103579D02*
X10363039Y-13141674D01*
X10363039Y-13141674D02*
X10363039Y-13189293D01*
X10363039Y-13189293D02*
X10353515Y-13227388D01*
X10353515Y-13227388D02*
X10343991Y-13246436D01*
X10343991Y-13246436D02*
X10334467Y-13255960D01*
X10334467Y-13255960D02*
X10315420Y-13265484D01*
X10315420Y-13265484D02*
X10296372Y-13265484D01*
X10296372Y-13265484D02*
X10277324Y-13255960D01*
X10277324Y-13255960D02*
X10267801Y-13246436D01*
X10267801Y-13246436D02*
X10258277Y-13227388D01*
X10258277Y-13227388D02*
X10248753Y-13189293D01*
X10248753Y-13189293D02*
X10248753Y-13141674D01*
X10248753Y-13141674D02*
X10258277Y-13103579D01*
X10258277Y-13103579D02*
X10267801Y-13084531D01*
X10267801Y-13084531D02*
X10277324Y-13075008D01*
X10277324Y-13075008D02*
X10296372Y-13065484D01*
X10448753Y-13246436D02*
X10458277Y-13255960D01*
X10458277Y-13255960D02*
X10448753Y-13265484D01*
X10448753Y-13265484D02*
X10439229Y-13255960D01*
X10439229Y-13255960D02*
X10448753Y-13246436D01*
X10448753Y-13246436D02*
X10448753Y-13265484D01*
X10629705Y-13132150D02*
X10629705Y-13265484D01*
X10582086Y-13055960D02*
X10534467Y-13198817D01*
X10534467Y-13198817D02*
X10658277Y-13198817D01*
X10772563Y-13065484D02*
X10791610Y-13065484D01*
X10791610Y-13065484D02*
X10810658Y-13075008D01*
X10810658Y-13075008D02*
X10820182Y-13084531D01*
X10820182Y-13084531D02*
X10829705Y-13103579D01*
X10829705Y-13103579D02*
X10839229Y-13141674D01*
X10839229Y-13141674D02*
X10839229Y-13189293D01*
X10839229Y-13189293D02*
X10829705Y-13227388D01*
X10829705Y-13227388D02*
X10820182Y-13246436D01*
X10820182Y-13246436D02*
X10810658Y-13255960D01*
X10810658Y-13255960D02*
X10791610Y-13265484D01*
X10791610Y-13265484D02*
X10772563Y-13265484D01*
X10772563Y-13265484D02*
X10753515Y-13255960D01*
X10753515Y-13255960D02*
X10743991Y-13246436D01*
X10743991Y-13246436D02*
X10734467Y-13227388D01*
X10734467Y-13227388D02*
X10724944Y-13189293D01*
X10724944Y-13189293D02*
X10724944Y-13141674D01*
X10724944Y-13141674D02*
X10734467Y-13103579D01*
X10734467Y-13103579D02*
X10743991Y-13084531D01*
X10743991Y-13084531D02*
X10753515Y-13075008D01*
X10753515Y-13075008D02*
X10772563Y-13065484D01*
X10963039Y-13065484D02*
X10982086Y-13065484D01*
X10982086Y-13065484D02*
X11001134Y-13075008D01*
X11001134Y-13075008D02*
X11010658Y-13084531D01*
X11010658Y-13084531D02*
X11020182Y-13103579D01*
X11020182Y-13103579D02*
X11029705Y-13141674D01*
X11029705Y-13141674D02*
X11029705Y-13189293D01*
X11029705Y-13189293D02*
X11020182Y-13227388D01*
X11020182Y-13227388D02*
X11010658Y-13246436D01*
X11010658Y-13246436D02*
X11001134Y-13255960D01*
X11001134Y-13255960D02*
X10982086Y-13265484D01*
X10982086Y-13265484D02*
X10963039Y-13265484D01*
X10963039Y-13265484D02*
X10943991Y-13255960D01*
X10943991Y-13255960D02*
X10934467Y-13246436D01*
X10934467Y-13246436D02*
X10924944Y-13227388D01*
X10924944Y-13227388D02*
X10915420Y-13189293D01*
X10915420Y-13189293D02*
X10915420Y-13141674D01*
X10915420Y-13141674D02*
X10924944Y-13103579D01*
X10924944Y-13103579D02*
X10934467Y-13084531D01*
X10934467Y-13084531D02*
X10943991Y-13075008D01*
X10943991Y-13075008D02*
X10963039Y-13065484D01*
X11115420Y-13265484D02*
X11115420Y-13132150D01*
X11115420Y-13151198D02*
X11124944Y-13141674D01*
X11124944Y-13141674D02*
X11143991Y-13132150D01*
X11143991Y-13132150D02*
X11172563Y-13132150D01*
X11172563Y-13132150D02*
X11191610Y-13141674D01*
X11191610Y-13141674D02*
X11201134Y-13160722D01*
X11201134Y-13160722D02*
X11201134Y-13265484D01*
X11201134Y-13160722D02*
X11210658Y-13141674D01*
X11210658Y-13141674D02*
X11229705Y-13132150D01*
X11229705Y-13132150D02*
X11258277Y-13132150D01*
X11258277Y-13132150D02*
X11277324Y-13141674D01*
X11277324Y-13141674D02*
X11286848Y-13160722D01*
X11286848Y-13160722D02*
X11286848Y-13265484D01*
X11382086Y-13265484D02*
X11382086Y-13132150D01*
X11382086Y-13151198D02*
X11391610Y-13141674D01*
X11391610Y-13141674D02*
X11410658Y-13132150D01*
X11410658Y-13132150D02*
X11439229Y-13132150D01*
X11439229Y-13132150D02*
X11458277Y-13141674D01*
X11458277Y-13141674D02*
X11467801Y-13160722D01*
X11467801Y-13160722D02*
X11467801Y-13265484D01*
X11467801Y-13160722D02*
X11477324Y-13141674D01*
X11477324Y-13141674D02*
X11496372Y-13132150D01*
X11496372Y-13132150D02*
X11524943Y-13132150D01*
X11524943Y-13132150D02*
X11543991Y-13141674D01*
X11543991Y-13141674D02*
X11553515Y-13160722D01*
X11553515Y-13160722D02*
X11553515Y-13265484D01*
X11943991Y-13055960D02*
X11772563Y-13313103D01*
X12201134Y-13065484D02*
X12220182Y-13065484D01*
X12220182Y-13065484D02*
X12239229Y-13075008D01*
X12239229Y-13075008D02*
X12248753Y-13084531D01*
X12248753Y-13084531D02*
X12258277Y-13103579D01*
X12258277Y-13103579D02*
X12267801Y-13141674D01*
X12267801Y-13141674D02*
X12267801Y-13189293D01*
X12267801Y-13189293D02*
X12258277Y-13227388D01*
X12258277Y-13227388D02*
X12248753Y-13246436D01*
X12248753Y-13246436D02*
X12239229Y-13255960D01*
X12239229Y-13255960D02*
X12220182Y-13265484D01*
X12220182Y-13265484D02*
X12201134Y-13265484D01*
X12201134Y-13265484D02*
X12182086Y-13255960D01*
X12182086Y-13255960D02*
X12172563Y-13246436D01*
X12172563Y-13246436D02*
X12163039Y-13227388D01*
X12163039Y-13227388D02*
X12153515Y-13189293D01*
X12153515Y-13189293D02*
X12153515Y-13141674D01*
X12153515Y-13141674D02*
X12163039Y-13103579D01*
X12163039Y-13103579D02*
X12172563Y-13084531D01*
X12172563Y-13084531D02*
X12182086Y-13075008D01*
X12182086Y-13075008D02*
X12201134Y-13065484D01*
X12353515Y-13246436D02*
X12363039Y-13255960D01*
X12363039Y-13255960D02*
X12353515Y-13265484D01*
X12353515Y-13265484D02*
X12343991Y-13255960D01*
X12343991Y-13255960D02*
X12353515Y-13246436D01*
X12353515Y-13246436D02*
X12353515Y-13265484D01*
X12486848Y-13065484D02*
X12505896Y-13065484D01*
X12505896Y-13065484D02*
X12524944Y-13075008D01*
X12524944Y-13075008D02*
X12534467Y-13084531D01*
X12534467Y-13084531D02*
X12543991Y-13103579D01*
X12543991Y-13103579D02*
X12553515Y-13141674D01*
X12553515Y-13141674D02*
X12553515Y-13189293D01*
X12553515Y-13189293D02*
X12543991Y-13227388D01*
X12543991Y-13227388D02*
X12534467Y-13246436D01*
X12534467Y-13246436D02*
X12524944Y-13255960D01*
X12524944Y-13255960D02*
X12505896Y-13265484D01*
X12505896Y-13265484D02*
X12486848Y-13265484D01*
X12486848Y-13265484D02*
X12467801Y-13255960D01*
X12467801Y-13255960D02*
X12458277Y-13246436D01*
X12458277Y-13246436D02*
X12448753Y-13227388D01*
X12448753Y-13227388D02*
X12439229Y-13189293D01*
X12439229Y-13189293D02*
X12439229Y-13141674D01*
X12439229Y-13141674D02*
X12448753Y-13103579D01*
X12448753Y-13103579D02*
X12458277Y-13084531D01*
X12458277Y-13084531D02*
X12467801Y-13075008D01*
X12467801Y-13075008D02*
X12486848Y-13065484D01*
X12743991Y-13265484D02*
X12629706Y-13265484D01*
X12686848Y-13265484D02*
X12686848Y-13065484D01*
X12686848Y-13065484D02*
X12667801Y-13094055D01*
X12667801Y-13094055D02*
X12648753Y-13113103D01*
X12648753Y-13113103D02*
X12629706Y-13122627D01*
X12924944Y-13065484D02*
X12829706Y-13065484D01*
X12829706Y-13065484D02*
X12820182Y-13160722D01*
X12820182Y-13160722D02*
X12829706Y-13151198D01*
X12829706Y-13151198D02*
X12848753Y-13141674D01*
X12848753Y-13141674D02*
X12896372Y-13141674D01*
X12896372Y-13141674D02*
X12915420Y-13151198D01*
X12915420Y-13151198D02*
X12924944Y-13160722D01*
X12924944Y-13160722D02*
X12934467Y-13179769D01*
X12934467Y-13179769D02*
X12934467Y-13227388D01*
X12934467Y-13227388D02*
X12924944Y-13246436D01*
X12924944Y-13246436D02*
X12915420Y-13255960D01*
X12915420Y-13255960D02*
X12896372Y-13265484D01*
X12896372Y-13265484D02*
X12848753Y-13265484D01*
X12848753Y-13265484D02*
X12829706Y-13255960D01*
X12829706Y-13255960D02*
X12820182Y-13246436D01*
X13001134Y-13065484D02*
X13134467Y-13065484D01*
X13134467Y-13065484D02*
X13048753Y-13265484D01*
X13201134Y-13065484D02*
X13201134Y-13103579D01*
X13277325Y-13065484D02*
X13277325Y-13103579D01*
X13572563Y-13341674D02*
X13563039Y-13332150D01*
X13563039Y-13332150D02*
X13543991Y-13303579D01*
X13543991Y-13303579D02*
X13534468Y-13284531D01*
X13534468Y-13284531D02*
X13524944Y-13255960D01*
X13524944Y-13255960D02*
X13515420Y-13208341D01*
X13515420Y-13208341D02*
X13515420Y-13170246D01*
X13515420Y-13170246D02*
X13524944Y-13122627D01*
X13524944Y-13122627D02*
X13534468Y-13094055D01*
X13534468Y-13094055D02*
X13543991Y-13075008D01*
X13543991Y-13075008D02*
X13563039Y-13046436D01*
X13563039Y-13046436D02*
X13572563Y-13036912D01*
X13686848Y-13065484D02*
X13705896Y-13065484D01*
X13705896Y-13065484D02*
X13724944Y-13075008D01*
X13724944Y-13075008D02*
X13734468Y-13084531D01*
X13734468Y-13084531D02*
X13743991Y-13103579D01*
X13743991Y-13103579D02*
X13753515Y-13141674D01*
X13753515Y-13141674D02*
X13753515Y-13189293D01*
X13753515Y-13189293D02*
X13743991Y-13227388D01*
X13743991Y-13227388D02*
X13734468Y-13246436D01*
X13734468Y-13246436D02*
X13724944Y-13255960D01*
X13724944Y-13255960D02*
X13705896Y-13265484D01*
X13705896Y-13265484D02*
X13686848Y-13265484D01*
X13686848Y-13265484D02*
X13667801Y-13255960D01*
X13667801Y-13255960D02*
X13658277Y-13246436D01*
X13658277Y-13246436D02*
X13648753Y-13227388D01*
X13648753Y-13227388D02*
X13639229Y-13189293D01*
X13639229Y-13189293D02*
X13639229Y-13141674D01*
X13639229Y-13141674D02*
X13648753Y-13103579D01*
X13648753Y-13103579D02*
X13658277Y-13084531D01*
X13658277Y-13084531D02*
X13667801Y-13075008D01*
X13667801Y-13075008D02*
X13686848Y-13065484D01*
X13991610Y-13265484D02*
X13991610Y-13065484D01*
X14077325Y-13265484D02*
X14077325Y-13160722D01*
X14077325Y-13160722D02*
X14067801Y-13141674D01*
X14067801Y-13141674D02*
X14048753Y-13132150D01*
X14048753Y-13132150D02*
X14020182Y-13132150D01*
X14020182Y-13132150D02*
X14001134Y-13141674D01*
X14001134Y-13141674D02*
X13991610Y-13151198D01*
X14201134Y-13265484D02*
X14182087Y-13255960D01*
X14182087Y-13255960D02*
X14172563Y-13246436D01*
X14172563Y-13246436D02*
X14163039Y-13227388D01*
X14163039Y-13227388D02*
X14163039Y-13170246D01*
X14163039Y-13170246D02*
X14172563Y-13151198D01*
X14172563Y-13151198D02*
X14182087Y-13141674D01*
X14182087Y-13141674D02*
X14201134Y-13132150D01*
X14201134Y-13132150D02*
X14229706Y-13132150D01*
X14229706Y-13132150D02*
X14248753Y-13141674D01*
X14248753Y-13141674D02*
X14258277Y-13151198D01*
X14258277Y-13151198D02*
X14267801Y-13170246D01*
X14267801Y-13170246D02*
X14267801Y-13227388D01*
X14267801Y-13227388D02*
X14258277Y-13246436D01*
X14258277Y-13246436D02*
X14248753Y-13255960D01*
X14248753Y-13255960D02*
X14229706Y-13265484D01*
X14229706Y-13265484D02*
X14201134Y-13265484D01*
X14382087Y-13265484D02*
X14363039Y-13255960D01*
X14363039Y-13255960D02*
X14353515Y-13236912D01*
X14353515Y-13236912D02*
X14353515Y-13065484D01*
X14534468Y-13255960D02*
X14515420Y-13265484D01*
X14515420Y-13265484D02*
X14477325Y-13265484D01*
X14477325Y-13265484D02*
X14458277Y-13255960D01*
X14458277Y-13255960D02*
X14448753Y-13236912D01*
X14448753Y-13236912D02*
X14448753Y-13160722D01*
X14448753Y-13160722D02*
X14458277Y-13141674D01*
X14458277Y-13141674D02*
X14477325Y-13132150D01*
X14477325Y-13132150D02*
X14515420Y-13132150D01*
X14515420Y-13132150D02*
X14534468Y-13141674D01*
X14534468Y-13141674D02*
X14543991Y-13160722D01*
X14543991Y-13160722D02*
X14543991Y-13179769D01*
X14543991Y-13179769D02*
X14448753Y-13198817D01*
X14620182Y-13255960D02*
X14639230Y-13265484D01*
X14639230Y-13265484D02*
X14677325Y-13265484D01*
X14677325Y-13265484D02*
X14696372Y-13255960D01*
X14696372Y-13255960D02*
X14705896Y-13236912D01*
X14705896Y-13236912D02*
X14705896Y-13227388D01*
X14705896Y-13227388D02*
X14696372Y-13208341D01*
X14696372Y-13208341D02*
X14677325Y-13198817D01*
X14677325Y-13198817D02*
X14648753Y-13198817D01*
X14648753Y-13198817D02*
X14629706Y-13189293D01*
X14629706Y-13189293D02*
X14620182Y-13170246D01*
X14620182Y-13170246D02*
X14620182Y-13160722D01*
X14620182Y-13160722D02*
X14629706Y-13141674D01*
X14629706Y-13141674D02*
X14648753Y-13132150D01*
X14648753Y-13132150D02*
X14677325Y-13132150D01*
X14677325Y-13132150D02*
X14696372Y-13141674D01*
X14943992Y-13189293D02*
X15096373Y-13189293D01*
X15020182Y-13265484D02*
X15020182Y-13113103D01*
X15324944Y-13065484D02*
X15448753Y-13065484D01*
X15448753Y-13065484D02*
X15382087Y-13141674D01*
X15382087Y-13141674D02*
X15410658Y-13141674D01*
X15410658Y-13141674D02*
X15429706Y-13151198D01*
X15429706Y-13151198D02*
X15439230Y-13160722D01*
X15439230Y-13160722D02*
X15448753Y-13179769D01*
X15448753Y-13179769D02*
X15448753Y-13227388D01*
X15448753Y-13227388D02*
X15439230Y-13246436D01*
X15439230Y-13246436D02*
X15429706Y-13255960D01*
X15429706Y-13255960D02*
X15410658Y-13265484D01*
X15410658Y-13265484D02*
X15353515Y-13265484D01*
X15353515Y-13265484D02*
X15334468Y-13255960D01*
X15334468Y-13255960D02*
X15324944Y-13246436D01*
X15677325Y-13255960D02*
X15696373Y-13265484D01*
X15696373Y-13265484D02*
X15734468Y-13265484D01*
X15734468Y-13265484D02*
X15753515Y-13255960D01*
X15753515Y-13255960D02*
X15763039Y-13236912D01*
X15763039Y-13236912D02*
X15763039Y-13227388D01*
X15763039Y-13227388D02*
X15753515Y-13208341D01*
X15753515Y-13208341D02*
X15734468Y-13198817D01*
X15734468Y-13198817D02*
X15705896Y-13198817D01*
X15705896Y-13198817D02*
X15686849Y-13189293D01*
X15686849Y-13189293D02*
X15677325Y-13170246D01*
X15677325Y-13170246D02*
X15677325Y-13160722D01*
X15677325Y-13160722D02*
X15686849Y-13141674D01*
X15686849Y-13141674D02*
X15705896Y-13132150D01*
X15705896Y-13132150D02*
X15734468Y-13132150D01*
X15734468Y-13132150D02*
X15753515Y-13141674D01*
X15877325Y-13265484D02*
X15858277Y-13255960D01*
X15858277Y-13255960D02*
X15848754Y-13236912D01*
X15848754Y-13236912D02*
X15848754Y-13065484D01*
X15982087Y-13265484D02*
X15963039Y-13255960D01*
X15963039Y-13255960D02*
X15953515Y-13246436D01*
X15953515Y-13246436D02*
X15943992Y-13227388D01*
X15943992Y-13227388D02*
X15943992Y-13170246D01*
X15943992Y-13170246D02*
X15953515Y-13151198D01*
X15953515Y-13151198D02*
X15963039Y-13141674D01*
X15963039Y-13141674D02*
X15982087Y-13132150D01*
X15982087Y-13132150D02*
X16010658Y-13132150D01*
X16010658Y-13132150D02*
X16029706Y-13141674D01*
X16029706Y-13141674D02*
X16039230Y-13151198D01*
X16039230Y-13151198D02*
X16048754Y-13170246D01*
X16048754Y-13170246D02*
X16048754Y-13227388D01*
X16048754Y-13227388D02*
X16039230Y-13246436D01*
X16039230Y-13246436D02*
X16029706Y-13255960D01*
X16029706Y-13255960D02*
X16010658Y-13265484D01*
X16010658Y-13265484D02*
X15982087Y-13265484D01*
X16105896Y-13132150D02*
X16182087Y-13132150D01*
X16134468Y-13065484D02*
X16134468Y-13236912D01*
X16134468Y-13236912D02*
X16143992Y-13255960D01*
X16143992Y-13255960D02*
X16163039Y-13265484D01*
X16163039Y-13265484D02*
X16182087Y-13265484D01*
X16239230Y-13255960D02*
X16258277Y-13265484D01*
X16258277Y-13265484D02*
X16296373Y-13265484D01*
X16296373Y-13265484D02*
X16315420Y-13255960D01*
X16315420Y-13255960D02*
X16324944Y-13236912D01*
X16324944Y-13236912D02*
X16324944Y-13227388D01*
X16324944Y-13227388D02*
X16315420Y-13208341D01*
X16315420Y-13208341D02*
X16296373Y-13198817D01*
X16296373Y-13198817D02*
X16267801Y-13198817D01*
X16267801Y-13198817D02*
X16248754Y-13189293D01*
X16248754Y-13189293D02*
X16239230Y-13170246D01*
X16239230Y-13170246D02*
X16239230Y-13160722D01*
X16239230Y-13160722D02*
X16248754Y-13141674D01*
X16248754Y-13141674D02*
X16267801Y-13132150D01*
X16267801Y-13132150D02*
X16296373Y-13132150D01*
X16296373Y-13132150D02*
X16315420Y-13141674D01*
X16391611Y-13341674D02*
X16401135Y-13332150D01*
X16401135Y-13332150D02*
X16420182Y-13303579D01*
X16420182Y-13303579D02*
X16429706Y-13284531D01*
X16429706Y-13284531D02*
X16439230Y-13255960D01*
X16439230Y-13255960D02*
X16448754Y-13208341D01*
X16448754Y-13208341D02*
X16448754Y-13170246D01*
X16448754Y-13170246D02*
X16439230Y-13122627D01*
X16439230Y-13122627D02*
X16429706Y-13094055D01*
X16429706Y-13094055D02*
X16420182Y-13075008D01*
X16420182Y-13075008D02*
X16401135Y-13046436D01*
X16401135Y-13046436D02*
X16391611Y-13036912D01*
D13*
X9988713Y-13459213D02*
X9988713Y-13416787D01*
X9946287Y-13416787D01*
X9946287Y-13459213D01*
X9988713Y-13459213D01*
D12*
X10296372Y-13329484D02*
X10315420Y-13329484D01*
X10315420Y-13329484D02*
X10334467Y-13339008D01*
X10334467Y-13339008D02*
X10343991Y-13348531D01*
X10343991Y-13348531D02*
X10353515Y-13367579D01*
X10353515Y-13367579D02*
X10363039Y-13405674D01*
X10363039Y-13405674D02*
X10363039Y-13453293D01*
X10363039Y-13453293D02*
X10353515Y-13491388D01*
X10353515Y-13491388D02*
X10343991Y-13510436D01*
X10343991Y-13510436D02*
X10334467Y-13519960D01*
X10334467Y-13519960D02*
X10315420Y-13529484D01*
X10315420Y-13529484D02*
X10296372Y-13529484D01*
X10296372Y-13529484D02*
X10277324Y-13519960D01*
X10277324Y-13519960D02*
X10267801Y-13510436D01*
X10267801Y-13510436D02*
X10258277Y-13491388D01*
X10258277Y-13491388D02*
X10248753Y-13453293D01*
X10248753Y-13453293D02*
X10248753Y-13405674D01*
X10248753Y-13405674D02*
X10258277Y-13367579D01*
X10258277Y-13367579D02*
X10267801Y-13348531D01*
X10267801Y-13348531D02*
X10277324Y-13339008D01*
X10277324Y-13339008D02*
X10296372Y-13329484D01*
X10448753Y-13510436D02*
X10458277Y-13519960D01*
X10458277Y-13519960D02*
X10448753Y-13529484D01*
X10448753Y-13529484D02*
X10439229Y-13519960D01*
X10439229Y-13519960D02*
X10448753Y-13510436D01*
X10448753Y-13510436D02*
X10448753Y-13529484D01*
X10629705Y-13329484D02*
X10591610Y-13329484D01*
X10591610Y-13329484D02*
X10572563Y-13339008D01*
X10572563Y-13339008D02*
X10563039Y-13348531D01*
X10563039Y-13348531D02*
X10543991Y-13377103D01*
X10543991Y-13377103D02*
X10534467Y-13415198D01*
X10534467Y-13415198D02*
X10534467Y-13491388D01*
X10534467Y-13491388D02*
X10543991Y-13510436D01*
X10543991Y-13510436D02*
X10553515Y-13519960D01*
X10553515Y-13519960D02*
X10572563Y-13529484D01*
X10572563Y-13529484D02*
X10610658Y-13529484D01*
X10610658Y-13529484D02*
X10629705Y-13519960D01*
X10629705Y-13519960D02*
X10639229Y-13510436D01*
X10639229Y-13510436D02*
X10648753Y-13491388D01*
X10648753Y-13491388D02*
X10648753Y-13443769D01*
X10648753Y-13443769D02*
X10639229Y-13424722D01*
X10639229Y-13424722D02*
X10629705Y-13415198D01*
X10629705Y-13415198D02*
X10610658Y-13405674D01*
X10610658Y-13405674D02*
X10572563Y-13405674D01*
X10572563Y-13405674D02*
X10553515Y-13415198D01*
X10553515Y-13415198D02*
X10543991Y-13424722D01*
X10543991Y-13424722D02*
X10534467Y-13443769D01*
X10772563Y-13329484D02*
X10791610Y-13329484D01*
X10791610Y-13329484D02*
X10810658Y-13339008D01*
X10810658Y-13339008D02*
X10820182Y-13348531D01*
X10820182Y-13348531D02*
X10829705Y-13367579D01*
X10829705Y-13367579D02*
X10839229Y-13405674D01*
X10839229Y-13405674D02*
X10839229Y-13453293D01*
X10839229Y-13453293D02*
X10829705Y-13491388D01*
X10829705Y-13491388D02*
X10820182Y-13510436D01*
X10820182Y-13510436D02*
X10810658Y-13519960D01*
X10810658Y-13519960D02*
X10791610Y-13529484D01*
X10791610Y-13529484D02*
X10772563Y-13529484D01*
X10772563Y-13529484D02*
X10753515Y-13519960D01*
X10753515Y-13519960D02*
X10743991Y-13510436D01*
X10743991Y-13510436D02*
X10734467Y-13491388D01*
X10734467Y-13491388D02*
X10724944Y-13453293D01*
X10724944Y-13453293D02*
X10724944Y-13405674D01*
X10724944Y-13405674D02*
X10734467Y-13367579D01*
X10734467Y-13367579D02*
X10743991Y-13348531D01*
X10743991Y-13348531D02*
X10753515Y-13339008D01*
X10753515Y-13339008D02*
X10772563Y-13329484D01*
X10963039Y-13329484D02*
X10982086Y-13329484D01*
X10982086Y-13329484D02*
X11001134Y-13339008D01*
X11001134Y-13339008D02*
X11010658Y-13348531D01*
X11010658Y-13348531D02*
X11020182Y-13367579D01*
X11020182Y-13367579D02*
X11029705Y-13405674D01*
X11029705Y-13405674D02*
X11029705Y-13453293D01*
X11029705Y-13453293D02*
X11020182Y-13491388D01*
X11020182Y-13491388D02*
X11010658Y-13510436D01*
X11010658Y-13510436D02*
X11001134Y-13519960D01*
X11001134Y-13519960D02*
X10982086Y-13529484D01*
X10982086Y-13529484D02*
X10963039Y-13529484D01*
X10963039Y-13529484D02*
X10943991Y-13519960D01*
X10943991Y-13519960D02*
X10934467Y-13510436D01*
X10934467Y-13510436D02*
X10924944Y-13491388D01*
X10924944Y-13491388D02*
X10915420Y-13453293D01*
X10915420Y-13453293D02*
X10915420Y-13405674D01*
X10915420Y-13405674D02*
X10924944Y-13367579D01*
X10924944Y-13367579D02*
X10934467Y-13348531D01*
X10934467Y-13348531D02*
X10943991Y-13339008D01*
X10943991Y-13339008D02*
X10963039Y-13329484D01*
X11115420Y-13529484D02*
X11115420Y-13396150D01*
X11115420Y-13415198D02*
X11124944Y-13405674D01*
X11124944Y-13405674D02*
X11143991Y-13396150D01*
X11143991Y-13396150D02*
X11172563Y-13396150D01*
X11172563Y-13396150D02*
X11191610Y-13405674D01*
X11191610Y-13405674D02*
X11201134Y-13424722D01*
X11201134Y-13424722D02*
X11201134Y-13529484D01*
X11201134Y-13424722D02*
X11210658Y-13405674D01*
X11210658Y-13405674D02*
X11229705Y-13396150D01*
X11229705Y-13396150D02*
X11258277Y-13396150D01*
X11258277Y-13396150D02*
X11277324Y-13405674D01*
X11277324Y-13405674D02*
X11286848Y-13424722D01*
X11286848Y-13424722D02*
X11286848Y-13529484D01*
X11382086Y-13529484D02*
X11382086Y-13396150D01*
X11382086Y-13415198D02*
X11391610Y-13405674D01*
X11391610Y-13405674D02*
X11410658Y-13396150D01*
X11410658Y-13396150D02*
X11439229Y-13396150D01*
X11439229Y-13396150D02*
X11458277Y-13405674D01*
X11458277Y-13405674D02*
X11467801Y-13424722D01*
X11467801Y-13424722D02*
X11467801Y-13529484D01*
X11467801Y-13424722D02*
X11477324Y-13405674D01*
X11477324Y-13405674D02*
X11496372Y-13396150D01*
X11496372Y-13396150D02*
X11524943Y-13396150D01*
X11524943Y-13396150D02*
X11543991Y-13405674D01*
X11543991Y-13405674D02*
X11553515Y-13424722D01*
X11553515Y-13424722D02*
X11553515Y-13529484D01*
X11943991Y-13319960D02*
X11772563Y-13577103D01*
X12201134Y-13329484D02*
X12220182Y-13329484D01*
X12220182Y-13329484D02*
X12239229Y-13339008D01*
X12239229Y-13339008D02*
X12248753Y-13348531D01*
X12248753Y-13348531D02*
X12258277Y-13367579D01*
X12258277Y-13367579D02*
X12267801Y-13405674D01*
X12267801Y-13405674D02*
X12267801Y-13453293D01*
X12267801Y-13453293D02*
X12258277Y-13491388D01*
X12258277Y-13491388D02*
X12248753Y-13510436D01*
X12248753Y-13510436D02*
X12239229Y-13519960D01*
X12239229Y-13519960D02*
X12220182Y-13529484D01*
X12220182Y-13529484D02*
X12201134Y-13529484D01*
X12201134Y-13529484D02*
X12182086Y-13519960D01*
X12182086Y-13519960D02*
X12172563Y-13510436D01*
X12172563Y-13510436D02*
X12163039Y-13491388D01*
X12163039Y-13491388D02*
X12153515Y-13453293D01*
X12153515Y-13453293D02*
X12153515Y-13405674D01*
X12153515Y-13405674D02*
X12163039Y-13367579D01*
X12163039Y-13367579D02*
X12172563Y-13348531D01*
X12172563Y-13348531D02*
X12182086Y-13339008D01*
X12182086Y-13339008D02*
X12201134Y-13329484D01*
X12353515Y-13510436D02*
X12363039Y-13519960D01*
X12363039Y-13519960D02*
X12353515Y-13529484D01*
X12353515Y-13529484D02*
X12343991Y-13519960D01*
X12343991Y-13519960D02*
X12353515Y-13510436D01*
X12353515Y-13510436D02*
X12353515Y-13529484D01*
X12486848Y-13329484D02*
X12505896Y-13329484D01*
X12505896Y-13329484D02*
X12524944Y-13339008D01*
X12524944Y-13339008D02*
X12534467Y-13348531D01*
X12534467Y-13348531D02*
X12543991Y-13367579D01*
X12543991Y-13367579D02*
X12553515Y-13405674D01*
X12553515Y-13405674D02*
X12553515Y-13453293D01*
X12553515Y-13453293D02*
X12543991Y-13491388D01*
X12543991Y-13491388D02*
X12534467Y-13510436D01*
X12534467Y-13510436D02*
X12524944Y-13519960D01*
X12524944Y-13519960D02*
X12505896Y-13529484D01*
X12505896Y-13529484D02*
X12486848Y-13529484D01*
X12486848Y-13529484D02*
X12467801Y-13519960D01*
X12467801Y-13519960D02*
X12458277Y-13510436D01*
X12458277Y-13510436D02*
X12448753Y-13491388D01*
X12448753Y-13491388D02*
X12439229Y-13453293D01*
X12439229Y-13453293D02*
X12439229Y-13405674D01*
X12439229Y-13405674D02*
X12448753Y-13367579D01*
X12448753Y-13367579D02*
X12458277Y-13348531D01*
X12458277Y-13348531D02*
X12467801Y-13339008D01*
X12467801Y-13339008D02*
X12486848Y-13329484D01*
X12629706Y-13348531D02*
X12639229Y-13339008D01*
X12639229Y-13339008D02*
X12658277Y-13329484D01*
X12658277Y-13329484D02*
X12705896Y-13329484D01*
X12705896Y-13329484D02*
X12724944Y-13339008D01*
X12724944Y-13339008D02*
X12734467Y-13348531D01*
X12734467Y-13348531D02*
X12743991Y-13367579D01*
X12743991Y-13367579D02*
X12743991Y-13386627D01*
X12743991Y-13386627D02*
X12734467Y-13415198D01*
X12734467Y-13415198D02*
X12620182Y-13529484D01*
X12620182Y-13529484D02*
X12743991Y-13529484D01*
X12810658Y-13329484D02*
X12934467Y-13329484D01*
X12934467Y-13329484D02*
X12867801Y-13405674D01*
X12867801Y-13405674D02*
X12896372Y-13405674D01*
X12896372Y-13405674D02*
X12915420Y-13415198D01*
X12915420Y-13415198D02*
X12924944Y-13424722D01*
X12924944Y-13424722D02*
X12934467Y-13443769D01*
X12934467Y-13443769D02*
X12934467Y-13491388D01*
X12934467Y-13491388D02*
X12924944Y-13510436D01*
X12924944Y-13510436D02*
X12915420Y-13519960D01*
X12915420Y-13519960D02*
X12896372Y-13529484D01*
X12896372Y-13529484D02*
X12839229Y-13529484D01*
X12839229Y-13529484D02*
X12820182Y-13519960D01*
X12820182Y-13519960D02*
X12810658Y-13510436D01*
X13105896Y-13329484D02*
X13067801Y-13329484D01*
X13067801Y-13329484D02*
X13048753Y-13339008D01*
X13048753Y-13339008D02*
X13039229Y-13348531D01*
X13039229Y-13348531D02*
X13020182Y-13377103D01*
X13020182Y-13377103D02*
X13010658Y-13415198D01*
X13010658Y-13415198D02*
X13010658Y-13491388D01*
X13010658Y-13491388D02*
X13020182Y-13510436D01*
X13020182Y-13510436D02*
X13029706Y-13519960D01*
X13029706Y-13519960D02*
X13048753Y-13529484D01*
X13048753Y-13529484D02*
X13086848Y-13529484D01*
X13086848Y-13529484D02*
X13105896Y-13519960D01*
X13105896Y-13519960D02*
X13115420Y-13510436D01*
X13115420Y-13510436D02*
X13124944Y-13491388D01*
X13124944Y-13491388D02*
X13124944Y-13443769D01*
X13124944Y-13443769D02*
X13115420Y-13424722D01*
X13115420Y-13424722D02*
X13105896Y-13415198D01*
X13105896Y-13415198D02*
X13086848Y-13405674D01*
X13086848Y-13405674D02*
X13048753Y-13405674D01*
X13048753Y-13405674D02*
X13029706Y-13415198D01*
X13029706Y-13415198D02*
X13020182Y-13424722D01*
X13020182Y-13424722D02*
X13010658Y-13443769D01*
X13201134Y-13329484D02*
X13201134Y-13367579D01*
X13277325Y-13329484D02*
X13277325Y-13367579D01*
X13572563Y-13605674D02*
X13563039Y-13596150D01*
X13563039Y-13596150D02*
X13543991Y-13567579D01*
X13543991Y-13567579D02*
X13534468Y-13548531D01*
X13534468Y-13548531D02*
X13524944Y-13519960D01*
X13524944Y-13519960D02*
X13515420Y-13472341D01*
X13515420Y-13472341D02*
X13515420Y-13434246D01*
X13515420Y-13434246D02*
X13524944Y-13386627D01*
X13524944Y-13386627D02*
X13534468Y-13358055D01*
X13534468Y-13358055D02*
X13543991Y-13339008D01*
X13543991Y-13339008D02*
X13563039Y-13310436D01*
X13563039Y-13310436D02*
X13572563Y-13300912D01*
X13686848Y-13329484D02*
X13705896Y-13329484D01*
X13705896Y-13329484D02*
X13724944Y-13339008D01*
X13724944Y-13339008D02*
X13734468Y-13348531D01*
X13734468Y-13348531D02*
X13743991Y-13367579D01*
X13743991Y-13367579D02*
X13753515Y-13405674D01*
X13753515Y-13405674D02*
X13753515Y-13453293D01*
X13753515Y-13453293D02*
X13743991Y-13491388D01*
X13743991Y-13491388D02*
X13734468Y-13510436D01*
X13734468Y-13510436D02*
X13724944Y-13519960D01*
X13724944Y-13519960D02*
X13705896Y-13529484D01*
X13705896Y-13529484D02*
X13686848Y-13529484D01*
X13686848Y-13529484D02*
X13667801Y-13519960D01*
X13667801Y-13519960D02*
X13658277Y-13510436D01*
X13658277Y-13510436D02*
X13648753Y-13491388D01*
X13648753Y-13491388D02*
X13639229Y-13453293D01*
X13639229Y-13453293D02*
X13639229Y-13405674D01*
X13639229Y-13405674D02*
X13648753Y-13367579D01*
X13648753Y-13367579D02*
X13658277Y-13348531D01*
X13658277Y-13348531D02*
X13667801Y-13339008D01*
X13667801Y-13339008D02*
X13686848Y-13329484D01*
X13991610Y-13529484D02*
X13991610Y-13329484D01*
X14077325Y-13529484D02*
X14077325Y-13424722D01*
X14077325Y-13424722D02*
X14067801Y-13405674D01*
X14067801Y-13405674D02*
X14048753Y-13396150D01*
X14048753Y-13396150D02*
X14020182Y-13396150D01*
X14020182Y-13396150D02*
X14001134Y-13405674D01*
X14001134Y-13405674D02*
X13991610Y-13415198D01*
X14201134Y-13529484D02*
X14182087Y-13519960D01*
X14182087Y-13519960D02*
X14172563Y-13510436D01*
X14172563Y-13510436D02*
X14163039Y-13491388D01*
X14163039Y-13491388D02*
X14163039Y-13434246D01*
X14163039Y-13434246D02*
X14172563Y-13415198D01*
X14172563Y-13415198D02*
X14182087Y-13405674D01*
X14182087Y-13405674D02*
X14201134Y-13396150D01*
X14201134Y-13396150D02*
X14229706Y-13396150D01*
X14229706Y-13396150D02*
X14248753Y-13405674D01*
X14248753Y-13405674D02*
X14258277Y-13415198D01*
X14258277Y-13415198D02*
X14267801Y-13434246D01*
X14267801Y-13434246D02*
X14267801Y-13491388D01*
X14267801Y-13491388D02*
X14258277Y-13510436D01*
X14258277Y-13510436D02*
X14248753Y-13519960D01*
X14248753Y-13519960D02*
X14229706Y-13529484D01*
X14229706Y-13529484D02*
X14201134Y-13529484D01*
X14382087Y-13529484D02*
X14363039Y-13519960D01*
X14363039Y-13519960D02*
X14353515Y-13500912D01*
X14353515Y-13500912D02*
X14353515Y-13329484D01*
X14534468Y-13519960D02*
X14515420Y-13529484D01*
X14515420Y-13529484D02*
X14477325Y-13529484D01*
X14477325Y-13529484D02*
X14458277Y-13519960D01*
X14458277Y-13519960D02*
X14448753Y-13500912D01*
X14448753Y-13500912D02*
X14448753Y-13424722D01*
X14448753Y-13424722D02*
X14458277Y-13405674D01*
X14458277Y-13405674D02*
X14477325Y-13396150D01*
X14477325Y-13396150D02*
X14515420Y-13396150D01*
X14515420Y-13396150D02*
X14534468Y-13405674D01*
X14534468Y-13405674D02*
X14543991Y-13424722D01*
X14543991Y-13424722D02*
X14543991Y-13443769D01*
X14543991Y-13443769D02*
X14448753Y-13462817D01*
X14620182Y-13519960D02*
X14639230Y-13529484D01*
X14639230Y-13529484D02*
X14677325Y-13529484D01*
X14677325Y-13529484D02*
X14696372Y-13519960D01*
X14696372Y-13519960D02*
X14705896Y-13500912D01*
X14705896Y-13500912D02*
X14705896Y-13491388D01*
X14705896Y-13491388D02*
X14696372Y-13472341D01*
X14696372Y-13472341D02*
X14677325Y-13462817D01*
X14677325Y-13462817D02*
X14648753Y-13462817D01*
X14648753Y-13462817D02*
X14629706Y-13453293D01*
X14629706Y-13453293D02*
X14620182Y-13434246D01*
X14620182Y-13434246D02*
X14620182Y-13424722D01*
X14620182Y-13424722D02*
X14629706Y-13405674D01*
X14629706Y-13405674D02*
X14648753Y-13396150D01*
X14648753Y-13396150D02*
X14677325Y-13396150D01*
X14677325Y-13396150D02*
X14696372Y-13405674D01*
X14943992Y-13453293D02*
X15096373Y-13453293D01*
X15020182Y-13529484D02*
X15020182Y-13377103D01*
X15429706Y-13396150D02*
X15429706Y-13529484D01*
X15382087Y-13319960D02*
X15334468Y-13462817D01*
X15334468Y-13462817D02*
X15458277Y-13462817D01*
X15677325Y-13519960D02*
X15696373Y-13529484D01*
X15696373Y-13529484D02*
X15734468Y-13529484D01*
X15734468Y-13529484D02*
X15753515Y-13519960D01*
X15753515Y-13519960D02*
X15763039Y-13500912D01*
X15763039Y-13500912D02*
X15763039Y-13491388D01*
X15763039Y-13491388D02*
X15753515Y-13472341D01*
X15753515Y-13472341D02*
X15734468Y-13462817D01*
X15734468Y-13462817D02*
X15705896Y-13462817D01*
X15705896Y-13462817D02*
X15686849Y-13453293D01*
X15686849Y-13453293D02*
X15677325Y-13434246D01*
X15677325Y-13434246D02*
X15677325Y-13424722D01*
X15677325Y-13424722D02*
X15686849Y-13405674D01*
X15686849Y-13405674D02*
X15705896Y-13396150D01*
X15705896Y-13396150D02*
X15734468Y-13396150D01*
X15734468Y-13396150D02*
X15753515Y-13405674D01*
X15877325Y-13529484D02*
X15858277Y-13519960D01*
X15858277Y-13519960D02*
X15848754Y-13500912D01*
X15848754Y-13500912D02*
X15848754Y-13329484D01*
X15982087Y-13529484D02*
X15963039Y-13519960D01*
X15963039Y-13519960D02*
X15953515Y-13510436D01*
X15953515Y-13510436D02*
X15943992Y-13491388D01*
X15943992Y-13491388D02*
X15943992Y-13434246D01*
X15943992Y-13434246D02*
X15953515Y-13415198D01*
X15953515Y-13415198D02*
X15963039Y-13405674D01*
X15963039Y-13405674D02*
X15982087Y-13396150D01*
X15982087Y-13396150D02*
X16010658Y-13396150D01*
X16010658Y-13396150D02*
X16029706Y-13405674D01*
X16029706Y-13405674D02*
X16039230Y-13415198D01*
X16039230Y-13415198D02*
X16048754Y-13434246D01*
X16048754Y-13434246D02*
X16048754Y-13491388D01*
X16048754Y-13491388D02*
X16039230Y-13510436D01*
X16039230Y-13510436D02*
X16029706Y-13519960D01*
X16029706Y-13519960D02*
X16010658Y-13529484D01*
X16010658Y-13529484D02*
X15982087Y-13529484D01*
X16105896Y-13396150D02*
X16182087Y-13396150D01*
X16134468Y-13329484D02*
X16134468Y-13500912D01*
X16134468Y-13500912D02*
X16143992Y-13519960D01*
X16143992Y-13519960D02*
X16163039Y-13529484D01*
X16163039Y-13529484D02*
X16182087Y-13529484D01*
X16239230Y-13519960D02*
X16258277Y-13529484D01*
X16258277Y-13529484D02*
X16296373Y-13529484D01*
X16296373Y-13529484D02*
X16315420Y-13519960D01*
X16315420Y-13519960D02*
X16324944Y-13500912D01*
X16324944Y-13500912D02*
X16324944Y-13491388D01*
X16324944Y-13491388D02*
X16315420Y-13472341D01*
X16315420Y-13472341D02*
X16296373Y-13462817D01*
X16296373Y-13462817D02*
X16267801Y-13462817D01*
X16267801Y-13462817D02*
X16248754Y-13453293D01*
X16248754Y-13453293D02*
X16239230Y-13434246D01*
X16239230Y-13434246D02*
X16239230Y-13424722D01*
X16239230Y-13424722D02*
X16248754Y-13405674D01*
X16248754Y-13405674D02*
X16267801Y-13396150D01*
X16267801Y-13396150D02*
X16296373Y-13396150D01*
X16296373Y-13396150D02*
X16315420Y-13405674D01*
X16391611Y-13605674D02*
X16401135Y-13596150D01*
X16401135Y-13596150D02*
X16420182Y-13567579D01*
X16420182Y-13567579D02*
X16429706Y-13548531D01*
X16429706Y-13548531D02*
X16439230Y-13519960D01*
X16439230Y-13519960D02*
X16448754Y-13472341D01*
X16448754Y-13472341D02*
X16448754Y-13434246D01*
X16448754Y-13434246D02*
X16439230Y-13386627D01*
X16439230Y-13386627D02*
X16429706Y-13358055D01*
X16429706Y-13358055D02*
X16420182Y-13339008D01*
X16420182Y-13339008D02*
X16401135Y-13310436D01*
X16401135Y-13310436D02*
X16391611Y-13300912D01*
D13*
X9957500Y-13742000D02*
X9997500Y-13702000D01*
X9957500Y-13662000D01*
X9917500Y-13702000D01*
X9957500Y-13742000D01*
D12*
X10296372Y-13593484D02*
X10315420Y-13593484D01*
X10315420Y-13593484D02*
X10334467Y-13603008D01*
X10334467Y-13603008D02*
X10343991Y-13612531D01*
X10343991Y-13612531D02*
X10353515Y-13631579D01*
X10353515Y-13631579D02*
X10363039Y-13669674D01*
X10363039Y-13669674D02*
X10363039Y-13717293D01*
X10363039Y-13717293D02*
X10353515Y-13755388D01*
X10353515Y-13755388D02*
X10343991Y-13774436D01*
X10343991Y-13774436D02*
X10334467Y-13783960D01*
X10334467Y-13783960D02*
X10315420Y-13793484D01*
X10315420Y-13793484D02*
X10296372Y-13793484D01*
X10296372Y-13793484D02*
X10277324Y-13783960D01*
X10277324Y-13783960D02*
X10267801Y-13774436D01*
X10267801Y-13774436D02*
X10258277Y-13755388D01*
X10258277Y-13755388D02*
X10248753Y-13717293D01*
X10248753Y-13717293D02*
X10248753Y-13669674D01*
X10248753Y-13669674D02*
X10258277Y-13631579D01*
X10258277Y-13631579D02*
X10267801Y-13612531D01*
X10267801Y-13612531D02*
X10277324Y-13603008D01*
X10277324Y-13603008D02*
X10296372Y-13593484D01*
X10448753Y-13774436D02*
X10458277Y-13783960D01*
X10458277Y-13783960D02*
X10448753Y-13793484D01*
X10448753Y-13793484D02*
X10439229Y-13783960D01*
X10439229Y-13783960D02*
X10448753Y-13774436D01*
X10448753Y-13774436D02*
X10448753Y-13793484D01*
X10572563Y-13679198D02*
X10553515Y-13669674D01*
X10553515Y-13669674D02*
X10543991Y-13660150D01*
X10543991Y-13660150D02*
X10534467Y-13641103D01*
X10534467Y-13641103D02*
X10534467Y-13631579D01*
X10534467Y-13631579D02*
X10543991Y-13612531D01*
X10543991Y-13612531D02*
X10553515Y-13603008D01*
X10553515Y-13603008D02*
X10572563Y-13593484D01*
X10572563Y-13593484D02*
X10610658Y-13593484D01*
X10610658Y-13593484D02*
X10629705Y-13603008D01*
X10629705Y-13603008D02*
X10639229Y-13612531D01*
X10639229Y-13612531D02*
X10648753Y-13631579D01*
X10648753Y-13631579D02*
X10648753Y-13641103D01*
X10648753Y-13641103D02*
X10639229Y-13660150D01*
X10639229Y-13660150D02*
X10629705Y-13669674D01*
X10629705Y-13669674D02*
X10610658Y-13679198D01*
X10610658Y-13679198D02*
X10572563Y-13679198D01*
X10572563Y-13679198D02*
X10553515Y-13688722D01*
X10553515Y-13688722D02*
X10543991Y-13698246D01*
X10543991Y-13698246D02*
X10534467Y-13717293D01*
X10534467Y-13717293D02*
X10534467Y-13755388D01*
X10534467Y-13755388D02*
X10543991Y-13774436D01*
X10543991Y-13774436D02*
X10553515Y-13783960D01*
X10553515Y-13783960D02*
X10572563Y-13793484D01*
X10572563Y-13793484D02*
X10610658Y-13793484D01*
X10610658Y-13793484D02*
X10629705Y-13783960D01*
X10629705Y-13783960D02*
X10639229Y-13774436D01*
X10639229Y-13774436D02*
X10648753Y-13755388D01*
X10648753Y-13755388D02*
X10648753Y-13717293D01*
X10648753Y-13717293D02*
X10639229Y-13698246D01*
X10639229Y-13698246D02*
X10629705Y-13688722D01*
X10629705Y-13688722D02*
X10610658Y-13679198D01*
X10772563Y-13593484D02*
X10791610Y-13593484D01*
X10791610Y-13593484D02*
X10810658Y-13603008D01*
X10810658Y-13603008D02*
X10820182Y-13612531D01*
X10820182Y-13612531D02*
X10829705Y-13631579D01*
X10829705Y-13631579D02*
X10839229Y-13669674D01*
X10839229Y-13669674D02*
X10839229Y-13717293D01*
X10839229Y-13717293D02*
X10829705Y-13755388D01*
X10829705Y-13755388D02*
X10820182Y-13774436D01*
X10820182Y-13774436D02*
X10810658Y-13783960D01*
X10810658Y-13783960D02*
X10791610Y-13793484D01*
X10791610Y-13793484D02*
X10772563Y-13793484D01*
X10772563Y-13793484D02*
X10753515Y-13783960D01*
X10753515Y-13783960D02*
X10743991Y-13774436D01*
X10743991Y-13774436D02*
X10734467Y-13755388D01*
X10734467Y-13755388D02*
X10724944Y-13717293D01*
X10724944Y-13717293D02*
X10724944Y-13669674D01*
X10724944Y-13669674D02*
X10734467Y-13631579D01*
X10734467Y-13631579D02*
X10743991Y-13612531D01*
X10743991Y-13612531D02*
X10753515Y-13603008D01*
X10753515Y-13603008D02*
X10772563Y-13593484D01*
X10963039Y-13593484D02*
X10982086Y-13593484D01*
X10982086Y-13593484D02*
X11001134Y-13603008D01*
X11001134Y-13603008D02*
X11010658Y-13612531D01*
X11010658Y-13612531D02*
X11020182Y-13631579D01*
X11020182Y-13631579D02*
X11029705Y-13669674D01*
X11029705Y-13669674D02*
X11029705Y-13717293D01*
X11029705Y-13717293D02*
X11020182Y-13755388D01*
X11020182Y-13755388D02*
X11010658Y-13774436D01*
X11010658Y-13774436D02*
X11001134Y-13783960D01*
X11001134Y-13783960D02*
X10982086Y-13793484D01*
X10982086Y-13793484D02*
X10963039Y-13793484D01*
X10963039Y-13793484D02*
X10943991Y-13783960D01*
X10943991Y-13783960D02*
X10934467Y-13774436D01*
X10934467Y-13774436D02*
X10924944Y-13755388D01*
X10924944Y-13755388D02*
X10915420Y-13717293D01*
X10915420Y-13717293D02*
X10915420Y-13669674D01*
X10915420Y-13669674D02*
X10924944Y-13631579D01*
X10924944Y-13631579D02*
X10934467Y-13612531D01*
X10934467Y-13612531D02*
X10943991Y-13603008D01*
X10943991Y-13603008D02*
X10963039Y-13593484D01*
X11115420Y-13793484D02*
X11115420Y-13660150D01*
X11115420Y-13679198D02*
X11124944Y-13669674D01*
X11124944Y-13669674D02*
X11143991Y-13660150D01*
X11143991Y-13660150D02*
X11172563Y-13660150D01*
X11172563Y-13660150D02*
X11191610Y-13669674D01*
X11191610Y-13669674D02*
X11201134Y-13688722D01*
X11201134Y-13688722D02*
X11201134Y-13793484D01*
X11201134Y-13688722D02*
X11210658Y-13669674D01*
X11210658Y-13669674D02*
X11229705Y-13660150D01*
X11229705Y-13660150D02*
X11258277Y-13660150D01*
X11258277Y-13660150D02*
X11277324Y-13669674D01*
X11277324Y-13669674D02*
X11286848Y-13688722D01*
X11286848Y-13688722D02*
X11286848Y-13793484D01*
X11382086Y-13793484D02*
X11382086Y-13660150D01*
X11382086Y-13679198D02*
X11391610Y-13669674D01*
X11391610Y-13669674D02*
X11410658Y-13660150D01*
X11410658Y-13660150D02*
X11439229Y-13660150D01*
X11439229Y-13660150D02*
X11458277Y-13669674D01*
X11458277Y-13669674D02*
X11467801Y-13688722D01*
X11467801Y-13688722D02*
X11467801Y-13793484D01*
X11467801Y-13688722D02*
X11477324Y-13669674D01*
X11477324Y-13669674D02*
X11496372Y-13660150D01*
X11496372Y-13660150D02*
X11524943Y-13660150D01*
X11524943Y-13660150D02*
X11543991Y-13669674D01*
X11543991Y-13669674D02*
X11553515Y-13688722D01*
X11553515Y-13688722D02*
X11553515Y-13793484D01*
X11943991Y-13583960D02*
X11772563Y-13841103D01*
X12201134Y-13593484D02*
X12220182Y-13593484D01*
X12220182Y-13593484D02*
X12239229Y-13603008D01*
X12239229Y-13603008D02*
X12248753Y-13612531D01*
X12248753Y-13612531D02*
X12258277Y-13631579D01*
X12258277Y-13631579D02*
X12267801Y-13669674D01*
X12267801Y-13669674D02*
X12267801Y-13717293D01*
X12267801Y-13717293D02*
X12258277Y-13755388D01*
X12258277Y-13755388D02*
X12248753Y-13774436D01*
X12248753Y-13774436D02*
X12239229Y-13783960D01*
X12239229Y-13783960D02*
X12220182Y-13793484D01*
X12220182Y-13793484D02*
X12201134Y-13793484D01*
X12201134Y-13793484D02*
X12182086Y-13783960D01*
X12182086Y-13783960D02*
X12172563Y-13774436D01*
X12172563Y-13774436D02*
X12163039Y-13755388D01*
X12163039Y-13755388D02*
X12153515Y-13717293D01*
X12153515Y-13717293D02*
X12153515Y-13669674D01*
X12153515Y-13669674D02*
X12163039Y-13631579D01*
X12163039Y-13631579D02*
X12172563Y-13612531D01*
X12172563Y-13612531D02*
X12182086Y-13603008D01*
X12182086Y-13603008D02*
X12201134Y-13593484D01*
X12353515Y-13774436D02*
X12363039Y-13783960D01*
X12363039Y-13783960D02*
X12353515Y-13793484D01*
X12353515Y-13793484D02*
X12343991Y-13783960D01*
X12343991Y-13783960D02*
X12353515Y-13774436D01*
X12353515Y-13774436D02*
X12353515Y-13793484D01*
X12486848Y-13593484D02*
X12505896Y-13593484D01*
X12505896Y-13593484D02*
X12524944Y-13603008D01*
X12524944Y-13603008D02*
X12534467Y-13612531D01*
X12534467Y-13612531D02*
X12543991Y-13631579D01*
X12543991Y-13631579D02*
X12553515Y-13669674D01*
X12553515Y-13669674D02*
X12553515Y-13717293D01*
X12553515Y-13717293D02*
X12543991Y-13755388D01*
X12543991Y-13755388D02*
X12534467Y-13774436D01*
X12534467Y-13774436D02*
X12524944Y-13783960D01*
X12524944Y-13783960D02*
X12505896Y-13793484D01*
X12505896Y-13793484D02*
X12486848Y-13793484D01*
X12486848Y-13793484D02*
X12467801Y-13783960D01*
X12467801Y-13783960D02*
X12458277Y-13774436D01*
X12458277Y-13774436D02*
X12448753Y-13755388D01*
X12448753Y-13755388D02*
X12439229Y-13717293D01*
X12439229Y-13717293D02*
X12439229Y-13669674D01*
X12439229Y-13669674D02*
X12448753Y-13631579D01*
X12448753Y-13631579D02*
X12458277Y-13612531D01*
X12458277Y-13612531D02*
X12467801Y-13603008D01*
X12467801Y-13603008D02*
X12486848Y-13593484D01*
X12620182Y-13593484D02*
X12743991Y-13593484D01*
X12743991Y-13593484D02*
X12677325Y-13669674D01*
X12677325Y-13669674D02*
X12705896Y-13669674D01*
X12705896Y-13669674D02*
X12724944Y-13679198D01*
X12724944Y-13679198D02*
X12734467Y-13688722D01*
X12734467Y-13688722D02*
X12743991Y-13707769D01*
X12743991Y-13707769D02*
X12743991Y-13755388D01*
X12743991Y-13755388D02*
X12734467Y-13774436D01*
X12734467Y-13774436D02*
X12724944Y-13783960D01*
X12724944Y-13783960D02*
X12705896Y-13793484D01*
X12705896Y-13793484D02*
X12648753Y-13793484D01*
X12648753Y-13793484D02*
X12629706Y-13783960D01*
X12629706Y-13783960D02*
X12620182Y-13774436D01*
X12934467Y-13793484D02*
X12820182Y-13793484D01*
X12877325Y-13793484D02*
X12877325Y-13593484D01*
X12877325Y-13593484D02*
X12858277Y-13622055D01*
X12858277Y-13622055D02*
X12839229Y-13641103D01*
X12839229Y-13641103D02*
X12820182Y-13650627D01*
X13115420Y-13593484D02*
X13020182Y-13593484D01*
X13020182Y-13593484D02*
X13010658Y-13688722D01*
X13010658Y-13688722D02*
X13020182Y-13679198D01*
X13020182Y-13679198D02*
X13039229Y-13669674D01*
X13039229Y-13669674D02*
X13086848Y-13669674D01*
X13086848Y-13669674D02*
X13105896Y-13679198D01*
X13105896Y-13679198D02*
X13115420Y-13688722D01*
X13115420Y-13688722D02*
X13124944Y-13707769D01*
X13124944Y-13707769D02*
X13124944Y-13755388D01*
X13124944Y-13755388D02*
X13115420Y-13774436D01*
X13115420Y-13774436D02*
X13105896Y-13783960D01*
X13105896Y-13783960D02*
X13086848Y-13793484D01*
X13086848Y-13793484D02*
X13039229Y-13793484D01*
X13039229Y-13793484D02*
X13020182Y-13783960D01*
X13020182Y-13783960D02*
X13010658Y-13774436D01*
X13201134Y-13593484D02*
X13201134Y-13631579D01*
X13277325Y-13593484D02*
X13277325Y-13631579D01*
X13572563Y-13869674D02*
X13563039Y-13860150D01*
X13563039Y-13860150D02*
X13543991Y-13831579D01*
X13543991Y-13831579D02*
X13534468Y-13812531D01*
X13534468Y-13812531D02*
X13524944Y-13783960D01*
X13524944Y-13783960D02*
X13515420Y-13736341D01*
X13515420Y-13736341D02*
X13515420Y-13698246D01*
X13515420Y-13698246D02*
X13524944Y-13650627D01*
X13524944Y-13650627D02*
X13534468Y-13622055D01*
X13534468Y-13622055D02*
X13543991Y-13603008D01*
X13543991Y-13603008D02*
X13563039Y-13574436D01*
X13563039Y-13574436D02*
X13572563Y-13564912D01*
X13686848Y-13593484D02*
X13705896Y-13593484D01*
X13705896Y-13593484D02*
X13724944Y-13603008D01*
X13724944Y-13603008D02*
X13734468Y-13612531D01*
X13734468Y-13612531D02*
X13743991Y-13631579D01*
X13743991Y-13631579D02*
X13753515Y-13669674D01*
X13753515Y-13669674D02*
X13753515Y-13717293D01*
X13753515Y-13717293D02*
X13743991Y-13755388D01*
X13743991Y-13755388D02*
X13734468Y-13774436D01*
X13734468Y-13774436D02*
X13724944Y-13783960D01*
X13724944Y-13783960D02*
X13705896Y-13793484D01*
X13705896Y-13793484D02*
X13686848Y-13793484D01*
X13686848Y-13793484D02*
X13667801Y-13783960D01*
X13667801Y-13783960D02*
X13658277Y-13774436D01*
X13658277Y-13774436D02*
X13648753Y-13755388D01*
X13648753Y-13755388D02*
X13639229Y-13717293D01*
X13639229Y-13717293D02*
X13639229Y-13669674D01*
X13639229Y-13669674D02*
X13648753Y-13631579D01*
X13648753Y-13631579D02*
X13658277Y-13612531D01*
X13658277Y-13612531D02*
X13667801Y-13603008D01*
X13667801Y-13603008D02*
X13686848Y-13593484D01*
X13991610Y-13793484D02*
X13991610Y-13593484D01*
X14077325Y-13793484D02*
X14077325Y-13688722D01*
X14077325Y-13688722D02*
X14067801Y-13669674D01*
X14067801Y-13669674D02*
X14048753Y-13660150D01*
X14048753Y-13660150D02*
X14020182Y-13660150D01*
X14020182Y-13660150D02*
X14001134Y-13669674D01*
X14001134Y-13669674D02*
X13991610Y-13679198D01*
X14201134Y-13793484D02*
X14182087Y-13783960D01*
X14182087Y-13783960D02*
X14172563Y-13774436D01*
X14172563Y-13774436D02*
X14163039Y-13755388D01*
X14163039Y-13755388D02*
X14163039Y-13698246D01*
X14163039Y-13698246D02*
X14172563Y-13679198D01*
X14172563Y-13679198D02*
X14182087Y-13669674D01*
X14182087Y-13669674D02*
X14201134Y-13660150D01*
X14201134Y-13660150D02*
X14229706Y-13660150D01*
X14229706Y-13660150D02*
X14248753Y-13669674D01*
X14248753Y-13669674D02*
X14258277Y-13679198D01*
X14258277Y-13679198D02*
X14267801Y-13698246D01*
X14267801Y-13698246D02*
X14267801Y-13755388D01*
X14267801Y-13755388D02*
X14258277Y-13774436D01*
X14258277Y-13774436D02*
X14248753Y-13783960D01*
X14248753Y-13783960D02*
X14229706Y-13793484D01*
X14229706Y-13793484D02*
X14201134Y-13793484D01*
X14382087Y-13793484D02*
X14363039Y-13783960D01*
X14363039Y-13783960D02*
X14353515Y-13764912D01*
X14353515Y-13764912D02*
X14353515Y-13593484D01*
X14534468Y-13783960D02*
X14515420Y-13793484D01*
X14515420Y-13793484D02*
X14477325Y-13793484D01*
X14477325Y-13793484D02*
X14458277Y-13783960D01*
X14458277Y-13783960D02*
X14448753Y-13764912D01*
X14448753Y-13764912D02*
X14448753Y-13688722D01*
X14448753Y-13688722D02*
X14458277Y-13669674D01*
X14458277Y-13669674D02*
X14477325Y-13660150D01*
X14477325Y-13660150D02*
X14515420Y-13660150D01*
X14515420Y-13660150D02*
X14534468Y-13669674D01*
X14534468Y-13669674D02*
X14543991Y-13688722D01*
X14543991Y-13688722D02*
X14543991Y-13707769D01*
X14543991Y-13707769D02*
X14448753Y-13726817D01*
X14620182Y-13783960D02*
X14639230Y-13793484D01*
X14639230Y-13793484D02*
X14677325Y-13793484D01*
X14677325Y-13793484D02*
X14696372Y-13783960D01*
X14696372Y-13783960D02*
X14705896Y-13764912D01*
X14705896Y-13764912D02*
X14705896Y-13755388D01*
X14705896Y-13755388D02*
X14696372Y-13736341D01*
X14696372Y-13736341D02*
X14677325Y-13726817D01*
X14677325Y-13726817D02*
X14648753Y-13726817D01*
X14648753Y-13726817D02*
X14629706Y-13717293D01*
X14629706Y-13717293D02*
X14620182Y-13698246D01*
X14620182Y-13698246D02*
X14620182Y-13688722D01*
X14620182Y-13688722D02*
X14629706Y-13669674D01*
X14629706Y-13669674D02*
X14648753Y-13660150D01*
X14648753Y-13660150D02*
X14677325Y-13660150D01*
X14677325Y-13660150D02*
X14696372Y-13669674D01*
X14943992Y-13717293D02*
X15096373Y-13717293D01*
X15020182Y-13793484D02*
X15020182Y-13641103D01*
X15334468Y-13612531D02*
X15343992Y-13603008D01*
X15343992Y-13603008D02*
X15363039Y-13593484D01*
X15363039Y-13593484D02*
X15410658Y-13593484D01*
X15410658Y-13593484D02*
X15429706Y-13603008D01*
X15429706Y-13603008D02*
X15439230Y-13612531D01*
X15439230Y-13612531D02*
X15448753Y-13631579D01*
X15448753Y-13631579D02*
X15448753Y-13650627D01*
X15448753Y-13650627D02*
X15439230Y-13679198D01*
X15439230Y-13679198D02*
X15324944Y-13793484D01*
X15324944Y-13793484D02*
X15448753Y-13793484D01*
X15677325Y-13783960D02*
X15696373Y-13793484D01*
X15696373Y-13793484D02*
X15734468Y-13793484D01*
X15734468Y-13793484D02*
X15753515Y-13783960D01*
X15753515Y-13783960D02*
X15763039Y-13764912D01*
X15763039Y-13764912D02*
X15763039Y-13755388D01*
X15763039Y-13755388D02*
X15753515Y-13736341D01*
X15753515Y-13736341D02*
X15734468Y-13726817D01*
X15734468Y-13726817D02*
X15705896Y-13726817D01*
X15705896Y-13726817D02*
X15686849Y-13717293D01*
X15686849Y-13717293D02*
X15677325Y-13698246D01*
X15677325Y-13698246D02*
X15677325Y-13688722D01*
X15677325Y-13688722D02*
X15686849Y-13669674D01*
X15686849Y-13669674D02*
X15705896Y-13660150D01*
X15705896Y-13660150D02*
X15734468Y-13660150D01*
X15734468Y-13660150D02*
X15753515Y-13669674D01*
X15877325Y-13793484D02*
X15858277Y-13783960D01*
X15858277Y-13783960D02*
X15848754Y-13764912D01*
X15848754Y-13764912D02*
X15848754Y-13593484D01*
X15982087Y-13793484D02*
X15963039Y-13783960D01*
X15963039Y-13783960D02*
X15953515Y-13774436D01*
X15953515Y-13774436D02*
X15943992Y-13755388D01*
X15943992Y-13755388D02*
X15943992Y-13698246D01*
X15943992Y-13698246D02*
X15953515Y-13679198D01*
X15953515Y-13679198D02*
X15963039Y-13669674D01*
X15963039Y-13669674D02*
X15982087Y-13660150D01*
X15982087Y-13660150D02*
X16010658Y-13660150D01*
X16010658Y-13660150D02*
X16029706Y-13669674D01*
X16029706Y-13669674D02*
X16039230Y-13679198D01*
X16039230Y-13679198D02*
X16048754Y-13698246D01*
X16048754Y-13698246D02*
X16048754Y-13755388D01*
X16048754Y-13755388D02*
X16039230Y-13774436D01*
X16039230Y-13774436D02*
X16029706Y-13783960D01*
X16029706Y-13783960D02*
X16010658Y-13793484D01*
X16010658Y-13793484D02*
X15982087Y-13793484D01*
X16105896Y-13660150D02*
X16182087Y-13660150D01*
X16134468Y-13593484D02*
X16134468Y-13764912D01*
X16134468Y-13764912D02*
X16143992Y-13783960D01*
X16143992Y-13783960D02*
X16163039Y-13793484D01*
X16163039Y-13793484D02*
X16182087Y-13793484D01*
X16239230Y-13783960D02*
X16258277Y-13793484D01*
X16258277Y-13793484D02*
X16296373Y-13793484D01*
X16296373Y-13793484D02*
X16315420Y-13783960D01*
X16315420Y-13783960D02*
X16324944Y-13764912D01*
X16324944Y-13764912D02*
X16324944Y-13755388D01*
X16324944Y-13755388D02*
X16315420Y-13736341D01*
X16315420Y-13736341D02*
X16296373Y-13726817D01*
X16296373Y-13726817D02*
X16267801Y-13726817D01*
X16267801Y-13726817D02*
X16248754Y-13717293D01*
X16248754Y-13717293D02*
X16239230Y-13698246D01*
X16239230Y-13698246D02*
X16239230Y-13688722D01*
X16239230Y-13688722D02*
X16248754Y-13669674D01*
X16248754Y-13669674D02*
X16267801Y-13660150D01*
X16267801Y-13660150D02*
X16296373Y-13660150D01*
X16296373Y-13660150D02*
X16315420Y-13669674D01*
X16391611Y-13869674D02*
X16401135Y-13860150D01*
X16401135Y-13860150D02*
X16420182Y-13831579D01*
X16420182Y-13831579D02*
X16429706Y-13812531D01*
X16429706Y-13812531D02*
X16439230Y-13783960D01*
X16439230Y-13783960D02*
X16448754Y-13736341D01*
X16448754Y-13736341D02*
X16448754Y-13698246D01*
X16448754Y-13698246D02*
X16439230Y-13650627D01*
X16439230Y-13650627D02*
X16429706Y-13622055D01*
X16429706Y-13622055D02*
X16420182Y-13603008D01*
X16420182Y-13603008D02*
X16401135Y-13574436D01*
X16401135Y-13574436D02*
X16391611Y-13564912D01*
D13*
X9897500Y-13916000D02*
X9997500Y-14016000D01*
X9997500Y-13916000D02*
X9897500Y-14016000D01*
X9997500Y-13966000D02*
G75*
G02*
X9897500Y-13966000I-50000J0D01*
G01*
X9897500Y-13966000D02*
G75*
G02*
X9997500Y-13966000I50000J0D01*
G01*
D12*
X10363039Y-14057484D02*
X10248753Y-14057484D01*
X10305896Y-14057484D02*
X10305896Y-13857484D01*
X10305896Y-13857484D02*
X10286848Y-13886055D01*
X10286848Y-13886055D02*
X10267801Y-13905103D01*
X10267801Y-13905103D02*
X10248753Y-13914627D01*
X10448753Y-14038436D02*
X10458277Y-14047960D01*
X10458277Y-14047960D02*
X10448753Y-14057484D01*
X10448753Y-14057484D02*
X10439229Y-14047960D01*
X10439229Y-14047960D02*
X10448753Y-14038436D01*
X10448753Y-14038436D02*
X10448753Y-14057484D01*
X10582086Y-13857484D02*
X10601134Y-13857484D01*
X10601134Y-13857484D02*
X10620182Y-13867008D01*
X10620182Y-13867008D02*
X10629705Y-13876531D01*
X10629705Y-13876531D02*
X10639229Y-13895579D01*
X10639229Y-13895579D02*
X10648753Y-13933674D01*
X10648753Y-13933674D02*
X10648753Y-13981293D01*
X10648753Y-13981293D02*
X10639229Y-14019388D01*
X10639229Y-14019388D02*
X10629705Y-14038436D01*
X10629705Y-14038436D02*
X10620182Y-14047960D01*
X10620182Y-14047960D02*
X10601134Y-14057484D01*
X10601134Y-14057484D02*
X10582086Y-14057484D01*
X10582086Y-14057484D02*
X10563039Y-14047960D01*
X10563039Y-14047960D02*
X10553515Y-14038436D01*
X10553515Y-14038436D02*
X10543991Y-14019388D01*
X10543991Y-14019388D02*
X10534467Y-13981293D01*
X10534467Y-13981293D02*
X10534467Y-13933674D01*
X10534467Y-13933674D02*
X10543991Y-13895579D01*
X10543991Y-13895579D02*
X10553515Y-13876531D01*
X10553515Y-13876531D02*
X10563039Y-13867008D01*
X10563039Y-13867008D02*
X10582086Y-13857484D01*
X10772563Y-13857484D02*
X10791610Y-13857484D01*
X10791610Y-13857484D02*
X10810658Y-13867008D01*
X10810658Y-13867008D02*
X10820182Y-13876531D01*
X10820182Y-13876531D02*
X10829705Y-13895579D01*
X10829705Y-13895579D02*
X10839229Y-13933674D01*
X10839229Y-13933674D02*
X10839229Y-13981293D01*
X10839229Y-13981293D02*
X10829705Y-14019388D01*
X10829705Y-14019388D02*
X10820182Y-14038436D01*
X10820182Y-14038436D02*
X10810658Y-14047960D01*
X10810658Y-14047960D02*
X10791610Y-14057484D01*
X10791610Y-14057484D02*
X10772563Y-14057484D01*
X10772563Y-14057484D02*
X10753515Y-14047960D01*
X10753515Y-14047960D02*
X10743991Y-14038436D01*
X10743991Y-14038436D02*
X10734467Y-14019388D01*
X10734467Y-14019388D02*
X10724944Y-13981293D01*
X10724944Y-13981293D02*
X10724944Y-13933674D01*
X10724944Y-13933674D02*
X10734467Y-13895579D01*
X10734467Y-13895579D02*
X10743991Y-13876531D01*
X10743991Y-13876531D02*
X10753515Y-13867008D01*
X10753515Y-13867008D02*
X10772563Y-13857484D01*
X10963039Y-13857484D02*
X10982086Y-13857484D01*
X10982086Y-13857484D02*
X11001134Y-13867008D01*
X11001134Y-13867008D02*
X11010658Y-13876531D01*
X11010658Y-13876531D02*
X11020182Y-13895579D01*
X11020182Y-13895579D02*
X11029705Y-13933674D01*
X11029705Y-13933674D02*
X11029705Y-13981293D01*
X11029705Y-13981293D02*
X11020182Y-14019388D01*
X11020182Y-14019388D02*
X11010658Y-14038436D01*
X11010658Y-14038436D02*
X11001134Y-14047960D01*
X11001134Y-14047960D02*
X10982086Y-14057484D01*
X10982086Y-14057484D02*
X10963039Y-14057484D01*
X10963039Y-14057484D02*
X10943991Y-14047960D01*
X10943991Y-14047960D02*
X10934467Y-14038436D01*
X10934467Y-14038436D02*
X10924944Y-14019388D01*
X10924944Y-14019388D02*
X10915420Y-13981293D01*
X10915420Y-13981293D02*
X10915420Y-13933674D01*
X10915420Y-13933674D02*
X10924944Y-13895579D01*
X10924944Y-13895579D02*
X10934467Y-13876531D01*
X10934467Y-13876531D02*
X10943991Y-13867008D01*
X10943991Y-13867008D02*
X10963039Y-13857484D01*
X11115420Y-14057484D02*
X11115420Y-13924150D01*
X11115420Y-13943198D02*
X11124944Y-13933674D01*
X11124944Y-13933674D02*
X11143991Y-13924150D01*
X11143991Y-13924150D02*
X11172563Y-13924150D01*
X11172563Y-13924150D02*
X11191610Y-13933674D01*
X11191610Y-13933674D02*
X11201134Y-13952722D01*
X11201134Y-13952722D02*
X11201134Y-14057484D01*
X11201134Y-13952722D02*
X11210658Y-13933674D01*
X11210658Y-13933674D02*
X11229705Y-13924150D01*
X11229705Y-13924150D02*
X11258277Y-13924150D01*
X11258277Y-13924150D02*
X11277324Y-13933674D01*
X11277324Y-13933674D02*
X11286848Y-13952722D01*
X11286848Y-13952722D02*
X11286848Y-14057484D01*
X11382086Y-14057484D02*
X11382086Y-13924150D01*
X11382086Y-13943198D02*
X11391610Y-13933674D01*
X11391610Y-13933674D02*
X11410658Y-13924150D01*
X11410658Y-13924150D02*
X11439229Y-13924150D01*
X11439229Y-13924150D02*
X11458277Y-13933674D01*
X11458277Y-13933674D02*
X11467801Y-13952722D01*
X11467801Y-13952722D02*
X11467801Y-14057484D01*
X11467801Y-13952722D02*
X11477324Y-13933674D01*
X11477324Y-13933674D02*
X11496372Y-13924150D01*
X11496372Y-13924150D02*
X11524943Y-13924150D01*
X11524943Y-13924150D02*
X11543991Y-13933674D01*
X11543991Y-13933674D02*
X11553515Y-13952722D01*
X11553515Y-13952722D02*
X11553515Y-14057484D01*
X11943991Y-13847960D02*
X11772563Y-14105103D01*
X12201134Y-13857484D02*
X12220182Y-13857484D01*
X12220182Y-13857484D02*
X12239229Y-13867008D01*
X12239229Y-13867008D02*
X12248753Y-13876531D01*
X12248753Y-13876531D02*
X12258277Y-13895579D01*
X12258277Y-13895579D02*
X12267801Y-13933674D01*
X12267801Y-13933674D02*
X12267801Y-13981293D01*
X12267801Y-13981293D02*
X12258277Y-14019388D01*
X12258277Y-14019388D02*
X12248753Y-14038436D01*
X12248753Y-14038436D02*
X12239229Y-14047960D01*
X12239229Y-14047960D02*
X12220182Y-14057484D01*
X12220182Y-14057484D02*
X12201134Y-14057484D01*
X12201134Y-14057484D02*
X12182086Y-14047960D01*
X12182086Y-14047960D02*
X12172563Y-14038436D01*
X12172563Y-14038436D02*
X12163039Y-14019388D01*
X12163039Y-14019388D02*
X12153515Y-13981293D01*
X12153515Y-13981293D02*
X12153515Y-13933674D01*
X12153515Y-13933674D02*
X12163039Y-13895579D01*
X12163039Y-13895579D02*
X12172563Y-13876531D01*
X12172563Y-13876531D02*
X12182086Y-13867008D01*
X12182086Y-13867008D02*
X12201134Y-13857484D01*
X12353515Y-14038436D02*
X12363039Y-14047960D01*
X12363039Y-14047960D02*
X12353515Y-14057484D01*
X12353515Y-14057484D02*
X12343991Y-14047960D01*
X12343991Y-14047960D02*
X12353515Y-14038436D01*
X12353515Y-14038436D02*
X12353515Y-14057484D01*
X12486848Y-13857484D02*
X12505896Y-13857484D01*
X12505896Y-13857484D02*
X12524944Y-13867008D01*
X12524944Y-13867008D02*
X12534467Y-13876531D01*
X12534467Y-13876531D02*
X12543991Y-13895579D01*
X12543991Y-13895579D02*
X12553515Y-13933674D01*
X12553515Y-13933674D02*
X12553515Y-13981293D01*
X12553515Y-13981293D02*
X12543991Y-14019388D01*
X12543991Y-14019388D02*
X12534467Y-14038436D01*
X12534467Y-14038436D02*
X12524944Y-14047960D01*
X12524944Y-14047960D02*
X12505896Y-14057484D01*
X12505896Y-14057484D02*
X12486848Y-14057484D01*
X12486848Y-14057484D02*
X12467801Y-14047960D01*
X12467801Y-14047960D02*
X12458277Y-14038436D01*
X12458277Y-14038436D02*
X12448753Y-14019388D01*
X12448753Y-14019388D02*
X12439229Y-13981293D01*
X12439229Y-13981293D02*
X12439229Y-13933674D01*
X12439229Y-13933674D02*
X12448753Y-13895579D01*
X12448753Y-13895579D02*
X12458277Y-13876531D01*
X12458277Y-13876531D02*
X12467801Y-13867008D01*
X12467801Y-13867008D02*
X12486848Y-13857484D01*
X12620182Y-13857484D02*
X12743991Y-13857484D01*
X12743991Y-13857484D02*
X12677325Y-13933674D01*
X12677325Y-13933674D02*
X12705896Y-13933674D01*
X12705896Y-13933674D02*
X12724944Y-13943198D01*
X12724944Y-13943198D02*
X12734467Y-13952722D01*
X12734467Y-13952722D02*
X12743991Y-13971769D01*
X12743991Y-13971769D02*
X12743991Y-14019388D01*
X12743991Y-14019388D02*
X12734467Y-14038436D01*
X12734467Y-14038436D02*
X12724944Y-14047960D01*
X12724944Y-14047960D02*
X12705896Y-14057484D01*
X12705896Y-14057484D02*
X12648753Y-14057484D01*
X12648753Y-14057484D02*
X12629706Y-14047960D01*
X12629706Y-14047960D02*
X12620182Y-14038436D01*
X12839229Y-14057484D02*
X12877325Y-14057484D01*
X12877325Y-14057484D02*
X12896372Y-14047960D01*
X12896372Y-14047960D02*
X12905896Y-14038436D01*
X12905896Y-14038436D02*
X12924944Y-14009865D01*
X12924944Y-14009865D02*
X12934467Y-13971769D01*
X12934467Y-13971769D02*
X12934467Y-13895579D01*
X12934467Y-13895579D02*
X12924944Y-13876531D01*
X12924944Y-13876531D02*
X12915420Y-13867008D01*
X12915420Y-13867008D02*
X12896372Y-13857484D01*
X12896372Y-13857484D02*
X12858277Y-13857484D01*
X12858277Y-13857484D02*
X12839229Y-13867008D01*
X12839229Y-13867008D02*
X12829706Y-13876531D01*
X12829706Y-13876531D02*
X12820182Y-13895579D01*
X12820182Y-13895579D02*
X12820182Y-13943198D01*
X12820182Y-13943198D02*
X12829706Y-13962246D01*
X12829706Y-13962246D02*
X12839229Y-13971769D01*
X12839229Y-13971769D02*
X12858277Y-13981293D01*
X12858277Y-13981293D02*
X12896372Y-13981293D01*
X12896372Y-13981293D02*
X12915420Y-13971769D01*
X12915420Y-13971769D02*
X12924944Y-13962246D01*
X12924944Y-13962246D02*
X12934467Y-13943198D01*
X13105896Y-13924150D02*
X13105896Y-14057484D01*
X13058277Y-13847960D02*
X13010658Y-13990817D01*
X13010658Y-13990817D02*
X13134467Y-13990817D01*
X13201134Y-13857484D02*
X13201134Y-13895579D01*
X13277325Y-13857484D02*
X13277325Y-13895579D01*
X13572563Y-14133674D02*
X13563039Y-14124150D01*
X13563039Y-14124150D02*
X13543991Y-14095579D01*
X13543991Y-14095579D02*
X13534468Y-14076531D01*
X13534468Y-14076531D02*
X13524944Y-14047960D01*
X13524944Y-14047960D02*
X13515420Y-14000341D01*
X13515420Y-14000341D02*
X13515420Y-13962246D01*
X13515420Y-13962246D02*
X13524944Y-13914627D01*
X13524944Y-13914627D02*
X13534468Y-13886055D01*
X13534468Y-13886055D02*
X13543991Y-13867008D01*
X13543991Y-13867008D02*
X13563039Y-13838436D01*
X13563039Y-13838436D02*
X13572563Y-13828912D01*
X13639229Y-13876531D02*
X13648753Y-13867008D01*
X13648753Y-13867008D02*
X13667801Y-13857484D01*
X13667801Y-13857484D02*
X13715420Y-13857484D01*
X13715420Y-13857484D02*
X13734468Y-13867008D01*
X13734468Y-13867008D02*
X13743991Y-13876531D01*
X13743991Y-13876531D02*
X13753515Y-13895579D01*
X13753515Y-13895579D02*
X13753515Y-13914627D01*
X13753515Y-13914627D02*
X13743991Y-13943198D01*
X13743991Y-13943198D02*
X13629706Y-14057484D01*
X13629706Y-14057484D02*
X13753515Y-14057484D01*
X13820182Y-13857484D02*
X13943991Y-13857484D01*
X13943991Y-13857484D02*
X13877325Y-13933674D01*
X13877325Y-13933674D02*
X13905896Y-13933674D01*
X13905896Y-13933674D02*
X13924944Y-13943198D01*
X13924944Y-13943198D02*
X13934468Y-13952722D01*
X13934468Y-13952722D02*
X13943991Y-13971769D01*
X13943991Y-13971769D02*
X13943991Y-14019388D01*
X13943991Y-14019388D02*
X13934468Y-14038436D01*
X13934468Y-14038436D02*
X13924944Y-14047960D01*
X13924944Y-14047960D02*
X13905896Y-14057484D01*
X13905896Y-14057484D02*
X13848753Y-14057484D01*
X13848753Y-14057484D02*
X13829706Y-14047960D01*
X13829706Y-14047960D02*
X13820182Y-14038436D01*
X14182087Y-14057484D02*
X14182087Y-13857484D01*
X14267801Y-14057484D02*
X14267801Y-13952722D01*
X14267801Y-13952722D02*
X14258277Y-13933674D01*
X14258277Y-13933674D02*
X14239230Y-13924150D01*
X14239230Y-13924150D02*
X14210658Y-13924150D01*
X14210658Y-13924150D02*
X14191610Y-13933674D01*
X14191610Y-13933674D02*
X14182087Y-13943198D01*
X14391610Y-14057484D02*
X14372563Y-14047960D01*
X14372563Y-14047960D02*
X14363039Y-14038436D01*
X14363039Y-14038436D02*
X14353515Y-14019388D01*
X14353515Y-14019388D02*
X14353515Y-13962246D01*
X14353515Y-13962246D02*
X14363039Y-13943198D01*
X14363039Y-13943198D02*
X14372563Y-13933674D01*
X14372563Y-13933674D02*
X14391610Y-13924150D01*
X14391610Y-13924150D02*
X14420182Y-13924150D01*
X14420182Y-13924150D02*
X14439230Y-13933674D01*
X14439230Y-13933674D02*
X14448753Y-13943198D01*
X14448753Y-13943198D02*
X14458277Y-13962246D01*
X14458277Y-13962246D02*
X14458277Y-14019388D01*
X14458277Y-14019388D02*
X14448753Y-14038436D01*
X14448753Y-14038436D02*
X14439230Y-14047960D01*
X14439230Y-14047960D02*
X14420182Y-14057484D01*
X14420182Y-14057484D02*
X14391610Y-14057484D01*
X14572563Y-14057484D02*
X14553515Y-14047960D01*
X14553515Y-14047960D02*
X14543991Y-14028912D01*
X14543991Y-14028912D02*
X14543991Y-13857484D01*
X14724944Y-14047960D02*
X14705896Y-14057484D01*
X14705896Y-14057484D02*
X14667801Y-14057484D01*
X14667801Y-14057484D02*
X14648753Y-14047960D01*
X14648753Y-14047960D02*
X14639230Y-14028912D01*
X14639230Y-14028912D02*
X14639230Y-13952722D01*
X14639230Y-13952722D02*
X14648753Y-13933674D01*
X14648753Y-13933674D02*
X14667801Y-13924150D01*
X14667801Y-13924150D02*
X14705896Y-13924150D01*
X14705896Y-13924150D02*
X14724944Y-13933674D01*
X14724944Y-13933674D02*
X14734468Y-13952722D01*
X14734468Y-13952722D02*
X14734468Y-13971769D01*
X14734468Y-13971769D02*
X14639230Y-13990817D01*
X14810658Y-14047960D02*
X14829706Y-14057484D01*
X14829706Y-14057484D02*
X14867801Y-14057484D01*
X14867801Y-14057484D02*
X14886849Y-14047960D01*
X14886849Y-14047960D02*
X14896372Y-14028912D01*
X14896372Y-14028912D02*
X14896372Y-14019388D01*
X14896372Y-14019388D02*
X14886849Y-14000341D01*
X14886849Y-14000341D02*
X14867801Y-13990817D01*
X14867801Y-13990817D02*
X14839230Y-13990817D01*
X14839230Y-13990817D02*
X14820182Y-13981293D01*
X14820182Y-13981293D02*
X14810658Y-13962246D01*
X14810658Y-13962246D02*
X14810658Y-13952722D01*
X14810658Y-13952722D02*
X14820182Y-13933674D01*
X14820182Y-13933674D02*
X14839230Y-13924150D01*
X14839230Y-13924150D02*
X14867801Y-13924150D01*
X14867801Y-13924150D02*
X14886849Y-13933674D01*
X14963039Y-14133674D02*
X14972563Y-14124150D01*
X14972563Y-14124150D02*
X14991611Y-14095579D01*
X14991611Y-14095579D02*
X15001134Y-14076531D01*
X15001134Y-14076531D02*
X15010658Y-14047960D01*
X15010658Y-14047960D02*
X15020182Y-14000341D01*
X15020182Y-14000341D02*
X15020182Y-13962246D01*
X15020182Y-13962246D02*
X15010658Y-13914627D01*
X15010658Y-13914627D02*
X15001134Y-13886055D01*
X15001134Y-13886055D02*
X14991611Y-13867008D01*
X14991611Y-13867008D02*
X14972563Y-13838436D01*
X14972563Y-13838436D02*
X14963039Y-13828912D01*
D14*
X9867500Y-14165000D02*
X9997500Y-14295000D01*
X9997500Y-14165000D02*
X9867500Y-14295000D01*
X9932500Y-14165000D02*
X9932500Y-14295000D01*
X9867500Y-14230000D02*
X9997500Y-14230000D01*
D12*
X10363039Y-14321484D02*
X10248753Y-14321484D01*
X10305896Y-14321484D02*
X10305896Y-14121484D01*
X10305896Y-14121484D02*
X10286848Y-14150055D01*
X10286848Y-14150055D02*
X10267801Y-14169103D01*
X10267801Y-14169103D02*
X10248753Y-14178627D01*
X10448753Y-14302436D02*
X10458277Y-14311960D01*
X10458277Y-14311960D02*
X10448753Y-14321484D01*
X10448753Y-14321484D02*
X10439229Y-14311960D01*
X10439229Y-14311960D02*
X10448753Y-14302436D01*
X10448753Y-14302436D02*
X10448753Y-14321484D01*
X10524944Y-14121484D02*
X10648753Y-14121484D01*
X10648753Y-14121484D02*
X10582086Y-14197674D01*
X10582086Y-14197674D02*
X10610658Y-14197674D01*
X10610658Y-14197674D02*
X10629705Y-14207198D01*
X10629705Y-14207198D02*
X10639229Y-14216722D01*
X10639229Y-14216722D02*
X10648753Y-14235769D01*
X10648753Y-14235769D02*
X10648753Y-14283388D01*
X10648753Y-14283388D02*
X10639229Y-14302436D01*
X10639229Y-14302436D02*
X10629705Y-14311960D01*
X10629705Y-14311960D02*
X10610658Y-14321484D01*
X10610658Y-14321484D02*
X10553515Y-14321484D01*
X10553515Y-14321484D02*
X10534467Y-14311960D01*
X10534467Y-14311960D02*
X10524944Y-14302436D01*
X10772563Y-14121484D02*
X10791610Y-14121484D01*
X10791610Y-14121484D02*
X10810658Y-14131008D01*
X10810658Y-14131008D02*
X10820182Y-14140531D01*
X10820182Y-14140531D02*
X10829705Y-14159579D01*
X10829705Y-14159579D02*
X10839229Y-14197674D01*
X10839229Y-14197674D02*
X10839229Y-14245293D01*
X10839229Y-14245293D02*
X10829705Y-14283388D01*
X10829705Y-14283388D02*
X10820182Y-14302436D01*
X10820182Y-14302436D02*
X10810658Y-14311960D01*
X10810658Y-14311960D02*
X10791610Y-14321484D01*
X10791610Y-14321484D02*
X10772563Y-14321484D01*
X10772563Y-14321484D02*
X10753515Y-14311960D01*
X10753515Y-14311960D02*
X10743991Y-14302436D01*
X10743991Y-14302436D02*
X10734467Y-14283388D01*
X10734467Y-14283388D02*
X10724944Y-14245293D01*
X10724944Y-14245293D02*
X10724944Y-14197674D01*
X10724944Y-14197674D02*
X10734467Y-14159579D01*
X10734467Y-14159579D02*
X10743991Y-14140531D01*
X10743991Y-14140531D02*
X10753515Y-14131008D01*
X10753515Y-14131008D02*
X10772563Y-14121484D01*
X10963039Y-14121484D02*
X10982086Y-14121484D01*
X10982086Y-14121484D02*
X11001134Y-14131008D01*
X11001134Y-14131008D02*
X11010658Y-14140531D01*
X11010658Y-14140531D02*
X11020182Y-14159579D01*
X11020182Y-14159579D02*
X11029705Y-14197674D01*
X11029705Y-14197674D02*
X11029705Y-14245293D01*
X11029705Y-14245293D02*
X11020182Y-14283388D01*
X11020182Y-14283388D02*
X11010658Y-14302436D01*
X11010658Y-14302436D02*
X11001134Y-14311960D01*
X11001134Y-14311960D02*
X10982086Y-14321484D01*
X10982086Y-14321484D02*
X10963039Y-14321484D01*
X10963039Y-14321484D02*
X10943991Y-14311960D01*
X10943991Y-14311960D02*
X10934467Y-14302436D01*
X10934467Y-14302436D02*
X10924944Y-14283388D01*
X10924944Y-14283388D02*
X10915420Y-14245293D01*
X10915420Y-14245293D02*
X10915420Y-14197674D01*
X10915420Y-14197674D02*
X10924944Y-14159579D01*
X10924944Y-14159579D02*
X10934467Y-14140531D01*
X10934467Y-14140531D02*
X10943991Y-14131008D01*
X10943991Y-14131008D02*
X10963039Y-14121484D01*
X11115420Y-14321484D02*
X11115420Y-14188150D01*
X11115420Y-14207198D02*
X11124944Y-14197674D01*
X11124944Y-14197674D02*
X11143991Y-14188150D01*
X11143991Y-14188150D02*
X11172563Y-14188150D01*
X11172563Y-14188150D02*
X11191610Y-14197674D01*
X11191610Y-14197674D02*
X11201134Y-14216722D01*
X11201134Y-14216722D02*
X11201134Y-14321484D01*
X11201134Y-14216722D02*
X11210658Y-14197674D01*
X11210658Y-14197674D02*
X11229705Y-14188150D01*
X11229705Y-14188150D02*
X11258277Y-14188150D01*
X11258277Y-14188150D02*
X11277324Y-14197674D01*
X11277324Y-14197674D02*
X11286848Y-14216722D01*
X11286848Y-14216722D02*
X11286848Y-14321484D01*
X11382086Y-14321484D02*
X11382086Y-14188150D01*
X11382086Y-14207198D02*
X11391610Y-14197674D01*
X11391610Y-14197674D02*
X11410658Y-14188150D01*
X11410658Y-14188150D02*
X11439229Y-14188150D01*
X11439229Y-14188150D02*
X11458277Y-14197674D01*
X11458277Y-14197674D02*
X11467801Y-14216722D01*
X11467801Y-14216722D02*
X11467801Y-14321484D01*
X11467801Y-14216722D02*
X11477324Y-14197674D01*
X11477324Y-14197674D02*
X11496372Y-14188150D01*
X11496372Y-14188150D02*
X11524943Y-14188150D01*
X11524943Y-14188150D02*
X11543991Y-14197674D01*
X11543991Y-14197674D02*
X11553515Y-14216722D01*
X11553515Y-14216722D02*
X11553515Y-14321484D01*
X11943991Y-14111960D02*
X11772563Y-14369103D01*
X12201134Y-14121484D02*
X12220182Y-14121484D01*
X12220182Y-14121484D02*
X12239229Y-14131008D01*
X12239229Y-14131008D02*
X12248753Y-14140531D01*
X12248753Y-14140531D02*
X12258277Y-14159579D01*
X12258277Y-14159579D02*
X12267801Y-14197674D01*
X12267801Y-14197674D02*
X12267801Y-14245293D01*
X12267801Y-14245293D02*
X12258277Y-14283388D01*
X12258277Y-14283388D02*
X12248753Y-14302436D01*
X12248753Y-14302436D02*
X12239229Y-14311960D01*
X12239229Y-14311960D02*
X12220182Y-14321484D01*
X12220182Y-14321484D02*
X12201134Y-14321484D01*
X12201134Y-14321484D02*
X12182086Y-14311960D01*
X12182086Y-14311960D02*
X12172563Y-14302436D01*
X12172563Y-14302436D02*
X12163039Y-14283388D01*
X12163039Y-14283388D02*
X12153515Y-14245293D01*
X12153515Y-14245293D02*
X12153515Y-14197674D01*
X12153515Y-14197674D02*
X12163039Y-14159579D01*
X12163039Y-14159579D02*
X12172563Y-14140531D01*
X12172563Y-14140531D02*
X12182086Y-14131008D01*
X12182086Y-14131008D02*
X12201134Y-14121484D01*
X12353515Y-14302436D02*
X12363039Y-14311960D01*
X12363039Y-14311960D02*
X12353515Y-14321484D01*
X12353515Y-14321484D02*
X12343991Y-14311960D01*
X12343991Y-14311960D02*
X12353515Y-14302436D01*
X12353515Y-14302436D02*
X12353515Y-14321484D01*
X12486848Y-14121484D02*
X12505896Y-14121484D01*
X12505896Y-14121484D02*
X12524944Y-14131008D01*
X12524944Y-14131008D02*
X12534467Y-14140531D01*
X12534467Y-14140531D02*
X12543991Y-14159579D01*
X12543991Y-14159579D02*
X12553515Y-14197674D01*
X12553515Y-14197674D02*
X12553515Y-14245293D01*
X12553515Y-14245293D02*
X12543991Y-14283388D01*
X12543991Y-14283388D02*
X12534467Y-14302436D01*
X12534467Y-14302436D02*
X12524944Y-14311960D01*
X12524944Y-14311960D02*
X12505896Y-14321484D01*
X12505896Y-14321484D02*
X12486848Y-14321484D01*
X12486848Y-14321484D02*
X12467801Y-14311960D01*
X12467801Y-14311960D02*
X12458277Y-14302436D01*
X12458277Y-14302436D02*
X12448753Y-14283388D01*
X12448753Y-14283388D02*
X12439229Y-14245293D01*
X12439229Y-14245293D02*
X12439229Y-14197674D01*
X12439229Y-14197674D02*
X12448753Y-14159579D01*
X12448753Y-14159579D02*
X12458277Y-14140531D01*
X12458277Y-14140531D02*
X12467801Y-14131008D01*
X12467801Y-14131008D02*
X12486848Y-14121484D01*
X12734467Y-14121484D02*
X12639229Y-14121484D01*
X12639229Y-14121484D02*
X12629706Y-14216722D01*
X12629706Y-14216722D02*
X12639229Y-14207198D01*
X12639229Y-14207198D02*
X12658277Y-14197674D01*
X12658277Y-14197674D02*
X12705896Y-14197674D01*
X12705896Y-14197674D02*
X12724944Y-14207198D01*
X12724944Y-14207198D02*
X12734467Y-14216722D01*
X12734467Y-14216722D02*
X12743991Y-14235769D01*
X12743991Y-14235769D02*
X12743991Y-14283388D01*
X12743991Y-14283388D02*
X12734467Y-14302436D01*
X12734467Y-14302436D02*
X12724944Y-14311960D01*
X12724944Y-14311960D02*
X12705896Y-14321484D01*
X12705896Y-14321484D02*
X12658277Y-14321484D01*
X12658277Y-14321484D02*
X12639229Y-14311960D01*
X12639229Y-14311960D02*
X12629706Y-14302436D01*
X12934467Y-14321484D02*
X12820182Y-14321484D01*
X12877325Y-14321484D02*
X12877325Y-14121484D01*
X12877325Y-14121484D02*
X12858277Y-14150055D01*
X12858277Y-14150055D02*
X12839229Y-14169103D01*
X12839229Y-14169103D02*
X12820182Y-14178627D01*
X13010658Y-14140531D02*
X13020182Y-14131008D01*
X13020182Y-14131008D02*
X13039229Y-14121484D01*
X13039229Y-14121484D02*
X13086848Y-14121484D01*
X13086848Y-14121484D02*
X13105896Y-14131008D01*
X13105896Y-14131008D02*
X13115420Y-14140531D01*
X13115420Y-14140531D02*
X13124944Y-14159579D01*
X13124944Y-14159579D02*
X13124944Y-14178627D01*
X13124944Y-14178627D02*
X13115420Y-14207198D01*
X13115420Y-14207198D02*
X13001134Y-14321484D01*
X13001134Y-14321484D02*
X13124944Y-14321484D01*
X13201134Y-14121484D02*
X13201134Y-14159579D01*
X13277325Y-14121484D02*
X13277325Y-14159579D01*
X13572563Y-14397674D02*
X13563039Y-14388150D01*
X13563039Y-14388150D02*
X13543991Y-14359579D01*
X13543991Y-14359579D02*
X13534468Y-14340531D01*
X13534468Y-14340531D02*
X13524944Y-14311960D01*
X13524944Y-14311960D02*
X13515420Y-14264341D01*
X13515420Y-14264341D02*
X13515420Y-14226246D01*
X13515420Y-14226246D02*
X13524944Y-14178627D01*
X13524944Y-14178627D02*
X13534468Y-14150055D01*
X13534468Y-14150055D02*
X13543991Y-14131008D01*
X13543991Y-14131008D02*
X13563039Y-14102436D01*
X13563039Y-14102436D02*
X13572563Y-14092912D01*
X13639229Y-14140531D02*
X13648753Y-14131008D01*
X13648753Y-14131008D02*
X13667801Y-14121484D01*
X13667801Y-14121484D02*
X13715420Y-14121484D01*
X13715420Y-14121484D02*
X13734468Y-14131008D01*
X13734468Y-14131008D02*
X13743991Y-14140531D01*
X13743991Y-14140531D02*
X13753515Y-14159579D01*
X13753515Y-14159579D02*
X13753515Y-14178627D01*
X13753515Y-14178627D02*
X13743991Y-14207198D01*
X13743991Y-14207198D02*
X13629706Y-14321484D01*
X13629706Y-14321484D02*
X13753515Y-14321484D01*
X13991610Y-14321484D02*
X13991610Y-14121484D01*
X14077325Y-14321484D02*
X14077325Y-14216722D01*
X14077325Y-14216722D02*
X14067801Y-14197674D01*
X14067801Y-14197674D02*
X14048753Y-14188150D01*
X14048753Y-14188150D02*
X14020182Y-14188150D01*
X14020182Y-14188150D02*
X14001134Y-14197674D01*
X14001134Y-14197674D02*
X13991610Y-14207198D01*
X14201134Y-14321484D02*
X14182087Y-14311960D01*
X14182087Y-14311960D02*
X14172563Y-14302436D01*
X14172563Y-14302436D02*
X14163039Y-14283388D01*
X14163039Y-14283388D02*
X14163039Y-14226246D01*
X14163039Y-14226246D02*
X14172563Y-14207198D01*
X14172563Y-14207198D02*
X14182087Y-14197674D01*
X14182087Y-14197674D02*
X14201134Y-14188150D01*
X14201134Y-14188150D02*
X14229706Y-14188150D01*
X14229706Y-14188150D02*
X14248753Y-14197674D01*
X14248753Y-14197674D02*
X14258277Y-14207198D01*
X14258277Y-14207198D02*
X14267801Y-14226246D01*
X14267801Y-14226246D02*
X14267801Y-14283388D01*
X14267801Y-14283388D02*
X14258277Y-14302436D01*
X14258277Y-14302436D02*
X14248753Y-14311960D01*
X14248753Y-14311960D02*
X14229706Y-14321484D01*
X14229706Y-14321484D02*
X14201134Y-14321484D01*
X14382087Y-14321484D02*
X14363039Y-14311960D01*
X14363039Y-14311960D02*
X14353515Y-14292912D01*
X14353515Y-14292912D02*
X14353515Y-14121484D01*
X14534468Y-14311960D02*
X14515420Y-14321484D01*
X14515420Y-14321484D02*
X14477325Y-14321484D01*
X14477325Y-14321484D02*
X14458277Y-14311960D01*
X14458277Y-14311960D02*
X14448753Y-14292912D01*
X14448753Y-14292912D02*
X14448753Y-14216722D01*
X14448753Y-14216722D02*
X14458277Y-14197674D01*
X14458277Y-14197674D02*
X14477325Y-14188150D01*
X14477325Y-14188150D02*
X14515420Y-14188150D01*
X14515420Y-14188150D02*
X14534468Y-14197674D01*
X14534468Y-14197674D02*
X14543991Y-14216722D01*
X14543991Y-14216722D02*
X14543991Y-14235769D01*
X14543991Y-14235769D02*
X14448753Y-14254817D01*
X14620182Y-14311960D02*
X14639230Y-14321484D01*
X14639230Y-14321484D02*
X14677325Y-14321484D01*
X14677325Y-14321484D02*
X14696372Y-14311960D01*
X14696372Y-14311960D02*
X14705896Y-14292912D01*
X14705896Y-14292912D02*
X14705896Y-14283388D01*
X14705896Y-14283388D02*
X14696372Y-14264341D01*
X14696372Y-14264341D02*
X14677325Y-14254817D01*
X14677325Y-14254817D02*
X14648753Y-14254817D01*
X14648753Y-14254817D02*
X14629706Y-14245293D01*
X14629706Y-14245293D02*
X14620182Y-14226246D01*
X14620182Y-14226246D02*
X14620182Y-14216722D01*
X14620182Y-14216722D02*
X14629706Y-14197674D01*
X14629706Y-14197674D02*
X14648753Y-14188150D01*
X14648753Y-14188150D02*
X14677325Y-14188150D01*
X14677325Y-14188150D02*
X14696372Y-14197674D01*
X14772563Y-14397674D02*
X14782087Y-14388150D01*
X14782087Y-14388150D02*
X14801134Y-14359579D01*
X14801134Y-14359579D02*
X14810658Y-14340531D01*
X14810658Y-14340531D02*
X14820182Y-14311960D01*
X14820182Y-14311960D02*
X14829706Y-14264341D01*
X14829706Y-14264341D02*
X14829706Y-14226246D01*
X14829706Y-14226246D02*
X14820182Y-14178627D01*
X14820182Y-14178627D02*
X14810658Y-14150055D01*
X14810658Y-14150055D02*
X14801134Y-14131008D01*
X14801134Y-14131008D02*
X14782087Y-14102436D01*
X14782087Y-14102436D02*
X14772563Y-14092912D01*
M02*
